<svg xmlns="http://www.w3.org/2000/svg" xmlns:xlink="http://www.w3.org/1999/xlink" width="2000" zoomAndPan="magnify" viewBox="0 0 1500 225" height="300" preserveAspectRatio="xMidYMid meet" version="1.0"><defs><g/></defs><g fill="#737373" fill-opacity="1"><g transform="translate(1.120605, 167.878059)"><g><path d="M 175.046875 -4.84375 C 177.460938 -4.3125 178.601562 -3.300781 178.46875 -1.8125 C 178.34375 -0.332031 178.210938 0.40625 178.078125 0.40625 C 176.722656 0.40625 175.101562 0.335938 173.21875 0.203125 C 171.332031 0.0664062 169.648438 0 168.171875 0 L 140.671875 0 C 138.921875 0 136.867188 0.0664062 134.515625 0.203125 C 132.160156 0.335938 130.238281 0.40625 128.75 0.40625 C 128.613281 0.40625 128.441406 0.0351562 128.234375 -0.703125 C 128.035156 -1.441406 128.171875 -2.21875 128.640625 -3.03125 C 129.117188 -3.84375 130.300781 -4.445312 132.1875 -4.84375 C 136.90625 -5.65625 140.207031 -6.800781 142.09375 -8.28125 C 143.976562 -9.769531 144.648438 -13.34375 144.109375 -19 L 135.828125 -117.84375 C 135.691406 -118.507812 135.421875 -118.84375 135.015625 -118.84375 C 134.609375 -118.84375 134.273438 -118.441406 134.015625 -117.640625 L 88.125 -8.078125 C 87.1875 -5.796875 85.835938 -4.65625 84.078125 -4.65625 C 82.328125 -4.65625 80.984375 -5.664062 80.046875 -7.6875 L 38 -115.8125 C 37.726562 -116.625 37.320312 -117.03125 36.78125 -117.03125 C 36.25 -117.03125 35.984375 -116.691406 35.984375 -116.015625 L 27.890625 -19 C 27.347656 -13.34375 28.054688 -9.769531 30.015625 -8.28125 C 31.972656 -6.800781 35.238281 -5.65625 39.8125 -4.84375 C 41.695312 -4.445312 42.875 -3.84375 43.34375 -3.03125 C 43.820312 -2.21875 43.957031 -1.441406 43.75 -0.703125 C 43.550781 0.0351562 43.382812 0.40625 43.25 0.40625 C 41.769531 0.40625 39.847656 0.335938 37.484375 0.203125 C 35.128906 0.0664062 33.078125 0 31.328125 0 L 17.578125 0 C 16.234375 0 14.550781 0.0664062 12.53125 0.203125 C 10.507812 0.335938 8.894531 0.40625 7.6875 0.40625 C 7.550781 0.40625 7.414062 -0.332031 7.28125 -1.8125 C 7.144531 -3.300781 8.222656 -4.3125 10.515625 -4.84375 C 13.066406 -5.382812 15.117188 -6.023438 16.671875 -6.765625 C 18.222656 -7.515625 19.4375 -8.796875 20.3125 -10.609375 C 21.1875 -12.429688 21.757812 -15.226562 22.03125 -19 L 31.9375 -129.5625 C 30.320312 -131.988281 28.671875 -133.640625 26.984375 -134.515625 C 25.296875 -135.390625 22.972656 -136.097656 20.015625 -136.640625 C 17.585938 -137.304688 16.472656 -138.347656 16.671875 -139.765625 C 16.878906 -141.179688 17.050781 -141.890625 17.1875 -141.890625 C 18.394531 -141.890625 19.972656 -141.820312 21.921875 -141.6875 C 23.878906 -141.550781 25.53125 -141.484375 26.875 -141.484375 L 44.46875 -141.484375 C 46.488281 -141.484375 47.835938 -140.539062 48.515625 -138.65625 L 90.140625 -33.953125 C 90.679688 -33.015625 91.085938 -32.546875 91.359375 -32.546875 C 91.898438 -32.546875 92.304688 -33.015625 92.578125 -33.953125 L 135.828125 -138.65625 C 136.640625 -140.539062 137.851562 -141.484375 139.46875 -141.484375 L 157.25 -141.484375 C 158.738281 -141.484375 160.492188 -141.550781 162.515625 -141.6875 C 164.535156 -141.820312 166.21875 -141.890625 167.5625 -141.890625 C 167.695312 -141.890625 167.832031 -141.179688 167.96875 -139.765625 C 168.101562 -138.347656 166.957031 -137.304688 164.53125 -136.640625 C 160.625 -135.828125 157.859375 -134.679688 156.234375 -133.203125 C 154.617188 -131.722656 154.082031 -128.148438 154.625 -122.484375 L 163.71875 -19 C 164.257812 -13.34375 165.335938 -9.769531 166.953125 -8.28125 C 168.566406 -6.800781 171.265625 -5.65625 175.046875 -4.84375 Z M 34.15625 -125.3125 L 35.171875 -123.5 Z M 34.15625 -125.3125 "/></g></g></g><g fill="#737373" fill-opacity="1"><g transform="translate(186.873165, 167.878059)"><g><path d="M 99.453125 -12.734375 C 99.710938 -12.734375 100.414062 -12.53125 101.5625 -12.125 C 102.707031 -11.71875 103.28125 -10.503906 103.28125 -8.484375 C 103.28125 -5.523438 101.863281 -2.96875 99.03125 -0.8125 C 96.207031 1.34375 92.773438 2.421875 88.734375 2.421875 C 78.492188 2.421875 72.765625 -4.242188 71.546875 -17.578125 L 71.140625 -20.8125 C 68.585938 -13.40625 64.476562 -7.613281 58.8125 -3.4375 C 53.15625 0.738281 46.957031 2.828125 40.21875 2.828125 C 32.675781 2.828125 26.445312 1.378906 21.53125 -1.515625 C 16.613281 -4.410156 12.972656 -8.148438 10.609375 -12.734375 C 8.253906 -17.316406 7.078125 -21.96875 7.078125 -26.6875 C 7.078125 -36.25 10.441406 -43.925781 17.171875 -49.71875 C 23.910156 -55.519531 32.804688 -58.421875 43.859375 -58.421875 C 47.765625 -58.421875 51.90625 -58.148438 56.28125 -57.609375 C 60.664062 -57.066406 64.476562 -56.457031 67.71875 -55.78125 L 67.3125 -60.640625 C 66.5 -70.203125 63.832031 -76.90625 59.3125 -80.75 C 54.800781 -84.59375 48.976562 -86.515625 41.84375 -86.515625 C 36.050781 -86.515625 30.960938 -85.535156 26.578125 -83.578125 C 22.203125 -81.617188 18.257812 -78.890625 14.75 -75.390625 C 14.75 -75.390625 14.34375 -75.625 13.53125 -76.09375 C 12.726562 -76.570312 12.191406 -77.316406 11.921875 -78.328125 C 11.648438 -79.335938 12.257812 -80.515625 13.75 -81.859375 C 16.976562 -85.359375 21.554688 -88.285156 27.484375 -90.640625 C 33.410156 -93.003906 40.285156 -94.1875 48.109375 -94.1875 C 54.710938 -94.1875 60.707031 -93.140625 66.09375 -91.046875 C 71.488281 -88.960938 75.9375 -85.359375 79.4375 -80.234375 C 82.9375 -75.117188 85.09375 -68.046875 85.90625 -59.015625 L 89.75 -19.40625 C 90.007812 -15.632812 90.613281 -13.039062 91.5625 -11.625 C 92.507812 -10.207031 93.65625 -9.5 95 -9.5 C 97.425781 -9.5 98.910156 -10.578125 99.453125 -12.734375 Z M 69.734375 -35.375 L 69.734375 -36.1875 L 68.515625 -48.71875 C 65.285156 -49.382812 61.613281 -50.019531 57.5 -50.625 C 53.394531 -51.238281 50.128906 -51.546875 47.703125 -51.546875 C 31.796875 -51.546875 23.84375 -44.671875 23.84375 -30.921875 C 23.84375 -25.535156 25.832031 -20.648438 29.8125 -16.265625 C 33.789062 -11.890625 39.617188 -9.703125 47.296875 -9.703125 C 51.066406 -9.703125 54.671875 -10.742188 58.109375 -12.828125 C 61.546875 -14.921875 64.34375 -17.921875 66.5 -21.828125 C 68.65625 -25.734375 69.734375 -30.25 69.734375 -35.375 Z M 69.734375 -35.375 "/></g></g></g><g fill="#737373" fill-opacity="1"><g transform="translate(294.201358, 167.878059)"><g><path d="M 4.453125 -14.953125 L 9.5 -34.15625 C 9.5 -34.289062 10.003906 -34.359375 11.015625 -34.359375 C 12.023438 -34.359375 13.066406 -34.019531 14.140625 -33.34375 C 15.222656 -32.675781 15.765625 -31.398438 15.765625 -29.515625 C 14.816406 -19.273438 16.398438 -12.367188 20.515625 -8.796875 C 24.628906 -5.222656 30.863281 -3.4375 39.21875 -3.4375 C 45.28125 -3.4375 50.363281 -4.515625 54.46875 -6.671875 C 58.582031 -8.828125 60.640625 -12.664062 60.640625 -18.1875 C 60.640625 -21.425781 59.863281 -24.289062 58.3125 -26.78125 C 56.757812 -29.269531 54.128906 -31.757812 50.421875 -34.25 C 46.722656 -36.75 41.570312 -39.613281 34.96875 -42.84375 C 30.65625 -45.269531 26.441406 -47.796875 22.328125 -50.421875 C 18.222656 -53.054688 14.890625 -56.023438 12.328125 -59.328125 C 9.765625 -62.628906 8.484375 -66.300781 8.484375 -70.34375 C 8.484375 -76.8125 11.484375 -82.398438 17.484375 -87.109375 C 23.484375 -91.828125 32.75 -94.1875 45.28125 -94.1875 C 50.800781 -94.1875 56.253906 -93.613281 61.640625 -92.46875 C 67.035156 -91.320312 71.414062 -89.671875 74.78125 -87.515625 C 78.15625 -85.359375 79.367188 -82.597656 78.421875 -79.234375 L 73.171875 -60.234375 C 73.171875 -60.097656 72.664062 -60.03125 71.65625 -60.03125 C 70.644531 -60.03125 69.664062 -60.363281 68.71875 -61.03125 C 67.78125 -61.707031 67.3125 -62.859375 67.3125 -64.484375 C 68.382812 -72.566406 67.4375 -78.457031 64.46875 -82.15625 C 61.507812 -85.863281 55.25 -87.71875 45.6875 -87.71875 C 40.695312 -87.71875 36.921875 -87.144531 34.359375 -86 C 31.796875 -84.851562 30.078125 -83.367188 29.203125 -81.546875 C 28.328125 -79.734375 27.890625 -77.816406 27.890625 -75.796875 C 27.890625 -71.890625 30.078125 -68.382812 34.453125 -65.28125 C 38.835938 -62.1875 44.128906 -58.953125 50.328125 -55.578125 C 58.953125 -51.140625 66.0625 -46.695312 71.65625 -42.25 C 77.25 -37.800781 80.046875 -32.070312 80.046875 -25.0625 C 80.046875 -16.03125 76.335938 -9.085938 68.921875 -4.234375 C 61.515625 0.609375 51.613281 3.03125 39.21875 3.03125 C 32.613281 3.03125 26.546875 2.1875 21.015625 0.5 C 15.492188 -1.175781 11.179688 -3.394531 8.078125 -6.15625 C 4.984375 -8.925781 3.773438 -11.859375 4.453125 -14.953125 Z M 4.453125 -14.953125 "/></g></g></g><g fill="#737373" fill-opacity="1"><g transform="translate(379.295822, 167.878059)"><g><path d="M 61.046875 -46.078125 L 9.90625 -46.078125 C 8.820312 -46.078125 8.078125 -46.550781 7.671875 -47.5 C 7.273438 -48.445312 7.273438 -49.390625 7.671875 -50.328125 C 8.078125 -51.273438 8.820312 -51.75 9.90625 -51.75 L 61.046875 -51.75 C 62.253906 -51.75 63.023438 -51.273438 63.359375 -50.328125 C 63.703125 -49.390625 63.703125 -48.445312 63.359375 -47.5 C 63.023438 -46.550781 62.253906 -46.078125 61.046875 -46.078125 Z M 61.046875 -46.078125 "/></g></g></g><g fill="#737373" fill-opacity="1"><g transform="translate(445.794827, 167.878059)"><g><path d="M 20.015625 0 C 18.660156 0 16.972656 0.0664062 14.953125 0.203125 C 12.929688 0.335938 11.316406 0.40625 10.109375 0.40625 C 9.972656 0.40625 9.835938 -0.332031 9.703125 -1.8125 C 9.566406 -3.300781 10.644531 -4.3125 12.9375 -4.84375 C 16.84375 -5.65625 19.601562 -6.800781 21.21875 -8.28125 C 22.84375 -9.769531 23.65625 -13.34375 23.65625 -19 L 23.65625 -122.484375 C 23.65625 -128.148438 22.84375 -131.722656 21.21875 -133.203125 C 19.601562 -134.679688 16.84375 -135.828125 12.9375 -136.640625 C 10.644531 -137.171875 9.566406 -138.175781 9.703125 -139.65625 C 9.835938 -141.144531 9.972656 -141.890625 10.109375 -141.890625 C 11.316406 -141.890625 12.929688 -141.820312 14.953125 -141.6875 C 16.972656 -141.550781 18.660156 -141.484375 20.015625 -141.484375 C 29.578125 -141.617188 38.566406 -141.820312 46.984375 -142.09375 C 55.410156 -142.363281 62.453125 -142.5 68.109375 -142.5 C 78.617188 -142.5 87.3125 -141.082031 94.1875 -138.25 C 101.0625 -135.425781 106.179688 -131.617188 109.546875 -126.828125 C 112.921875 -122.046875 114.609375 -116.757812 114.609375 -110.96875 C 114.609375 -101.800781 111.84375 -94.421875 106.3125 -88.828125 C 100.789062 -83.242188 92.976562 -79.910156 82.875 -78.828125 C 91.363281 -78.148438 98.90625 -76.363281 105.5 -73.46875 C 112.101562 -70.570312 117.257812 -66.492188 120.96875 -61.234375 C 124.675781 -55.984375 126.53125 -49.453125 126.53125 -41.640625 C 126.53125 -28.972656 121.578125 -18.726562 111.671875 -10.90625 C 101.765625 -3.09375 87.3125 0.8125 68.3125 0.8125 C 61.039062 0.8125 53.5625 0.707031 45.875 0.5 C 38.195312 0.300781 29.578125 0.132812 20.015625 0 Z M 52.953125 -80.046875 L 65.6875 -81.046875 C 76.195312 -82.128906 83.472656 -84.789062 87.515625 -89.03125 C 91.554688 -93.28125 93.578125 -99.785156 93.578125 -108.546875 C 93.578125 -117.429688 90.984375 -124.234375 85.796875 -128.953125 C 80.609375 -133.671875 73.835938 -136.097656 65.484375 -136.234375 L 49.921875 -136.640625 C 46.828125 -136.640625 44.90625 -136 44.15625 -134.71875 C 43.414062 -133.4375 43.046875 -131.046875 43.046875 -127.546875 L 43.046875 -14.546875 C 43.046875 -10.773438 43.484375 -8.25 44.359375 -6.96875 C 45.242188 -5.6875 47.4375 -5.046875 50.9375 -5.046875 L 65.484375 -5.046875 C 76.804688 -5.046875 86.035156 -8.007812 93.171875 -13.9375 C 100.316406 -19.875 103.890625 -28.566406 103.890625 -40.015625 C 103.890625 -51.335938 100.859375 -59.863281 94.796875 -65.59375 C 88.734375 -71.320312 78.894531 -74.316406 65.28125 -74.578125 L 52.140625 -74.984375 C 51.609375 -74.984375 51.207031 -75.722656 50.9375 -77.203125 C 50.664062 -78.691406 51.335938 -79.640625 52.953125 -80.046875 Z M 52.953125 -80.046875 "/></g></g></g><g fill="#737373" fill-opacity="1"><g transform="translate(579.197089, 167.878059)"><g><path d="M 108.34375 -14.34375 C 108.613281 -14.75 109.382812 -14.847656 110.65625 -14.640625 C 111.9375 -14.441406 112.578125 -13 112.578125 -10.3125 C 112.578125 -7.613281 111.195312 -4.816406 108.4375 -1.921875 C 105.675781 0.972656 101.535156 2.421875 96.015625 2.421875 C 91.429688 2.421875 87.585938 0.601562 84.484375 -3.03125 C 81.390625 -6.664062 79.84375 -12.394531 79.84375 -20.21875 L 79.84375 -20.8125 C 77.414062 -14.082031 73.4375 -8.425781 67.90625 -3.84375 C 62.382812 0.738281 55.648438 3.03125 47.703125 3.03125 C 37.867188 3.03125 29.847656 -0.203125 23.640625 -6.671875 C 17.441406 -13.140625 14.34375 -23.039062 14.34375 -36.375 L 14.34375 -69.125 C 14.34375 -71.820312 13.867188 -73.941406 12.921875 -75.484375 C 11.984375 -77.035156 10.171875 -77.945312 7.484375 -78.21875 C 6.128906 -78.488281 5.285156 -79.09375 4.953125 -80.03125 C 4.617188 -80.976562 4.484375 -81.890625 4.546875 -82.765625 C 4.617188 -83.640625 4.65625 -84.078125 4.65625 -84.078125 C 10.71875 -85.160156 15.664062 -86.375 19.5 -87.71875 C 23.34375 -89.070312 26.75 -90.828125 29.71875 -92.984375 C 30.382812 -93.242188 31.320312 -93.171875 32.53125 -92.765625 C 33.75 -92.367188 34.289062 -91.832031 34.15625 -91.15625 C 33.75 -86.4375 33.378906 -82.289062 33.046875 -78.71875 C 32.710938 -75.15625 32.546875 -70.8125 32.546875 -65.6875 L 32.546875 -37.390625 C 32.546875 -27.148438 34.5 -19.601562 38.40625 -14.75 C 42.3125 -9.90625 47.769531 -7.484375 54.78125 -7.484375 C 62.457031 -7.484375 68.550781 -10.984375 73.0625 -17.984375 C 77.582031 -24.992188 79.84375 -33.890625 79.84375 -44.671875 L 79.84375 -69.125 C 79.84375 -71.820312 79.367188 -73.941406 78.421875 -75.484375 C 77.484375 -77.035156 75.664062 -77.945312 72.96875 -78.21875 C 71.625 -78.488281 70.78125 -79.09375 70.4375 -80.03125 C 70.101562 -80.976562 69.96875 -81.890625 70.03125 -82.765625 C 70.101562 -83.640625 70.140625 -84.078125 70.140625 -84.078125 C 76.203125 -85.160156 81.148438 -86.375 84.984375 -87.71875 C 88.828125 -89.070312 92.234375 -90.828125 95.203125 -92.984375 C 95.878906 -93.242188 96.820312 -93.171875 98.03125 -92.765625 C 99.238281 -92.367188 99.84375 -91.832031 99.84375 -91.15625 C 99.3125 -86.4375 98.875 -82.289062 98.53125 -78.71875 C 98.195312 -75.15625 98.03125 -70.8125 98.03125 -65.6875 L 98.03125 -23.25 C 98.03125 -18.664062 98.429688 -15.363281 99.234375 -13.34375 C 100.046875 -11.320312 101.53125 -10.3125 103.6875 -10.3125 C 105.039062 -10.3125 106.050781 -10.78125 106.71875 -11.71875 C 107.394531 -12.664062 107.9375 -13.539062 108.34375 -14.34375 Z M 108.34375 -14.34375 "/></g></g></g><g fill="#737373" fill-opacity="1"><g transform="translate(695.823, 167.878059)"><g><path d="M 25.875 -111.375 C 22.238281 -111.375 19.34375 -112.316406 17.1875 -114.203125 C 15.03125 -116.085938 13.953125 -118.445312 13.953125 -121.28125 C 13.953125 -124.644531 15.265625 -127.367188 17.890625 -129.453125 C 20.515625 -131.546875 23.847656 -132.59375 27.890625 -132.59375 C 31.398438 -132.59375 34.226562 -131.613281 36.375 -129.65625 C 38.53125 -127.707031 39.609375 -125.316406 39.609375 -122.484375 C 39.609375 -119.253906 38.328125 -116.59375 35.765625 -114.5 C 33.210938 -112.414062 29.914062 -111.375 25.875 -111.375 Z M 38 -65.6875 L 38 -19 C 38 -14.144531 38.769531 -10.707031 40.3125 -8.6875 C 41.863281 -6.664062 43.988281 -5.519531 46.6875 -5.25 C 48.570312 -5.113281 49.71875 -4.570312 50.125 -3.625 C 50.53125 -2.6875 50.597656 -1.78125 50.328125 -0.90625 C 50.054688 -0.03125 49.785156 0.40625 49.515625 0.40625 C 43.179688 0 36.476562 -0.164062 29.40625 -0.09375 C 22.332031 -0.03125 15.222656 0.132812 8.078125 0.40625 C 7.953125 0.40625 7.753906 -0.03125 7.484375 -0.90625 C 7.210938 -1.78125 7.3125 -2.6875 7.78125 -3.625 C 8.25 -4.570312 9.425781 -5.113281 11.3125 -5.25 C 14.144531 -5.519531 16.269531 -6.664062 17.6875 -8.6875 C 19.101562 -10.707031 19.8125 -14.210938 19.8125 -19.203125 L 19.8125 -69.125 C 19.8125 -71.820312 19.335938 -73.941406 18.390625 -75.484375 C 17.453125 -77.035156 15.632812 -77.945312 12.9375 -78.21875 C 11.59375 -78.488281 10.75 -79.09375 10.40625 -80.03125 C 10.070312 -80.976562 9.9375 -81.890625 10 -82.765625 C 10.070312 -83.640625 10.109375 -84.078125 10.109375 -84.078125 C 16.171875 -85.160156 21.117188 -86.375 24.953125 -87.71875 C 28.796875 -89.070312 32.203125 -90.828125 35.171875 -92.984375 C 35.847656 -93.242188 36.789062 -93.171875 38 -92.765625 C 39.207031 -92.367188 39.742188 -91.832031 39.609375 -91.15625 C 39.210938 -86.4375 38.84375 -82.289062 38.5 -78.71875 C 38.164062 -75.15625 38 -70.8125 38 -65.6875 Z M 38 -65.6875 "/></g></g></g><g fill="#737373" fill-opacity="1"><g transform="translate(753.630676, 167.878059)"><g><path d="M 36.1875 3.03125 C 29.851562 3.03125 24.898438 0.976562 21.328125 -3.125 C 17.753906 -7.238281 15.96875 -13.335938 15.96875 -21.421875 L 15.96875 -78.421875 C 15.96875 -80.710938 15.796875 -82.460938 15.453125 -83.671875 C 15.117188 -84.890625 13.875 -85.5 11.71875 -85.5 L 5.859375 -85.5 C 4.515625 -85.5 3.910156 -86.40625 4.046875 -88.21875 C 4.179688 -90.039062 5.460938 -91.085938 7.890625 -91.359375 C 11.253906 -91.765625 14.148438 -92.539062 16.578125 -93.6875 C 19.003906 -94.832031 21.160156 -96.816406 23.046875 -99.640625 C 24.929688 -102.472656 26.75 -106.519531 28.5 -111.78125 C 29.445312 -114.070312 31.0625 -115.21875 33.34375 -115.21875 C 34.425781 -115.21875 34.96875 -114.878906 34.96875 -114.203125 C 35.101562 -111.234375 35.132812 -107.929688 35.0625 -104.296875 C 35 -100.660156 34.832031 -97.695312 34.5625 -95.40625 C 34.425781 -92.570312 35.773438 -91.15625 38.609375 -91.15625 L 62.453125 -91.15625 C 62.992188 -91.15625 63.363281 -90.679688 63.5625 -89.734375 C 63.769531 -88.796875 63.671875 -87.851562 63.265625 -86.90625 C 62.859375 -85.96875 61.984375 -85.5 60.640625 -85.5 L 40.015625 -85.5 C 37.859375 -85.5 36.34375 -85.09375 35.46875 -84.28125 C 34.59375 -83.476562 34.15625 -82.066406 34.15625 -80.046875 L 34.15625 -21.421875 C 34.15625 -15.898438 35.632812 -12.160156 38.59375 -10.203125 C 41.5625 -8.253906 45.097656 -7.984375 49.203125 -9.390625 C 53.316406 -10.804688 57.0625 -13.738281 60.4375 -18.1875 C 60.707031 -18.59375 61.210938 -18.492188 61.953125 -17.890625 C 62.691406 -17.285156 63.09375 -16.304688 63.15625 -14.953125 C 63.226562 -13.609375 62.320312 -11.789062 60.4375 -9.5 C 56.9375 -5.050781 53.09375 -1.851562 48.90625 0.09375 C 44.726562 2.050781 40.488281 3.03125 36.1875 3.03125 Z M 36.1875 3.03125 "/></g></g></g><g fill="#737373" fill-opacity="1"><g transform="translate(820.331783, 167.878059)"><g><path d="M 65.484375 -94.1875 C 69.660156 -94.1875 73.429688 -93.3125 76.796875 -91.5625 C 80.171875 -89.8125 82.695312 -87.488281 84.375 -84.59375 C 86.0625 -81.695312 86.4375 -78.492188 85.5 -74.984375 L 79.03125 -52.75 C 79.03125 -52.476562 78.421875 -52.304688 77.203125 -52.234375 C 75.992188 -52.171875 74.816406 -52.476562 73.671875 -53.15625 C 72.523438 -53.832031 72.019531 -55.179688 72.15625 -57.203125 C 73.101562 -64.210938 73.101562 -69.535156 72.15625 -73.171875 C 71.21875 -76.804688 69.535156 -79.332031 67.109375 -80.75 C 64.679688 -82.164062 61.71875 -82.875 58.21875 -82.875 C 54.039062 -82.875 50.601562 -81.457031 47.90625 -78.625 C 45.207031 -75.789062 43.179688 -72.21875 41.828125 -67.90625 C 40.484375 -63.601562 39.539062 -59.09375 39 -54.375 C 38.46875 -49.65625 38.203125 -45.410156 38.203125 -41.640625 L 38.203125 -19 C 38.203125 -14.144531 38.972656 -10.707031 40.515625 -8.6875 C 42.066406 -6.664062 44.191406 -5.519531 46.890625 -5.25 C 48.773438 -5.113281 49.988281 -4.570312 50.53125 -3.625 C 51.070312 -2.6875 51.207031 -1.78125 50.9375 -0.90625 C 50.664062 -0.03125 50.257812 0.40625 49.71875 0.40625 C 43.382812 0 36.710938 -0.164062 29.703125 -0.09375 C 22.703125 -0.03125 15.628906 0.132812 8.484375 0.40625 C 8.085938 0.40625 7.753906 -0.03125 7.484375 -0.90625 C 7.210938 -1.78125 7.34375 -2.6875 7.875 -3.625 C 8.414062 -4.570312 9.628906 -5.113281 11.515625 -5.25 C 14.484375 -5.519531 16.640625 -6.664062 17.984375 -8.6875 C 19.335938 -10.707031 20.015625 -14.210938 20.015625 -19.203125 L 20.015625 -69.125 C 20.015625 -71.820312 19.539062 -73.941406 18.59375 -75.484375 C 17.65625 -77.035156 15.835938 -77.945312 13.140625 -78.21875 C 11.785156 -78.488281 10.941406 -79.09375 10.609375 -80.03125 C 10.273438 -80.976562 10.175781 -81.890625 10.3125 -82.765625 C 10.445312 -83.640625 10.515625 -84.078125 10.515625 -84.078125 C 16.441406 -85.160156 21.320312 -86.375 25.15625 -87.71875 C 29 -89.070312 32.40625 -90.828125 35.375 -92.984375 C 36.039062 -93.242188 36.976562 -93.171875 38.1875 -92.765625 C 39.40625 -92.367188 40.015625 -91.832031 40.015625 -91.15625 C 39.617188 -87.382812 39.285156 -83.945312 39.015625 -80.84375 C 38.742188 -77.75 38.472656 -74.453125 38.203125 -70.953125 C 39.546875 -74.722656 41.328125 -78.359375 43.546875 -81.859375 C 45.773438 -85.359375 48.675781 -88.285156 52.25 -90.640625 C 55.820312 -93.003906 60.234375 -94.1875 65.484375 -94.1875 Z M 65.484375 -94.1875 "/></g></g></g><g fill="#737373" fill-opacity="1"><g transform="translate(908.458153, 167.878059)"><g><path d="M 99.453125 -12.734375 C 99.710938 -12.734375 100.414062 -12.53125 101.5625 -12.125 C 102.707031 -11.71875 103.28125 -10.503906 103.28125 -8.484375 C 103.28125 -5.523438 101.863281 -2.96875 99.03125 -0.8125 C 96.207031 1.34375 92.773438 2.421875 88.734375 2.421875 C 78.492188 2.421875 72.765625 -4.242188 71.546875 -17.578125 L 71.140625 -20.8125 C 68.585938 -13.40625 64.476562 -7.613281 58.8125 -3.4375 C 53.15625 0.738281 46.957031 2.828125 40.21875 2.828125 C 32.675781 2.828125 26.445312 1.378906 21.53125 -1.515625 C 16.613281 -4.410156 12.972656 -8.148438 10.609375 -12.734375 C 8.253906 -17.316406 7.078125 -21.96875 7.078125 -26.6875 C 7.078125 -36.25 10.441406 -43.925781 17.171875 -49.71875 C 23.910156 -55.519531 32.804688 -58.421875 43.859375 -58.421875 C 47.765625 -58.421875 51.90625 -58.148438 56.28125 -57.609375 C 60.664062 -57.066406 64.476562 -56.457031 67.71875 -55.78125 L 67.3125 -60.640625 C 66.5 -70.203125 63.832031 -76.90625 59.3125 -80.75 C 54.800781 -84.59375 48.976562 -86.515625 41.84375 -86.515625 C 36.050781 -86.515625 30.960938 -85.535156 26.578125 -83.578125 C 22.203125 -81.617188 18.257812 -78.890625 14.75 -75.390625 C 14.75 -75.390625 14.34375 -75.625 13.53125 -76.09375 C 12.726562 -76.570312 12.191406 -77.316406 11.921875 -78.328125 C 11.648438 -79.335938 12.257812 -80.515625 13.75 -81.859375 C 16.976562 -85.359375 21.554688 -88.285156 27.484375 -90.640625 C 33.410156 -93.003906 40.285156 -94.1875 48.109375 -94.1875 C 54.710938 -94.1875 60.707031 -93.140625 66.09375 -91.046875 C 71.488281 -88.960938 75.9375 -85.359375 79.4375 -80.234375 C 82.9375 -75.117188 85.09375 -68.046875 85.90625 -59.015625 L 89.75 -19.40625 C 90.007812 -15.632812 90.613281 -13.039062 91.5625 -11.625 C 92.507812 -10.207031 93.65625 -9.5 95 -9.5 C 97.425781 -9.5 98.910156 -10.578125 99.453125 -12.734375 Z M 69.734375 -35.375 L 69.734375 -36.1875 L 68.515625 -48.71875 C 65.285156 -49.382812 61.613281 -50.019531 57.5 -50.625 C 53.394531 -51.238281 50.128906 -51.546875 47.703125 -51.546875 C 31.796875 -51.546875 23.84375 -44.671875 23.84375 -30.921875 C 23.84375 -25.535156 25.832031 -20.648438 29.8125 -16.265625 C 33.789062 -11.890625 39.617188 -9.703125 47.296875 -9.703125 C 51.066406 -9.703125 54.671875 -10.742188 58.109375 -12.828125 C 61.546875 -14.921875 64.34375 -17.921875 66.5 -21.828125 C 68.65625 -25.734375 69.734375 -30.25 69.734375 -35.375 Z M 69.734375 -35.375 "/></g></g></g><g fill="#737373" fill-opacity="1"><g transform="translate(1015.786334, 167.878059)"><g><path d="M 102.078125 -92.578125 C 102.609375 -92.710938 103.039062 -92.335938 103.375 -91.453125 C 103.71875 -90.578125 103.71875 -89.664062 103.375 -88.71875 C 103.039062 -87.78125 102 -87.242188 100.25 -87.109375 C 91.894531 -86.171875 87.785156 -84.757812 87.921875 -82.875 C 91.554688 -79.5 94.382812 -75.625 96.40625 -71.25 C 98.4375 -66.875 99.453125 -62.125 99.453125 -57 C 99.453125 -48.507812 96.851562 -40.960938 91.65625 -34.359375 C 86.46875 -27.753906 79.566406 -22.90625 70.953125 -19.8125 C 79.703125 -17.925781 86.738281 -14.285156 92.0625 -8.890625 C 97.382812 -3.503906 100.046875 3.363281 100.046875 11.71875 C 100.046875 18.050781 97.988281 23.609375 93.875 28.390625 C 89.769531 33.179688 84.179688 36.890625 77.109375 39.515625 C 70.035156 42.140625 61.984375 43.453125 52.953125 43.453125 C 43.796875 43.453125 35.878906 41.898438 29.203125 38.796875 C 22.535156 35.703125 17.445312 31.660156 13.9375 26.671875 C 10.4375 21.691406 8.820312 16.441406 9.09375 10.921875 C 9.226562 7.273438 10.507812 3.734375 12.9375 0.296875 C 15.363281 -3.128906 19.066406 -6.125 24.046875 -8.6875 C 25.128906 -8.957031 26.039062 -8.820312 26.78125 -8.28125 C 27.519531 -7.75 27.6875 -6.738281 27.28125 -5.25 C 26.476562 -3.632812 25.90625 -1.984375 25.5625 -0.296875 C 25.226562 1.378906 25.0625 3.09375 25.0625 4.84375 C 25.195312 9.832031 26.710938 14.75 29.609375 19.59375 C 32.503906 24.445312 36.34375 28.457031 41.125 31.625 C 45.914062 34.789062 51.140625 36.375 56.796875 36.375 C 64.203125 36.375 70.160156 34.554688 74.671875 30.921875 C 79.191406 27.285156 81.453125 22.769531 81.453125 17.375 C 81.453125 11.050781 80.035156 5.328125 77.203125 0.203125 C 74.378906 -4.921875 70.640625 -9 65.984375 -12.03125 C 61.335938 -15.0625 56.253906 -16.578125 50.734375 -16.578125 L 50.328125 -16.578125 C 42.378906 -16.847656 35.269531 -18.695312 29 -22.125 C 22.738281 -25.5625 17.785156 -30.078125 14.140625 -35.671875 C 10.503906 -41.265625 8.6875 -47.363281 8.6875 -53.96875 C 8.6875 -61.78125 10.707031 -68.71875 14.75 -74.78125 C 18.789062 -80.84375 24.382812 -85.59375 31.53125 -89.03125 C 38.675781 -92.46875 46.828125 -94.1875 55.984375 -94.1875 C 61.910156 -94.1875 66.929688 -93.710938 71.046875 -92.765625 C 75.160156 -91.828125 79.503906 -91.359375 84.078125 -91.359375 C 86.640625 -91.359375 89.738281 -91.523438 93.375 -91.859375 C 97.019531 -92.203125 99.921875 -92.441406 102.078125 -92.578125 Z M 57.203125 -23.84375 C 64.609375 -23.84375 70.632812 -26.164062 75.28125 -30.8125 C 79.9375 -35.46875 82.265625 -41.367188 82.265625 -48.515625 C 82.265625 -52.960938 81.453125 -57.441406 79.828125 -61.953125 C 78.210938 -66.460938 75.957031 -70.601562 73.0625 -74.375 C 70.164062 -78.15625 66.863281 -81.1875 63.15625 -83.46875 C 59.457031 -85.757812 55.453125 -86.90625 51.140625 -86.90625 C 43.328125 -86.90625 37.195312 -84.648438 32.75 -80.140625 C 28.300781 -75.628906 26.078125 -69.664062 26.078125 -62.25 C 26.078125 -56.457031 27.421875 -50.597656 30.109375 -44.671875 C 32.804688 -38.742188 36.515625 -33.789062 41.234375 -29.8125 C 45.953125 -25.832031 51.273438 -23.84375 57.203125 -23.84375 Z M 57.203125 -23.84375 "/></g></g></g><g fill="#737373" fill-opacity="1"><g transform="translate(1126.75273, 167.878059)"><g><path d="M 54.578125 3.03125 C 45.273438 3.03125 37.050781 1.078125 29.90625 -2.828125 C 22.769531 -6.734375 17.210938 -12.222656 13.234375 -19.296875 C 9.265625 -26.378906 7.28125 -34.566406 7.28125 -43.859375 C 7.28125 -54.234375 9.632812 -63.160156 14.34375 -70.640625 C 19.0625 -78.117188 25.328125 -83.910156 33.140625 -88.015625 C 40.960938 -92.128906 49.519531 -94.1875 58.8125 -94.1875 C 68.789062 -94.1875 77.484375 -92.128906 84.890625 -88.015625 C 92.304688 -83.910156 98.035156 -78.351562 102.078125 -71.34375 C 106.117188 -64.34375 108.140625 -56.394531 108.140625 -47.5 C 108.140625 -37.257812 105.847656 -28.363281 101.265625 -20.8125 C 96.679688 -13.269531 90.378906 -7.410156 82.359375 -3.234375 C 74.347656 0.941406 65.085938 3.03125 54.578125 3.03125 Z M 62.65625 -5.046875 C 71.820312 -5.046875 78.863281 -7.84375 83.78125 -13.4375 C 88.695312 -19.03125 91.222656 -26.34375 91.359375 -35.375 C 91.628906 -41.03125 90.851562 -46.820312 89.03125 -52.75 C 87.21875 -58.675781 84.59375 -64.203125 81.15625 -69.328125 C 77.71875 -74.453125 73.671875 -78.5625 69.015625 -81.65625 C 64.367188 -84.757812 59.285156 -86.3125 53.765625 -86.3125 C 44.066406 -86.3125 36.753906 -83.34375 31.828125 -77.40625 C 26.910156 -71.476562 24.382812 -64.335938 24.25 -55.984375 C 23.851562 -49.648438 24.5625 -43.453125 26.375 -37.390625 C 28.195312 -31.328125 30.859375 -25.867188 34.359375 -21.015625 C 37.859375 -16.171875 42 -12.296875 46.78125 -9.390625 C 51.570312 -6.492188 56.863281 -5.046875 62.65625 -5.046875 Z M 62.65625 -5.046875 "/></g></g></g><g fill="#737373" fill-opacity="1"><g transform="translate(1242.165933, 167.878059)"><g><path d="M 11.109375 27.484375 C 9.765625 27.617188 9.023438 27.113281 8.890625 25.96875 C 8.753906 24.820312 8.957031 24.113281 9.5 23.84375 C 14.21875 21.15625 17.484375 18.09375 19.296875 14.65625 C 21.117188 11.21875 21.960938 7.882812 21.828125 4.65625 C 21.828125 3.03125 21.117188 1.945312 19.703125 1.40625 C 18.285156 0.875 16.703125 0.375 14.953125 -0.09375 C 13.203125 -0.570312 11.648438 -1.347656 10.296875 -2.421875 C 8.953125 -3.503906 8.28125 -5.457031 8.28125 -8.28125 C 8.28125 -11.25 9.425781 -14.078125 11.71875 -16.765625 C 14.007812 -19.460938 17.378906 -20.8125 21.828125 -20.8125 C 25.734375 -20.8125 28.660156 -19.632812 30.609375 -17.28125 C 32.566406 -14.925781 33.546875 -11.925781 33.546875 -8.28125 C 33.546875 -2.625 32.429688 2.660156 30.203125 7.578125 C 27.984375 12.492188 25.191406 16.671875 21.828125 20.109375 C 18.460938 23.546875 14.890625 26.003906 11.109375 27.484375 Z M 11.109375 27.484375 "/></g></g></g><g fill="#737373" fill-opacity="1"><g transform="translate(1283.197212, 167.878059)"><g/></g></g><g fill="#737373" fill-opacity="1"><g transform="translate(1328.877355, 167.878059)"><g><path d="M 64.6875 -58.8125 L 52.140625 -59.21875 C 51.203125 -60.300781 50.765625 -61.445312 50.828125 -62.65625 C 50.898438 -63.875 51.609375 -64.550781 52.953125 -64.6875 L 63.875 -64.484375 C 89.34375 -64.347656 102.078125 -75.734375 102.078125 -98.640625 C 102.078125 -105.910156 100.59375 -112.375 97.625 -118.03125 C 94.65625 -123.695312 90.476562 -128.179688 85.09375 -131.484375 C 79.707031 -134.785156 73.238281 -136.4375 65.6875 -136.4375 L 49.71875 -136.640625 C 47.03125 -136.640625 45.242188 -136.164062 44.359375 -135.21875 C 43.484375 -134.28125 43.046875 -132.191406 43.046875 -128.953125 L 43.046875 -19 C 43.046875 -13.34375 44.085938 -9.769531 46.171875 -8.28125 C 48.265625 -6.800781 51.804688 -5.65625 56.796875 -4.84375 C 58.953125 -4.445312 60.265625 -3.84375 60.734375 -3.03125 C 61.210938 -2.21875 61.347656 -1.441406 61.140625 -0.703125 C 60.941406 0.0351562 60.773438 0.40625 60.640625 0.40625 C 59.023438 0.40625 56.96875 0.335938 54.46875 0.203125 C 51.976562 0.0664062 49.789062 0 47.90625 0 L 20.015625 0 C 18.660156 0 17.003906 0.0664062 15.046875 0.203125 C 13.097656 0.335938 11.453125 0.40625 10.109375 0.40625 C 9.972656 0.40625 9.835938 -0.332031 9.703125 -1.8125 C 9.566406 -3.300781 10.710938 -4.3125 13.140625 -4.84375 C 16.910156 -5.65625 19.601562 -6.800781 21.21875 -8.28125 C 22.84375 -9.769531 23.65625 -13.34375 23.65625 -19 L 23.65625 -122.484375 C 23.65625 -128.148438 22.84375 -131.722656 21.21875 -133.203125 C 19.601562 -134.679688 16.84375 -135.828125 12.9375 -136.640625 C 10.644531 -137.171875 9.566406 -138.175781 9.703125 -139.65625 C 9.835938 -141.144531 9.972656 -141.890625 10.109375 -141.890625 C 11.316406 -141.890625 12.929688 -141.820312 14.953125 -141.6875 C 16.972656 -141.550781 18.660156 -141.484375 20.015625 -141.484375 C 29.710938 -141.617188 38.46875 -141.785156 46.28125 -141.984375 C 54.101562 -142.191406 61.648438 -142.296875 68.921875 -142.296875 C 86.171875 -142.296875 99.507812 -138.554688 108.9375 -131.078125 C 118.375 -123.597656 123.09375 -113.1875 123.09375 -99.84375 C 123.09375 -91.351562 121.070312 -83.90625 117.03125 -77.5 C 112.988281 -71.101562 106.6875 -66.222656 98.125 -62.859375 C 89.570312 -59.492188 78.425781 -58.144531 64.6875 -58.8125 Z M 64.6875 -58.8125 "/></g></g></g><g fill="#737373" fill-opacity="1"><g transform="translate(1457.832852, 167.878059)"><g><path d="M 19.40625 2.015625 C 16.164062 2.015625 13.5 1.140625 11.40625 -0.609375 C 9.320312 -2.359375 8.28125 -4.71875 8.28125 -7.6875 C 8.28125 -10.914062 9.457031 -13.910156 11.8125 -16.671875 C 14.175781 -19.429688 17.851562 -20.8125 22.84375 -20.8125 C 25.664062 -20.8125 28.019531 -19.832031 29.90625 -17.875 C 31.800781 -15.925781 32.75 -13.335938 32.75 -10.109375 C 32.75 -6.472656 31.332031 -3.539062 28.5 -1.3125 C 25.664062 0.90625 22.632812 2.015625 19.40625 2.015625 Z M 19.40625 2.015625 "/></g></g></g><g fill="#ffffff" fill-opacity="1"><g transform="translate(22.460239, 165.248664)"><g><path d="M 168.984375 -4.6875 C 171.316406 -4.164062 172.414062 -3.1875 172.28125 -1.75 C 172.15625 -0.320312 172.03125 0.390625 171.90625 0.390625 C 170.601562 0.390625 169.039062 0.320312 167.21875 0.1875 C 165.394531 0.0625 163.769531 0 162.34375 0 L 135.8125 0 C 134.113281 0 132.125 0.0625 129.84375 0.1875 C 127.570312 0.320312 125.722656 0.390625 124.296875 0.390625 C 124.160156 0.390625 123.992188 0.0351562 123.796875 -0.671875 C 123.609375 -1.390625 123.738281 -2.140625 124.1875 -2.921875 C 124.644531 -3.703125 125.785156 -4.289062 127.609375 -4.6875 C 132.160156 -5.46875 135.347656 -6.570312 137.171875 -8 C 138.992188 -9.425781 139.644531 -12.875 139.125 -18.34375 L 131.125 -113.765625 C 130.988281 -114.410156 130.726562 -114.734375 130.34375 -114.734375 C 129.957031 -114.734375 129.632812 -114.34375 129.375 -113.5625 L 85.078125 -7.8125 C 84.160156 -5.59375 82.859375 -4.484375 81.171875 -4.484375 C 79.484375 -4.484375 78.179688 -5.460938 77.265625 -7.421875 L 36.6875 -111.8125 C 36.425781 -112.59375 36.035156 -112.984375 35.515625 -112.984375 C 34.992188 -112.984375 34.734375 -112.65625 34.734375 -112 L 26.921875 -18.34375 C 26.398438 -12.875 27.082031 -9.425781 28.96875 -8 C 30.863281 -6.570312 34.019531 -5.46875 38.4375 -4.6875 C 40.257812 -4.289062 41.394531 -3.703125 41.84375 -2.921875 C 42.300781 -2.140625 42.429688 -1.390625 42.234375 -0.671875 C 42.046875 0.0351562 41.882812 0.390625 41.75 0.390625 C 40.320312 0.390625 38.46875 0.320312 36.1875 0.1875 C 33.914062 0.0625 31.9375 0 30.25 0 L 16.96875 0 C 15.675781 0 14.050781 0.0625 12.09375 0.1875 C 10.144531 0.320312 8.585938 0.390625 7.421875 0.390625 C 7.285156 0.390625 7.148438 -0.320312 7.015625 -1.75 C 6.890625 -3.1875 7.929688 -4.164062 10.140625 -4.6875 C 12.617188 -5.207031 14.601562 -5.820312 16.09375 -6.53125 C 17.59375 -7.25 18.765625 -8.484375 19.609375 -10.234375 C 20.453125 -11.992188 21.003906 -14.695312 21.265625 -18.34375 L 30.828125 -125.078125 C 29.265625 -127.421875 27.671875 -129.015625 26.046875 -129.859375 C 24.421875 -130.703125 22.175781 -131.382812 19.3125 -131.90625 C 16.976562 -132.550781 15.90625 -133.554688 16.09375 -134.921875 C 16.289062 -136.296875 16.453125 -136.984375 16.578125 -136.984375 C 17.753906 -136.984375 19.285156 -136.914062 21.171875 -136.78125 C 23.054688 -136.65625 24.648438 -136.59375 25.953125 -136.59375 L 42.921875 -136.59375 C 44.878906 -136.59375 46.179688 -135.679688 46.828125 -133.859375 L 87.03125 -32.78125 C 87.550781 -31.875 87.941406 -31.421875 88.203125 -31.421875 C 88.722656 -31.421875 89.113281 -31.875 89.375 -32.78125 L 131.125 -133.859375 C 131.90625 -135.679688 133.078125 -136.59375 134.640625 -136.59375 L 151.8125 -136.59375 C 153.238281 -136.59375 154.925781 -136.65625 156.875 -136.78125 C 158.832031 -136.914062 160.460938 -136.984375 161.765625 -136.984375 C 161.890625 -136.984375 162.015625 -136.296875 162.140625 -134.921875 C 162.273438 -133.554688 161.171875 -132.550781 158.828125 -131.90625 C 155.054688 -131.125 152.390625 -130.015625 150.828125 -128.578125 C 149.265625 -127.148438 148.742188 -123.707031 149.265625 -118.25 L 158.046875 -18.34375 C 158.566406 -12.875 159.609375 -9.425781 161.171875 -8 C 162.734375 -6.570312 165.335938 -5.46875 168.984375 -4.6875 Z M 32.96875 -120.984375 L 33.953125 -119.21875 Z M 32.96875 -120.984375 "/></g></g></g><g fill="#ffffff" fill-opacity="1"><g transform="translate(201.782112, 165.248664)"><g><path d="M 96 -12.296875 C 96.257812 -12.296875 96.941406 -12.097656 98.046875 -11.703125 C 99.148438 -11.316406 99.703125 -10.144531 99.703125 -8.1875 C 99.703125 -5.332031 98.335938 -2.863281 95.609375 -0.78125 C 92.878906 1.300781 89.5625 2.34375 85.65625 2.34375 C 75.769531 2.34375 70.242188 -4.09375 69.078125 -16.96875 L 68.6875 -20.09375 C 66.21875 -12.9375 62.25 -7.34375 56.78125 -3.3125 C 51.320312 0.71875 45.335938 2.734375 38.828125 2.734375 C 31.546875 2.734375 25.53125 1.335938 20.78125 -1.453125 C 16.03125 -4.253906 12.515625 -7.863281 10.234375 -12.28125 C 7.960938 -16.707031 6.828125 -21.195312 6.828125 -25.75 C 6.828125 -34.988281 10.078125 -42.40625 16.578125 -48 C 23.085938 -53.59375 31.675781 -56.390625 42.34375 -56.390625 C 46.113281 -56.390625 50.113281 -56.128906 54.34375 -55.609375 C 58.570312 -55.085938 62.242188 -54.503906 65.359375 -53.859375 L 64.984375 -58.53125 C 64.203125 -67.769531 61.628906 -74.242188 57.265625 -77.953125 C 52.910156 -81.660156 47.285156 -83.515625 40.390625 -83.515625 C 34.796875 -83.515625 29.882812 -82.570312 25.65625 -80.6875 C 21.425781 -78.800781 17.625 -76.164062 14.25 -72.78125 C 14.25 -72.78125 13.859375 -73.003906 13.078125 -73.453125 C 12.296875 -73.910156 11.773438 -74.628906 11.515625 -75.609375 C 11.253906 -76.585938 11.835938 -77.726562 13.265625 -79.03125 C 16.390625 -82.40625 20.8125 -85.226562 26.53125 -87.5 C 32.257812 -89.78125 38.894531 -90.921875 46.4375 -90.921875 C 52.8125 -90.921875 58.597656 -89.910156 63.796875 -87.890625 C 69.003906 -85.878906 73.296875 -82.398438 76.671875 -77.453125 C 80.054688 -72.515625 82.140625 -65.6875 82.921875 -56.96875 L 86.640625 -18.734375 C 86.898438 -15.085938 87.484375 -12.582031 88.390625 -11.21875 C 89.296875 -9.851562 90.398438 -9.171875 91.703125 -9.171875 C 94.046875 -9.171875 95.476562 -10.210938 96 -12.296875 Z M 67.3125 -34.140625 L 67.3125 -34.921875 L 66.140625 -47.03125 C 63.023438 -47.675781 59.484375 -48.289062 55.515625 -48.875 C 51.546875 -49.457031 48.390625 -49.75 46.046875 -49.75 C 30.703125 -49.75 23.03125 -43.117188 23.03125 -29.859375 C 23.03125 -24.648438 24.945312 -19.929688 28.78125 -15.703125 C 32.613281 -11.472656 38.238281 -9.359375 45.65625 -9.359375 C 49.300781 -9.359375 52.78125 -10.367188 56.09375 -12.390625 C 59.414062 -14.410156 62.113281 -17.304688 64.1875 -21.078125 C 66.269531 -24.847656 67.3125 -29.203125 67.3125 -34.140625 Z M 67.3125 -34.140625 "/></g></g></g><g fill="#ffffff" fill-opacity="1"><g transform="translate(305.39466, 165.248664)"><g><path d="M 4.296875 -14.4375 L 9.171875 -32.96875 C 9.171875 -33.101562 9.65625 -33.171875 10.625 -33.171875 C 11.601562 -33.171875 12.613281 -32.84375 13.65625 -32.1875 C 14.695312 -31.539062 15.21875 -30.304688 15.21875 -28.484375 C 14.3125 -18.597656 15.835938 -11.929688 19.796875 -8.484375 C 23.765625 -5.035156 29.785156 -3.3125 37.859375 -3.3125 C 43.710938 -3.3125 48.617188 -4.351562 52.578125 -6.4375 C 56.546875 -8.519531 58.53125 -12.226562 58.53125 -17.5625 C 58.53125 -20.6875 57.78125 -23.453125 56.28125 -25.859375 C 54.789062 -28.265625 52.253906 -30.671875 48.671875 -33.078125 C 45.097656 -35.484375 40.125 -38.242188 33.75 -41.359375 C 29.59375 -43.703125 25.53125 -46.140625 21.5625 -48.671875 C 17.59375 -51.210938 14.367188 -54.078125 11.890625 -57.265625 C 9.421875 -60.453125 8.1875 -64 8.1875 -67.90625 C 8.1875 -74.144531 11.082031 -79.539062 16.875 -84.09375 C 22.664062 -88.644531 31.609375 -90.921875 43.703125 -90.921875 C 49.035156 -90.921875 54.300781 -90.367188 59.5 -89.265625 C 64.707031 -88.160156 68.9375 -86.566406 72.1875 -84.484375 C 75.445312 -82.398438 76.617188 -79.734375 75.703125 -76.484375 L 70.640625 -58.140625 C 70.640625 -58.015625 70.148438 -57.953125 69.171875 -57.953125 C 68.191406 -57.953125 67.25 -58.273438 66.34375 -58.921875 C 65.4375 -59.578125 64.984375 -60.6875 64.984375 -62.25 C 66.015625 -70.050781 65.097656 -75.738281 62.234375 -79.3125 C 59.378906 -82.894531 53.332031 -84.6875 44.09375 -84.6875 C 39.28125 -84.6875 35.640625 -84.128906 33.171875 -83.015625 C 30.703125 -81.910156 29.039062 -80.476562 28.1875 -78.71875 C 27.34375 -76.96875 26.921875 -75.117188 26.921875 -73.171875 C 26.921875 -69.398438 29.035156 -66.015625 33.265625 -63.015625 C 37.492188 -60.023438 42.601562 -56.90625 48.59375 -53.65625 C 56.914062 -49.363281 63.773438 -45.070312 69.171875 -40.78125 C 74.566406 -36.488281 77.265625 -30.960938 77.265625 -24.203125 C 77.265625 -15.484375 73.6875 -8.78125 66.53125 -4.09375 C 59.382812 0.582031 49.828125 2.921875 37.859375 2.921875 C 31.484375 2.921875 25.628906 2.109375 20.296875 0.484375 C 14.960938 -1.140625 10.796875 -3.285156 7.796875 -5.953125 C 4.804688 -8.617188 3.640625 -11.445312 4.296875 -14.4375 Z M 4.296875 -14.4375 "/></g></g></g><g fill="#ffffff" fill-opacity="1"><g transform="translate(387.543186, 165.248664)"><g><path d="M 58.921875 -44.484375 L 9.5625 -44.484375 C 8.519531 -44.484375 7.800781 -44.9375 7.40625 -45.84375 C 7.019531 -46.757812 7.019531 -47.671875 7.40625 -48.578125 C 7.800781 -49.492188 8.519531 -49.953125 9.5625 -49.953125 L 58.921875 -49.953125 C 60.097656 -49.953125 60.847656 -49.492188 61.171875 -48.578125 C 61.492188 -47.671875 61.492188 -46.757812 61.171875 -45.84375 C 60.847656 -44.9375 60.097656 -44.484375 58.921875 -44.484375 Z M 58.921875 -44.484375 "/></g></g></g><g fill="#ffffff" fill-opacity="1"><g transform="translate(451.740052, 165.248664)"><g><path d="M 19.3125 0 C 18.007812 0 16.382812 0.0625 14.4375 0.1875 C 12.488281 0.320312 10.925781 0.390625 9.75 0.390625 C 9.625 0.390625 9.492188 -0.320312 9.359375 -1.75 C 9.234375 -3.1875 10.273438 -4.164062 12.484375 -4.6875 C 16.253906 -5.46875 18.921875 -6.570312 20.484375 -8 C 22.046875 -9.425781 22.828125 -12.875 22.828125 -18.34375 L 22.828125 -118.25 C 22.828125 -123.707031 22.046875 -127.148438 20.484375 -128.578125 C 18.921875 -130.015625 16.253906 -131.125 12.484375 -131.90625 C 10.273438 -132.425781 9.234375 -133.398438 9.359375 -134.828125 C 9.492188 -136.265625 9.625 -136.984375 9.75 -136.984375 C 10.925781 -136.984375 12.488281 -136.914062 14.4375 -136.78125 C 16.382812 -136.65625 18.007812 -136.59375 19.3125 -136.59375 C 28.550781 -136.71875 37.234375 -136.910156 45.359375 -137.171875 C 53.492188 -137.429688 60.289062 -137.5625 65.75 -137.5625 C 75.90625 -137.5625 84.296875 -136.195312 90.921875 -133.46875 C 97.554688 -130.738281 102.5 -127.0625 105.75 -122.4375 C 109.007812 -117.820312 110.640625 -112.71875 110.640625 -107.125 C 110.640625 -98.28125 107.972656 -91.15625 102.640625 -85.75 C 97.304688 -80.351562 89.757812 -77.132812 80 -76.09375 C 88.195312 -75.445312 95.484375 -73.722656 101.859375 -70.921875 C 108.234375 -68.128906 113.207031 -64.195312 116.78125 -59.125 C 120.351562 -54.050781 122.140625 -47.742188 122.140625 -40.203125 C 122.140625 -27.972656 117.359375 -18.082031 107.796875 -10.53125 C 98.242188 -2.988281 84.296875 0.78125 65.953125 0.78125 C 58.929688 0.78125 51.710938 0.679688 44.296875 0.484375 C 36.878906 0.285156 28.550781 0.125 19.3125 0 Z M 51.125 -77.265625 L 63.421875 -78.25 C 73.566406 -79.289062 80.585938 -81.859375 84.484375 -85.953125 C 88.390625 -90.046875 90.34375 -96.320312 90.34375 -104.78125 C 90.34375 -113.363281 87.835938 -119.929688 82.828125 -124.484375 C 77.816406 -129.035156 71.28125 -131.378906 63.21875 -131.515625 L 48.203125 -131.90625 C 45.203125 -131.90625 43.34375 -131.285156 42.625 -130.046875 C 41.914062 -128.816406 41.5625 -126.507812 41.5625 -123.125 L 41.5625 -14.046875 C 41.5625 -10.398438 41.984375 -7.957031 42.828125 -6.71875 C 43.671875 -5.488281 45.785156 -4.875 49.171875 -4.875 L 63.21875 -4.875 C 74.144531 -4.875 83.054688 -7.734375 89.953125 -13.453125 C 96.847656 -19.179688 100.296875 -27.578125 100.296875 -38.640625 C 100.296875 -49.566406 97.367188 -57.789062 91.515625 -63.3125 C 85.660156 -68.84375 76.164062 -71.738281 63.03125 -72 L 50.34375 -72.390625 C 49.820312 -72.390625 49.429688 -73.101562 49.171875 -74.53125 C 48.910156 -75.96875 49.5625 -76.878906 51.125 -77.265625 Z M 51.125 -77.265625 "/></g></g></g><g fill="#ffffff" fill-opacity="1"><g transform="translate(580.523979, 165.248664)"><g><path d="M 104.59375 -13.859375 C 104.851562 -14.242188 105.597656 -14.335938 106.828125 -14.140625 C 108.066406 -13.953125 108.6875 -12.554688 108.6875 -9.953125 C 108.6875 -7.347656 107.351562 -4.644531 104.6875 -1.84375 C 102.019531 0.945312 98.019531 2.34375 92.6875 2.34375 C 88.257812 2.34375 84.550781 0.585938 81.5625 -2.921875 C 78.570312 -6.429688 77.078125 -11.960938 77.078125 -19.515625 L 77.078125 -20.09375 C 74.734375 -13.59375 70.894531 -8.128906 65.5625 -3.703125 C 60.226562 0.710938 53.722656 2.921875 46.046875 2.921875 C 36.554688 2.921875 28.816406 -0.195312 22.828125 -6.4375 C 16.847656 -12.6875 13.859375 -22.25 13.859375 -35.125 L 13.859375 -66.734375 C 13.859375 -69.335938 13.398438 -71.382812 12.484375 -72.875 C 11.578125 -74.375 9.820312 -75.253906 7.21875 -75.515625 C 5.914062 -75.773438 5.101562 -76.359375 4.78125 -77.265625 C 4.457031 -78.179688 4.328125 -79.0625 4.390625 -79.90625 C 4.453125 -80.75 4.484375 -81.171875 4.484375 -81.171875 C 10.335938 -82.210938 15.117188 -83.382812 18.828125 -84.6875 C 22.535156 -85.988281 25.820312 -87.675781 28.6875 -89.75 C 29.332031 -90.007812 30.238281 -89.945312 31.40625 -89.5625 C 32.582031 -89.175781 33.101562 -88.65625 32.96875 -88 C 32.582031 -83.445312 32.226562 -79.445312 31.90625 -76 C 31.582031 -72.550781 31.421875 -68.359375 31.421875 -63.421875 L 31.421875 -36.09375 C 31.421875 -26.207031 33.304688 -18.921875 37.078125 -14.234375 C 40.847656 -9.554688 46.113281 -7.21875 52.875 -7.21875 C 60.289062 -7.21875 66.175781 -10.597656 70.53125 -17.359375 C 74.894531 -24.128906 77.078125 -32.71875 77.078125 -43.125 L 77.078125 -66.734375 C 77.078125 -69.335938 76.617188 -71.382812 75.703125 -72.875 C 74.796875 -74.375 73.039062 -75.253906 70.4375 -75.515625 C 69.132812 -75.773438 68.320312 -76.359375 68 -77.265625 C 67.675781 -78.179688 67.546875 -79.0625 67.609375 -79.90625 C 67.671875 -80.75 67.703125 -81.171875 67.703125 -81.171875 C 73.554688 -82.210938 78.335938 -83.382812 82.046875 -84.6875 C 85.753906 -85.988281 89.039062 -87.675781 91.90625 -89.75 C 92.550781 -90.007812 93.457031 -89.945312 94.625 -89.5625 C 95.800781 -89.175781 96.390625 -88.65625 96.390625 -88 C 95.867188 -83.445312 95.445312 -79.445312 95.125 -76 C 94.800781 -72.550781 94.640625 -68.359375 94.640625 -63.421875 L 94.640625 -22.4375 C 94.640625 -18.019531 95.03125 -14.832031 95.8125 -12.875 C 96.59375 -10.925781 98.019531 -9.953125 100.09375 -9.953125 C 101.394531 -9.953125 102.367188 -10.40625 103.015625 -11.3125 C 103.671875 -12.226562 104.195312 -13.078125 104.59375 -13.859375 Z M 104.59375 -13.859375 "/></g></g></g><g fill="#ffffff" fill-opacity="1"><g transform="translate(693.112369, 165.248664)"><g><path d="M 24.96875 -107.515625 C 21.457031 -107.515625 18.660156 -108.425781 16.578125 -110.25 C 14.503906 -112.070312 13.46875 -114.347656 13.46875 -117.078125 C 13.46875 -120.328125 14.734375 -122.957031 17.265625 -124.96875 C 19.804688 -126.988281 23.023438 -128 26.921875 -128 C 30.304688 -128 33.039062 -127.054688 35.125 -125.171875 C 37.207031 -123.285156 38.25 -120.976562 38.25 -118.25 C 38.25 -115.125 37.007812 -112.550781 34.53125 -110.53125 C 32.0625 -108.519531 28.875 -107.515625 24.96875 -107.515625 Z M 36.6875 -63.421875 L 36.6875 -18.34375 C 36.6875 -13.65625 37.429688 -10.335938 38.921875 -8.390625 C 40.421875 -6.441406 42.472656 -5.335938 45.078125 -5.078125 C 46.898438 -4.941406 48.003906 -4.414062 48.390625 -3.5 C 48.773438 -2.59375 48.835938 -1.71875 48.578125 -0.875 C 48.328125 -0.03125 48.070312 0.390625 47.8125 0.390625 C 41.695312 0.00390625 35.222656 -0.15625 28.390625 -0.09375 C 21.554688 -0.03125 14.695312 0.128906 7.8125 0.390625 C 7.675781 0.390625 7.476562 -0.03125 7.21875 -0.875 C 6.957031 -1.71875 7.050781 -2.59375 7.5 -3.5 C 7.957031 -4.414062 9.097656 -4.941406 10.921875 -5.078125 C 13.660156 -5.335938 15.710938 -6.441406 17.078125 -8.390625 C 18.441406 -10.335938 19.125 -13.71875 19.125 -18.53125 L 19.125 -66.734375 C 19.125 -69.335938 18.664062 -71.382812 17.75 -72.875 C 16.84375 -74.375 15.085938 -75.253906 12.484375 -75.515625 C 11.179688 -75.773438 10.367188 -76.359375 10.046875 -77.265625 C 9.722656 -78.179688 9.59375 -79.0625 9.65625 -79.90625 C 9.71875 -80.75 9.75 -81.171875 9.75 -81.171875 C 15.601562 -82.210938 20.382812 -83.382812 24.09375 -84.6875 C 27.800781 -85.988281 31.085938 -87.675781 33.953125 -89.75 C 34.597656 -90.007812 35.503906 -89.945312 36.671875 -89.5625 C 37.847656 -89.175781 38.375 -88.65625 38.25 -88 C 37.851562 -83.445312 37.492188 -79.445312 37.171875 -76 C 36.847656 -72.550781 36.6875 -68.359375 36.6875 -63.421875 Z M 36.6875 -63.421875 "/></g></g></g><g fill="#ffffff" fill-opacity="1"><g transform="translate(748.918747, 165.248664)"><g><path d="M 34.921875 2.921875 C 28.804688 2.921875 24.023438 0.941406 20.578125 -3.015625 C 17.140625 -6.984375 15.421875 -12.875 15.421875 -20.6875 L 15.421875 -75.703125 C 15.421875 -77.921875 15.253906 -79.613281 14.921875 -80.78125 C 14.597656 -81.945312 13.394531 -82.53125 11.3125 -82.53125 L 5.65625 -82.53125 C 4.351562 -82.53125 3.765625 -83.410156 3.890625 -85.171875 C 4.023438 -86.929688 5.265625 -87.941406 7.609375 -88.203125 C 10.859375 -88.585938 13.65625 -89.332031 16 -90.4375 C 18.34375 -91.539062 20.421875 -93.457031 22.234375 -96.1875 C 24.054688 -98.925781 25.816406 -102.832031 27.515625 -107.90625 C 28.421875 -110.113281 29.984375 -111.21875 32.203125 -111.21875 C 33.234375 -111.21875 33.75 -110.894531 33.75 -110.25 C 33.882812 -107.382812 33.914062 -104.195312 33.84375 -100.6875 C 33.78125 -97.175781 33.617188 -94.3125 33.359375 -92.09375 C 33.234375 -89.363281 34.535156 -88 37.265625 -88 L 60.296875 -88 C 60.816406 -88 61.171875 -87.539062 61.359375 -86.625 C 61.554688 -85.71875 61.457031 -84.804688 61.0625 -83.890625 C 60.675781 -82.984375 59.832031 -82.53125 58.53125 -82.53125 L 38.640625 -82.53125 C 36.554688 -82.53125 35.085938 -82.140625 34.234375 -81.359375 C 33.390625 -80.585938 32.96875 -79.222656 32.96875 -77.265625 L 32.96875 -20.6875 C 32.96875 -15.351562 34.398438 -11.742188 37.265625 -9.859375 C 40.128906 -7.972656 43.546875 -7.710938 47.515625 -9.078125 C 51.484375 -10.441406 55.09375 -13.269531 58.34375 -17.5625 C 58.601562 -17.945312 59.085938 -17.847656 59.796875 -17.265625 C 60.515625 -16.679688 60.90625 -15.738281 60.96875 -14.4375 C 61.039062 -13.132812 60.164062 -11.378906 58.34375 -9.171875 C 54.957031 -4.878906 51.25 -1.789062 47.21875 0.09375 C 43.1875 1.976562 39.085938 2.921875 34.921875 2.921875 Z M 34.921875 2.921875 "/></g></g></g><g fill="#ffffff" fill-opacity="1"><g transform="translate(813.310667, 165.248664)"><g><path d="M 63.21875 -90.921875 C 67.25 -90.921875 70.890625 -90.078125 74.140625 -88.390625 C 77.398438 -86.703125 79.84375 -84.457031 81.46875 -81.65625 C 83.09375 -78.863281 83.445312 -75.773438 82.53125 -72.390625 L 76.296875 -50.921875 C 76.296875 -50.660156 75.707031 -50.5 74.53125 -50.4375 C 73.363281 -50.375 72.226562 -50.664062 71.125 -51.3125 C 70.019531 -51.96875 69.53125 -53.269531 69.65625 -55.21875 C 70.570312 -61.976562 70.570312 -67.113281 69.65625 -70.625 C 68.75 -74.144531 67.125 -76.585938 64.78125 -77.953125 C 62.4375 -79.316406 59.578125 -80 56.203125 -80 C 52.160156 -80 48.835938 -78.632812 46.234375 -75.90625 C 43.640625 -73.175781 41.691406 -69.726562 40.390625 -65.5625 C 39.085938 -61.394531 38.175781 -57.035156 37.65625 -52.484375 C 37.132812 -47.929688 36.875 -43.835938 36.875 -40.203125 L 36.875 -18.34375 C 36.875 -13.65625 37.617188 -10.335938 39.109375 -8.390625 C 40.609375 -6.441406 42.660156 -5.335938 45.265625 -5.078125 C 47.085938 -4.941406 48.257812 -4.414062 48.78125 -3.5 C 49.300781 -2.59375 49.429688 -1.71875 49.171875 -0.875 C 48.910156 -0.03125 48.519531 0.390625 48 0.390625 C 41.882812 0.00390625 35.441406 -0.15625 28.671875 -0.09375 C 21.910156 -0.03125 15.082031 0.128906 8.1875 0.390625 C 7.800781 0.390625 7.476562 -0.03125 7.21875 -0.875 C 6.957031 -1.71875 7.085938 -2.59375 7.609375 -3.5 C 8.128906 -4.414062 9.300781 -4.941406 11.125 -5.078125 C 13.988281 -5.335938 16.066406 -6.441406 17.359375 -8.390625 C 18.660156 -10.335938 19.3125 -13.71875 19.3125 -18.53125 L 19.3125 -66.734375 C 19.3125 -69.335938 18.851562 -71.382812 17.9375 -72.875 C 17.03125 -74.375 15.28125 -75.253906 12.6875 -75.515625 C 11.382812 -75.773438 10.566406 -76.359375 10.234375 -77.265625 C 9.910156 -78.179688 9.8125 -79.0625 9.9375 -79.90625 C 10.070312 -80.75 10.140625 -81.171875 10.140625 -81.171875 C 15.867188 -82.210938 20.585938 -83.382812 24.296875 -84.6875 C 28.003906 -85.988281 31.285156 -87.675781 34.140625 -89.75 C 34.796875 -90.007812 35.707031 -89.945312 36.875 -89.5625 C 38.050781 -89.175781 38.640625 -88.65625 38.640625 -88 C 38.242188 -84.351562 37.914062 -81.035156 37.65625 -78.046875 C 37.394531 -75.054688 37.132812 -71.867188 36.875 -68.484375 C 38.175781 -72.128906 39.898438 -75.640625 42.046875 -79.015625 C 44.191406 -82.398438 46.988281 -85.226562 50.4375 -87.5 C 53.882812 -89.78125 58.144531 -90.921875 63.21875 -90.921875 Z M 63.21875 -90.921875 "/></g></g></g><g fill="#ffffff" fill-opacity="1"><g transform="translate(898.386041, 165.248664)"><g><path d="M 96 -12.296875 C 96.257812 -12.296875 96.941406 -12.097656 98.046875 -11.703125 C 99.148438 -11.316406 99.703125 -10.144531 99.703125 -8.1875 C 99.703125 -5.332031 98.335938 -2.863281 95.609375 -0.78125 C 92.878906 1.300781 89.5625 2.34375 85.65625 2.34375 C 75.769531 2.34375 70.242188 -4.09375 69.078125 -16.96875 L 68.6875 -20.09375 C 66.21875 -12.9375 62.25 -7.34375 56.78125 -3.3125 C 51.320312 0.71875 45.335938 2.734375 38.828125 2.734375 C 31.546875 2.734375 25.53125 1.335938 20.78125 -1.453125 C 16.03125 -4.253906 12.515625 -7.863281 10.234375 -12.28125 C 7.960938 -16.707031 6.828125 -21.195312 6.828125 -25.75 C 6.828125 -34.988281 10.078125 -42.40625 16.578125 -48 C 23.085938 -53.59375 31.675781 -56.390625 42.34375 -56.390625 C 46.113281 -56.390625 50.113281 -56.128906 54.34375 -55.609375 C 58.570312 -55.085938 62.242188 -54.503906 65.359375 -53.859375 L 64.984375 -58.53125 C 64.203125 -67.769531 61.628906 -74.242188 57.265625 -77.953125 C 52.910156 -81.660156 47.285156 -83.515625 40.390625 -83.515625 C 34.796875 -83.515625 29.882812 -82.570312 25.65625 -80.6875 C 21.425781 -78.800781 17.625 -76.164062 14.25 -72.78125 C 14.25 -72.78125 13.859375 -73.003906 13.078125 -73.453125 C 12.296875 -73.910156 11.773438 -74.628906 11.515625 -75.609375 C 11.253906 -76.585938 11.835938 -77.726562 13.265625 -79.03125 C 16.390625 -82.40625 20.8125 -85.226562 26.53125 -87.5 C 32.257812 -89.78125 38.894531 -90.921875 46.4375 -90.921875 C 52.8125 -90.921875 58.597656 -89.910156 63.796875 -87.890625 C 69.003906 -85.878906 73.296875 -82.398438 76.671875 -77.453125 C 80.054688 -72.515625 82.140625 -65.6875 82.921875 -56.96875 L 86.640625 -18.734375 C 86.898438 -15.085938 87.484375 -12.582031 88.390625 -11.21875 C 89.296875 -9.851562 90.398438 -9.171875 91.703125 -9.171875 C 94.046875 -9.171875 95.476562 -10.210938 96 -12.296875 Z M 67.3125 -34.140625 L 67.3125 -34.921875 L 66.140625 -47.03125 C 63.023438 -47.675781 59.484375 -48.289062 55.515625 -48.875 C 51.546875 -49.457031 48.390625 -49.75 46.046875 -49.75 C 30.703125 -49.75 23.03125 -43.117188 23.03125 -29.859375 C 23.03125 -24.648438 24.945312 -19.929688 28.78125 -15.703125 C 32.613281 -11.472656 38.238281 -9.359375 45.65625 -9.359375 C 49.300781 -9.359375 52.78125 -10.367188 56.09375 -12.390625 C 59.414062 -14.410156 62.113281 -17.304688 64.1875 -21.078125 C 66.269531 -24.847656 67.3125 -29.203125 67.3125 -34.140625 Z M 67.3125 -34.140625 "/></g></g></g><g fill="#ffffff" fill-opacity="1"><g transform="translate(1001.998555, 165.248664)"><g><path d="M 98.53125 -89.375 C 99.050781 -89.5 99.472656 -89.140625 99.796875 -88.296875 C 100.128906 -87.453125 100.128906 -86.570312 99.796875 -85.65625 C 99.472656 -84.75 98.46875 -84.226562 96.78125 -84.09375 C 88.71875 -83.1875 84.75 -81.820312 84.875 -80 C 88.382812 -76.75 91.113281 -73.007812 93.0625 -68.78125 C 95.019531 -64.550781 96 -59.96875 96 -55.03125 C 96 -46.832031 93.492188 -39.546875 88.484375 -33.171875 C 83.484375 -26.796875 76.816406 -22.113281 68.484375 -19.125 C 76.941406 -17.300781 83.738281 -13.785156 88.875 -8.578125 C 94.019531 -3.378906 96.59375 3.25 96.59375 11.3125 C 96.59375 17.425781 94.609375 22.789062 90.640625 27.40625 C 86.671875 32.03125 81.269531 35.609375 74.4375 38.140625 C 67.613281 40.679688 59.84375 41.953125 51.125 41.953125 C 42.28125 41.953125 34.632812 40.453125 28.1875 37.453125 C 21.75 34.460938 16.835938 30.5625 13.453125 25.75 C 10.078125 20.9375 8.519531 15.863281 8.78125 10.53125 C 8.90625 7.019531 10.140625 3.601562 12.484375 0.28125 C 14.828125 -3.03125 18.40625 -5.921875 23.21875 -8.390625 C 24.257812 -8.648438 25.132812 -8.519531 25.84375 -8 C 26.5625 -7.476562 26.726562 -6.503906 26.34375 -5.078125 C 25.5625 -3.515625 25.007812 -1.921875 24.6875 -0.296875 C 24.363281 1.328125 24.203125 2.988281 24.203125 4.6875 C 24.328125 9.5 25.785156 14.242188 28.578125 18.921875 C 31.378906 23.609375 35.085938 27.476562 39.703125 30.53125 C 44.328125 33.59375 49.367188 35.125 54.828125 35.125 C 61.984375 35.125 67.738281 33.363281 72.09375 29.84375 C 76.457031 26.332031 78.640625 21.976562 78.640625 16.78125 C 78.640625 10.664062 77.269531 5.132812 74.53125 0.1875 C 71.800781 -4.75 68.191406 -8.679688 63.703125 -11.609375 C 59.210938 -14.535156 54.300781 -16 48.96875 -16 L 48.59375 -16 C 40.914062 -16.257812 34.050781 -18.046875 28 -21.359375 C 21.945312 -24.679688 17.164062 -29.039062 13.65625 -34.4375 C 10.144531 -39.832031 8.390625 -45.71875 8.390625 -52.09375 C 8.390625 -59.644531 10.335938 -66.347656 14.234375 -72.203125 C 18.140625 -78.054688 23.539062 -82.640625 30.4375 -85.953125 C 37.332031 -89.265625 45.203125 -90.921875 54.046875 -90.921875 C 59.773438 -90.921875 64.617188 -90.46875 68.578125 -89.5625 C 72.546875 -88.65625 76.742188 -88.203125 81.171875 -88.203125 C 83.640625 -88.203125 86.628906 -88.363281 90.140625 -88.6875 C 93.660156 -89.007812 96.457031 -89.238281 98.53125 -89.375 Z M 55.21875 -23.03125 C 62.375 -23.03125 68.195312 -25.269531 72.6875 -29.75 C 77.175781 -34.238281 79.421875 -39.929688 79.421875 -46.828125 C 79.421875 -51.117188 78.640625 -55.441406 77.078125 -59.796875 C 75.515625 -64.160156 73.332031 -68.160156 70.53125 -71.796875 C 67.738281 -75.441406 64.550781 -78.367188 60.96875 -80.578125 C 57.394531 -82.796875 53.523438 -83.90625 49.359375 -83.90625 C 41.816406 -83.90625 35.898438 -81.722656 31.609375 -77.359375 C 27.316406 -73.003906 25.171875 -67.25 25.171875 -60.09375 C 25.171875 -54.5 26.46875 -48.835938 29.0625 -43.109375 C 31.664062 -37.390625 35.242188 -32.613281 39.796875 -28.78125 C 44.359375 -24.945312 49.5 -23.03125 55.21875 -23.03125 Z M 55.21875 -23.03125 "/></g></g></g><g fill="#ffffff" fill-opacity="1"><g transform="translate(1109.123398, 165.248664)"><g><path d="M 52.6875 2.921875 C 43.707031 2.921875 35.769531 1.035156 28.875 -2.734375 C 21.976562 -6.503906 16.613281 -11.800781 12.78125 -18.625 C 8.945312 -25.457031 7.03125 -33.363281 7.03125 -42.34375 C 7.03125 -52.351562 9.304688 -60.96875 13.859375 -68.1875 C 18.410156 -75.414062 24.457031 -81.007812 32 -84.96875 C 39.539062 -88.9375 47.800781 -90.921875 56.78125 -90.921875 C 66.40625 -90.921875 74.796875 -88.9375 81.953125 -84.96875 C 89.109375 -81.007812 94.632812 -75.644531 98.53125 -68.875 C 102.4375 -62.113281 104.390625 -54.441406 104.390625 -45.859375 C 104.390625 -35.972656 102.175781 -27.382812 97.75 -20.09375 C 93.332031 -12.8125 87.253906 -7.15625 79.515625 -3.125 C 71.773438 0.90625 62.832031 2.921875 52.6875 2.921875 Z M 60.484375 -4.875 C 69.328125 -4.875 76.125 -7.570312 80.875 -12.96875 C 85.625 -18.375 88.066406 -25.429688 88.203125 -34.140625 C 88.460938 -39.609375 87.710938 -45.203125 85.953125 -50.921875 C 84.191406 -56.648438 81.648438 -61.984375 78.328125 -66.921875 C 75.015625 -71.867188 71.113281 -75.835938 66.625 -78.828125 C 62.144531 -81.816406 57.238281 -83.3125 51.90625 -83.3125 C 42.539062 -83.3125 35.484375 -80.445312 30.734375 -74.71875 C 25.984375 -69 23.546875 -62.109375 23.421875 -54.046875 C 23.023438 -47.929688 23.703125 -41.945312 25.453125 -36.09375 C 27.210938 -30.238281 29.785156 -24.96875 33.171875 -20.28125 C 36.554688 -15.601562 40.554688 -11.863281 45.171875 -9.0625 C 49.785156 -6.269531 54.890625 -4.875 60.484375 -4.875 Z M 60.484375 -4.875 "/></g></g></g><g fill="#ffffff" fill-opacity="1"><g transform="translate(1220.541057, 165.248664)"><g><path d="M 10.734375 26.53125 C 9.429688 26.664062 8.710938 26.179688 8.578125 25.078125 C 8.453125 23.972656 8.648438 23.289062 9.171875 23.03125 C 13.722656 20.425781 16.875 17.460938 18.625 14.140625 C 20.382812 10.828125 21.203125 7.609375 21.078125 4.484375 C 21.078125 2.921875 20.390625 1.878906 19.015625 1.359375 C 17.648438 0.835938 16.125 0.351562 14.4375 -0.09375 C 12.75 -0.550781 11.253906 -1.300781 9.953125 -2.34375 C 8.648438 -3.382812 8 -5.269531 8 -8 C 8 -10.863281 9.101562 -13.59375 11.3125 -16.1875 C 13.53125 -18.789062 16.785156 -20.09375 21.078125 -20.09375 C 24.847656 -20.09375 27.675781 -18.953125 29.5625 -16.671875 C 31.445312 -14.398438 32.390625 -11.507812 32.390625 -8 C 32.390625 -2.539062 31.316406 2.5625 29.171875 7.3125 C 27.023438 12.0625 24.328125 16.09375 21.078125 19.40625 C 17.828125 22.726562 14.378906 25.101562 10.734375 26.53125 Z M 10.734375 26.53125 "/></g></g></g><g fill="#ffffff" fill-opacity="1"><g transform="translate(1260.151895, 165.248664)"><g/></g></g><g fill="#ffffff" fill-opacity="1"><g transform="translate(1304.250649, 165.248664)"><g><path d="M 62.4375 -56.78125 L 50.34375 -57.171875 C 49.425781 -58.210938 49 -59.316406 49.0625 -60.484375 C 49.132812 -61.660156 49.820312 -62.3125 51.125 -62.4375 L 61.65625 -62.25 C 86.238281 -62.113281 98.53125 -73.101562 98.53125 -95.21875 C 98.53125 -102.238281 97.097656 -108.476562 94.234375 -113.9375 C 91.378906 -119.40625 87.347656 -123.734375 82.140625 -126.921875 C 76.941406 -130.109375 70.703125 -131.703125 63.421875 -131.703125 L 48 -131.90625 C 45.394531 -131.90625 43.671875 -131.445312 42.828125 -130.53125 C 41.984375 -129.625 41.5625 -127.609375 41.5625 -124.484375 L 41.5625 -18.34375 C 41.5625 -12.875 42.566406 -9.425781 44.578125 -8 C 46.597656 -6.570312 50.015625 -5.46875 54.828125 -4.6875 C 56.910156 -4.289062 58.175781 -3.703125 58.625 -2.921875 C 59.082031 -2.140625 59.210938 -1.390625 59.015625 -0.671875 C 58.828125 0.0351562 58.664062 0.390625 58.53125 0.390625 C 56.976562 0.390625 54.992188 0.320312 52.578125 0.1875 C 50.171875 0.0625 48.0625 0 46.25 0 L 19.3125 0 C 18.007812 0 16.414062 0.0625 14.53125 0.1875 C 12.644531 0.320312 11.050781 0.390625 9.75 0.390625 C 9.625 0.390625 9.492188 -0.320312 9.359375 -1.75 C 9.234375 -3.1875 10.34375 -4.164062 12.6875 -4.6875 C 16.320312 -5.46875 18.921875 -6.570312 20.484375 -8 C 22.046875 -9.425781 22.828125 -12.875 22.828125 -18.34375 L 22.828125 -118.25 C 22.828125 -123.707031 22.046875 -127.148438 20.484375 -128.578125 C 18.921875 -130.015625 16.253906 -131.125 12.484375 -131.90625 C 10.273438 -132.425781 9.234375 -133.398438 9.359375 -134.828125 C 9.492188 -136.265625 9.625 -136.984375 9.75 -136.984375 C 10.925781 -136.984375 12.488281 -136.914062 14.4375 -136.78125 C 16.382812 -136.65625 18.007812 -136.59375 19.3125 -136.59375 C 28.675781 -136.71875 37.128906 -136.878906 44.671875 -137.078125 C 52.222656 -137.273438 59.507812 -137.375 66.53125 -137.375 C 83.1875 -137.375 96.066406 -133.757812 105.171875 -126.53125 C 114.273438 -119.3125 118.828125 -109.265625 118.828125 -96.390625 C 118.828125 -88.191406 116.875 -81.003906 112.96875 -74.828125 C 109.070312 -68.648438 102.992188 -63.9375 94.734375 -60.6875 C 86.472656 -57.4375 75.707031 -56.132812 62.4375 -56.78125 Z M 62.4375 -56.78125 "/></g></g></g><g fill="#ffffff" fill-opacity="1"><g transform="translate(1428.741763, 165.248664)"><g><path d="M 18.734375 1.953125 C 15.609375 1.953125 13.035156 1.109375 11.015625 -0.578125 C 9.003906 -2.273438 8 -4.554688 8 -7.421875 C 8 -10.535156 9.132812 -13.425781 11.40625 -16.09375 C 13.6875 -18.757812 17.234375 -20.09375 22.046875 -20.09375 C 24.773438 -20.09375 27.050781 -19.148438 28.875 -17.265625 C 30.695312 -15.378906 31.609375 -12.875 31.609375 -9.75 C 31.609375 -6.238281 30.242188 -3.410156 27.515625 -1.265625 C 24.785156 0.878906 21.859375 1.953125 18.734375 1.953125 Z M 18.734375 1.953125 "/></g></g></g></svg>