<svg xmlns="http://www.w3.org/2000/svg" xmlns:xlink="http://www.w3.org/1999/xlink" width="1080" zoomAndPan="magnify" viewBox="0 0 810 225" height="300" preserveAspectRatio="xMidYMid meet" version="1.0"><defs><g/></defs><g fill="#737373" fill-opacity="1"><g transform="translate(0.0286437, 144.122624)"><g><path d="M 5.609375 0 L 5.609375 -1.453125 C 7.335938 -1.984375 8.519531 -3.109375 9.15625 -4.828125 C 9.789062 -6.546875 10.109375 -9.6875 10.109375 -14.25 L 10.109375 -59.84375 C 10.109375 -64.101562 9.84375 -67.410156 9.3125 -69.765625 C 8.789062 -72.128906 8.023438 -73.832031 7.015625 -74.875 C 6.003906 -75.925781 4.75 -76.675781 3.25 -77.125 L 3.25 -78.578125 L 16.84375 -78.578125 L 46.140625 -30.203125 L 74.875 -78.578125 L 87.5625 -78.578125 L 87.5625 -77.125 C 86.070312 -76.675781 84.820312 -75.925781 83.8125 -74.875 C 82.800781 -73.832031 82.03125 -72.128906 81.5 -69.765625 C 80.976562 -67.410156 80.71875 -64.101562 80.71875 -59.84375 L 80.71875 -14.25 C 80.71875 -9.6875 81.035156 -6.546875 81.671875 -4.828125 C 82.304688 -3.109375 83.484375 -1.984375 85.203125 -1.453125 L 85.203125 0 L 67.015625 0 L 67.015625 -1.453125 C 68.742188 -1.984375 69.925781 -3.109375 70.5625 -4.828125 C 71.195312 -6.546875 71.515625 -9.6875 71.515625 -14.25 L 71.515625 -69.5 L 43 -21.328125 L 40.859375 -21.328125 L 12.125 -68.59375 L 12.125 -18.75 C 12.125 -14.476562 12.421875 -11.179688 13.015625 -8.859375 C 13.617188 -6.546875 14.476562 -4.847656 15.59375 -3.765625 C 16.71875 -2.679688 18.109375 -1.910156 19.765625 -1.453125 L 19.765625 0 Z M 5.609375 0 "/></g></g></g><g fill="#737373" fill-opacity="1"><g transform="translate(93.312141, 144.122624)"><g><path d="M 47.046875 0 C 44.796875 0 43.671875 -1.125 43.671875 -3.375 L 43.671875 -23.578125 C 42.546875 -19.015625 40.785156 -14.859375 38.390625 -11.109375 C 35.992188 -7.367188 33.207031 -4.394531 30.03125 -2.1875 C 26.851562 0.0195312 23.390625 1.125 19.640625 1.125 C 16.878906 1.125 14.300781 0.5625 11.90625 -0.5625 C 9.507812 -1.6875 7.578125 -3.332031 6.109375 -5.5 C 4.648438 -7.664062 3.921875 -10.359375 3.921875 -13.578125 C 3.921875 -17.472656 5.082031 -20.65625 7.40625 -23.125 C 9.726562 -25.59375 12.816406 -27.613281 16.671875 -29.1875 C 20.523438 -30.757812 24.660156 -32.144531 29.078125 -33.34375 L 43.671875 -37.265625 C 43.367188 -42.734375 41.867188 -46.757812 39.171875 -49.34375 C 36.484375 -51.925781 32.742188 -53.21875 27.953125 -53.21875 C 24.585938 -53.21875 21.3125 -52.410156 18.125 -50.796875 C 14.945312 -49.191406 11.9375 -46.664062 9.09375 -43.21875 L 8.078125 -44.125 C 11.296875 -48.09375 14.941406 -51.21875 19.015625 -53.5 C 23.097656 -55.78125 27.570312 -56.921875 32.4375 -56.921875 C 39.25 -56.921875 44.265625 -55.140625 47.484375 -51.578125 C 50.703125 -48.023438 52.3125 -43.066406 52.3125 -36.703125 L 52.3125 -14.25 C 52.3125 -9.6875 52.628906 -6.546875 53.265625 -4.828125 C 53.898438 -3.109375 55.082031 -1.984375 56.8125 -1.453125 L 56.8125 0 Z M 12.34375 -16.734375 C 12.34375 -13.054688 13.445312 -10.265625 15.65625 -8.359375 C 17.863281 -6.453125 20.578125 -5.5 23.796875 -5.5 C 26.796875 -5.5 29.507812 -6.335938 31.9375 -8.015625 C 34.375 -9.703125 36.453125 -11.894531 38.171875 -14.59375 C 39.890625 -17.289062 41.234375 -20.207031 42.203125 -23.34375 C 43.179688 -26.488281 43.671875 -29.519531 43.671875 -32.4375 L 43.671875 -35.8125 L 29.53125 -32 C 26.757812 -31.25 24.046875 -30.253906 21.390625 -29.015625 C 18.734375 -27.785156 16.5625 -26.195312 14.875 -24.25 C 13.1875 -22.300781 12.34375 -19.796875 12.34375 -16.734375 Z M 12.34375 -16.734375 "/></g></g></g><g fill="#737373" fill-opacity="1"><g transform="translate(152.807031, 144.122624)"><g><path d="M 25.375 1.015625 C 20.882812 1.015625 16.820312 0.453125 13.1875 -0.671875 C 9.5625 -1.796875 6.8125 -2.957031 4.9375 -4.15625 L 3.921875 -17.734375 L 4.9375 -17.96875 C 7.332031 -12.644531 10.472656 -8.46875 14.359375 -5.4375 C 18.253906 -2.40625 22.75 -0.851562 27.84375 -0.78125 C 31.363281 -0.78125 34.265625 -1.734375 36.546875 -3.640625 C 38.828125 -5.554688 39.96875 -8.082031 39.96875 -11.21875 C 39.96875 -13.914062 39.195312 -16.085938 37.65625 -17.734375 C 36.125 -19.378906 34.101562 -20.722656 31.59375 -21.765625 C 29.09375 -22.816406 26.382812 -23.796875 23.46875 -24.703125 C 19.945312 -25.816406 16.800781 -26.992188 14.03125 -28.234375 C 11.257812 -29.472656 9.085938 -31.101562 7.515625 -33.125 C 5.953125 -35.144531 5.171875 -37.835938 5.171875 -41.203125 C 5.171875 -45.617188 6.945312 -49.34375 10.5 -52.375 C 14.050781 -55.40625 19.082031 -56.921875 25.59375 -56.921875 C 29.257812 -56.921875 32.644531 -56.601562 35.75 -55.96875 C 38.863281 -55.332031 41.28125 -54.640625 43 -53.890625 L 43.453125 -42.4375 L 42.328125 -42.21875 C 40.523438 -46.257812 37.941406 -49.472656 34.578125 -51.859375 C 31.210938 -54.253906 27.546875 -55.453125 23.578125 -55.453125 C 19.753906 -55.453125 16.703125 -54.59375 14.421875 -52.875 C 12.140625 -51.15625 11 -48.875 11 -46.03125 C 11 -43.707031 11.726562 -41.757812 13.1875 -40.1875 C 14.644531 -38.613281 16.585938 -37.285156 19.015625 -36.203125 C 21.453125 -35.117188 24.132812 -34.09375 27.0625 -33.125 C 29.226562 -32.445312 31.414062 -31.710938 33.625 -30.921875 C 35.832031 -30.140625 37.851562 -29.164062 39.6875 -28 C 41.519531 -26.84375 43.015625 -25.347656 44.171875 -23.515625 C 45.335938 -21.679688 45.921875 -19.34375 45.921875 -16.5 C 45.921875 -13.351562 45.148438 -10.453125 43.609375 -7.796875 C 42.078125 -5.140625 39.773438 -3.023438 36.703125 -1.453125 C 33.640625 0.109375 29.863281 0.929688 25.375 1.015625 Z M 25.375 1.015625 "/></g></g></g><g fill="#737373" fill-opacity="1"><g transform="translate(202.760291, 144.122624)"><g><path d="M 5.84375 -27.28125 L 5.84375 -28.859375 L 35.140625 -28.859375 L 35.140625 -27.28125 Z M 5.84375 -27.28125 "/></g></g></g><g fill="#737373" fill-opacity="1"><g transform="translate(243.733187, 144.122624)"><g><path d="M 5.71875 0 L 5.71875 -1.453125 C 7.445312 -1.984375 8.628906 -3.109375 9.265625 -4.828125 C 9.898438 -6.546875 10.21875 -9.6875 10.21875 -14.25 L 10.21875 -64.328125 C 10.21875 -68.960938 9.898438 -72.125 9.265625 -73.8125 C 8.628906 -75.5 7.445312 -76.601562 5.71875 -77.125 L 5.71875 -78.578125 L 32 -78.578125 C 40.675781 -78.578125 46.90625 -77.25 50.6875 -74.59375 C 54.46875 -71.9375 56.359375 -68.328125 56.359375 -63.765625 C 56.359375 -59.953125 55.007812 -56.472656 52.3125 -53.328125 C 49.625 -50.179688 45.0625 -48.007812 38.625 -46.8125 C 44.757812 -46.507812 49.769531 -45.382812 53.65625 -43.4375 C 57.550781 -41.5 60.429688 -38.992188 62.296875 -35.921875 C 64.171875 -32.859375 65.109375 -29.492188 65.109375 -25.828125 C 65.179688 -22.679688 64.582031 -19.570312 63.3125 -16.5 C 62.039062 -13.4375 59.984375 -10.664062 57.140625 -8.1875 C 54.296875 -5.71875 50.535156 -3.734375 45.859375 -2.234375 C 41.179688 -0.742188 35.4375 0 28.625 0 Z M 19.421875 -11.453125 C 19.421875 -7.410156 19.796875 -4.769531 20.546875 -3.53125 C 21.296875 -2.300781 22.867188 -1.6875 25.265625 -1.6875 L 29.640625 -1.6875 C 35.773438 -1.6875 40.675781 -2.601562 44.34375 -4.4375 C 48.007812 -6.269531 50.679688 -8.796875 52.359375 -12.015625 C 54.046875 -15.234375 54.890625 -18.898438 54.890625 -23.015625 C 54.890625 -27.359375 54.066406 -31.191406 52.421875 -34.515625 C 50.773438 -37.847656 48.175781 -40.488281 44.625 -42.4375 C 41.070312 -44.382812 36.488281 -45.359375 30.875 -45.359375 L 19.421875 -45.359375 Z M 19.421875 -47.046875 L 29.859375 -47.046875 C 35.398438 -47.046875 39.5 -48.46875 42.15625 -51.3125 C 44.8125 -54.15625 46.140625 -57.632812 46.140625 -61.75 C 46.140625 -66.382812 44.546875 -70.066406 41.359375 -72.796875 C 38.179688 -75.535156 33.710938 -76.90625 27.953125 -76.90625 L 19.421875 -76.90625 Z M 19.421875 -47.046875 "/></g></g></g><g fill="#737373" fill-opacity="1"><g transform="translate(312.43296, 144.122624)"><g><path d="M 24.46875 1.125 C 18.5625 1.125 14.222656 -0.671875 11.453125 -4.265625 C 8.679688 -7.859375 7.296875 -12.875 7.296875 -19.3125 L 7.296875 -40.078125 C 7.296875 -42.703125 7.125 -44.664062 6.78125 -45.96875 C 6.445312 -47.28125 5.960938 -48.234375 5.328125 -48.828125 C 4.691406 -49.429688 3.851562 -49.957031 2.8125 -50.40625 L 2.8125 -51.640625 L 15.046875 -57.03125 L 16.046875 -56.25 L 16.046875 -21.328125 C 16.046875 -14.960938 17.019531 -10.285156 18.96875 -7.296875 C 20.914062 -4.304688 24.132812 -2.8125 28.625 -2.8125 C 31.914062 -2.8125 35.054688 -3.726562 38.046875 -5.5625 C 41.046875 -7.394531 43.816406 -9.65625 46.359375 -12.34375 L 46.359375 -40.078125 C 46.359375 -42.703125 46.191406 -44.664062 45.859375 -45.96875 C 45.523438 -47.28125 45.039062 -48.234375 44.40625 -48.828125 C 43.769531 -49.429688 42.925781 -49.957031 41.875 -50.40625 L 41.875 -51.640625 L 54.109375 -57.03125 L 55.125 -56.25 L 55.125 -14.25 C 55.125 -9.6875 55.441406 -6.546875 56.078125 -4.828125 C 56.710938 -3.109375 57.890625 -1.984375 59.609375 -1.453125 L 59.609375 0 L 50.078125 0 C 48.878906 0 47.957031 -0.332031 47.3125 -1 C 46.675781 -1.675781 46.359375 -2.835938 46.359375 -4.484375 L 46.359375 -10.21875 C 43.515625 -7.21875 40.203125 -4.578125 36.421875 -2.296875 C 32.648438 -0.015625 28.664062 1.125 24.46875 1.125 Z M 24.46875 1.125 "/></g></g></g><g fill="#737373" fill-opacity="1"><g transform="translate(375.969013, 144.122624)"><g><path d="M 3.59375 0 L 3.59375 -1.453125 C 5.3125 -1.984375 6.488281 -3.109375 7.125 -4.828125 C 7.757812 -6.546875 8.078125 -9.6875 8.078125 -14.25 L 8.078125 -40.078125 C 8.078125 -42.703125 7.925781 -44.664062 7.625 -45.96875 C 7.332031 -47.28125 6.847656 -48.234375 6.171875 -48.828125 C 5.503906 -49.429688 4.644531 -49.957031 3.59375 -50.40625 L 3.59375 -51.640625 L 15.9375 -57.03125 L 16.84375 -56.25 L 16.84375 -14.25 C 16.84375 -9.6875 17.175781 -6.546875 17.84375 -4.828125 C 18.519531 -3.109375 19.679688 -1.984375 21.328125 -1.453125 L 21.328125 0 Z M 5.609375 -70.046875 C 5.609375 -71.847656 6.207031 -73.347656 7.40625 -74.546875 C 8.601562 -75.742188 10.0625 -76.34375 11.78125 -76.34375 C 13.582031 -76.34375 15.0625 -75.742188 16.21875 -74.546875 C 17.382812 -73.347656 17.96875 -71.847656 17.96875 -70.046875 C 17.96875 -68.398438 17.367188 -66.957031 16.171875 -65.71875 C 14.972656 -64.488281 13.507812 -63.875 11.78125 -63.875 C 10.0625 -63.875 8.601562 -64.488281 7.40625 -65.71875 C 6.207031 -66.957031 5.609375 -68.398438 5.609375 -70.046875 Z M 5.609375 -70.046875 "/></g></g></g><g fill="#737373" fill-opacity="1"><g transform="translate(401.226268, 144.122624)"><g><path d="M 21.21875 1.125 C 17.695312 1.125 14.925781 -0.0859375 12.90625 -2.515625 C 10.882812 -4.953125 9.875 -9.09375 9.875 -14.9375 L 9.875 -54.5625 L 2.6875 -54.5625 L 2.6875 -56.125 L 17.0625 -69.9375 L 18.640625 -69.9375 L 18.640625 -56.125 L 35.703125 -56.125 L 35.140625 -54.5625 L 18.640625 -54.5625 L 18.640625 -14.9375 C 18.640625 -11.113281 19.367188 -8.394531 20.828125 -6.78125 C 22.285156 -5.175781 24.210938 -4.375 26.609375 -4.375 C 28.179688 -4.375 29.898438 -4.800781 31.765625 -5.65625 C 33.640625 -6.519531 35.515625 -8.039062 37.390625 -10.21875 L 38.390625 -9.203125 C 35.992188 -6.429688 33.351562 -4.015625 30.46875 -1.953125 C 27.59375 0.0976562 24.507812 1.125 21.21875 1.125 Z M 21.21875 1.125 "/></g></g></g><g fill="#737373" fill-opacity="1"><g transform="translate(439.841824, 144.122624)"><g><path d="M 3.59375 0 L 3.59375 -1.453125 C 5.3125 -1.984375 6.488281 -3.109375 7.125 -4.828125 C 7.757812 -6.546875 8.078125 -9.6875 8.078125 -14.25 L 8.078125 -40.078125 C 8.078125 -42.703125 7.910156 -44.664062 7.578125 -45.96875 C 7.242188 -47.28125 6.757812 -48.234375 6.125 -48.828125 C 5.488281 -49.429688 4.644531 -49.957031 3.59375 -50.40625 L 3.59375 -51.640625 L 15.828125 -57.03125 L 16.84375 -56.25 L 16.84375 -42.21875 C 17.738281 -44.382812 18.914062 -46.398438 20.375 -48.265625 C 21.832031 -50.140625 23.382812 -51.675781 25.03125 -52.875 C 26.757812 -54.144531 28.648438 -55.132812 30.703125 -55.84375 C 32.765625 -56.5625 35.140625 -56.921875 37.828125 -56.921875 C 40.078125 -56.921875 41.851562 -56.65625 43.15625 -56.125 C 44.46875 -55.601562 45.125 -54.859375 45.125 -53.890625 C 45.125 -52.691406 44.546875 -51.320312 43.390625 -49.78125 C 42.234375 -48.25 40.644531 -47.484375 38.625 -47.484375 C 37.125 -47.484375 35.234375 -47.765625 32.953125 -48.328125 C 30.671875 -48.890625 27.882812 -49.65625 24.59375 -50.625 C 23.539062 -49.882812 22.429688 -48.742188 21.265625 -47.203125 C 20.109375 -45.671875 19.132812 -43.96875 18.34375 -42.09375 C 17.5625 -40.226562 17.097656 -38.394531 16.953125 -36.59375 L 16.84375 -36.59375 L 16.84375 -14.25 C 16.84375 -9.6875 17.160156 -6.546875 17.796875 -4.828125 C 18.429688 -3.109375 19.609375 -1.984375 21.328125 -1.453125 L 21.328125 0 Z M 3.59375 0 "/></g></g></g><g fill="#737373" fill-opacity="1"><g transform="translate(486.988717, 144.122624)"><g><path d="M 47.046875 0 C 44.796875 0 43.671875 -1.125 43.671875 -3.375 L 43.671875 -23.578125 C 42.546875 -19.015625 40.785156 -14.859375 38.390625 -11.109375 C 35.992188 -7.367188 33.207031 -4.394531 30.03125 -2.1875 C 26.851562 0.0195312 23.390625 1.125 19.640625 1.125 C 16.878906 1.125 14.300781 0.5625 11.90625 -0.5625 C 9.507812 -1.6875 7.578125 -3.332031 6.109375 -5.5 C 4.648438 -7.664062 3.921875 -10.359375 3.921875 -13.578125 C 3.921875 -17.472656 5.082031 -20.65625 7.40625 -23.125 C 9.726562 -25.59375 12.816406 -27.613281 16.671875 -29.1875 C 20.523438 -30.757812 24.660156 -32.144531 29.078125 -33.34375 L 43.671875 -37.265625 C 43.367188 -42.734375 41.867188 -46.757812 39.171875 -49.34375 C 36.484375 -51.925781 32.742188 -53.21875 27.953125 -53.21875 C 24.585938 -53.21875 21.3125 -52.410156 18.125 -50.796875 C 14.945312 -49.191406 11.9375 -46.664062 9.09375 -43.21875 L 8.078125 -44.125 C 11.296875 -48.09375 14.941406 -51.21875 19.015625 -53.5 C 23.097656 -55.78125 27.570312 -56.921875 32.4375 -56.921875 C 39.25 -56.921875 44.265625 -55.140625 47.484375 -51.578125 C 50.703125 -48.023438 52.3125 -43.066406 52.3125 -36.703125 L 52.3125 -14.25 C 52.3125 -9.6875 52.628906 -6.546875 53.265625 -4.828125 C 53.898438 -3.109375 55.082031 -1.984375 56.8125 -1.453125 L 56.8125 0 Z M 12.34375 -16.734375 C 12.34375 -13.054688 13.445312 -10.265625 15.65625 -8.359375 C 17.863281 -6.453125 20.578125 -5.5 23.796875 -5.5 C 26.796875 -5.5 29.507812 -6.335938 31.9375 -8.015625 C 34.375 -9.703125 36.453125 -11.894531 38.171875 -14.59375 C 39.890625 -17.289062 41.234375 -20.207031 42.203125 -23.34375 C 43.179688 -26.488281 43.671875 -29.519531 43.671875 -32.4375 L 43.671875 -35.8125 L 29.53125 -32 C 26.757812 -31.25 24.046875 -30.253906 21.390625 -29.015625 C 18.734375 -27.785156 16.5625 -26.195312 14.875 -24.25 C 13.1875 -22.300781 12.34375 -19.796875 12.34375 -16.734375 Z M 12.34375 -16.734375 "/></g></g></g><g fill="#737373" fill-opacity="1"><g transform="translate(546.483634, 144.122624)"><g><path d="M 19.984375 31.09375 C 17.140625 31.09375 14.3125 30.644531 11.5 29.75 C 8.695312 28.851562 6.359375 27.394531 4.484375 25.375 C 2.617188 23.351562 1.6875 20.65625 1.6875 17.28125 C 1.6875 13.769531 3.015625 10.535156 5.671875 7.578125 C 8.328125 4.617188 11.9375 1.753906 16.5 -1.015625 C 13.957031 -1.609375 11.957031 -2.5625 10.5 -3.875 C 9.039062 -5.1875 8.3125 -7.039062 8.3125 -9.4375 C 8.3125 -11.53125 9.113281 -13.34375 10.71875 -14.875 C 12.332031 -16.40625 14.257812 -17.882812 16.5 -19.3125 C 13.726562 -20.8125 11.390625 -22.890625 9.484375 -25.546875 C 7.578125 -28.203125 6.625 -31.585938 6.625 -35.703125 C 6.625 -39.671875 7.671875 -43.242188 9.765625 -46.421875 C 11.859375 -49.597656 14.609375 -52.140625 18.015625 -54.046875 C 21.421875 -55.960938 25.035156 -56.921875 28.859375 -56.921875 C 30.203125 -56.921875 31.582031 -56.828125 33 -56.640625 C 34.425781 -56.453125 35.773438 -56.171875 37.046875 -55.796875 C 37.648438 -56.546875 38.269531 -57.273438 38.90625 -57.984375 C 39.539062 -58.691406 40.234375 -59.3125 40.984375 -59.84375 C 42.703125 -61.332031 44.585938 -62.546875 46.640625 -63.484375 C 48.703125 -64.421875 51.082031 -64.890625 53.78125 -64.890625 C 55.5 -64.890625 56.898438 -64.644531 57.984375 -64.15625 C 59.066406 -63.675781 59.609375 -63.019531 59.609375 -62.1875 C 59.609375 -61.21875 59.046875 -60.019531 57.921875 -58.59375 C 56.804688 -57.175781 55.238281 -56.46875 53.21875 -56.46875 C 51.789062 -56.46875 50.21875 -56.707031 48.5 -57.1875 C 46.78125 -57.675781 44.644531 -58.296875 42.09375 -59.046875 C 40.894531 -58.148438 39.695312 -56.878906 38.5 -55.234375 C 41.945312 -54.035156 44.882812 -52.015625 47.3125 -49.171875 C 49.75 -46.328125 50.96875 -42.472656 50.96875 -37.609375 C 50.96875 -34.390625 50.253906 -31.488281 48.828125 -28.90625 C 47.410156 -26.320312 45.578125 -24.09375 43.328125 -22.21875 C 41.085938 -20.351562 38.691406 -18.929688 36.140625 -17.953125 C 33.597656 -16.984375 31.171875 -16.5 28.859375 -16.5 C 27.128906 -16.5 25.3125 -16.664062 23.40625 -17 C 21.5 -17.34375 19.6875 -17.890625 17.96875 -18.640625 C 16.769531 -17.816406 15.796875 -17.046875 15.046875 -16.328125 C 14.296875 -15.617188 13.921875 -14.742188 13.921875 -13.703125 C 13.992188 -12.203125 15.003906 -11 16.953125 -10.09375 C 18.898438 -9.195312 22.003906 -8.640625 26.265625 -8.421875 L 40.421875 -7.515625 C 44.234375 -7.296875 47.46875 -6.882812 50.125 -6.28125 C 52.78125 -5.6875 54.816406 -4.640625 56.234375 -3.140625 C 57.660156 -1.640625 58.375 0.566406 58.375 3.484375 C 58.375 6.703125 57.269531 9.9375 55.0625 13.1875 C 52.851562 16.445312 49.878906 19.421875 46.140625 22.109375 C 42.398438 24.804688 38.265625 26.976562 33.734375 28.625 C 29.203125 30.269531 24.617188 31.09375 19.984375 31.09375 Z M 9.203125 13.140625 C 9.203125 17.179688 10.753906 20.34375 13.859375 22.625 C 16.972656 24.90625 21.144531 26.046875 26.375 26.046875 C 29.96875 26.046875 33.410156 25.539062 36.703125 24.53125 C 40.003906 23.519531 42.960938 22.148438 45.578125 20.421875 C 48.203125 18.703125 50.257812 16.796875 51.75 14.703125 C 53.25 12.609375 54 10.441406 54 8.203125 C 54 5.578125 52.875 3.757812 50.625 2.75 C 48.382812 1.738281 44.941406 1.082031 40.296875 0.78125 L 24.59375 0 C 22.34375 -0.144531 20.207031 -0.367188 18.1875 -0.671875 C 14.96875 1.492188 12.664062 3.738281 11.28125 6.0625 C 9.894531 8.382812 9.203125 10.742188 9.203125 13.140625 Z M 14.8125 -40.640625 C 14.8125 -38.171875 15.164062 -35.644531 15.875 -33.0625 C 16.59375 -30.476562 17.644531 -28.0625 19.03125 -25.8125 C 20.414062 -23.570312 22.117188 -21.757812 24.140625 -20.375 C 26.160156 -18.988281 28.441406 -18.296875 30.984375 -18.296875 C 35.171875 -18.296875 38.203125 -19.71875 40.078125 -22.5625 C 41.953125 -25.40625 42.890625 -28.738281 42.890625 -32.5625 C 42.890625 -35.101562 42.492188 -37.71875 41.703125 -40.40625 C 40.921875 -43.101562 39.800781 -45.59375 38.34375 -47.875 C 36.882812 -50.164062 35.125 -52 33.0625 -53.375 C 31 -54.757812 28.695312 -55.378906 26.15625 -55.234375 C 22.1875 -55.085938 19.300781 -53.609375 17.5 -50.796875 C 15.707031 -47.992188 14.8125 -44.609375 14.8125 -40.640625 Z M 14.8125 -40.640625 "/></g></g></g><g fill="#737373" fill-opacity="1"><g transform="translate(605.192752, 144.122624)"><g><path d="M 33.453125 1.125 C 29.859375 1.125 26.320312 0.5625 22.84375 -0.5625 C 19.363281 -1.6875 16.203125 -3.40625 13.359375 -5.71875 C 10.515625 -8.039062 8.25 -11 6.5625 -14.59375 C 4.882812 -18.1875 4.046875 -22.414062 4.046875 -27.28125 C 4.046875 -33.113281 5.425781 -38.253906 8.1875 -42.703125 C 10.957031 -47.160156 14.585938 -50.644531 19.078125 -53.15625 C 23.578125 -55.664062 28.367188 -56.921875 33.453125 -56.921875 C 36.972656 -56.921875 40.453125 -56.375 43.890625 -55.28125 C 47.335938 -54.195312 50.484375 -52.492188 53.328125 -50.171875 C 56.171875 -47.859375 58.453125 -44.90625 60.171875 -41.3125 C 61.890625 -37.71875 62.75 -33.414062 62.75 -28.40625 C 62.75 -23.613281 61.867188 -19.382812 60.109375 -15.71875 C 58.359375 -12.050781 56.019531 -8.960938 53.09375 -6.453125 C 50.175781 -3.941406 46.992188 -2.050781 43.546875 -0.78125 C 40.109375 0.488281 36.742188 1.125 33.453125 1.125 Z M 12.6875 -33.671875 C 12.6875 -30.085938 13.242188 -26.40625 14.359375 -22.625 C 15.484375 -18.84375 17.09375 -15.34375 19.1875 -12.125 C 21.289062 -8.90625 23.816406 -6.285156 26.765625 -4.265625 C 29.722656 -2.242188 33.078125 -1.234375 36.828125 -1.234375 C 40.867188 -1.234375 44.160156 -2.1875 46.703125 -4.09375 C 49.242188 -6 51.128906 -8.523438 52.359375 -11.671875 C 53.597656 -14.816406 54.21875 -18.1875 54.21875 -21.78125 C 54.21875 -25.375 53.617188 -29.132812 52.421875 -33.0625 C 51.222656 -36.988281 49.519531 -40.632812 47.3125 -44 C 45.113281 -47.375 42.476562 -50.070312 39.40625 -52.09375 C 36.332031 -54.113281 32.960938 -55.007812 29.296875 -54.78125 C 25.484375 -54.632812 22.34375 -53.585938 19.875 -51.640625 C 17.40625 -49.691406 15.585938 -47.144531 14.421875 -44 C 13.265625 -40.863281 12.6875 -37.421875 12.6875 -33.671875 Z M 12.6875 -33.671875 "/></g></g></g><g fill="#737373" fill-opacity="1"><g transform="translate(672.769996, 144.122624)"><g><path d="M 6.171875 14.25 C 9.085938 12.757812 11.238281 10.738281 12.625 8.1875 C 14.007812 5.644531 14.78125 2.953125 14.9375 0.109375 C 14.476562 0.265625 14.039062 0.394531 13.625 0.5 C 13.21875 0.613281 12.753906 0.671875 12.234375 0.671875 C 10.734375 0.671875 9.441406 0.128906 8.359375 -0.953125 C 7.273438 -2.035156 6.734375 -3.328125 6.734375 -4.828125 C 6.734375 -6.703125 7.296875 -8.234375 8.421875 -9.421875 C 9.546875 -10.617188 11.003906 -11.21875 12.796875 -11.21875 C 14.960938 -11.21875 16.703125 -10.46875 18.015625 -8.96875 C 19.328125 -7.476562 19.945312 -5.347656 19.875 -2.578125 C 19.875 0.109375 19.234375 2.664062 17.953125 5.09375 C 16.679688 7.53125 15.035156 9.628906 13.015625 11.390625 C 10.992188 13.148438 8.863281 14.441406 6.625 15.265625 Z M 6.171875 14.25 "/></g></g></g><g fill="#737373" fill-opacity="1"><g transform="translate(699.374314, 144.122624)"><g/></g></g><g fill="#737373" fill-opacity="1"><g transform="translate(722.947776, 144.122624)"><g><path d="M 5.71875 0 L 5.71875 -1.453125 C 7.445312 -1.984375 8.628906 -3.109375 9.265625 -4.828125 C 9.898438 -6.546875 10.21875 -9.6875 10.21875 -14.25 L 10.21875 -64.328125 C 10.21875 -68.960938 9.898438 -72.125 9.265625 -73.8125 C 8.628906 -75.5 7.445312 -76.601562 5.71875 -77.125 L 5.71875 -78.578125 L 28.515625 -78.578125 C 36.296875 -78.578125 42.410156 -77.492188 46.859375 -75.328125 C 51.316406 -73.160156 54.476562 -70.390625 56.34375 -67.015625 C 58.21875 -63.648438 59.15625 -60.132812 59.15625 -56.46875 C 59.15625 -48.988281 56.476562 -42.890625 51.125 -38.171875 C 45.78125 -33.453125 37.867188 -31.09375 27.390625 -31.09375 L 19.421875 -31.09375 L 19.421875 -14.25 C 19.421875 -9.6875 19.738281 -6.546875 20.375 -4.828125 C 21.007812 -3.109375 22.1875 -1.984375 23.90625 -1.453125 L 23.90625 0 Z M 19.421875 -32.78125 L 27.171875 -32.78125 C 34.359375 -32.78125 39.835938 -34.648438 43.609375 -38.390625 C 47.390625 -42.140625 49.28125 -47.304688 49.28125 -53.890625 C 49.28125 -57.929688 48.4375 -61.691406 46.75 -65.171875 C 45.070312 -68.648438 42.398438 -71.472656 38.734375 -73.640625 C 35.066406 -75.816406 30.203125 -76.90625 24.140625 -76.90625 C 23.390625 -76.90625 22.582031 -76.882812 21.71875 -76.84375 C 20.863281 -76.8125 20.097656 -76.753906 19.421875 -76.671875 Z M 19.421875 -32.78125 "/></g></g></g><g fill="#737373" fill-opacity="1"><g transform="translate(784.912258, 144.122624)"><g><path d="M 12.578125 0.78125 C 11.003906 0.78125 9.632812 0.179688 8.46875 -1.015625 C 7.3125 -2.210938 6.734375 -3.632812 6.734375 -5.28125 C 6.734375 -6.925781 7.3125 -8.328125 8.46875 -9.484375 C 9.632812 -10.640625 11.003906 -11.21875 12.578125 -11.21875 C 14.148438 -11.21875 15.492188 -10.640625 16.609375 -9.484375 C 17.734375 -8.328125 18.296875 -6.925781 18.296875 -5.28125 C 18.296875 -3.632812 17.734375 -2.210938 16.609375 -1.015625 C 15.492188 0.179688 14.148438 0.78125 12.578125 0.78125 Z M 12.578125 0.78125 "/></g></g></g></svg>