<svg xmlns="http://www.w3.org/2000/svg" xmlns:xlink="http://www.w3.org/1999/xlink" width="2000" zoomAndPan="magnify" viewBox="0 0 1500 225" height="300" preserveAspectRatio="xMidYMid meet" version="1.0"><defs><g/></defs><path stroke-linecap="butt" transform="matrix(0.75, 0, 0, 0.75, 1.120605, -25.621933)" fill="none" stroke-linejoin="miter" d="M 233.375661 251.553213 C 236.625661 252.256338 238.156911 253.589672 237.985036 255.56363 C 237.807953 257.537589 237.630869 258.527172 237.458994 258.527172 C 235.656911 258.527172 233.490244 258.43863 230.943369 258.261547 C 228.443369 258.089672 226.203786 258.00113 224.229827 258.00113 L 187.583992 258.00113 C 185.261075 258.00113 182.516284 258.089672 179.360034 258.261547 C 176.203783 258.43863 173.636075 258.527172 171.662117 258.527172 C 171.485033 258.527172 171.266283 258.042797 171.005867 257.079255 C 170.740242 256.068839 170.917325 255.037589 171.531908 253.985505 C 172.146492 252.891755 173.724617 252.079255 176.266283 251.553213 C 182.542325 250.454255 186.927742 248.917797 189.427742 246.943838 C 191.969409 244.96988 192.870451 240.214671 192.125659 232.667796 L 181.136075 100.881332 C 180.917325 100.001124 180.542325 99.563624 180.016284 99.563624 C 179.490242 99.563624 179.052742 100.089665 178.703784 101.141749 L 117.511073 247.209463 C 116.240239 250.28238 114.443364 251.81363 112.115239 251.81363 C 109.792322 251.81363 107.995447 250.454255 106.719406 247.735505 L 50.662112 103.579249 C 50.313153 102.48029 49.76107 101.933415 49.016278 101.933415 C 48.318361 101.933415 47.964195 102.391749 47.964195 103.313624 L 37.172528 232.667796 C 36.474611 240.214671 37.417319 244.96988 40.005861 246.943838 C 42.63607 248.917797 47.000653 250.454255 53.099612 251.553213 C 55.599612 252.079255 57.156903 252.891755 57.766278 253.985505 C 58.427737 255.037589 58.625654 256.068839 58.360029 257.079255 C 58.099612 258.042797 57.880862 258.527172 57.703778 258.527172 C 55.682945 258.527172 53.099612 258.43863 49.938153 258.261547 C 46.82357 258.089672 44.10482 258.00113 41.781903 258.00113 L 23.422527 258.00113 C 21.625652 258.00113 19.386069 258.089672 16.714193 258.261547 C 14.03711 258.43863 11.886068 258.527172 10.266277 258.527172 C 10.089193 258.527172 9.891277 257.537589 9.672526 255.56363 C 9.495443 253.589672 10.94336 252.256338 14.016277 251.553213 C 17.438152 250.808422 20.177735 249.949047 22.240235 248.985505 C 24.302735 247.975088 25.901694 246.266755 27.042319 243.855296 C 28.224611 241.443838 28.995444 237.714671 29.344402 232.667796 L 42.568361 85.219873 C 40.422528 82.016748 38.229819 79.82404 35.990236 78.641748 C 33.755861 77.454248 30.662111 76.511539 26.714194 75.813623 C 23.469402 74.933414 21.97461 73.553206 22.240235 71.667789 C 22.500652 69.782372 22.719402 68.834456 22.896485 68.834456 C 24.521485 68.834456 26.625652 68.922997 29.214194 69.100081 C 31.844402 69.277164 34.057944 69.365706 35.860028 69.365706 L 59.281904 69.365706 C 62.000654 69.365706 63.797529 70.615706 64.677737 73.115706 L 120.208989 212.730295 C 120.912114 214.006337 121.438156 214.641753 121.787114 214.641753 C 122.531906 214.641753 123.08399 214.006337 123.432948 212.730295 L 181.136075 73.115706 C 182.188159 70.615706 183.792325 69.365706 185.938159 69.365706 L 209.693368 69.365706 C 211.667327 69.365706 213.990243 69.277164 216.667327 69.100081 C 219.386077 68.922997 221.646494 68.834456 223.443369 68.834456 C 223.620452 68.834456 223.792327 69.782372 223.96941 71.667789 C 224.146494 73.553206 222.610035 74.933414 219.365244 75.813623 C 214.141285 76.907373 210.458993 78.443831 208.307951 80.41779 C 206.162118 82.391748 205.43816 87.152165 206.136076 94.693832 L 218.31316 232.667796 C 219.011077 240.214671 220.43816 244.96988 222.589202 246.943838 C 224.735035 248.917797 228.333994 250.454255 233.375661 251.553213 Z M 45.531903 90.876123 L 46.912111 93.313623 Z M 380.250667 241.027171 C 380.599625 241.027171 381.542334 241.308421 383.078792 241.881338 C 384.61525 242.40738 385.380875 244.006338 385.380875 246.683421 C 385.380875 250.631338 383.495459 254.053213 379.724625 256.949047 C 375.948583 259.798005 371.36525 261.225089 365.969416 261.225089 C 352.328791 261.225089 344.698582 252.339672 343.073582 234.579254 L 342.54754 230.235504 C 339.125665 240.105296 333.64129 247.824047 326.099623 253.391755 C 318.552748 258.964672 310.287122 261.75113 301.29233 261.75113 C 291.250663 261.75113 282.938163 259.818839 276.354829 255.959464 C 269.823579 252.100088 264.97462 247.120922 261.81837 241.027171 C 258.656912 234.928213 257.078787 228.719879 257.078787 222.40217 C 257.078787 209.68342 261.573579 199.46467 270.568371 191.745919 C 279.557954 183.980294 291.422538 180.100085 306.162122 180.100085 C 311.380872 180.100085 316.906914 180.469877 322.745456 181.214669 C 328.57879 181.917794 333.64129 182.730294 337.943374 183.652169 L 337.417332 177.136544 C 336.318373 164.370918 332.76629 155.443834 326.755873 150.360501 C 320.745456 145.225084 312.985039 142.657375 303.464205 142.657375 C 295.745455 142.657375 288.969413 143.975084 283.13608 146.605292 C 277.302746 149.193834 272.037121 152.813626 267.344412 157.464668 C 267.344412 157.464668 266.792329 157.157376 265.698579 156.542793 C 264.646495 155.928209 263.922537 154.943834 263.526704 153.584459 C 263.177745 152.219876 264.011079 150.641751 266.026704 148.844876 C 270.323579 144.193834 276.422538 140.292792 284.318371 137.131334 C 292.214205 133.975083 301.380872 132.396958 311.823581 132.396958 C 320.636081 132.396958 328.620456 133.798 335.771498 136.605292 C 342.964207 139.370917 348.886082 144.173001 353.537124 151.016751 C 358.229833 157.860501 361.125666 167.287585 362.219416 179.308419 L 367.354833 232.141754 C 367.703791 237.141754 368.495458 240.584463 369.719416 242.46988 C 370.995458 244.360505 372.526708 245.303213 374.328792 245.303213 C 377.573583 245.303213 379.547542 243.87613 380.250667 241.027171 Z M 340.64129 210.824045 L 340.64129 209.771962 L 339.063165 193.058419 C 334.719415 192.136544 329.802748 191.282378 324.323581 190.495919 C 318.839206 189.704252 314.495456 189.308419 311.292331 189.308419 C 290.063163 189.308419 279.448579 198.454253 279.448579 216.74592 C 279.448579 223.938629 282.10483 230.454254 287.412121 236.287588 C 292.719413 242.120921 300.47983 245.037588 310.703789 245.037588 C 315.745456 245.037588 320.547539 243.65738 325.11004 240.891755 C 329.719415 238.084463 333.448582 234.094879 336.29754 228.917796 C 339.193374 223.699046 340.64129 217.667795 340.64129 210.824045 Z M 396.693376 238.063629 L 403.474626 212.469878 C 403.474626 212.292795 404.130876 212.204253 405.448585 212.204253 C 406.80796 212.204253 408.188168 212.667795 409.594418 213.58967 C 411.037127 214.46467 411.761085 216.15217 411.761085 218.65217 C 410.537127 232.298004 412.662127 241.506338 418.146502 246.287588 C 423.630877 251.027172 431.938169 253.391755 443.084003 253.391755 C 451.151712 253.391755 457.927754 251.96988 463.412129 249.115713 C 468.896504 246.225088 471.636087 241.089671 471.636087 233.719879 C 471.636087 229.423004 470.604837 225.626129 468.547546 222.33967 C 466.485046 219.006337 462.974629 215.673004 458.016295 212.33967 C 453.06317 209.006337 446.198586 205.188628 437.422544 200.891753 C 431.677752 197.641753 426.063169 194.266753 420.578794 190.756336 C 415.094418 187.245919 410.646502 183.298002 407.224626 178.912585 C 403.802751 174.485502 402.08921 169.589668 402.08921 164.24071 C 402.08921 155.600084 406.084001 148.141751 414.068377 141.870917 C 422.094419 135.553209 434.464211 132.396958 451.172545 132.396958 C 458.50067 132.396958 465.761087 133.162583 472.953796 134.699042 C 480.146504 136.2355 485.979838 138.449042 490.453797 141.344875 C 494.97463 144.193834 496.594422 147.855292 495.323588 152.329251 L 488.34963 177.662585 C 488.34963 177.839669 487.667338 177.92821 486.307963 177.92821 C 484.948588 177.92821 483.636088 177.485502 482.360046 176.610502 C 481.136088 175.735502 480.521504 174.199043 480.521504 172.006335 C 481.969421 161.256335 480.719421 153.407376 476.771504 148.449042 C 472.823587 143.490709 464.464212 141.01675 451.703795 141.01675 C 445.03192 141.01675 439.990253 141.782375 436.568378 143.318834 C 433.146502 144.855292 430.844419 146.850084 429.662127 149.303209 C 428.521502 151.719876 427.948586 154.261543 427.948586 156.938626 C 427.948586 162.157376 430.865252 166.829252 436.698586 170.954252 C 442.53192 175.074044 449.59442 179.39696 457.886087 183.912586 C 469.380879 189.834461 478.854838 195.756336 486.307963 201.678211 C 493.766297 207.600087 497.495463 215.230295 497.495463 224.574046 C 497.495463 236.636546 492.53713 245.891755 482.625671 252.339672 C 472.755879 258.787589 459.573587 262.011547 443.084003 262.011547 C 434.266294 262.011547 426.172544 260.896964 418.802752 258.65738 C 411.43296 256.423005 405.688168 253.459463 401.563168 249.777172 C 397.443376 246.089671 395.818376 242.18863 396.693376 238.063629 Z M 585.625675 196.548003 L 517.459006 196.548003 C 516.011089 196.548003 515.000673 195.933419 514.432964 194.704253 C 513.906923 193.433419 513.906923 192.162586 514.432964 190.886544 C 515.000673 189.615711 516.011089 188.980294 517.459006 188.980294 L 585.625675 188.980294 C 587.245467 188.980294 588.276717 189.615711 588.714217 190.886544 C 589.151717 192.162586 589.151717 193.433419 588.714217 194.704253 C 588.276717 195.933419 587.245467 196.548003 585.625675 196.548003 Z M 619.610052 258.00113 C 617.813177 258.00113 615.55276 258.089672 612.83401 258.261547 C 610.156927 258.43863 608.011093 258.527172 606.386093 258.527172 C 606.214218 258.527172 606.037135 257.537589 605.860051 255.56363 C 605.682968 253.589672 607.110051 252.256338 610.136093 251.553213 C 615.354843 250.454255 619.042344 248.917797 621.193385 246.943838 C 623.339219 244.96988 624.417344 240.214671 624.417344 232.667796 L 624.417344 94.693832 C 624.417344 87.152165 623.339219 82.391748 621.193385 80.41779 C 619.042344 78.443831 615.354843 76.907373 610.136093 75.813623 C 607.110051 75.110498 605.682968 73.771956 605.860051 71.797998 C 606.037135 69.824039 606.214218 68.834456 606.386093 68.834456 C 608.011093 68.834456 610.156927 68.922997 612.83401 69.100081 C 615.55276 69.277164 617.813177 69.365706 619.610052 69.365706 C 632.334011 69.188622 644.30797 68.922997 655.537137 68.574039 C 666.766304 68.178206 676.151721 67.980289 683.698596 67.980289 C 697.735055 67.980289 709.334014 69.865706 718.505889 73.641748 C 727.672556 77.412581 734.490265 82.501123 738.964224 88.902165 C 743.438182 95.266749 745.677765 102.303207 745.677765 110.027166 C 745.677765 122.261541 741.990265 132.1105 734.625682 139.568834 C 727.297556 147.021959 716.880889 151.475084 703.370472 152.923001 C 714.688181 153.803209 724.75589 156.167793 733.56839 160.032376 C 742.386099 163.891751 749.250682 169.329252 754.162141 176.344877 C 759.120474 183.365711 761.599641 192.074044 761.599641 202.469878 C 761.599641 219.355295 755.000683 233.021963 741.797557 243.459463 C 728.594431 253.855297 709.313181 259.053214 683.959013 259.053214 C 674.266304 259.053214 664.287137 258.923005 654.021512 258.65738 C 643.802761 258.396964 632.334011 258.173005 619.610052 258.00113 Z M 663.49547 151.277168 L 680.474638 149.964667 C 694.511097 148.516751 704.203805 144.964667 709.552764 139.303209 C 714.948598 133.646958 717.646514 124.959458 717.646514 113.251124 C 717.646514 101.407374 714.182973 92.350082 707.250681 86.07404 C 700.365264 79.756331 691.349638 76.511539 680.209013 76.339664 L 659.485054 75.813623 C 655.360053 75.813623 652.797553 76.667789 651.787137 78.376123 C 650.77672 80.089665 650.271512 83.266748 650.271512 87.91779 L 650.271512 238.589671 C 650.271512 243.636546 650.865262 247.011547 652.047553 248.725088 C 653.235053 250.433422 656.15172 251.287588 660.802762 251.287588 L 680.209013 251.287588 C 695.297555 251.287588 707.604847 247.339672 717.120473 239.443838 C 726.641306 231.506338 731.401723 219.90217 731.401723 204.641753 C 731.401723 189.548002 727.365265 178.188627 719.292348 170.558418 C 711.219431 162.923001 698.104847 158.933418 679.948596 158.584459 L 662.443387 157.990709 C 661.698595 157.990709 661.15172 157.001126 660.802762 155.027168 C 660.448595 153.053209 661.349637 151.803209 663.49547 151.277168 Z M 915.188189 238.855296 C 915.584023 238.329254 916.615273 238.193838 918.281939 238.459463 C 919.995481 238.719879 920.849648 240.652171 920.849648 244.25113 C 920.849648 247.84488 919.005898 251.574047 915.323606 255.433422 C 911.682981 259.292797 906.177772 261.225089 898.80798 261.225089 C 892.667355 261.225089 887.531938 258.81363 883.412146 253.985505 C 879.287146 249.115713 877.224646 241.464671 877.224646 231.021963 L 877.224646 230.235504 C 873.979854 239.225088 868.672562 246.771963 861.30277 252.865713 C 853.932978 258.964672 844.964228 262.011547 834.391311 262.011547 C 821.276727 262.011547 810.573602 257.714672 802.287143 249.115713 C 794.037143 240.475088 789.917351 227.271962 789.917351 209.506337 L 789.917351 165.818835 C 789.917351 162.225085 789.276726 159.391751 788.005892 157.334459 C 786.735059 155.271959 784.3236 154.063626 780.771517 153.714668 C 778.969434 153.360501 777.828808 152.553209 777.349642 151.277168 C 776.912142 150.006334 776.735058 148.803209 776.8236 147.662584 C 776.912142 146.475084 776.953808 145.881334 776.953808 145.881334 C 785.068392 144.438626 791.667351 142.813626 796.755893 141.01675 C 801.89131 139.214667 806.427768 136.89175 810.375685 134.042792 C 811.29756 133.688625 812.54756 133.777167 814.125685 134.303208 C 815.750685 134.82925 816.474643 135.553209 816.29756 136.475084 C 815.771518 142.745917 815.26631 148.271959 814.787143 153.053209 C 814.349643 157.792793 814.125685 163.58446 814.125685 170.42821 L 814.125685 208.126128 C 814.125685 221.813629 816.740268 231.881338 821.959019 238.329254 C 827.177769 244.777171 834.459019 248.00113 843.80277 248.00113 C 854.02152 248.00113 862.136104 243.329255 868.146521 233.985504 C 874.198604 224.641754 877.224646 212.798003 877.224646 198.454253 L 877.224646 165.818835 C 877.224646 162.225085 876.589229 159.391751 875.318396 157.334459 C 874.089229 155.271959 871.677771 154.063626 868.078812 153.714668 C 866.281937 153.360501 865.141312 152.553209 864.656937 151.277168 C 864.219437 150.006334 864.047562 148.803209 864.130895 147.662584 C 864.219437 146.475084 864.266312 145.881334 864.266312 145.881334 C 872.380896 144.438626 878.979854 142.813626 884.068396 141.01675 C 889.203813 139.214667 893.740272 136.89175 897.688188 134.042792 C 898.610064 133.688625 899.860064 133.777167 901.438189 134.303208 C 903.063189 134.82925 903.875689 135.553209 903.875689 136.475084 C 903.172564 142.745917 902.599647 148.271959 902.162147 153.053209 C 901.724647 157.792793 901.505897 163.58446 901.505897 170.42821 L 901.505897 227.011546 C 901.505897 233.105296 902.031939 237.516754 903.084022 240.235505 C 904.18298 242.912588 906.156939 244.25113 909.005897 244.25113 C 910.802772 244.25113 912.141314 243.636546 913.021522 242.40738 C 913.938189 241.136546 914.662148 239.949046 915.188189 238.855296 Z M 960.745483 109.501124 C 955.922566 109.501124 952.063191 108.251124 949.167357 105.745916 C 946.313191 103.204249 944.891315 100.047999 944.891315 96.271957 C 944.891315 91.797998 946.620482 88.178207 950.089232 85.41779 C 953.599649 82.610498 958.047566 81.204248 963.4434 81.204248 C 968.136108 81.204248 971.91215 82.521956 974.761108 85.152165 C 977.656942 87.740707 979.104859 90.922998 979.104859 94.693832 C 979.104859 98.990707 977.391317 102.547999 973.969442 105.355291 C 970.552775 108.115707 966.141316 109.501124 960.745483 109.501124 Z M 976.932983 170.42821 L 976.932983 232.667796 C 976.932983 239.115713 977.964234 243.699046 980.026734 246.417796 C 982.089234 249.09488 984.917359 250.631338 988.511109 251.027172 C 991.057984 251.199047 992.594442 251.923005 993.120484 253.199047 C 993.646526 254.423005 993.735067 255.631339 993.380901 256.81363 C 993.031942 257.954255 992.677776 258.527172 992.328817 258.527172 C 983.865275 258.00113 974.917358 257.78238 965.485066 257.870922 C 956.052774 257.954255 946.578816 258.173005 937.057982 258.527172 C 936.886107 258.527172 936.599648 257.954255 936.203815 256.81363 C 935.854857 255.631339 935.985065 254.423005 936.599648 253.199047 C 937.255898 251.923005 938.839232 251.199047 941.339232 251.027172 C 945.110065 250.631338 947.938191 249.09488 949.823607 246.417796 C 951.709024 243.699046 952.651732 239.027171 952.651732 232.407379 L 952.651732 165.818835 C 952.651732 162.225085 952.016316 159.391751 950.745482 157.334459 C 949.516316 155.271959 947.104857 154.063626 943.505899 153.714668 C 941.709024 153.360501 940.589232 152.553209 940.151732 151.277168 C 939.714232 150.006334 939.537149 148.803209 939.62569 147.662584 C 939.714232 146.475084 939.755899 145.881334 939.755899 145.881334 C 947.828816 144.438626 954.432983 142.813626 959.563191 141.01675 C 964.6934 139.214667 969.235066 136.89175 973.182983 134.042792 C 974.057983 133.688625 975.307983 133.777167 976.932983 134.303208 C 978.557984 134.82925 979.281942 135.553209 979.104859 136.475084 C 978.578817 142.745917 978.073609 148.271959 977.589233 153.053209 C 977.151733 157.792793 976.932983 163.58446 976.932983 170.42821 Z M 1051.573612 262.011547 C 1043.151736 262.011547 1036.552778 259.292797 1031.771527 253.855297 C 1027.031944 248.370922 1024.662152 240.235505 1024.662152 229.443837 L 1024.662152 153.449043 C 1024.662152 150.381334 1024.422569 148.032376 1023.943402 146.412584 C 1023.500694 144.787584 1021.85486 143.975084 1019.005902 143.975084 L 1011.177777 143.975084 C 1009.375693 143.975084 1008.568401 142.771959 1008.740276 140.355292 C 1008.91736 137.943834 1010.625693 136.563625 1013.875693 136.209459 C 1018.349652 135.64175 1022.209027 134.6105 1025.453819 133.120917 C 1028.698611 131.584458 1031.573611 128.928208 1034.073611 125.157375 C 1036.573611 121.386541 1039.005903 115.990708 1041.375694 108.969874 C 1042.604861 105.902166 1044.755903 104.365707 1047.823611 104.365707 C 1049.271528 104.365707 1049.995487 104.829249 1049.995487 105.745916 C 1050.17257 109.693832 1050.214237 114.105291 1050.125695 118.975083 C 1050.042362 123.798 1049.79757 127.745917 1049.401736 130.818833 C 1049.229861 134.589667 1051.026737 136.475084 1054.79757 136.475084 L 1086.64653 136.475084 C 1087.344446 136.475084 1087.828821 137.1105 1088.094446 138.381334 C 1088.354863 139.6105 1088.224655 140.8605 1087.698613 142.131334 C 1087.172571 143.360501 1086.005905 143.975084 1084.20903 143.975084 L 1056.709028 143.975084 C 1053.813195 143.975084 1051.771528 144.521959 1050.589237 145.620917 C 1049.448611 146.714667 1048.875695 148.605292 1048.875695 151.277168 L 1048.875695 229.443837 C 1048.875695 236.813629 1050.849653 241.81363 1054.79757 244.443838 C 1058.745487 247.03238 1063.464237 247.386547 1068.943404 245.50113 C 1074.427779 243.610505 1079.427779 239.68863 1083.948613 233.719879 C 1084.297571 233.193838 1084.953821 233.350088 1085.922571 234.183421 C 1086.92778 234.969879 1087.479863 236.266754 1087.563196 238.063629 C 1087.651738 239.860505 1086.448613 242.277171 1083.948613 245.303213 C 1079.250696 251.266755 1074.120488 255.542797 1068.552779 258.131339 C 1062.979862 260.71988 1057.323612 262.011547 1051.573612 262.011547 Z M 1179.59445 132.396958 C 1185.162159 132.396958 1190.188201 133.57925 1194.662159 135.949042 C 1199.177784 138.271959 1202.557993 141.365709 1204.792368 145.225084 C 1207.031951 149.084459 1207.531951 153.339668 1206.307993 157.990709 L 1197.688201 187.662586 C 1197.688201 188.016752 1196.875701 188.235502 1195.250701 188.324044 C 1193.630909 188.407377 1192.047576 188.016752 1190.516326 187.136544 C 1188.979867 186.214669 1188.297576 184.417794 1188.474659 181.74071 C 1189.745492 172.39696 1189.745492 165.313626 1188.474659 160.49071 C 1187.245492 155.620918 1185.011117 152.245918 1181.766325 150.360501 C 1178.516325 148.469876 1174.568408 147.527167 1169.922575 147.527167 C 1164.349658 147.527167 1159.766324 149.412584 1156.167366 153.188626 C 1152.573616 156.959459 1149.875699 161.719876 1148.078824 167.464668 C 1146.276741 173.20946 1145.005907 179.24071 1144.261115 185.558419 C 1143.55799 191.829253 1143.209032 197.469878 1143.209032 202.469878 L 1143.209032 232.667796 C 1143.209032 239.115713 1144.240282 243.699046 1146.297574 246.417796 C 1148.360074 249.09488 1151.193407 250.631338 1154.787158 251.027172 C 1157.334033 251.199047 1158.953824 251.923005 1159.656949 253.199047 C 1160.360074 254.423005 1160.531949 255.631339 1160.182991 256.81363 C 1159.834033 257.954255 1159.307991 258.527172 1158.604866 258.527172 C 1150.136116 258.00113 1141.235074 257.78238 1131.891323 257.870922 C 1122.547573 257.954255 1113.115281 258.173005 1103.599655 258.527172 C 1103.073614 258.527172 1102.610072 257.954255 1102.214239 256.81363 C 1101.86528 255.631339 1102.042364 254.423005 1102.745489 253.199047 C 1103.49028 251.923005 1105.110072 251.199047 1107.610072 251.027172 C 1111.604864 250.631338 1114.500698 249.09488 1116.297573 246.417796 C 1118.094448 243.699046 1118.995489 239.027171 1118.995489 232.407379 L 1118.995489 165.818835 C 1118.995489 162.225085 1118.360073 159.391751 1117.089239 157.334459 C 1115.813198 155.271959 1113.380906 154.063626 1109.781947 153.714668 C 1107.985072 153.360501 1106.865281 152.553209 1106.427781 151.277168 C 1105.990281 150.006334 1105.860072 148.803209 1106.031947 147.662584 C 1106.209031 146.475084 1106.297572 145.881334 1106.297572 145.881334 C 1114.193406 144.438626 1120.703823 142.813626 1125.83924 141.01675 C 1130.969448 139.214667 1135.511115 136.89175 1139.459032 134.042792 C 1140.334032 133.688625 1141.584032 133.777167 1143.209032 134.303208 C 1144.828824 134.82925 1145.641324 135.553209 1145.641324 136.475084 C 1145.115282 141.475084 1144.656949 146.058417 1144.261115 150.225084 C 1143.906949 154.350084 1143.55799 158.735501 1143.209032 163.386543 C 1145.005907 158.386543 1147.375699 153.558418 1150.313199 148.912584 C 1153.297574 144.214667 1157.156949 140.292792 1161.891325 137.131334 C 1166.672575 133.975083 1172.573617 132.396958 1179.59445 132.396958 Z M 1342.360082 241.027171 C 1342.714249 241.027171 1343.656957 241.308421 1345.193415 241.881338 C 1346.724666 242.40738 1347.495499 244.006338 1347.495499 246.683421 C 1347.495499 250.631338 1345.610082 254.053213 1341.83404 256.949047 C 1338.063207 259.798005 1333.479873 261.225089 1328.08404 261.225089 C 1314.443414 261.225089 1306.807997 252.339672 1305.188205 234.579254 L 1304.662164 230.235504 C 1301.240289 240.105296 1295.755913 247.824047 1288.214246 253.391755 C 1280.667371 258.964672 1272.401746 261.75113 1263.406954 261.75113 C 1253.360078 261.75113 1245.047578 259.818839 1238.469453 255.959464 C 1231.932994 252.100088 1227.089244 247.120922 1223.927785 241.027171 C 1220.771535 234.928213 1219.19341 228.719879 1219.19341 222.40217 C 1219.19341 209.68342 1223.688202 199.46467 1232.682994 191.745919 C 1241.672578 183.980294 1253.537162 180.100085 1268.276746 180.100085 C 1273.495496 180.100085 1279.021538 180.469877 1284.854871 181.214669 C 1290.688205 181.917794 1295.755913 182.730294 1300.057997 183.652169 L 1299.526747 177.136544 C 1298.432997 164.370918 1294.880913 155.443834 1288.870496 150.360501 C 1282.86008 145.225084 1275.094454 142.657375 1265.578829 142.657375 C 1257.860078 142.657375 1251.078828 143.975084 1245.245495 146.605292 C 1239.412161 149.193834 1234.151744 152.813626 1229.453827 157.464668 C 1229.453827 157.464668 1228.906952 157.157376 1227.813202 156.542793 C 1226.761119 155.928209 1226.037161 154.943834 1225.641327 153.584459 C 1225.28716 152.219876 1226.120494 150.641751 1228.141327 148.844876 C 1232.438202 144.193834 1238.537161 140.292792 1246.432995 137.131334 C 1254.328828 133.975083 1263.495495 132.396958 1273.932996 132.396958 C 1282.750705 132.396958 1290.73508 133.798 1297.886122 136.605292 C 1305.07883 139.370917 1311.000706 144.173001 1315.646539 151.016751 C 1320.344456 157.860501 1323.235081 167.287585 1324.33404 179.308419 L 1329.464248 232.141754 C 1329.818415 237.141754 1330.604873 240.584463 1331.83404 242.46988 C 1333.104873 244.360505 1334.641332 245.303213 1336.438207 245.303213 C 1339.688207 245.303213 1341.662165 243.87613 1342.360082 241.027171 Z M 1302.750705 210.824045 L 1302.750705 209.771962 L 1301.17258 193.058419 C 1296.82883 192.136544 1291.917372 191.282378 1286.438205 190.495919 C 1280.953829 189.704252 1276.610079 189.308419 1273.406954 189.308419 C 1252.177787 189.308419 1241.563203 198.454253 1241.563203 216.74592 C 1241.563203 223.938629 1244.214245 230.454254 1249.526745 236.287588 C 1254.834037 242.120921 1262.594454 245.037588 1272.818412 245.037588 C 1277.860079 245.037588 1282.662163 243.65738 1287.224663 240.891755 C 1291.82883 238.084463 1295.557997 234.094879 1298.412164 228.917796 C 1301.307997 223.699046 1302.750705 217.667795 1302.750705 210.824045 Z M 1488.953838 134.568833 C 1489.69863 134.39175 1490.29238 134.896959 1490.72988 136.07925 C 1491.16738 137.219875 1491.16738 138.428209 1490.72988 139.699042 C 1490.29238 140.969875 1488.912171 141.693834 1486.584046 141.870917 C 1475.443421 143.100084 1469.959046 144.985501 1470.136129 147.527167 C 1474.959046 152.001126 1478.709046 157.157376 1481.386129 162.99071 C 1484.10488 168.824043 1485.464255 175.162585 1485.464255 182.006335 C 1485.464255 193.324044 1482.000713 203.391753 1475.068421 212.204253 C 1468.183004 220.980295 1458.995504 227.449046 1447.500711 231.615713 C 1459.172587 234.115713 1468.558004 238.964671 1475.662171 246.15738 C 1482.766338 253.350088 1486.32363 262.516755 1486.32363 273.657381 C 1486.32363 282.079256 1483.578838 289.469882 1478.099671 295.834465 C 1472.615296 302.235507 1465.156962 307.193841 1455.72467 310.704257 C 1446.297586 314.209466 1435.547586 315.964674 1423.485085 315.964674 C 1411.292377 315.964674 1400.745501 313.881341 1391.839251 309.714674 C 1382.933 305.594882 1376.136125 300.199049 1371.443417 293.532382 C 1366.792375 286.907382 1364.641333 279.91259 1364.9955 272.542798 C 1365.167375 267.714672 1366.880916 263.001131 1370.125708 258.396964 C 1373.3705 253.834463 1378.308 249.839672 1384.927792 246.417796 C 1386.375709 246.068838 1387.584042 246.245921 1388.547584 246.943838 C 1389.558001 247.646963 1389.797584 249.006338 1389.271542 251.027172 C 1388.177792 253.173005 1387.406959 255.365714 1386.969459 257.605297 C 1386.531959 259.84488 1386.313209 262.120922 1386.313209 264.449047 C 1386.485084 271.115714 1388.505917 277.673006 1392.365292 284.120923 C 1396.224668 290.610507 1401.334043 295.964674 1407.693418 300.173007 C 1414.099668 304.386549 1421.073627 306.490716 1428.620502 306.490716 C 1438.490294 306.490716 1446.427795 304.058424 1452.438212 299.188632 C 1458.490295 294.365715 1461.516337 288.355298 1461.516337 281.16259 C 1461.516337 272.740714 1459.63092 265.105297 1455.860087 258.261547 C 1452.084045 251.423005 1447.084045 245.980296 1440.854878 241.943838 C 1434.672586 237.912588 1427.896544 235.891754 1420.526752 235.891754 L 1420.00071 235.891754 C 1409.386126 235.542796 1399.886126 233.084463 1391.511126 228.521962 C 1383.177792 223.917796 1376.573625 217.886545 1371.703833 210.428212 C 1366.880916 202.975086 1364.469458 194.834461 1364.469458 186.016752 C 1364.469458 175.626127 1367.167375 166.391751 1372.563208 158.318834 C 1377.953834 150.204251 1385.412167 143.865709 1394.933001 139.303209 C 1404.448626 134.699042 1415.328835 132.396958 1427.568419 132.396958 C 1435.459044 132.396958 1442.151753 133.032375 1447.636128 134.303208 C 1453.115295 135.574042 1458.906962 136.209459 1465.00592 136.209459 C 1468.427796 136.209459 1472.547587 135.990709 1477.375713 135.553209 C 1482.240296 135.068834 1486.10488 134.740708 1488.953838 134.568833 Z M 1429.146544 226.219879 C 1439.016336 226.219879 1447.042378 223.126129 1453.22467 216.943837 C 1459.453837 210.71467 1462.56842 202.83967 1462.56842 193.324044 C 1462.56842 187.402169 1461.495504 181.433419 1459.344462 175.42821 C 1457.198628 169.370918 1454.19342 163.844876 1450.328837 158.844876 C 1446.469461 153.803209 1442.063211 149.766751 1437.104878 146.740709 C 1432.151752 143.667792 1426.797586 142.131334 1421.052794 142.131334 C 1410.65696 142.131334 1402.474668 145.136542 1396.511126 151.146959 C 1390.589251 157.157376 1387.625709 165.094876 1387.625709 174.964669 C 1387.625709 182.730294 1389.427792 190.558419 1393.021542 198.454253 C 1396.620501 206.350086 1401.552793 212.954253 1407.828835 218.261545 C 1414.141335 223.568837 1421.25071 226.219879 1429.146544 226.219879 Z M 1573.6153 262.011547 C 1561.198633 262.011547 1550.235091 259.423005 1540.714257 254.25113 C 1531.198632 249.03238 1523.781965 241.704255 1518.474673 232.271963 C 1513.167381 222.844879 1510.516339 211.923003 1510.516339 199.506336 C 1510.516339 185.688627 1513.651756 173.80321 1519.922589 163.844876 C 1526.240298 153.844876 1534.594465 146.105292 1544.990299 140.620917 C 1555.433008 135.136542 1566.860091 132.396958 1579.27155 132.396958 C 1592.563217 132.396958 1604.141343 135.136542 1614.011135 140.620917 C 1623.922594 146.105292 1631.558011 153.516751 1636.906969 162.860501 C 1642.302803 172.204252 1645.00072 182.792794 1645.00072 194.636544 C 1645.00072 208.324045 1641.953845 220.188629 1635.854886 230.235504 C 1629.761136 240.277171 1621.360094 248.084463 1610.656968 253.65738 C 1599.953843 259.230297 1587.604884 262.011547 1573.6153 262.011547 Z M 1584.401759 251.287588 C 1596.599676 251.287588 1605.96426 247.558422 1612.500718 240.105296 C 1619.078844 232.646963 1622.453844 222.886546 1622.630927 210.824045 C 1623.02676 203.27717 1621.99551 195.558419 1619.537177 187.662586 C 1617.125718 179.766752 1613.615302 172.39696 1609.011135 165.558418 C 1604.448635 158.714668 1599.052801 153.230293 1592.823634 149.105292 C 1586.641342 144.985501 1579.886134 142.923001 1572.558008 142.923001 C 1559.620508 142.923001 1549.860091 146.870917 1543.281965 154.766751 C 1536.745507 162.662585 1533.39134 172.17821 1533.214257 183.324044 C 1532.646548 191.787586 1533.563215 200.079253 1535.979882 208.193837 C 1538.433007 216.261545 1541.98509 223.521962 1546.636132 229.969879 C 1551.328841 236.417796 1556.854883 241.59488 1563.219466 245.50113 C 1569.620508 249.360505 1576.683008 251.287588 1584.401759 251.287588 Z M 1669.531971 294.646965 C 1667.735096 294.824049 1666.745512 294.141757 1666.568429 292.610507 C 1666.396554 291.115715 1666.677804 290.173007 1667.427804 289.777173 C 1673.698637 286.183423 1678.042388 282.105298 1680.453846 277.542798 C 1682.865305 272.980298 1683.985096 268.527172 1683.808013 264.183422 C 1683.808013 262.037589 1682.865305 260.589672 1680.979888 259.84488 C 1679.094471 259.141755 1676.990304 258.480297 1674.662179 257.870922 C 1672.339262 257.256339 1670.276762 256.225089 1668.479887 254.777172 C 1666.677804 253.329255 1665.78197 250.71988 1665.78197 246.943838 C 1665.78197 243.00113 1667.292387 239.225088 1670.318429 235.631338 C 1673.391346 232.032379 1677.886138 230.235504 1683.808013 230.235504 C 1689.026763 230.235504 1692.933013 231.813629 1695.521555 234.969879 C 1698.151764 238.084463 1699.469472 242.079255 1699.469472 246.943838 C 1699.469472 254.490713 1697.97468 261.53238 1694.995513 268.068839 C 1692.052805 274.646964 1688.328846 280.214673 1683.808013 284.777173 C 1679.334054 289.386548 1674.573638 292.673007 1669.531971 294.646965 Z M 1856.599687 179.568835 L 1839.886144 179.042794 C 1838.615311 177.594877 1838.026769 176.063627 1838.110103 174.438627 C 1838.198644 172.818835 1839.141353 171.917793 1840.943436 171.74071 L 1855.479895 172.006335 C 1889.433021 172.17821 1906.406981 157.001126 1906.406981 126.475083 C 1906.406981 116.782374 1904.433022 108.162582 1900.485105 100.615707 C 1896.537188 93.07404 1890.96948 87.10529 1883.776771 82.719873 C 1876.625729 78.287581 1868.005937 76.074039 1857.917395 76.074039 L 1836.662186 75.813623 C 1833.068436 75.813623 1830.677811 76.449039 1829.490311 77.719873 C 1828.308019 78.94904 1827.714269 81.73029 1827.714269 86.07404 L 1827.714269 232.667796 C 1827.714269 240.214671 1829.099686 244.96988 1831.860102 246.943838 C 1834.667394 248.917797 1839.406978 250.454255 1846.073645 251.553213 C 1848.969478 252.079255 1850.724687 252.891755 1851.33927 253.985505 C 1851.953853 255.037589 1852.125728 256.068839 1851.865312 257.079255 C 1851.599687 258.042797 1851.380937 258.527172 1851.203853 258.527172 C 1849.05802 258.527172 1846.313228 258.43863 1842.979895 258.261547 C 1839.646561 258.089672 1836.729894 258.00113 1834.229894 258.00113 L 1797.058018 258.00113 C 1795.255934 258.00113 1793.042392 258.089672 1790.412184 258.261547 C 1787.823642 258.43863 1785.630934 258.527172 1783.82885 258.527172 C 1783.656975 258.527172 1783.479892 257.537589 1783.302809 255.56363 C 1783.130934 253.589672 1784.64135 252.256338 1787.844476 251.553213 C 1792.886142 250.454255 1796.485101 248.917797 1798.636143 246.943838 C 1800.781976 244.96988 1801.860101 240.214671 1801.860101 232.667796 L 1801.860101 94.693832 C 1801.860101 87.152165 1800.781976 82.391748 1798.636143 80.41779 C 1796.485101 78.443831 1792.802809 76.907373 1787.578851 75.813623 C 1784.552809 75.110498 1783.130934 73.771956 1783.302809 71.797998 C 1783.479892 69.824039 1783.656975 68.834456 1783.82885 68.834456 C 1785.45385 68.834456 1787.604892 68.922997 1790.276767 69.100081 C 1793.000726 69.277164 1795.255934 69.365706 1797.058018 69.365706 C 1809.953852 69.188622 1821.620519 68.969872 1832.058019 68.704247 C 1842.500728 68.396956 1852.563228 68.245914 1862.261145 68.245914 C 1885.245521 68.245914 1903.011147 73.245914 1915.552814 83.245915 C 1928.141356 93.204248 1934.438232 107.084457 1934.438232 124.896958 C 1934.438232 136.209459 1931.740315 146.146959 1926.344481 154.699043 C 1920.995523 163.20946 1912.615314 169.725085 1901.209064 174.24071 C 1889.808021 178.714669 1874.938229 180.49071 1856.599687 179.568835 Z M 1968.141358 260.699047 C 1963.844483 260.699047 1960.287191 259.537589 1957.479899 257.209464 C 1954.719483 254.839672 1953.339274 251.683422 1953.339274 247.735505 C 1953.339274 243.43863 1954.891358 239.443838 1958.005941 235.761546 C 1961.167399 232.074046 1966.078858 230.235504 1972.745525 230.235504 C 1976.516358 230.235504 1979.656984 231.548004 1982.156984 234.183421 C 1984.69865 236.771963 1985.969484 240.214671 1985.969484 244.511546 C 1985.969484 249.381338 1984.084067 253.308422 1980.313234 256.287589 C 1976.5424 259.230297 1972.485108 260.699047 1968.141358 260.699047 Z M 1968.141358 260.699047 " stroke="#212737" stroke-width="6.7376" stroke-opacity="1" stroke-miterlimit="4"/><g fill="#ffffff" fill-opacity="1"><g transform="translate(1.120605, 167.878059)"><g><path d="M 175.046875 -4.84375 C 177.460938 -4.3125 178.601562 -3.300781 178.46875 -1.8125 C 178.34375 -0.332031 178.210938 0.40625 178.078125 0.40625 C 176.722656 0.40625 175.101562 0.335938 173.21875 0.203125 C 171.332031 0.0664062 169.648438 0 168.171875 0 L 140.671875 0 C 138.921875 0 136.867188 0.0664062 134.515625 0.203125 C 132.160156 0.335938 130.238281 0.40625 128.75 0.40625 C 128.613281 0.40625 128.441406 0.0351562 128.234375 -0.703125 C 128.035156 -1.441406 128.171875 -2.21875 128.640625 -3.03125 C 129.117188 -3.84375 130.300781 -4.445312 132.1875 -4.84375 C 136.90625 -5.65625 140.207031 -6.800781 142.09375 -8.28125 C 143.976562 -9.769531 144.648438 -13.34375 144.109375 -19 L 135.828125 -117.84375 C 135.691406 -118.507812 135.421875 -118.84375 135.015625 -118.84375 C 134.609375 -118.84375 134.273438 -118.441406 134.015625 -117.640625 L 88.125 -8.078125 C 87.1875 -5.796875 85.835938 -4.65625 84.078125 -4.65625 C 82.328125 -4.65625 80.984375 -5.664062 80.046875 -7.6875 L 38 -115.8125 C 37.726562 -116.625 37.320312 -117.03125 36.78125 -117.03125 C 36.25 -117.03125 35.984375 -116.691406 35.984375 -116.015625 L 27.890625 -19 C 27.347656 -13.34375 28.054688 -9.769531 30.015625 -8.28125 C 31.972656 -6.800781 35.238281 -5.65625 39.8125 -4.84375 C 41.695312 -4.445312 42.875 -3.84375 43.34375 -3.03125 C 43.820312 -2.21875 43.957031 -1.441406 43.75 -0.703125 C 43.550781 0.0351562 43.382812 0.40625 43.25 0.40625 C 41.769531 0.40625 39.847656 0.335938 37.484375 0.203125 C 35.128906 0.0664062 33.078125 0 31.328125 0 L 17.578125 0 C 16.234375 0 14.550781 0.0664062 12.53125 0.203125 C 10.507812 0.335938 8.894531 0.40625 7.6875 0.40625 C 7.550781 0.40625 7.414062 -0.332031 7.28125 -1.8125 C 7.144531 -3.300781 8.222656 -4.3125 10.515625 -4.84375 C 13.066406 -5.382812 15.117188 -6.023438 16.671875 -6.765625 C 18.222656 -7.515625 19.4375 -8.796875 20.3125 -10.609375 C 21.1875 -12.429688 21.757812 -15.226562 22.03125 -19 L 31.9375 -129.5625 C 30.320312 -131.988281 28.671875 -133.640625 26.984375 -134.515625 C 25.296875 -135.390625 22.972656 -136.097656 20.015625 -136.640625 C 17.585938 -137.304688 16.472656 -138.347656 16.671875 -139.765625 C 16.878906 -141.179688 17.050781 -141.890625 17.1875 -141.890625 C 18.394531 -141.890625 19.972656 -141.820312 21.921875 -141.6875 C 23.878906 -141.550781 25.53125 -141.484375 26.875 -141.484375 L 44.46875 -141.484375 C 46.488281 -141.484375 47.835938 -140.539062 48.515625 -138.65625 L 90.140625 -33.953125 C 90.679688 -33.015625 91.085938 -32.546875 91.359375 -32.546875 C 91.898438 -32.546875 92.304688 -33.015625 92.578125 -33.953125 L 135.828125 -138.65625 C 136.640625 -140.539062 137.851562 -141.484375 139.46875 -141.484375 L 157.25 -141.484375 C 158.738281 -141.484375 160.492188 -141.550781 162.515625 -141.6875 C 164.535156 -141.820312 166.21875 -141.890625 167.5625 -141.890625 C 167.695312 -141.890625 167.832031 -141.179688 167.96875 -139.765625 C 168.101562 -138.347656 166.957031 -137.304688 164.53125 -136.640625 C 160.625 -135.828125 157.859375 -134.679688 156.234375 -133.203125 C 154.617188 -131.722656 154.082031 -128.148438 154.625 -122.484375 L 163.71875 -19 C 164.257812 -13.34375 165.335938 -9.769531 166.953125 -8.28125 C 168.566406 -6.800781 171.265625 -5.65625 175.046875 -4.84375 Z M 34.15625 -125.3125 L 35.171875 -123.5 Z M 34.15625 -125.3125 "/></g></g></g><g fill="#ffffff" fill-opacity="1"><g transform="translate(186.873165, 167.878059)"><g><path d="M 99.453125 -12.734375 C 99.710938 -12.734375 100.414062 -12.53125 101.5625 -12.125 C 102.707031 -11.71875 103.28125 -10.503906 103.28125 -8.484375 C 103.28125 -5.523438 101.863281 -2.96875 99.03125 -0.8125 C 96.207031 1.34375 92.773438 2.421875 88.734375 2.421875 C 78.492188 2.421875 72.765625 -4.242188 71.546875 -17.578125 L 71.140625 -20.8125 C 68.585938 -13.40625 64.476562 -7.613281 58.8125 -3.4375 C 53.15625 0.738281 46.957031 2.828125 40.21875 2.828125 C 32.675781 2.828125 26.445312 1.378906 21.53125 -1.515625 C 16.613281 -4.410156 12.972656 -8.148438 10.609375 -12.734375 C 8.253906 -17.316406 7.078125 -21.96875 7.078125 -26.6875 C 7.078125 -36.25 10.441406 -43.925781 17.171875 -49.71875 C 23.910156 -55.519531 32.804688 -58.421875 43.859375 -58.421875 C 47.765625 -58.421875 51.90625 -58.148438 56.28125 -57.609375 C 60.664062 -57.066406 64.476562 -56.457031 67.71875 -55.78125 L 67.3125 -60.640625 C 66.5 -70.203125 63.832031 -76.90625 59.3125 -80.75 C 54.800781 -84.59375 48.976562 -86.515625 41.84375 -86.515625 C 36.050781 -86.515625 30.960938 -85.535156 26.578125 -83.578125 C 22.203125 -81.617188 18.257812 -78.890625 14.75 -75.390625 C 14.75 -75.390625 14.34375 -75.625 13.53125 -76.09375 C 12.726562 -76.570312 12.191406 -77.316406 11.921875 -78.328125 C 11.648438 -79.335938 12.257812 -80.515625 13.75 -81.859375 C 16.976562 -85.359375 21.554688 -88.285156 27.484375 -90.640625 C 33.410156 -93.003906 40.285156 -94.1875 48.109375 -94.1875 C 54.710938 -94.1875 60.707031 -93.140625 66.09375 -91.046875 C 71.488281 -88.960938 75.9375 -85.359375 79.4375 -80.234375 C 82.9375 -75.117188 85.09375 -68.046875 85.90625 -59.015625 L 89.75 -19.40625 C 90.007812 -15.632812 90.613281 -13.039062 91.5625 -11.625 C 92.507812 -10.207031 93.65625 -9.5 95 -9.5 C 97.425781 -9.5 98.910156 -10.578125 99.453125 -12.734375 Z M 69.734375 -35.375 L 69.734375 -36.1875 L 68.515625 -48.71875 C 65.285156 -49.382812 61.613281 -50.019531 57.5 -50.625 C 53.394531 -51.238281 50.128906 -51.546875 47.703125 -51.546875 C 31.796875 -51.546875 23.84375 -44.671875 23.84375 -30.921875 C 23.84375 -25.535156 25.832031 -20.648438 29.8125 -16.265625 C 33.789062 -11.890625 39.617188 -9.703125 47.296875 -9.703125 C 51.066406 -9.703125 54.671875 -10.742188 58.109375 -12.828125 C 61.546875 -14.921875 64.34375 -17.921875 66.5 -21.828125 C 68.65625 -25.734375 69.734375 -30.25 69.734375 -35.375 Z M 69.734375 -35.375 "/></g></g></g><g fill="#ffffff" fill-opacity="1"><g transform="translate(294.201358, 167.878059)"><g><path d="M 4.453125 -14.953125 L 9.5 -34.15625 C 9.5 -34.289062 10.003906 -34.359375 11.015625 -34.359375 C 12.023438 -34.359375 13.066406 -34.019531 14.140625 -33.34375 C 15.222656 -32.675781 15.765625 -31.398438 15.765625 -29.515625 C 14.816406 -19.273438 16.398438 -12.367188 20.515625 -8.796875 C 24.628906 -5.222656 30.863281 -3.4375 39.21875 -3.4375 C 45.28125 -3.4375 50.363281 -4.515625 54.46875 -6.671875 C 58.582031 -8.828125 60.640625 -12.664062 60.640625 -18.1875 C 60.640625 -21.425781 59.863281 -24.289062 58.3125 -26.78125 C 56.757812 -29.269531 54.128906 -31.757812 50.421875 -34.25 C 46.722656 -36.75 41.570312 -39.613281 34.96875 -42.84375 C 30.65625 -45.269531 26.441406 -47.796875 22.328125 -50.421875 C 18.222656 -53.054688 14.890625 -56.023438 12.328125 -59.328125 C 9.765625 -62.628906 8.484375 -66.300781 8.484375 -70.34375 C 8.484375 -76.8125 11.484375 -82.398438 17.484375 -87.109375 C 23.484375 -91.828125 32.75 -94.1875 45.28125 -94.1875 C 50.800781 -94.1875 56.253906 -93.613281 61.640625 -92.46875 C 67.035156 -91.320312 71.414062 -89.671875 74.78125 -87.515625 C 78.15625 -85.359375 79.367188 -82.597656 78.421875 -79.234375 L 73.171875 -60.234375 C 73.171875 -60.097656 72.664062 -60.03125 71.65625 -60.03125 C 70.644531 -60.03125 69.664062 -60.363281 68.71875 -61.03125 C 67.78125 -61.707031 67.3125 -62.859375 67.3125 -64.484375 C 68.382812 -72.566406 67.4375 -78.457031 64.46875 -82.15625 C 61.507812 -85.863281 55.25 -87.71875 45.6875 -87.71875 C 40.695312 -87.71875 36.921875 -87.144531 34.359375 -86 C 31.796875 -84.851562 30.078125 -83.367188 29.203125 -81.546875 C 28.328125 -79.734375 27.890625 -77.816406 27.890625 -75.796875 C 27.890625 -71.890625 30.078125 -68.382812 34.453125 -65.28125 C 38.835938 -62.1875 44.128906 -58.953125 50.328125 -55.578125 C 58.953125 -51.140625 66.0625 -46.695312 71.65625 -42.25 C 77.25 -37.800781 80.046875 -32.070312 80.046875 -25.0625 C 80.046875 -16.03125 76.335938 -9.085938 68.921875 -4.234375 C 61.515625 0.609375 51.613281 3.03125 39.21875 3.03125 C 32.613281 3.03125 26.546875 2.1875 21.015625 0.5 C 15.492188 -1.175781 11.179688 -3.394531 8.078125 -6.15625 C 4.984375 -8.925781 3.773438 -11.859375 4.453125 -14.953125 Z M 4.453125 -14.953125 "/></g></g></g><g fill="#ffffff" fill-opacity="1"><g transform="translate(379.295822, 167.878059)"><g><path d="M 61.046875 -46.078125 L 9.90625 -46.078125 C 8.820312 -46.078125 8.078125 -46.550781 7.671875 -47.5 C 7.273438 -48.445312 7.273438 -49.390625 7.671875 -50.328125 C 8.078125 -51.273438 8.820312 -51.75 9.90625 -51.75 L 61.046875 -51.75 C 62.253906 -51.75 63.023438 -51.273438 63.359375 -50.328125 C 63.703125 -49.390625 63.703125 -48.445312 63.359375 -47.5 C 63.023438 -46.550781 62.253906 -46.078125 61.046875 -46.078125 Z M 61.046875 -46.078125 "/></g></g></g><g fill="#ffffff" fill-opacity="1"><g transform="translate(445.794827, 167.878059)"><g><path d="M 20.015625 0 C 18.660156 0 16.972656 0.0664062 14.953125 0.203125 C 12.929688 0.335938 11.316406 0.40625 10.109375 0.40625 C 9.972656 0.40625 9.835938 -0.332031 9.703125 -1.8125 C 9.566406 -3.300781 10.644531 -4.3125 12.9375 -4.84375 C 16.84375 -5.65625 19.601562 -6.800781 21.21875 -8.28125 C 22.84375 -9.769531 23.65625 -13.34375 23.65625 -19 L 23.65625 -122.484375 C 23.65625 -128.148438 22.84375 -131.722656 21.21875 -133.203125 C 19.601562 -134.679688 16.84375 -135.828125 12.9375 -136.640625 C 10.644531 -137.171875 9.566406 -138.175781 9.703125 -139.65625 C 9.835938 -141.144531 9.972656 -141.890625 10.109375 -141.890625 C 11.316406 -141.890625 12.929688 -141.820312 14.953125 -141.6875 C 16.972656 -141.550781 18.660156 -141.484375 20.015625 -141.484375 C 29.578125 -141.617188 38.566406 -141.820312 46.984375 -142.09375 C 55.410156 -142.363281 62.453125 -142.5 68.109375 -142.5 C 78.617188 -142.5 87.3125 -141.082031 94.1875 -138.25 C 101.0625 -135.425781 106.179688 -131.617188 109.546875 -126.828125 C 112.921875 -122.046875 114.609375 -116.757812 114.609375 -110.96875 C 114.609375 -101.800781 111.84375 -94.421875 106.3125 -88.828125 C 100.789062 -83.242188 92.976562 -79.910156 82.875 -78.828125 C 91.363281 -78.148438 98.90625 -76.363281 105.5 -73.46875 C 112.101562 -70.570312 117.257812 -66.492188 120.96875 -61.234375 C 124.675781 -55.984375 126.53125 -49.453125 126.53125 -41.640625 C 126.53125 -28.972656 121.578125 -18.726562 111.671875 -10.90625 C 101.765625 -3.09375 87.3125 0.8125 68.3125 0.8125 C 61.039062 0.8125 53.5625 0.707031 45.875 0.5 C 38.195312 0.300781 29.578125 0.132812 20.015625 0 Z M 52.953125 -80.046875 L 65.6875 -81.046875 C 76.195312 -82.128906 83.472656 -84.789062 87.515625 -89.03125 C 91.554688 -93.28125 93.578125 -99.785156 93.578125 -108.546875 C 93.578125 -117.429688 90.984375 -124.234375 85.796875 -128.953125 C 80.609375 -133.671875 73.835938 -136.097656 65.484375 -136.234375 L 49.921875 -136.640625 C 46.828125 -136.640625 44.90625 -136 44.15625 -134.71875 C 43.414062 -133.4375 43.046875 -131.046875 43.046875 -127.546875 L 43.046875 -14.546875 C 43.046875 -10.773438 43.484375 -8.25 44.359375 -6.96875 C 45.242188 -5.6875 47.4375 -5.046875 50.9375 -5.046875 L 65.484375 -5.046875 C 76.804688 -5.046875 86.035156 -8.007812 93.171875 -13.9375 C 100.316406 -19.875 103.890625 -28.566406 103.890625 -40.015625 C 103.890625 -51.335938 100.859375 -59.863281 94.796875 -65.59375 C 88.734375 -71.320312 78.894531 -74.316406 65.28125 -74.578125 L 52.140625 -74.984375 C 51.609375 -74.984375 51.207031 -75.722656 50.9375 -77.203125 C 50.664062 -78.691406 51.335938 -79.640625 52.953125 -80.046875 Z M 52.953125 -80.046875 "/></g></g></g><g fill="#ffffff" fill-opacity="1"><g transform="translate(579.197089, 167.878059)"><g><path d="M 108.34375 -14.34375 C 108.613281 -14.75 109.382812 -14.847656 110.65625 -14.640625 C 111.9375 -14.441406 112.578125 -13 112.578125 -10.3125 C 112.578125 -7.613281 111.195312 -4.816406 108.4375 -1.921875 C 105.675781 0.972656 101.535156 2.421875 96.015625 2.421875 C 91.429688 2.421875 87.585938 0.601562 84.484375 -3.03125 C 81.390625 -6.664062 79.84375 -12.394531 79.84375 -20.21875 L 79.84375 -20.8125 C 77.414062 -14.082031 73.4375 -8.425781 67.90625 -3.84375 C 62.382812 0.738281 55.648438 3.03125 47.703125 3.03125 C 37.867188 3.03125 29.847656 -0.203125 23.640625 -6.671875 C 17.441406 -13.140625 14.34375 -23.039062 14.34375 -36.375 L 14.34375 -69.125 C 14.34375 -71.820312 13.867188 -73.941406 12.921875 -75.484375 C 11.984375 -77.035156 10.171875 -77.945312 7.484375 -78.21875 C 6.128906 -78.488281 5.285156 -79.09375 4.953125 -80.03125 C 4.617188 -80.976562 4.484375 -81.890625 4.546875 -82.765625 C 4.617188 -83.640625 4.65625 -84.078125 4.65625 -84.078125 C 10.71875 -85.160156 15.664062 -86.375 19.5 -87.71875 C 23.34375 -89.070312 26.75 -90.828125 29.71875 -92.984375 C 30.382812 -93.242188 31.320312 -93.171875 32.53125 -92.765625 C 33.75 -92.367188 34.289062 -91.832031 34.15625 -91.15625 C 33.75 -86.4375 33.378906 -82.289062 33.046875 -78.71875 C 32.710938 -75.15625 32.546875 -70.8125 32.546875 -65.6875 L 32.546875 -37.390625 C 32.546875 -27.148438 34.5 -19.601562 38.40625 -14.75 C 42.3125 -9.90625 47.769531 -7.484375 54.78125 -7.484375 C 62.457031 -7.484375 68.550781 -10.984375 73.0625 -17.984375 C 77.582031 -24.992188 79.84375 -33.890625 79.84375 -44.671875 L 79.84375 -69.125 C 79.84375 -71.820312 79.367188 -73.941406 78.421875 -75.484375 C 77.484375 -77.035156 75.664062 -77.945312 72.96875 -78.21875 C 71.625 -78.488281 70.78125 -79.09375 70.4375 -80.03125 C 70.101562 -80.976562 69.96875 -81.890625 70.03125 -82.765625 C 70.101562 -83.640625 70.140625 -84.078125 70.140625 -84.078125 C 76.203125 -85.160156 81.148438 -86.375 84.984375 -87.71875 C 88.828125 -89.070312 92.234375 -90.828125 95.203125 -92.984375 C 95.878906 -93.242188 96.820312 -93.171875 98.03125 -92.765625 C 99.238281 -92.367188 99.84375 -91.832031 99.84375 -91.15625 C 99.3125 -86.4375 98.875 -82.289062 98.53125 -78.71875 C 98.195312 -75.15625 98.03125 -70.8125 98.03125 -65.6875 L 98.03125 -23.25 C 98.03125 -18.664062 98.429688 -15.363281 99.234375 -13.34375 C 100.046875 -11.320312 101.53125 -10.3125 103.6875 -10.3125 C 105.039062 -10.3125 106.050781 -10.78125 106.71875 -11.71875 C 107.394531 -12.664062 107.9375 -13.539062 108.34375 -14.34375 Z M 108.34375 -14.34375 "/></g></g></g><g fill="#ffffff" fill-opacity="1"><g transform="translate(695.823, 167.878059)"><g><path d="M 25.875 -111.375 C 22.238281 -111.375 19.34375 -112.316406 17.1875 -114.203125 C 15.03125 -116.085938 13.953125 -118.445312 13.953125 -121.28125 C 13.953125 -124.644531 15.265625 -127.367188 17.890625 -129.453125 C 20.515625 -131.546875 23.847656 -132.59375 27.890625 -132.59375 C 31.398438 -132.59375 34.226562 -131.613281 36.375 -129.65625 C 38.53125 -127.707031 39.609375 -125.316406 39.609375 -122.484375 C 39.609375 -119.253906 38.328125 -116.59375 35.765625 -114.5 C 33.210938 -112.414062 29.914062 -111.375 25.875 -111.375 Z M 38 -65.6875 L 38 -19 C 38 -14.144531 38.769531 -10.707031 40.3125 -8.6875 C 41.863281 -6.664062 43.988281 -5.519531 46.6875 -5.25 C 48.570312 -5.113281 49.71875 -4.570312 50.125 -3.625 C 50.53125 -2.6875 50.597656 -1.78125 50.328125 -0.90625 C 50.054688 -0.03125 49.785156 0.40625 49.515625 0.40625 C 43.179688 0 36.476562 -0.164062 29.40625 -0.09375 C 22.332031 -0.03125 15.222656 0.132812 8.078125 0.40625 C 7.953125 0.40625 7.753906 -0.03125 7.484375 -0.90625 C 7.210938 -1.78125 7.3125 -2.6875 7.78125 -3.625 C 8.25 -4.570312 9.425781 -5.113281 11.3125 -5.25 C 14.144531 -5.519531 16.269531 -6.664062 17.6875 -8.6875 C 19.101562 -10.707031 19.8125 -14.210938 19.8125 -19.203125 L 19.8125 -69.125 C 19.8125 -71.820312 19.335938 -73.941406 18.390625 -75.484375 C 17.453125 -77.035156 15.632812 -77.945312 12.9375 -78.21875 C 11.59375 -78.488281 10.75 -79.09375 10.40625 -80.03125 C 10.070312 -80.976562 9.9375 -81.890625 10 -82.765625 C 10.070312 -83.640625 10.109375 -84.078125 10.109375 -84.078125 C 16.171875 -85.160156 21.117188 -86.375 24.953125 -87.71875 C 28.796875 -89.070312 32.203125 -90.828125 35.171875 -92.984375 C 35.847656 -93.242188 36.789062 -93.171875 38 -92.765625 C 39.207031 -92.367188 39.742188 -91.832031 39.609375 -91.15625 C 39.210938 -86.4375 38.84375 -82.289062 38.5 -78.71875 C 38.164062 -75.15625 38 -70.8125 38 -65.6875 Z M 38 -65.6875 "/></g></g></g><g fill="#ffffff" fill-opacity="1"><g transform="translate(753.630676, 167.878059)"><g><path d="M 36.1875 3.03125 C 29.851562 3.03125 24.898438 0.976562 21.328125 -3.125 C 17.753906 -7.238281 15.96875 -13.335938 15.96875 -21.421875 L 15.96875 -78.421875 C 15.96875 -80.710938 15.796875 -82.460938 15.453125 -83.671875 C 15.117188 -84.890625 13.875 -85.5 11.71875 -85.5 L 5.859375 -85.5 C 4.515625 -85.5 3.910156 -86.40625 4.046875 -88.21875 C 4.179688 -90.039062 5.460938 -91.085938 7.890625 -91.359375 C 11.253906 -91.765625 14.148438 -92.539062 16.578125 -93.6875 C 19.003906 -94.832031 21.160156 -96.816406 23.046875 -99.640625 C 24.929688 -102.472656 26.75 -106.519531 28.5 -111.78125 C 29.445312 -114.070312 31.0625 -115.21875 33.34375 -115.21875 C 34.425781 -115.21875 34.96875 -114.878906 34.96875 -114.203125 C 35.101562 -111.234375 35.132812 -107.929688 35.0625 -104.296875 C 35 -100.660156 34.832031 -97.695312 34.5625 -95.40625 C 34.425781 -92.570312 35.773438 -91.15625 38.609375 -91.15625 L 62.453125 -91.15625 C 62.992188 -91.15625 63.363281 -90.679688 63.5625 -89.734375 C 63.769531 -88.796875 63.671875 -87.851562 63.265625 -86.90625 C 62.859375 -85.96875 61.984375 -85.5 60.640625 -85.5 L 40.015625 -85.5 C 37.859375 -85.5 36.34375 -85.09375 35.46875 -84.28125 C 34.59375 -83.476562 34.15625 -82.066406 34.15625 -80.046875 L 34.15625 -21.421875 C 34.15625 -15.898438 35.632812 -12.160156 38.59375 -10.203125 C 41.5625 -8.253906 45.097656 -7.984375 49.203125 -9.390625 C 53.316406 -10.804688 57.0625 -13.738281 60.4375 -18.1875 C 60.707031 -18.59375 61.210938 -18.492188 61.953125 -17.890625 C 62.691406 -17.285156 63.09375 -16.304688 63.15625 -14.953125 C 63.226562 -13.609375 62.320312 -11.789062 60.4375 -9.5 C 56.9375 -5.050781 53.09375 -1.851562 48.90625 0.09375 C 44.726562 2.050781 40.488281 3.03125 36.1875 3.03125 Z M 36.1875 3.03125 "/></g></g></g><g fill="#ffffff" fill-opacity="1"><g transform="translate(820.331783, 167.878059)"><g><path d="M 65.484375 -94.1875 C 69.660156 -94.1875 73.429688 -93.3125 76.796875 -91.5625 C 80.171875 -89.8125 82.695312 -87.488281 84.375 -84.59375 C 86.0625 -81.695312 86.4375 -78.492188 85.5 -74.984375 L 79.03125 -52.75 C 79.03125 -52.476562 78.421875 -52.304688 77.203125 -52.234375 C 75.992188 -52.171875 74.816406 -52.476562 73.671875 -53.15625 C 72.523438 -53.832031 72.019531 -55.179688 72.15625 -57.203125 C 73.101562 -64.210938 73.101562 -69.535156 72.15625 -73.171875 C 71.21875 -76.804688 69.535156 -79.332031 67.109375 -80.75 C 64.679688 -82.164062 61.71875 -82.875 58.21875 -82.875 C 54.039062 -82.875 50.601562 -81.457031 47.90625 -78.625 C 45.207031 -75.789062 43.179688 -72.21875 41.828125 -67.90625 C 40.484375 -63.601562 39.539062 -59.09375 39 -54.375 C 38.46875 -49.65625 38.203125 -45.410156 38.203125 -41.640625 L 38.203125 -19 C 38.203125 -14.144531 38.972656 -10.707031 40.515625 -8.6875 C 42.066406 -6.664062 44.191406 -5.519531 46.890625 -5.25 C 48.773438 -5.113281 49.988281 -4.570312 50.53125 -3.625 C 51.070312 -2.6875 51.207031 -1.78125 50.9375 -0.90625 C 50.664062 -0.03125 50.257812 0.40625 49.71875 0.40625 C 43.382812 0 36.710938 -0.164062 29.703125 -0.09375 C 22.703125 -0.03125 15.628906 0.132812 8.484375 0.40625 C 8.085938 0.40625 7.753906 -0.03125 7.484375 -0.90625 C 7.210938 -1.78125 7.34375 -2.6875 7.875 -3.625 C 8.414062 -4.570312 9.628906 -5.113281 11.515625 -5.25 C 14.484375 -5.519531 16.640625 -6.664062 17.984375 -8.6875 C 19.335938 -10.707031 20.015625 -14.210938 20.015625 -19.203125 L 20.015625 -69.125 C 20.015625 -71.820312 19.539062 -73.941406 18.59375 -75.484375 C 17.65625 -77.035156 15.835938 -77.945312 13.140625 -78.21875 C 11.785156 -78.488281 10.941406 -79.09375 10.609375 -80.03125 C 10.273438 -80.976562 10.175781 -81.890625 10.3125 -82.765625 C 10.445312 -83.640625 10.515625 -84.078125 10.515625 -84.078125 C 16.441406 -85.160156 21.320312 -86.375 25.15625 -87.71875 C 29 -89.070312 32.40625 -90.828125 35.375 -92.984375 C 36.039062 -93.242188 36.976562 -93.171875 38.1875 -92.765625 C 39.40625 -92.367188 40.015625 -91.832031 40.015625 -91.15625 C 39.617188 -87.382812 39.285156 -83.945312 39.015625 -80.84375 C 38.742188 -77.75 38.472656 -74.453125 38.203125 -70.953125 C 39.546875 -74.722656 41.328125 -78.359375 43.546875 -81.859375 C 45.773438 -85.359375 48.675781 -88.285156 52.25 -90.640625 C 55.820312 -93.003906 60.234375 -94.1875 65.484375 -94.1875 Z M 65.484375 -94.1875 "/></g></g></g><g fill="#ffffff" fill-opacity="1"><g transform="translate(908.458153, 167.878059)"><g><path d="M 99.453125 -12.734375 C 99.710938 -12.734375 100.414062 -12.53125 101.5625 -12.125 C 102.707031 -11.71875 103.28125 -10.503906 103.28125 -8.484375 C 103.28125 -5.523438 101.863281 -2.96875 99.03125 -0.8125 C 96.207031 1.34375 92.773438 2.421875 88.734375 2.421875 C 78.492188 2.421875 72.765625 -4.242188 71.546875 -17.578125 L 71.140625 -20.8125 C 68.585938 -13.40625 64.476562 -7.613281 58.8125 -3.4375 C 53.15625 0.738281 46.957031 2.828125 40.21875 2.828125 C 32.675781 2.828125 26.445312 1.378906 21.53125 -1.515625 C 16.613281 -4.410156 12.972656 -8.148438 10.609375 -12.734375 C 8.253906 -17.316406 7.078125 -21.96875 7.078125 -26.6875 C 7.078125 -36.25 10.441406 -43.925781 17.171875 -49.71875 C 23.910156 -55.519531 32.804688 -58.421875 43.859375 -58.421875 C 47.765625 -58.421875 51.90625 -58.148438 56.28125 -57.609375 C 60.664062 -57.066406 64.476562 -56.457031 67.71875 -55.78125 L 67.3125 -60.640625 C 66.5 -70.203125 63.832031 -76.90625 59.3125 -80.75 C 54.800781 -84.59375 48.976562 -86.515625 41.84375 -86.515625 C 36.050781 -86.515625 30.960938 -85.535156 26.578125 -83.578125 C 22.203125 -81.617188 18.257812 -78.890625 14.75 -75.390625 C 14.75 -75.390625 14.34375 -75.625 13.53125 -76.09375 C 12.726562 -76.570312 12.191406 -77.316406 11.921875 -78.328125 C 11.648438 -79.335938 12.257812 -80.515625 13.75 -81.859375 C 16.976562 -85.359375 21.554688 -88.285156 27.484375 -90.640625 C 33.410156 -93.003906 40.285156 -94.1875 48.109375 -94.1875 C 54.710938 -94.1875 60.707031 -93.140625 66.09375 -91.046875 C 71.488281 -88.960938 75.9375 -85.359375 79.4375 -80.234375 C 82.9375 -75.117188 85.09375 -68.046875 85.90625 -59.015625 L 89.75 -19.40625 C 90.007812 -15.632812 90.613281 -13.039062 91.5625 -11.625 C 92.507812 -10.207031 93.65625 -9.5 95 -9.5 C 97.425781 -9.5 98.910156 -10.578125 99.453125 -12.734375 Z M 69.734375 -35.375 L 69.734375 -36.1875 L 68.515625 -48.71875 C 65.285156 -49.382812 61.613281 -50.019531 57.5 -50.625 C 53.394531 -51.238281 50.128906 -51.546875 47.703125 -51.546875 C 31.796875 -51.546875 23.84375 -44.671875 23.84375 -30.921875 C 23.84375 -25.535156 25.832031 -20.648438 29.8125 -16.265625 C 33.789062 -11.890625 39.617188 -9.703125 47.296875 -9.703125 C 51.066406 -9.703125 54.671875 -10.742188 58.109375 -12.828125 C 61.546875 -14.921875 64.34375 -17.921875 66.5 -21.828125 C 68.65625 -25.734375 69.734375 -30.25 69.734375 -35.375 Z M 69.734375 -35.375 "/></g></g></g><g fill="#ffffff" fill-opacity="1"><g transform="translate(1015.786334, 167.878059)"><g><path d="M 102.078125 -92.578125 C 102.609375 -92.710938 103.039062 -92.335938 103.375 -91.453125 C 103.71875 -90.578125 103.71875 -89.664062 103.375 -88.71875 C 103.039062 -87.78125 102 -87.242188 100.25 -87.109375 C 91.894531 -86.171875 87.785156 -84.757812 87.921875 -82.875 C 91.554688 -79.5 94.382812 -75.625 96.40625 -71.25 C 98.4375 -66.875 99.453125 -62.125 99.453125 -57 C 99.453125 -48.507812 96.851562 -40.960938 91.65625 -34.359375 C 86.46875 -27.753906 79.566406 -22.90625 70.953125 -19.8125 C 79.703125 -17.925781 86.738281 -14.285156 92.0625 -8.890625 C 97.382812 -3.503906 100.046875 3.363281 100.046875 11.71875 C 100.046875 18.050781 97.988281 23.609375 93.875 28.390625 C 89.769531 33.179688 84.179688 36.890625 77.109375 39.515625 C 70.035156 42.140625 61.984375 43.453125 52.953125 43.453125 C 43.796875 43.453125 35.878906 41.898438 29.203125 38.796875 C 22.535156 35.703125 17.445312 31.660156 13.9375 26.671875 C 10.4375 21.691406 8.820312 16.441406 9.09375 10.921875 C 9.226562 7.273438 10.507812 3.734375 12.9375 0.296875 C 15.363281 -3.128906 19.066406 -6.125 24.046875 -8.6875 C 25.128906 -8.957031 26.039062 -8.820312 26.78125 -8.28125 C 27.519531 -7.75 27.6875 -6.738281 27.28125 -5.25 C 26.476562 -3.632812 25.90625 -1.984375 25.5625 -0.296875 C 25.226562 1.378906 25.0625 3.09375 25.0625 4.84375 C 25.195312 9.832031 26.710938 14.75 29.609375 19.59375 C 32.503906 24.445312 36.34375 28.457031 41.125 31.625 C 45.914062 34.789062 51.140625 36.375 56.796875 36.375 C 64.203125 36.375 70.160156 34.554688 74.671875 30.921875 C 79.191406 27.285156 81.453125 22.769531 81.453125 17.375 C 81.453125 11.050781 80.035156 5.328125 77.203125 0.203125 C 74.378906 -4.921875 70.640625 -9 65.984375 -12.03125 C 61.335938 -15.0625 56.253906 -16.578125 50.734375 -16.578125 L 50.328125 -16.578125 C 42.378906 -16.847656 35.269531 -18.695312 29 -22.125 C 22.738281 -25.5625 17.785156 -30.078125 14.140625 -35.671875 C 10.503906 -41.265625 8.6875 -47.363281 8.6875 -53.96875 C 8.6875 -61.78125 10.707031 -68.71875 14.75 -74.78125 C 18.789062 -80.84375 24.382812 -85.59375 31.53125 -89.03125 C 38.675781 -92.46875 46.828125 -94.1875 55.984375 -94.1875 C 61.910156 -94.1875 66.929688 -93.710938 71.046875 -92.765625 C 75.160156 -91.828125 79.503906 -91.359375 84.078125 -91.359375 C 86.640625 -91.359375 89.738281 -91.523438 93.375 -91.859375 C 97.019531 -92.203125 99.921875 -92.441406 102.078125 -92.578125 Z M 57.203125 -23.84375 C 64.609375 -23.84375 70.632812 -26.164062 75.28125 -30.8125 C 79.9375 -35.46875 82.265625 -41.367188 82.265625 -48.515625 C 82.265625 -52.960938 81.453125 -57.441406 79.828125 -61.953125 C 78.210938 -66.460938 75.957031 -70.601562 73.0625 -74.375 C 70.164062 -78.15625 66.863281 -81.1875 63.15625 -83.46875 C 59.457031 -85.757812 55.453125 -86.90625 51.140625 -86.90625 C 43.328125 -86.90625 37.195312 -84.648438 32.75 -80.140625 C 28.300781 -75.628906 26.078125 -69.664062 26.078125 -62.25 C 26.078125 -56.457031 27.421875 -50.597656 30.109375 -44.671875 C 32.804688 -38.742188 36.515625 -33.789062 41.234375 -29.8125 C 45.953125 -25.832031 51.273438 -23.84375 57.203125 -23.84375 Z M 57.203125 -23.84375 "/></g></g></g><g fill="#ffffff" fill-opacity="1"><g transform="translate(1126.75273, 167.878059)"><g><path d="M 54.578125 3.03125 C 45.273438 3.03125 37.050781 1.078125 29.90625 -2.828125 C 22.769531 -6.734375 17.210938 -12.222656 13.234375 -19.296875 C 9.265625 -26.378906 7.28125 -34.566406 7.28125 -43.859375 C 7.28125 -54.234375 9.632812 -63.160156 14.34375 -70.640625 C 19.0625 -78.117188 25.328125 -83.910156 33.140625 -88.015625 C 40.960938 -92.128906 49.519531 -94.1875 58.8125 -94.1875 C 68.789062 -94.1875 77.484375 -92.128906 84.890625 -88.015625 C 92.304688 -83.910156 98.035156 -78.351562 102.078125 -71.34375 C 106.117188 -64.34375 108.140625 -56.394531 108.140625 -47.5 C 108.140625 -37.257812 105.847656 -28.363281 101.265625 -20.8125 C 96.679688 -13.269531 90.378906 -7.410156 82.359375 -3.234375 C 74.347656 0.941406 65.085938 3.03125 54.578125 3.03125 Z M 62.65625 -5.046875 C 71.820312 -5.046875 78.863281 -7.84375 83.78125 -13.4375 C 88.695312 -19.03125 91.222656 -26.34375 91.359375 -35.375 C 91.628906 -41.03125 90.851562 -46.820312 89.03125 -52.75 C 87.21875 -58.675781 84.59375 -64.203125 81.15625 -69.328125 C 77.71875 -74.453125 73.671875 -78.5625 69.015625 -81.65625 C 64.367188 -84.757812 59.285156 -86.3125 53.765625 -86.3125 C 44.066406 -86.3125 36.753906 -83.34375 31.828125 -77.40625 C 26.910156 -71.476562 24.382812 -64.335938 24.25 -55.984375 C 23.851562 -49.648438 24.5625 -43.453125 26.375 -37.390625 C 28.195312 -31.328125 30.859375 -25.867188 34.359375 -21.015625 C 37.859375 -16.171875 42 -12.296875 46.78125 -9.390625 C 51.570312 -6.492188 56.863281 -5.046875 62.65625 -5.046875 Z M 62.65625 -5.046875 "/></g></g></g><g fill="#ffffff" fill-opacity="1"><g transform="translate(1242.165933, 167.878059)"><g><path d="M 11.109375 27.484375 C 9.765625 27.617188 9.023438 27.113281 8.890625 25.96875 C 8.753906 24.820312 8.957031 24.113281 9.5 23.84375 C 14.21875 21.15625 17.484375 18.09375 19.296875 14.65625 C 21.117188 11.21875 21.960938 7.882812 21.828125 4.65625 C 21.828125 3.03125 21.117188 1.945312 19.703125 1.40625 C 18.285156 0.875 16.703125 0.375 14.953125 -0.09375 C 13.203125 -0.570312 11.648438 -1.347656 10.296875 -2.421875 C 8.953125 -3.503906 8.28125 -5.457031 8.28125 -8.28125 C 8.28125 -11.25 9.425781 -14.078125 11.71875 -16.765625 C 14.007812 -19.460938 17.378906 -20.8125 21.828125 -20.8125 C 25.734375 -20.8125 28.660156 -19.632812 30.609375 -17.28125 C 32.566406 -14.925781 33.546875 -11.925781 33.546875 -8.28125 C 33.546875 -2.625 32.429688 2.660156 30.203125 7.578125 C 27.984375 12.492188 25.191406 16.671875 21.828125 20.109375 C 18.460938 23.546875 14.890625 26.003906 11.109375 27.484375 Z M 11.109375 27.484375 "/></g></g></g><g fill="#ffffff" fill-opacity="1"><g transform="translate(1283.197212, 167.878059)"><g/></g></g><g fill="#ffffff" fill-opacity="1"><g transform="translate(1328.877355, 167.878059)"><g><path d="M 64.6875 -58.8125 L 52.140625 -59.21875 C 51.203125 -60.300781 50.765625 -61.445312 50.828125 -62.65625 C 50.898438 -63.875 51.609375 -64.550781 52.953125 -64.6875 L 63.875 -64.484375 C 89.34375 -64.347656 102.078125 -75.734375 102.078125 -98.640625 C 102.078125 -105.910156 100.59375 -112.375 97.625 -118.03125 C 94.65625 -123.695312 90.476562 -128.179688 85.09375 -131.484375 C 79.707031 -134.785156 73.238281 -136.4375 65.6875 -136.4375 L 49.71875 -136.640625 C 47.03125 -136.640625 45.242188 -136.164062 44.359375 -135.21875 C 43.484375 -134.28125 43.046875 -132.191406 43.046875 -128.953125 L 43.046875 -19 C 43.046875 -13.34375 44.085938 -9.769531 46.171875 -8.28125 C 48.265625 -6.800781 51.804688 -5.65625 56.796875 -4.84375 C 58.953125 -4.445312 60.265625 -3.84375 60.734375 -3.03125 C 61.210938 -2.21875 61.347656 -1.441406 61.140625 -0.703125 C 60.941406 0.0351562 60.773438 0.40625 60.640625 0.40625 C 59.023438 0.40625 56.96875 0.335938 54.46875 0.203125 C 51.976562 0.0664062 49.789062 0 47.90625 0 L 20.015625 0 C 18.660156 0 17.003906 0.0664062 15.046875 0.203125 C 13.097656 0.335938 11.453125 0.40625 10.109375 0.40625 C 9.972656 0.40625 9.835938 -0.332031 9.703125 -1.8125 C 9.566406 -3.300781 10.710938 -4.3125 13.140625 -4.84375 C 16.910156 -5.65625 19.601562 -6.800781 21.21875 -8.28125 C 22.84375 -9.769531 23.65625 -13.34375 23.65625 -19 L 23.65625 -122.484375 C 23.65625 -128.148438 22.84375 -131.722656 21.21875 -133.203125 C 19.601562 -134.679688 16.84375 -135.828125 12.9375 -136.640625 C 10.644531 -137.171875 9.566406 -138.175781 9.703125 -139.65625 C 9.835938 -141.144531 9.972656 -141.890625 10.109375 -141.890625 C 11.316406 -141.890625 12.929688 -141.820312 14.953125 -141.6875 C 16.972656 -141.550781 18.660156 -141.484375 20.015625 -141.484375 C 29.710938 -141.617188 38.46875 -141.785156 46.28125 -141.984375 C 54.101562 -142.191406 61.648438 -142.296875 68.921875 -142.296875 C 86.171875 -142.296875 99.507812 -138.554688 108.9375 -131.078125 C 118.375 -123.597656 123.09375 -113.1875 123.09375 -99.84375 C 123.09375 -91.351562 121.070312 -83.90625 117.03125 -77.5 C 112.988281 -71.101562 106.6875 -66.222656 98.125 -62.859375 C 89.570312 -59.492188 78.425781 -58.144531 64.6875 -58.8125 Z M 64.6875 -58.8125 "/></g></g></g><g fill="#ffffff" fill-opacity="1"><g transform="translate(1457.832852, 167.878059)"><g><path d="M 19.40625 2.015625 C 16.164062 2.015625 13.5 1.140625 11.40625 -0.609375 C 9.320312 -2.359375 8.28125 -4.71875 8.28125 -7.6875 C 8.28125 -10.914062 9.457031 -13.910156 11.8125 -16.671875 C 14.175781 -19.429688 17.851562 -20.8125 22.84375 -20.8125 C 25.664062 -20.8125 28.019531 -19.832031 29.90625 -17.875 C 31.800781 -15.925781 32.75 -13.335938 32.75 -10.109375 C 32.75 -6.472656 31.332031 -3.539062 28.5 -1.3125 C 25.664062 0.90625 22.632812 2.015625 19.40625 2.015625 Z M 19.40625 2.015625 "/></g></g></g></svg>