<svg xmlns="http://www.w3.org/2000/svg" xmlns:xlink="http://www.w3.org/1999/xlink" width="2000" zoomAndPan="magnify" viewBox="0 0 1500 225" height="300" preserveAspectRatio="xMidYMid meet" version="1.0"><defs><g/></defs><path stroke-linecap="butt" transform="matrix(0.776071, 0, 0, 0.776071, 0.000000000000085265, -41.316627)" fill="none" stroke-linejoin="miter" d="M 13.408887 262.998684 L 13.408887 259.535728 C 17.506046 258.26732 20.319698 255.589569 21.844808 251.487376 C 23.369918 247.390216 24.134989 239.890501 24.134989 228.98823 L 24.134989 120.227261 C 24.134989 110.024628 23.500785 102.107144 22.23741 96.484874 C 20.974036 90.857571 19.14189 86.805712 16.740975 84.319229 C 14.345093 81.832746 11.360307 80.045901 7.781584 78.958694 L 7.781584 75.490705 L 40.156193 75.490705 L 110.074678 190.925918 L 178.679455 75.490705 L 208.960184 75.490705 L 208.960184 78.958694 C 205.386494 80.045901 202.376541 81.832746 199.935359 84.319229 C 197.539477 86.805712 195.707331 90.857571 194.443957 96.484874 C 193.220849 102.107144 192.611811 110.024628 192.611811 120.227261 L 192.611811 228.98823 C 192.611811 239.890501 193.376883 247.390216 194.901993 251.487376 C 196.427103 255.589569 199.240754 258.26732 203.337914 259.535728 L 203.337914 262.998684 L 159.910033 262.998684 L 159.910033 259.535728 C 164.052493 258.26732 166.866145 255.589569 168.345955 251.487376 C 169.871064 247.390216 170.636136 239.890501 170.636136 228.98823 L 170.636136 97.204646 L 102.61523 212.116388 L 97.51643 212.116388 L 28.90662 99.298526 L 28.90662 218.262128 C 28.90662 228.424494 29.626391 236.271511 31.065934 241.808213 C 32.505477 247.344916 34.554057 251.421942 37.216707 254.039292 C 39.919625 256.611342 43.231579 258.443488 47.157605 259.535728 L 47.157605 262.998684 Z M 334.849697 262.998684 C 329.484129 262.998684 326.801345 260.320933 326.801345 254.955365 L 326.801345 206.755853 C 324.143728 217.653091 319.955968 227.573855 314.243097 236.513112 C 308.535261 245.40707 301.886184 252.494049 294.295869 257.769016 C 286.710586 263.043984 278.450833 265.681468 269.511575 265.681468 C 262.882632 265.681468 256.711726 264.352659 250.998855 261.690008 C 245.291018 258.987091 240.690522 255.066099 237.2024 249.916966 C 233.714277 244.732599 231.967699 238.279824 231.967699 230.558641 C 231.967699 221.272081 234.73605 213.686798 240.272753 207.79776 C 245.814489 201.913756 253.183336 197.096824 262.379296 193.346967 C 271.580288 189.597109 281.455752 186.280121 292.01072 183.406069 L 326.801345 174.054075 C 326.106741 161.017658 322.528018 151.424063 316.075243 145.27329 C 309.667768 139.082249 300.748644 135.986729 289.327936 135.986729 C 281.304751 135.986729 273.477867 137.929609 265.847285 141.810334 C 258.262002 145.645759 251.089456 151.660631 244.329646 159.859984 L 241.908597 157.70067 C 249.58448 148.237942 258.282136 140.783527 268.006599 135.332392 C 277.771328 129.881257 288.457164 127.158206 300.054039 127.158206 C 316.271544 127.158206 328.220754 131.4114 335.891604 139.912755 C 343.612787 148.36881 347.468345 160.207286 347.468345 175.423151 L 347.468345 228.98823 C 347.468345 239.890501 348.213284 247.390216 349.693093 251.487376 C 351.218203 255.589569 354.051988 258.26732 358.194448 259.535728 L 358.194448 262.998684 Z M 252.111229 223.104226 C 252.111229 231.827049 254.728579 238.476125 259.96328 243.051455 C 265.238247 247.586517 271.711156 249.851532 279.387039 249.851532 C 286.534418 249.851532 293.01236 247.848252 298.810798 243.83666 C 304.609235 239.825067 309.557034 234.615534 313.659227 228.208059 C 317.796654 221.75025 321.028075 214.774005 323.33839 207.27429 C 325.648704 199.779608 326.801345 192.541628 326.801345 185.565383 L 326.801345 177.517031 L 293.052627 186.672724 C 286.468985 188.464602 279.996076 190.840351 273.628868 193.805003 C 267.306961 196.724355 262.142727 200.519513 258.131135 205.185443 C 254.119542 209.806073 252.111229 215.780678 252.111229 223.104226 Z M 425.158348 265.419733 C 414.432245 265.419733 404.732949 264.090924 396.055426 261.428273 C 387.423204 258.725356 380.859695 255.936871 376.369932 253.057786 L 373.948883 220.683177 L 376.369932 220.159707 C 382.082802 232.803522 389.582518 242.744419 398.869078 249.9824 C 408.155638 257.22038 418.88174 260.92997 431.047386 261.101105 C 439.417873 261.101105 446.328684 258.83609 451.77982 254.301027 C 457.230955 249.725698 459.954006 243.685659 459.954006 236.185944 C 459.954006 229.773436 458.121861 224.609202 454.462604 220.683177 C 450.798313 216.762185 445.981382 213.555931 440.006777 211.069448 C 434.032172 208.542698 427.559263 206.207217 420.583018 204.073069 C 412.212531 201.370152 404.712815 198.556501 398.083873 195.637148 C 391.45493 192.672496 386.26553 188.791771 382.515672 183.994973 C 378.765814 179.152875 376.893402 172.720234 376.893402 164.697048 C 376.893402 154.147114 381.146596 145.253156 389.647951 138.015176 C 398.149306 130.777196 410.163951 127.158206 425.681818 127.158206 C 434.449941 127.158206 442.53856 127.923277 449.947674 129.448387 C 457.361822 130.973497 463.114959 132.629474 467.217153 134.416319 L 468.259059 161.757563 L 465.581309 162.281033 C 461.307981 152.642137 455.137075 144.971288 447.068589 139.258417 C 439.045404 133.545547 430.307481 130.691629 420.844753 130.691629 C 411.729327 130.691629 404.45108 132.740209 398.999945 136.837368 C 393.54881 140.934528 390.825759 146.385663 390.825759 153.190774 C 390.825759 158.727476 392.567304 163.36824 396.055426 167.118097 C 399.543549 170.867955 404.189345 174.028909 409.987783 176.600959 C 415.78622 179.173009 422.173562 181.639358 429.149807 183.994973 C 434.339207 185.60565 439.568874 187.352228 444.848875 189.22464 C 450.123842 191.102086 454.940773 193.432534 459.299668 196.226052 C 463.663596 198.969237 467.217153 202.522793 469.960337 206.886721 C 472.753855 211.245616 474.148097 216.827619 474.148097 223.627696 C 474.148097 231.127411 472.315952 238.058356 468.651662 244.425564 C 464.992405 250.747471 459.495969 255.78587 452.172422 259.535728 C 444.848875 263.285585 435.844183 265.243565 425.158348 265.419733 Z M 497.739483 197.922296 L 497.739483 194.132172 L 567.652935 194.132172 L 567.652935 197.922296 Z M 595.255913 262.998684 L 595.255913 259.535728 C 599.358107 258.26732 602.166725 255.589569 603.691835 251.487376 C 605.221978 247.390216 605.982016 239.890501 605.982016 228.98823 L 605.982016 109.501158 C 605.982016 98.42272 605.221978 90.882738 603.691835 86.871145 C 602.166725 82.859553 599.358107 80.222069 595.255913 78.958694 L 595.255913 75.490705 L 657.911252 75.490705 C 678.623552 75.490705 693.492115 78.671792 702.51694 85.039 C 711.541765 91.360908 716.056694 99.952863 716.056694 110.809833 C 716.056694 119.920226 712.830307 128.225279 706.377532 135.724994 C 699.965023 143.22471 689.08792 148.41411 673.741187 151.293195 C 688.393315 151.9878 700.357626 154.670584 709.649219 159.336514 C 718.935779 163.957144 725.80129 169.931749 730.250786 177.255296 C 734.740548 184.583877 736.985429 192.627196 736.985429 201.390285 C 737.161597 208.890001 735.722054 216.304149 732.666801 223.627696 C 729.661882 230.951243 724.75435 237.560053 717.954273 243.444057 C 711.149162 249.333095 702.169638 254.059426 691.005632 257.638149 C 679.84666 261.211839 666.130738 262.998684 649.867933 262.998684 Z M 627.957691 235.662474 C 627.957691 245.296336 628.853631 251.59811 630.640475 254.562762 C 632.42732 257.527415 636.177178 259.012258 641.890048 259.012258 L 652.288982 259.012258 C 666.94111 259.012258 678.643686 256.83281 687.411809 252.468882 C 696.174899 248.064687 702.56224 242.029681 706.573833 234.353799 C 710.585425 226.677916 712.588705 217.914826 712.588705 208.059495 C 712.588705 197.725995 710.625692 188.595469 706.7047 180.657852 C 702.778675 172.679967 696.567501 166.378193 688.066147 161.757563 C 679.605059 157.091633 668.662521 154.756151 655.233501 154.756151 L 627.957691 154.756151 Z M 627.957691 150.769725 L 652.877886 150.769725 C 666.090471 150.769725 675.855201 147.36717 682.177108 140.567092 C 688.499016 133.761982 691.65997 125.456928 691.65997 115.646898 C 691.65997 104.573493 687.869845 95.785236 680.27953 89.292194 C 672.694247 82.748819 662.033578 79.477131 648.297523 79.477131 L 627.957691 79.477131 Z M 803.939262 265.681468 C 789.815637 265.681468 779.436837 261.40814 772.807894 252.861485 C 766.224252 244.274563 762.93243 232.280052 762.93243 216.893052 L 762.93243 167.379832 C 762.93243 161.103225 762.519694 156.417162 761.689189 153.321642 C 760.903984 150.180821 759.751343 147.89064 758.226233 146.451097 C 756.74139 145.011554 754.738111 143.768313 752.206328 142.726406 L 752.206328 139.781887 L 781.44515 126.896471 L 783.861166 128.79405 L 783.861166 212.116388 C 783.861166 227.291986 786.171481 238.450958 790.797144 245.603371 C 795.463074 252.755784 803.133923 256.329474 813.814726 256.329474 C 821.707043 256.329474 829.206759 254.150026 836.313871 249.791132 C 843.466284 245.386936 850.095227 239.955935 856.2007 233.50316 L 856.2007 167.379832 C 856.2007 161.103225 855.78293 156.417162 854.957458 153.321642 C 854.172253 150.180821 853.014579 147.89064 851.489469 146.451097 C 849.964359 145.011554 847.956046 143.768313 845.474597 142.726406 L 845.474597 139.781887 L 874.642952 126.896471 L 877.064001 128.79405 L 877.064001 228.98823 C 877.064001 239.890501 877.824039 247.390216 879.349149 251.487376 C 880.879293 255.589569 883.687911 258.26732 887.790104 259.535728 L 887.790104 262.998684 L 865.029223 262.998684 C 862.150138 262.998684 859.945524 262.193345 858.420414 260.577635 C 856.940605 258.966958 856.2007 256.198606 856.2007 252.272581 L 856.2007 238.606993 C 849.395589 245.754372 841.483138 252.056146 832.458313 257.507281 C 823.433488 262.958417 813.92546 265.681468 803.939262 265.681468 Z M 905.72902 262.998684 L 905.72902 259.535728 C 909.82618 258.26732 912.639831 255.589569 914.164941 251.487376 C 915.695084 247.390216 916.455122 239.890501 916.455122 228.98823 L 916.455122 167.379832 C 916.455122 161.103225 916.087687 156.417162 915.342749 153.321642 C 914.648144 150.180821 913.49047 147.89064 911.879793 146.451097 C 910.264082 145.011554 908.215503 143.768313 905.72902 142.726406 L 905.72902 139.781887 L 935.224544 126.896471 L 937.318424 128.79405 L 937.318424 228.98823 C 937.318424 239.890501 938.123762 247.390216 939.739473 251.487376 C 941.35015 255.589569 944.123535 258.26732 948.044527 259.535728 L 948.044527 262.998684 Z M 910.571118 95.830537 C 910.571118 91.557209 911.985494 88.003653 914.819279 85.169868 C 917.698364 82.290782 921.186486 80.85124 925.283646 80.85124 C 929.556974 80.85124 933.070263 82.290782 935.813448 85.169868 C 938.606966 88.003653 940.001208 91.557209 940.001208 95.830537 C 940.001208 99.756562 938.561665 103.199384 935.68258 106.164037 C 932.848795 109.083389 929.385839 110.548098 925.283646 110.548098 C 921.186486 110.548098 917.698364 109.083389 914.819279 106.164037 C 911.985494 103.199384 910.571118 99.756562 910.571118 95.830537 Z M 1008.057348 265.681468 C 999.68686 265.681468 993.083084 262.782249 988.240986 256.983811 C 983.403922 251.185374 980.982873 241.30991 980.982873 227.35742 L 980.982873 132.780475 L 963.844262 132.780475 L 963.844262 129.055785 L 998.181884 96.092272 L 1001.911608 96.092272 L 1001.911608 129.055785 L 1042.656705 129.055785 L 1041.282596 132.780475 L 1001.911608 132.780475 L 1001.911608 227.35742 C 1001.911608 236.467812 1003.653153 242.940721 1007.141275 246.781179 C 1010.629398 250.616604 1015.229894 252.534316 1020.942764 252.534316 C 1024.692622 252.534316 1028.789782 251.512543 1033.239277 249.463963 C 1037.72904 247.41035 1042.198668 243.791359 1046.648164 238.606993 L 1049.064179 241.023008 C 1043.356343 247.651951 1037.054568 253.430255 1030.163891 258.35792 C 1023.278246 263.240285 1015.909398 265.681468 1008.057348 265.681468 Z M 1058.159472 262.998684 L 1058.159472 259.535728 C 1062.256631 258.26732 1065.070283 255.589569 1066.595393 251.487376 C 1068.120503 247.390216 1068.885574 239.890501 1068.885574 228.98823 L 1068.885574 167.379832 C 1068.885574 161.103225 1068.472838 156.417162 1067.642333 153.321642 C 1066.857128 150.180821 1065.704487 147.89064 1064.174344 146.451097 C 1062.649234 145.011554 1060.645954 143.768313 1058.159472 142.726406 L 1058.159472 139.781887 L 1087.39326 126.896471 L 1089.748876 128.79405 L 1089.748876 162.281033 C 1091.928323 157.091633 1094.741975 152.274701 1098.184797 147.825206 C 1101.672919 143.335444 1105.377477 139.671153 1109.303502 136.837368 C 1113.445962 133.787149 1117.960891 131.4114 1122.843256 129.710122 C 1127.770921 128.008845 1133.438491 127.158206 1139.845966 127.158206 C 1145.211534 127.158206 1149.459695 127.79241 1152.600515 129.055785 C 1155.741335 130.31916 1157.311746 132.106004 1157.311746 134.416319 C 1157.311746 137.250104 1155.91247 140.501659 1153.123985 144.160916 C 1150.375767 147.825206 1146.585643 149.657351 1141.743545 149.657351 C 1138.169855 149.657351 1133.654926 149.003014 1128.203791 147.694338 C 1122.757689 146.345396 1116.103579 144.513251 1108.256562 142.202936 C 1105.770079 143.989781 1103.132595 146.712832 1100.344111 150.377122 C 1097.595893 154.036379 1095.285578 158.093272 1093.413166 162.542768 C 1091.535721 166.98723 1090.403213 171.371291 1090.010611 175.684886 L 1089.748876 175.684886 L 1089.748876 228.98823 C 1089.748876 239.890501 1090.513947 247.390216 1092.039057 251.487376 C 1093.564167 255.589569 1096.377819 258.26732 1100.474978 259.535728 L 1100.474978 262.998684 Z M 1274.337502 262.998684 C 1268.971934 262.998684 1266.294183 260.320933 1266.294183 254.955365 L 1266.294183 206.755853 C 1263.631533 217.653091 1259.443772 227.573855 1253.735935 236.513112 C 1248.023065 245.40707 1241.373989 252.494049 1233.788707 257.769016 C 1226.198391 263.043984 1217.938637 265.681468 1208.99938 265.681468 C 1202.370437 265.681468 1196.19953 264.352659 1190.491693 261.690008 C 1184.778823 258.987091 1180.178327 255.066099 1176.690204 249.916966 C 1173.202082 244.732599 1171.455504 238.279824 1171.455504 230.558641 C 1171.455504 221.272081 1174.223855 213.686798 1179.765591 207.79776 C 1185.302293 201.913756 1192.671141 197.096824 1201.872134 193.346967 C 1211.068093 189.597109 1220.943557 186.280121 1231.498525 183.406069 L 1266.294183 174.054075 C 1265.594545 161.017658 1262.020856 151.424063 1255.568081 145.27329 C 1249.155572 139.082249 1240.241482 135.986729 1228.815741 135.986729 C 1220.792556 135.986729 1212.965672 137.929609 1205.335089 141.810334 C 1197.749807 145.645759 1190.577261 151.660631 1183.81745 159.859984 L 1181.396401 157.70067 C 1189.072284 148.237942 1197.76994 140.783527 1207.494403 135.332392 C 1217.259133 129.881257 1227.944969 127.158206 1239.541844 127.158206 C 1255.759348 127.158206 1267.708559 131.4114 1275.384442 139.912755 C 1283.100592 148.36881 1286.961183 160.207286 1286.961183 175.423151 L 1286.961183 228.98823 C 1286.961183 239.890501 1287.701088 247.390216 1289.180898 251.487376 C 1290.711041 255.589569 1293.544826 258.26732 1297.687286 259.535728 L 1297.687286 262.998684 Z M 1191.604067 223.104226 C 1191.604067 231.827049 1194.216384 238.476125 1199.451085 243.051455 C 1204.726052 247.586517 1211.198961 249.851532 1218.874843 249.851532 C 1226.027256 249.851532 1232.500165 247.848252 1238.298602 243.83666 C 1244.09704 239.825067 1249.044838 234.615534 1253.147032 228.208059 C 1257.289492 221.75025 1260.515879 214.774005 1262.826194 207.27429 C 1265.136509 199.779608 1266.294183 192.541628 1266.294183 185.565383 L 1266.294183 177.517031 L 1232.545465 186.672724 C 1225.961823 188.464602 1219.483881 190.840351 1213.116673 193.805003 C 1206.794765 196.724355 1201.630532 200.519513 1197.618939 205.185443 C 1193.607347 209.806073 1191.604067 215.780678 1191.604067 223.104226 Z M 1351.765769 337.230763 C 1344.965692 337.230763 1338.205881 336.143556 1331.491371 333.964109 C 1324.817128 331.824928 1319.240159 328.336806 1314.745363 323.499741 C 1310.300901 318.702944 1308.076153 312.290435 1308.076153 304.26725 C 1308.076153 295.856496 1311.237107 288.115179 1317.559015 281.053367 C 1323.926222 274.031822 1332.558445 267.206577 1343.460715 260.577635 C 1337.400543 259.143125 1332.623879 256.873077 1329.135756 253.777557 C 1325.647633 250.636737 1323.901056 246.212408 1323.901056 240.499538 C 1323.901056 235.486306 1325.823801 231.147544 1329.659226 227.488287 C 1333.494651 223.823997 1338.095147 220.290574 1343.460715 216.893052 C 1336.877073 213.35963 1331.29507 208.431964 1326.714707 202.110057 C 1322.179644 195.742849 1319.91463 187.634097 1319.91463 177.778766 C 1319.91463 168.316038 1322.401112 159.79455 1327.369045 152.209268 C 1332.382277 144.618952 1338.945786 138.558779 1347.054538 134.023717 C 1355.208591 129.448387 1363.840814 127.158206 1372.956239 127.158206 C 1376.137326 127.158206 1379.429148 127.399807 1382.831703 127.877977 C 1386.234258 128.31588 1389.460646 128.970217 1392.510866 129.84099 C 1393.905108 128.054145 1395.364784 126.3277 1396.894927 124.671723 C 1398.420037 122.970445 1400.076014 121.490636 1401.862859 120.227261 C 1405.960019 116.648538 1410.474948 113.749319 1415.402613 111.524571 C 1420.330279 109.304857 1425.997849 108.192483 1432.405323 108.192483 C 1436.507517 108.192483 1439.839605 108.781387 1442.411655 109.959195 C 1445.029005 111.091702 1446.33768 112.636945 1446.33768 114.599958 C 1446.33768 116.910273 1444.983705 119.769225 1442.280787 123.166747 C 1439.62317 126.569302 1435.893446 128.27058 1431.096648 128.27058 C 1427.699126 128.27058 1423.924102 127.681676 1419.781642 126.503868 C 1415.684482 125.326061 1410.605816 123.866384 1404.545643 122.119807 C 1401.666558 124.258987 1398.81264 127.289073 1395.978855 131.215099 C 1404.173174 134.048884 1411.174586 138.865815 1416.973024 145.665892 C 1422.816761 152.471003 1425.736114 161.666962 1425.736114 173.26887 C 1425.736114 180.93972 1424.034836 187.875698 1420.632281 194.066738 C 1417.234759 200.212478 1412.850697 205.512612 1407.490162 209.957074 C 1402.124594 214.40657 1396.411724 217.809125 1390.351552 220.159707 C 1384.291379 222.470022 1378.492942 223.627696 1372.956239 223.627696 C 1368.813779 223.627696 1364.475018 223.235093 1359.939955 222.449888 C 1355.404892 221.619383 1351.066131 220.315741 1346.923671 218.523863 C 1344.089886 220.486876 1341.779571 222.319021 1339.992726 224.020298 C 1338.205881 225.721576 1337.309942 227.815456 1337.309942 230.296906 C 1337.48611 233.875629 1339.881992 236.749681 1344.507655 238.934161 C 1349.168552 241.068309 1356.5827 242.397117 1366.740032 242.920587 L 1400.554184 245.079901 C 1409.624309 245.603371 1417.320326 246.584878 1423.642233 248.02442 C 1430.009441 249.418663 1434.891806 251.905145 1438.294361 255.478835 C 1441.691883 259.052525 1443.393161 264.327492 1443.393161 271.303737 C 1443.393161 278.97962 1440.755677 286.69577 1435.48071 294.45722 C 1430.205742 302.21867 1423.09863 309.30565 1414.159372 315.713124 C 1405.265415 322.165899 1395.410084 327.3553 1384.598414 331.281325 C 1373.781711 335.247617 1362.839174 337.230763 1351.765769 337.230763 Z M 1326.060369 294.326353 C 1326.060369 303.965248 1329.76996 311.50523 1337.179075 316.956366 C 1344.593223 322.407501 1354.554254 325.130552 1367.067201 325.130552 C 1375.613856 325.130552 1383.813209 323.932611 1391.660227 321.536729 C 1399.552544 319.135813 1406.614357 315.869159 1412.850697 311.726699 C 1419.087037 307.624505 1423.989536 303.069309 1427.568259 298.056077 C 1431.141949 293.083111 1432.928793 287.918878 1432.928793 282.55331 C 1432.928793 276.322003 1430.251043 271.983242 1424.885475 269.542059 C 1419.52494 267.141144 1411.305454 265.5959 1400.227015 264.896263 L 1362.753607 262.998684 C 1357.388039 262.651381 1352.309372 262.107778 1347.512575 261.36284 C 1339.796425 266.55224 1334.279856 271.917808 1330.967901 277.45451 C 1327.696213 282.991213 1326.060369 288.618516 1326.060369 294.326353 Z M 1339.469256 166.005723 C 1339.469256 171.894762 1340.299761 177.934801 1341.955739 184.125841 C 1343.657017 190.27158 1346.163633 196.029751 1349.475587 201.390285 C 1352.787542 206.755853 1356.844435 211.089581 1361.641233 214.40657 C 1366.478297 217.678257 1371.929433 219.309068 1377.989605 219.309068 C 1388.021103 219.309068 1395.259083 215.931679 1399.703545 209.171869 C 1404.198341 202.371792 1406.443222 194.41404 1406.443222 185.303648 C 1406.443222 179.238442 1405.501983 173.007135 1403.629571 166.594627 C 1401.752125 160.141852 1399.074375 154.192414 1395.586252 148.741279 C 1392.09813 143.290143 1387.890236 138.931249 1382.962571 135.659561 C 1378.080206 132.347606 1372.58377 130.862763 1366.478297 131.215099 C 1357.020603 131.562401 1350.150058 135.095824 1345.876731 141.810334 C 1341.603403 148.479544 1339.469256 156.548029 1339.469256 166.005723 Z M 1524.047816 265.681468 C 1515.460893 265.681468 1506.999805 264.352659 1498.674618 261.690008 C 1490.389698 258.987091 1482.844683 254.869798 1476.044605 249.333095 C 1469.284795 243.791359 1463.87896 236.749681 1459.822067 228.208059 C 1455.810475 219.616103 1453.807195 209.524205 1453.807195 197.922296 C 1453.807195 183.969806 1457.11915 171.69846 1463.748093 161.103225 C 1470.377035 150.46269 1479.029391 142.157636 1489.715227 136.183031 C 1500.44133 130.168159 1511.88217 127.158206 1524.047816 127.158206 C 1532.423336 127.158206 1540.703223 128.466881 1548.902576 131.084231 C 1557.142196 133.656281 1564.641911 137.708141 1571.401722 143.249876 C 1578.201799 148.786579 1583.652934 155.848391 1587.750094 164.440347 C 1591.892554 172.981969 1593.966301 183.250035 1593.966301 195.244546 C 1593.966301 206.665253 1591.852287 216.762185 1587.619226 225.525275 C 1583.436499 234.243064 1577.854497 241.611912 1570.878252 247.631818 C 1563.947307 253.60139 1556.356991 258.116319 1548.117371 261.166538 C 1539.918018 264.176491 1531.899866 265.681468 1524.047816 265.681468 Z M 1474.474195 182.620864 C 1474.474195 191.207786 1475.803004 200.016177 1478.465654 209.041002 C 1481.168572 218.065827 1485.003997 226.416181 1489.976962 234.092063 C 1494.990194 241.767946 1501.0252 248.02442 1508.092046 252.861485 C 1515.153858 257.658282 1523.131743 260.059198 1532.030734 260.059198 C 1541.709896 260.059198 1549.577047 257.78915 1555.63722 253.254087 C 1561.697392 248.678758 1566.192188 242.638719 1569.11154 235.139004 C 1572.076193 227.639288 1573.561036 219.59597 1573.561036 211.004014 C 1573.561036 202.457359 1572.121493 193.497968 1569.242408 184.125841 C 1566.408623 174.74868 1562.35173 166.051024 1557.076762 158.027839 C 1551.847095 149.964386 1545.565455 143.531745 1538.241907 138.734947 C 1530.91836 133.892849 1522.870008 131.738569 1514.106918 132.262039 C 1504.996526 132.609341 1497.496811 135.115957 1491.607773 139.781887 C 1485.723768 144.402517 1481.385007 150.46269 1478.596522 157.962405 C 1475.848304 165.46212 1474.474195 173.681606 1474.474195 182.620864 Z M 1620.18007 297.009137 C 1627.156315 293.435447 1632.300415 288.618516 1635.61237 282.55331 C 1638.924325 276.493137 1640.75647 270.065529 1641.108805 263.260419 C 1640.016565 263.612754 1638.969625 263.914756 1637.967985 264.176491 C 1637.006612 264.483527 1635.894238 264.634528 1634.630864 264.634528 C 1631.102474 264.634528 1628.027088 263.351019 1625.409737 260.773936 C 1622.837687 258.161619 1621.549146 255.066099 1621.549146 251.487376 C 1621.549146 246.997614 1622.882988 243.333323 1625.540605 240.499538 C 1628.243522 237.625486 1631.731645 236.185944 1636.004972 236.185944 C 1641.194373 236.185944 1645.336833 237.972789 1648.432353 241.546478 C 1651.573173 245.125201 1653.052983 250.224001 1652.876815 256.852944 C 1652.876815 263.260419 1651.351705 269.365891 1648.301485 275.164329 C 1645.291532 280.962766 1641.37054 285.955865 1636.528442 290.143626 C 1631.731645 294.371653 1626.652979 297.467173 1621.287411 299.430186 Z M 1738.876904 262.998684 L 1738.876904 259.535728 C 1742.974064 258.26732 1745.787715 255.589569 1747.312825 251.487376 C 1748.842968 247.390216 1749.603007 239.890501 1749.603007 228.98823 L 1749.603007 109.501158 C 1749.603007 98.42272 1748.842968 90.882738 1747.312825 86.871145 C 1745.787715 82.859553 1742.974064 80.222069 1738.876904 78.958694 L 1738.876904 75.490705 L 1793.227188 75.490705 C 1811.800308 75.490705 1826.407136 78.082889 1837.047672 83.272289 C 1847.688207 88.416389 1855.228189 95.025198 1859.677685 103.08865 C 1864.167447 111.111835 1866.412328 119.50749 1866.412328 128.27058 C 1866.412328 146.103795 1860.024987 160.645189 1847.250304 171.894762 C 1834.475622 183.144334 1815.575333 188.766604 1790.544404 188.766604 L 1771.578682 188.766604 L 1771.578682 228.98823 C 1771.578682 239.890501 1772.318587 247.390216 1773.80343 251.487376 C 1775.328539 255.589569 1778.142191 258.26732 1782.239351 259.535728 L 1782.239351 262.998684 Z M 1771.578682 184.780178 L 1790.020934 184.780178 C 1807.159545 184.780178 1820.241263 180.310549 1829.266088 171.371291 C 1838.290913 162.432034 1842.800809 150.115387 1842.800809 134.416319 C 1842.800809 124.782457 1840.797529 115.823066 1836.785937 107.538146 C 1832.774344 99.207925 1826.387003 92.453148 1817.623913 87.263748 C 1808.860823 82.074348 1797.258915 79.477131 1782.828255 79.477131 C 1781.04141 79.477131 1779.09853 79.522431 1777.009684 79.607998 C 1774.95607 79.698599 1773.149092 79.829467 1771.578682 80.000601 Z M 1903.105565 264.896263 C 1899.355708 264.896263 1896.08402 263.481887 1893.295535 260.643068 C 1890.547317 257.769016 1889.173209 254.346328 1889.173209 250.375002 C 1889.173209 246.45401 1890.547317 243.116888 1893.295535 240.368671 C 1896.08402 237.580186 1899.355708 236.185944 1903.105565 236.185944 C 1906.855423 236.185944 1910.056643 237.580186 1912.719294 240.368671 C 1915.422211 243.116888 1916.771154 246.45401 1916.771154 250.375002 C 1916.771154 254.346328 1915.422211 257.769016 1912.719294 260.643068 C 1910.056643 263.481887 1906.855423 264.896263 1903.105565 264.896263 Z M 1903.105565 264.896263 " stroke="#8f7644" stroke-width="3.683487" stroke-opacity="1" stroke-miterlimit="4"/><g fill="#8f7644" fill-opacity="1"><g transform="translate(0.000000000000085265, 162.790084)"><g><path d="M 10.390625 0 L 10.390625 -2.703125 C 13.578125 -3.671875 15.757812 -5.75 16.9375 -8.9375 C 18.125 -12.125 18.71875 -17.945312 18.71875 -26.40625 L 18.71875 -110.8125 C 18.71875 -118.71875 18.226562 -124.851562 17.25 -129.21875 C 16.28125 -133.582031 14.859375 -136.734375 12.984375 -138.671875 C 11.117188 -140.609375 8.800781 -141.992188 6.03125 -142.828125 L 6.03125 -145.53125 L 31.1875 -145.53125 L 85.453125 -55.921875 L 138.671875 -145.53125 L 162.171875 -145.53125 L 162.171875 -142.828125 C 159.398438 -141.992188 157.078125 -140.609375 155.203125 -138.671875 C 153.328125 -136.734375 151.90625 -133.582031 150.9375 -129.21875 C 149.96875 -124.851562 149.484375 -118.71875 149.484375 -110.8125 L 149.484375 -26.40625 C 149.484375 -17.945312 150.070312 -12.125 151.25 -8.9375 C 152.425781 -5.75 154.609375 -3.671875 157.796875 -2.703125 L 157.796875 0 L 124.125 0 L 124.125 -2.703125 C 127.3125 -3.671875 129.492188 -5.75 130.671875 -8.9375 C 131.847656 -12.125 132.4375 -17.945312 132.4375 -26.40625 L 132.4375 -128.6875 L 79.625 -39.5 L 75.671875 -39.5 L 22.453125 -127.03125 L 22.453125 -34.71875 C 22.453125 -26.820312 23.003906 -20.722656 24.109375 -16.421875 C 25.222656 -12.128906 26.816406 -8.976562 28.890625 -6.96875 C 30.972656 -4.957031 33.539062 -3.535156 36.59375 -2.703125 L 36.59375 0 Z M 10.390625 0 "/></g></g></g><g fill="#8f7644" fill-opacity="1"><g transform="translate(172.76604, 162.790084)"><g><path d="M 87.109375 0 C 82.953125 0 80.875 -2.078125 80.875 -6.234375 L 80.875 -43.65625 C 78.789062 -35.207031 75.53125 -27.515625 71.09375 -20.578125 C 66.664062 -13.648438 61.503906 -8.140625 55.609375 -4.046875 C 49.722656 0.0351562 43.316406 2.078125 36.390625 2.078125 C 31.253906 2.078125 26.46875 1.039062 22.03125 -1.03125 C 17.601562 -3.113281 14.035156 -6.164062 11.328125 -10.1875 C 8.628906 -14.207031 7.28125 -19.195312 7.28125 -25.15625 C 7.28125 -32.363281 9.425781 -38.253906 13.71875 -42.828125 C 18.019531 -47.398438 23.738281 -51.140625 30.875 -54.046875 C 38.007812 -56.960938 45.664062 -59.53125 53.84375 -61.75 L 80.875 -69.03125 C 80.320312 -79.144531 77.550781 -86.59375 72.5625 -91.375 C 67.570312 -96.15625 60.640625 -98.546875 51.765625 -98.546875 C 45.523438 -98.546875 39.457031 -97.054688 33.5625 -94.078125 C 27.675781 -91.097656 22.101562 -86.421875 16.84375 -80.046875 L 14.96875 -81.703125 C 20.925781 -89.046875 27.679688 -94.832031 35.234375 -99.0625 C 42.796875 -103.289062 51.078125 -105.40625 60.078125 -105.40625 C 72.691406 -105.40625 81.976562 -102.113281 87.9375 -95.53125 C 93.90625 -88.945312 96.890625 -79.765625 96.890625 -67.984375 L 96.890625 -26.40625 C 96.890625 -17.945312 97.476562 -12.125 98.65625 -8.9375 C 99.832031 -5.75 102.015625 -3.671875 105.203125 -2.703125 L 105.203125 0 Z M 22.875 -30.984375 C 22.875 -24.191406 24.914062 -19.023438 29 -15.484375 C 33.09375 -11.953125 38.117188 -10.1875 44.078125 -10.1875 C 49.617188 -10.1875 54.640625 -11.742188 59.140625 -14.859375 C 63.648438 -17.984375 67.5 -22.039062 70.6875 -27.03125 C 73.875 -32.019531 76.367188 -37.421875 78.171875 -43.234375 C 79.972656 -49.054688 80.875 -54.671875 80.875 -60.078125 L 80.875 -66.328125 L 54.671875 -59.25 C 49.546875 -57.863281 44.519531 -56.023438 39.59375 -53.734375 C 34.675781 -51.453125 30.660156 -48.507812 27.546875 -44.90625 C 24.429688 -41.300781 22.875 -36.660156 22.875 -30.984375 Z M 22.875 -30.984375 "/></g></g></g><g fill="#8f7644" fill-opacity="1"><g transform="translate(282.953742, 162.790084)"><g><path d="M 46.984375 1.875 C 38.671875 1.875 31.148438 0.835938 24.421875 -1.234375 C 17.703125 -3.316406 12.609375 -5.46875 9.140625 -7.6875 L 7.28125 -32.84375 L 9.140625 -33.265625 C 13.578125 -23.421875 19.398438 -15.691406 26.609375 -10.078125 C 33.816406 -4.460938 42.132812 -1.585938 51.5625 -1.453125 C 58.070312 -1.453125 63.441406 -3.21875 67.671875 -6.75 C 71.898438 -10.289062 74.015625 -14.972656 74.015625 -20.796875 C 74.015625 -25.785156 72.59375 -29.800781 69.75 -32.84375 C 66.90625 -35.894531 63.160156 -38.390625 58.515625 -40.328125 C 53.878906 -42.273438 48.859375 -44.078125 43.453125 -45.734375 C 36.941406 -47.816406 31.117188 -50 25.984375 -52.28125 C 20.859375 -54.570312 16.835938 -57.585938 13.921875 -61.328125 C 11.015625 -65.078125 9.5625 -70.066406 9.5625 -76.296875 C 9.5625 -84.472656 12.851562 -91.367188 19.4375 -96.984375 C 26.019531 -102.597656 35.34375 -105.40625 47.40625 -105.40625 C 54.195312 -105.40625 60.46875 -104.816406 66.21875 -103.640625 C 71.96875 -102.460938 76.4375 -101.179688 79.625 -99.796875 L 80.453125 -78.59375 L 78.375 -78.171875 C 75.050781 -85.660156 70.269531 -91.617188 64.03125 -96.046875 C 57.789062 -100.484375 51 -102.703125 43.65625 -102.703125 C 36.59375 -102.703125 30.945312 -101.109375 26.71875 -97.921875 C 22.488281 -94.734375 20.375 -90.503906 20.375 -85.234375 C 20.375 -80.941406 21.722656 -77.335938 24.421875 -74.421875 C 27.128906 -71.515625 30.734375 -69.054688 35.234375 -67.046875 C 39.742188 -65.035156 44.703125 -63.128906 50.109375 -61.328125 C 54.128906 -60.085938 58.179688 -58.738281 62.265625 -57.28125 C 66.359375 -55.820312 70.101562 -54.019531 73.5 -51.875 C 76.894531 -49.726562 79.664062 -46.957031 81.8125 -43.5625 C 83.957031 -40.164062 85.03125 -35.832031 85.03125 -30.5625 C 85.03125 -24.738281 83.609375 -19.363281 80.765625 -14.4375 C 77.929688 -9.519531 73.671875 -5.609375 67.984375 -2.703125 C 62.304688 0.203125 55.304688 1.726562 46.984375 1.875 Z M 46.984375 1.875 "/></g></g></g><g fill="#8f7644" fill-opacity="1"><g transform="translate(375.46984, 162.790084)"><g><path d="M 10.8125 -50.515625 L 10.8125 -53.4375 L 65.078125 -53.4375 L 65.078125 -50.515625 Z M 10.8125 -50.515625 "/></g></g></g><g fill="#8f7644" fill-opacity="1"><g transform="translate(451.353815, 162.790084)"><g><path d="M 10.609375 0 L 10.609375 -2.703125 C 13.796875 -3.671875 15.976562 -5.75 17.15625 -8.9375 C 18.332031 -12.125 18.921875 -17.945312 18.921875 -26.40625 L 18.921875 -119.125 C 18.921875 -127.71875 18.332031 -133.570312 17.15625 -136.6875 C 15.976562 -139.8125 13.796875 -141.859375 10.609375 -142.828125 L 10.609375 -145.53125 L 59.25 -145.53125 C 75.332031 -145.53125 86.875 -143.066406 93.875 -138.140625 C 100.875 -133.222656 104.375 -126.539062 104.375 -118.09375 C 104.375 -111.019531 101.878906 -104.570312 96.890625 -98.75 C 91.898438 -92.925781 83.441406 -88.910156 71.515625 -86.703125 C 82.878906 -86.140625 92.164062 -84.054688 99.375 -80.453125 C 106.582031 -76.847656 111.914062 -72.203125 115.375 -66.515625 C 118.84375 -60.835938 120.578125 -54.601562 120.578125 -47.8125 C 120.722656 -42 119.613281 -36.25 117.25 -30.5625 C 114.894531 -24.875 111.082031 -19.742188 105.8125 -15.171875 C 100.550781 -10.597656 93.585938 -6.925781 84.921875 -4.15625 C 76.265625 -1.382812 65.628906 0 53.015625 0 Z M 35.96875 -21.203125 C 35.96875 -13.722656 36.660156 -8.835938 38.046875 -6.546875 C 39.429688 -4.265625 42.34375 -3.125 46.78125 -3.125 L 54.890625 -3.125 C 66.253906 -3.125 75.332031 -4.820312 82.125 -8.21875 C 88.914062 -11.613281 93.867188 -16.289062 96.984375 -22.25 C 100.109375 -28.207031 101.671875 -35 101.671875 -42.625 C 101.671875 -50.65625 100.144531 -57.753906 97.09375 -63.921875 C 94.039062 -70.097656 89.222656 -74.988281 82.640625 -78.59375 C 76.054688 -82.195312 67.566406 -84 57.171875 -84 L 35.96875 -84 Z M 35.96875 -87.109375 L 55.296875 -87.109375 C 65.554688 -87.109375 73.144531 -89.738281 78.0625 -95 C 82.988281 -100.269531 85.453125 -106.71875 85.453125 -114.34375 C 85.453125 -122.9375 82.503906 -129.765625 76.609375 -134.828125 C 70.722656 -139.890625 62.441406 -142.421875 51.765625 -142.421875 L 35.96875 -142.421875 Z M 35.96875 -87.109375 "/></g></g></g><g fill="#8f7644" fill-opacity="1"><g transform="translate(578.589457, 162.790084)"><g><path d="M 45.328125 2.078125 C 34.378906 2.078125 26.335938 -1.242188 21.203125 -7.890625 C 16.078125 -14.546875 13.515625 -23.835938 13.515625 -35.765625 L 13.515625 -74.21875 C 13.515625 -79.070312 13.203125 -82.710938 12.578125 -85.140625 C 11.953125 -87.566406 11.050781 -89.332031 9.875 -90.4375 C 8.695312 -91.550781 7.140625 -92.519531 5.203125 -93.34375 L 5.203125 -95.640625 L 27.859375 -105.609375 L 29.734375 -104.15625 L 29.734375 -39.5 C 29.734375 -27.71875 31.535156 -19.054688 35.140625 -13.515625 C 38.742188 -7.972656 44.703125 -5.203125 53.015625 -5.203125 C 59.109375 -5.203125 64.925781 -6.898438 70.46875 -10.296875 C 76.019531 -13.691406 81.148438 -17.882812 85.859375 -22.875 L 85.859375 -74.21875 C 85.859375 -79.070312 85.546875 -82.710938 84.921875 -85.140625 C 84.304688 -87.566406 83.40625 -89.332031 82.21875 -90.4375 C 81.039062 -91.550781 79.484375 -92.519531 77.546875 -93.34375 L 77.546875 -95.640625 L 100.203125 -105.609375 L 102.078125 -104.15625 L 102.078125 -26.40625 C 102.078125 -17.945312 102.664062 -12.125 103.84375 -8.9375 C 105.019531 -5.75 107.203125 -3.671875 110.390625 -2.703125 L 110.390625 0 L 92.71875 0 C 90.507812 0 88.8125 -0.625 87.625 -1.875 C 86.445312 -3.125 85.859375 -5.269531 85.859375 -8.3125 L 85.859375 -18.921875 C 80.597656 -13.378906 74.46875 -8.492188 67.46875 -4.265625 C 60.46875 -0.0351562 53.085938 2.078125 45.328125 2.078125 Z M 45.328125 2.078125 "/></g></g></g><g fill="#8f7644" fill-opacity="1"><g transform="translate(696.261622, 162.790084)"><g><path d="M 6.65625 0 L 6.65625 -2.703125 C 9.84375 -3.671875 12.023438 -5.75 13.203125 -8.9375 C 14.378906 -12.125 14.96875 -17.945312 14.96875 -26.40625 L 14.96875 -74.21875 C 14.96875 -79.070312 14.691406 -82.710938 14.140625 -85.140625 C 13.585938 -87.566406 12.6875 -89.332031 11.4375 -90.4375 C 10.1875 -91.550781 8.59375 -92.519531 6.65625 -93.34375 L 6.65625 -95.640625 L 29.515625 -105.609375 L 31.1875 -104.15625 L 31.1875 -26.40625 C 31.1875 -17.945312 31.804688 -12.125 33.046875 -8.9375 C 34.296875 -5.75 36.445312 -3.671875 39.5 -2.703125 L 39.5 0 Z M 10.390625 -129.734375 C 10.390625 -133.054688 11.5 -135.828125 13.71875 -138.046875 C 15.9375 -140.265625 18.640625 -141.375 21.828125 -141.375 C 25.148438 -141.375 27.882812 -140.265625 30.03125 -138.046875 C 32.1875 -135.828125 33.265625 -133.054688 33.265625 -129.734375 C 33.265625 -126.679688 32.15625 -124.007812 29.9375 -121.71875 C 27.71875 -119.4375 25.015625 -118.296875 21.828125 -118.296875 C 18.640625 -118.296875 15.9375 -119.4375 13.71875 -121.71875 C 11.5 -124.007812 10.390625 -126.679688 10.390625 -129.734375 Z M 10.390625 -129.734375 "/></g></g></g><g fill="#8f7644" fill-opacity="1"><g transform="translate(743.039424, 162.790084)"><g><path d="M 39.296875 2.078125 C 32.773438 2.078125 27.644531 -0.171875 23.90625 -4.671875 C 20.164062 -9.179688 18.296875 -16.84375 18.296875 -27.65625 L 18.296875 -101.046875 L 4.984375 -101.046875 L 4.984375 -103.953125 L 31.609375 -129.53125 L 34.515625 -129.53125 L 34.515625 -103.953125 L 66.109375 -103.953125 L 65.078125 -101.046875 L 34.515625 -101.046875 L 34.515625 -27.65625 C 34.515625 -20.582031 35.863281 -15.554688 38.5625 -12.578125 C 41.269531 -9.597656 44.84375 -8.109375 49.28125 -8.109375 C 52.1875 -8.109375 55.367188 -8.90625 58.828125 -10.5 C 62.296875 -12.09375 65.765625 -14.898438 69.234375 -18.921875 L 71.109375 -17.046875 C 66.671875 -11.921875 61.78125 -7.453125 56.4375 -3.640625 C 51.101562 0.171875 45.390625 2.078125 39.296875 2.078125 Z M 39.296875 2.078125 "/></g></g></g><g fill="#8f7644" fill-opacity="1"><g transform="translate(814.557525, 162.790084)"><g><path d="M 6.65625 0 L 6.65625 -2.703125 C 9.84375 -3.671875 12.023438 -5.75 13.203125 -8.9375 C 14.378906 -12.125 14.96875 -17.945312 14.96875 -26.40625 L 14.96875 -74.21875 C 14.96875 -79.070312 14.65625 -82.710938 14.03125 -85.140625 C 13.40625 -87.566406 12.503906 -89.332031 11.328125 -90.4375 C 10.148438 -91.550781 8.59375 -92.519531 6.65625 -93.34375 L 6.65625 -95.640625 L 29.3125 -105.609375 L 31.1875 -104.15625 L 31.1875 -78.171875 C 32.851562 -82.191406 35.035156 -85.929688 37.734375 -89.390625 C 40.441406 -92.859375 43.316406 -95.703125 46.359375 -97.921875 C 49.546875 -100.273438 53.046875 -102.109375 56.859375 -103.421875 C 60.671875 -104.742188 65.070312 -105.40625 70.0625 -105.40625 C 74.21875 -105.40625 77.507812 -104.921875 79.9375 -103.953125 C 82.363281 -102.984375 83.578125 -101.597656 83.578125 -99.796875 C 83.578125 -97.578125 82.503906 -95.046875 80.359375 -92.203125 C 78.210938 -89.359375 75.265625 -87.9375 71.515625 -87.9375 C 68.742188 -87.9375 65.242188 -88.457031 61.015625 -89.5 C 56.785156 -90.539062 51.625 -91.960938 45.53125 -93.765625 C 43.59375 -92.378906 41.546875 -90.265625 39.390625 -87.421875 C 37.242188 -84.578125 35.441406 -81.421875 33.984375 -77.953125 C 32.535156 -74.492188 31.671875 -71.101562 31.390625 -67.78125 L 31.1875 -67.78125 L 31.1875 -26.40625 C 31.1875 -17.945312 31.773438 -12.125 32.953125 -8.9375 C 34.128906 -5.75 36.3125 -3.671875 39.5 -2.703125 L 39.5 0 Z M 6.65625 0 "/></g></g></g><g fill="#8f7644" fill-opacity="1"><g transform="translate(901.876139, 162.790084)"><g><path d="M 87.109375 0 C 82.953125 0 80.875 -2.078125 80.875 -6.234375 L 80.875 -43.65625 C 78.789062 -35.207031 75.53125 -27.515625 71.09375 -20.578125 C 66.664062 -13.648438 61.503906 -8.140625 55.609375 -4.046875 C 49.722656 0.0351562 43.316406 2.078125 36.390625 2.078125 C 31.253906 2.078125 26.46875 1.039062 22.03125 -1.03125 C 17.601562 -3.113281 14.035156 -6.164062 11.328125 -10.1875 C 8.628906 -14.207031 7.28125 -19.195312 7.28125 -25.15625 C 7.28125 -32.363281 9.425781 -38.253906 13.71875 -42.828125 C 18.019531 -47.398438 23.738281 -51.140625 30.875 -54.046875 C 38.007812 -56.960938 45.664062 -59.53125 53.84375 -61.75 L 80.875 -69.03125 C 80.320312 -79.144531 77.550781 -86.59375 72.5625 -91.375 C 67.570312 -96.15625 60.640625 -98.546875 51.765625 -98.546875 C 45.523438 -98.546875 39.457031 -97.054688 33.5625 -94.078125 C 27.675781 -91.097656 22.101562 -86.421875 16.84375 -80.046875 L 14.96875 -81.703125 C 20.925781 -89.046875 27.679688 -94.832031 35.234375 -99.0625 C 42.796875 -103.289062 51.078125 -105.40625 60.078125 -105.40625 C 72.691406 -105.40625 81.976562 -102.113281 87.9375 -95.53125 C 93.90625 -88.945312 96.890625 -79.765625 96.890625 -67.984375 L 96.890625 -26.40625 C 96.890625 -17.945312 97.476562 -12.125 98.65625 -8.9375 C 99.832031 -5.75 102.015625 -3.671875 105.203125 -2.703125 L 105.203125 0 Z M 22.875 -30.984375 C 22.875 -24.191406 24.914062 -19.023438 29 -15.484375 C 33.09375 -11.953125 38.117188 -10.1875 44.078125 -10.1875 C 49.617188 -10.1875 54.640625 -11.742188 59.140625 -14.859375 C 63.648438 -17.984375 67.5 -22.039062 70.6875 -27.03125 C 73.875 -32.019531 76.367188 -37.421875 78.171875 -43.234375 C 79.972656 -49.054688 80.875 -54.671875 80.875 -60.078125 L 80.875 -66.328125 L 54.671875 -59.25 C 49.546875 -57.863281 44.519531 -56.023438 39.59375 -53.734375 C 34.675781 -51.453125 30.660156 -48.507812 27.546875 -44.90625 C 24.429688 -41.300781 22.875 -36.660156 22.875 -30.984375 Z M 22.875 -30.984375 "/></g></g></g><g fill="#8f7644" fill-opacity="1"><g transform="translate(1012.063842, 162.790084)"><g><path d="M 37 57.59375 C 31.738281 57.59375 26.507812 56.757812 21.3125 55.09375 C 16.113281 53.425781 11.78125 50.722656 8.3125 46.984375 C 4.851562 43.242188 3.125 38.253906 3.125 32.015625 C 3.125 25.503906 5.582031 19.507812 10.5 14.03125 C 15.414062 8.5625 22.101562 3.257812 30.5625 -1.875 C 25.851562 -2.976562 22.144531 -4.742188 19.4375 -7.171875 C 16.738281 -9.597656 15.390625 -13.03125 15.390625 -17.46875 C 15.390625 -21.34375 16.878906 -24.703125 19.859375 -27.546875 C 22.835938 -30.390625 26.40625 -33.128906 30.5625 -35.765625 C 25.4375 -38.535156 21.101562 -42.378906 17.5625 -47.296875 C 14.03125 -52.210938 12.265625 -58.484375 12.265625 -66.109375 C 12.265625 -73.460938 14.203125 -80.082031 18.078125 -85.96875 C 21.960938 -91.863281 27.054688 -96.578125 33.359375 -100.109375 C 39.671875 -103.640625 46.363281 -105.40625 53.4375 -105.40625 C 55.925781 -105.40625 58.488281 -105.234375 61.125 -104.890625 C 63.757812 -104.546875 66.253906 -104.023438 68.609375 -103.328125 C 69.710938 -104.710938 70.851562 -106.0625 72.03125 -107.375 C 73.21875 -108.695312 74.503906 -109.84375 75.890625 -110.8125 C 79.078125 -113.582031 82.578125 -115.832031 86.390625 -117.5625 C 90.203125 -119.300781 94.601562 -120.171875 99.59375 -120.171875 C 102.78125 -120.171875 105.375 -119.71875 107.375 -118.8125 C 109.382812 -117.914062 110.390625 -116.707031 110.390625 -115.1875 C 110.390625 -113.382812 109.347656 -111.164062 107.265625 -108.53125 C 105.191406 -105.894531 102.285156 -104.578125 98.546875 -104.578125 C 95.910156 -104.578125 93 -105.023438 89.8125 -105.921875 C 86.625 -106.828125 82.675781 -107.972656 77.96875 -109.359375 C 75.75 -107.691406 73.53125 -105.335938 71.3125 -102.296875 C 77.6875 -100.078125 83.125 -96.332031 87.625 -91.0625 C 92.132812 -85.789062 94.390625 -78.65625 94.390625 -69.65625 C 94.390625 -63.6875 93.070312 -58.3125 90.4375 -53.53125 C 87.800781 -48.75 84.40625 -44.625 80.25 -41.15625 C 76.09375 -37.695312 71.65625 -35.066406 66.9375 -33.265625 C 62.226562 -31.460938 57.726562 -30.5625 53.4375 -30.5625 C 50.25 -30.5625 46.882812 -30.875 43.34375 -31.5 C 39.8125 -32.125 36.453125 -33.128906 33.265625 -34.515625 C 31.046875 -32.984375 29.242188 -31.5625 27.859375 -30.25 C 26.472656 -28.9375 25.78125 -27.304688 25.78125 -25.359375 C 25.914062 -22.585938 27.785156 -20.367188 31.390625 -18.703125 C 34.992188 -17.046875 40.75 -16.007812 48.65625 -15.59375 L 74.84375 -13.9375 C 81.914062 -13.519531 87.910156 -12.753906 92.828125 -11.640625 C 97.742188 -10.535156 101.519531 -8.59375 104.15625 -5.8125 C 106.789062 -3.039062 108.109375 1.039062 108.109375 6.4375 C 108.109375 12.40625 106.0625 18.398438 101.96875 24.421875 C 97.882812 30.453125 92.375 35.960938 85.4375 40.953125 C 78.507812 45.941406 70.851562 49.960938 62.46875 53.015625 C 54.082031 56.066406 45.59375 57.59375 37 57.59375 Z M 17.046875 24.328125 C 17.046875 31.804688 19.921875 37.660156 25.671875 41.890625 C 31.421875 46.117188 39.148438 48.234375 48.859375 48.234375 C 55.515625 48.234375 61.890625 47.296875 67.984375 45.421875 C 74.085938 43.554688 79.5625 41.03125 84.40625 37.84375 C 89.257812 34.65625 93.070312 31.117188 95.84375 27.234375 C 98.613281 23.359375 100 19.335938 100 15.171875 C 100 10.328125 97.921875 6.96875 93.765625 5.09375 C 89.609375 3.21875 83.234375 2.003906 74.640625 1.453125 L 45.53125 0 C 41.375 -0.28125 37.425781 -0.695312 33.6875 -1.25 C 27.71875 2.769531 23.453125 6.925781 20.890625 11.21875 C 18.328125 15.519531 17.046875 19.890625 17.046875 24.328125 Z M 27.4375 -75.265625 C 27.4375 -70.691406 28.09375 -66.015625 29.40625 -61.234375 C 30.726562 -56.453125 32.671875 -51.976562 35.234375 -47.8125 C 37.804688 -43.65625 40.960938 -40.296875 44.703125 -37.734375 C 48.441406 -35.171875 52.664062 -33.890625 57.375 -33.890625 C 65.144531 -33.890625 70.757812 -36.519531 74.21875 -41.78125 C 77.6875 -47.050781 79.421875 -53.222656 79.421875 -60.296875 C 79.421875 -65.003906 78.691406 -69.851562 77.234375 -74.84375 C 75.773438 -79.832031 73.695312 -84.441406 71 -88.671875 C 68.300781 -92.898438 65.046875 -96.296875 61.234375 -98.859375 C 57.421875 -101.421875 53.15625 -102.566406 48.4375 -102.296875 C 41.09375 -102.015625 35.753906 -99.273438 32.421875 -94.078125 C 29.097656 -88.878906 27.4375 -82.609375 27.4375 -75.265625 Z M 27.4375 -75.265625 "/></g></g></g><g fill="#8f7644" fill-opacity="1"><g transform="translate(1120.796221, 162.790084)"><g><path d="M 61.953125 2.078125 C 55.296875 2.078125 48.742188 1.039062 42.296875 -1.03125 C 35.859375 -3.113281 30.003906 -6.300781 24.734375 -10.59375 C 19.472656 -14.894531 15.28125 -20.367188 12.15625 -27.015625 C 9.039062 -33.671875 7.484375 -41.503906 7.484375 -50.515625 C 7.484375 -61.328125 10.046875 -70.859375 15.171875 -79.109375 C 20.304688 -87.359375 27.03125 -93.800781 35.34375 -98.4375 C 43.65625 -103.082031 52.523438 -105.40625 61.953125 -105.40625 C 68.472656 -105.40625 74.921875 -104.398438 81.296875 -102.390625 C 87.671875 -100.378906 93.488281 -97.222656 98.75 -92.921875 C 104.019531 -88.628906 108.25 -83.15625 111.4375 -76.5 C 114.625 -69.851562 116.21875 -61.882812 116.21875 -52.59375 C 116.21875 -43.726562 114.585938 -35.898438 111.328125 -29.109375 C 108.078125 -22.316406 103.75 -16.597656 98.34375 -11.953125 C 92.9375 -7.304688 87.046875 -3.804688 80.671875 -1.453125 C 74.296875 0.898438 68.054688 2.078125 61.953125 2.078125 Z M 23.5 -62.375 C 23.5 -55.71875 24.535156 -48.890625 26.609375 -41.890625 C 28.691406 -34.890625 31.671875 -28.410156 35.546875 -22.453125 C 39.429688 -16.492188 44.109375 -11.640625 49.578125 -7.890625 C 55.054688 -4.148438 61.257812 -2.28125 68.1875 -2.28125 C 75.675781 -2.28125 81.773438 -4.046875 86.484375 -7.578125 C 91.203125 -11.117188 94.703125 -15.800781 96.984375 -21.625 C 99.273438 -27.445312 100.421875 -33.679688 100.421875 -40.328125 C 100.421875 -46.984375 99.3125 -53.945312 97.09375 -61.21875 C 94.875 -68.5 91.71875 -75.257812 87.625 -81.5 C 83.539062 -87.738281 78.65625 -92.726562 72.96875 -96.46875 C 67.289062 -100.207031 61.054688 -101.867188 54.265625 -101.453125 C 47.191406 -101.179688 41.367188 -99.242188 36.796875 -95.640625 C 32.222656 -92.035156 28.863281 -87.320312 26.71875 -81.5 C 24.570312 -75.675781 23.5 -69.300781 23.5 -62.375 Z M 23.5 -62.375 "/></g></g></g><g fill="#8f7644" fill-opacity="1"><g transform="translate(1245.952851, 162.790084)"><g><path d="M 11.4375 26.40625 C 16.84375 23.632812 20.828125 19.890625 23.390625 15.171875 C 25.953125 10.460938 27.375 5.472656 27.65625 0.203125 C 26.820312 0.484375 26.019531 0.726562 25.25 0.9375 C 24.488281 1.144531 23.625 1.25 22.65625 1.25 C 19.882812 1.25 17.492188 0.242188 15.484375 -1.765625 C 13.472656 -3.773438 12.46875 -6.164062 12.46875 -8.9375 C 12.46875 -12.40625 13.507812 -15.25 15.59375 -17.46875 C 17.675781 -19.6875 20.378906 -20.796875 23.703125 -20.796875 C 27.722656 -20.796875 30.941406 -19.40625 33.359375 -16.625 C 35.785156 -13.851562 36.929688 -9.90625 36.796875 -4.78125 C 36.796875 0.207031 35.617188 4.953125 33.265625 9.453125 C 30.910156 13.960938 27.859375 17.84375 24.109375 21.09375 C 20.367188 24.351562 16.421875 26.75 12.265625 28.28125 Z M 11.4375 26.40625 "/></g></g></g><g fill="#8f7644" fill-opacity="1"><g transform="translate(1295.225411, 162.790084)"><g/></g></g><g fill="#8f7644" fill-opacity="1"><g transform="translate(1338.884718, 162.790084)"><g><path d="M 10.609375 0 L 10.609375 -2.703125 C 13.796875 -3.671875 15.976562 -5.75 17.15625 -8.9375 C 18.332031 -12.125 18.921875 -17.945312 18.921875 -26.40625 L 18.921875 -119.125 C 18.921875 -127.71875 18.332031 -133.570312 17.15625 -136.6875 C 15.976562 -139.8125 13.796875 -141.859375 10.609375 -142.828125 L 10.609375 -145.53125 L 52.8125 -145.53125 C 67.226562 -145.53125 78.554688 -143.519531 86.796875 -139.5 C 95.046875 -135.476562 100.898438 -130.347656 104.359375 -124.109375 C 107.828125 -117.878906 109.5625 -111.367188 109.5625 -104.578125 C 109.5625 -90.710938 104.609375 -79.414062 94.703125 -70.6875 C 84.796875 -61.957031 70.140625 -57.59375 50.734375 -57.59375 L 35.96875 -57.59375 L 35.96875 -26.40625 C 35.96875 -17.945312 36.554688 -12.125 37.734375 -8.9375 C 38.910156 -5.75 41.09375 -3.671875 44.28125 -2.703125 L 44.28125 0 Z M 35.96875 -60.703125 L 50.3125 -60.703125 C 63.613281 -60.703125 73.765625 -64.164062 80.765625 -71.09375 C 87.765625 -78.03125 91.265625 -87.597656 91.265625 -99.796875 C 91.265625 -107.273438 89.707031 -114.238281 86.59375 -120.6875 C 83.476562 -127.132812 78.523438 -132.367188 71.734375 -136.390625 C 64.941406 -140.410156 55.929688 -142.421875 44.703125 -142.421875 C 43.316406 -142.421875 41.828125 -142.382812 40.234375 -142.3125 C 38.640625 -142.238281 37.21875 -142.132812 35.96875 -142 Z M 35.96875 -60.703125 "/></g></g></g><g fill="#8f7644" fill-opacity="1"><g transform="translate(1453.646238, 162.790084)"><g><path d="M 23.28125 1.453125 C 20.375 1.453125 17.84375 0.34375 15.6875 -1.875 C 13.539062 -4.09375 12.46875 -6.722656 12.46875 -9.765625 C 12.46875 -12.816406 13.539062 -15.414062 15.6875 -17.5625 C 17.84375 -19.71875 20.375 -20.796875 23.28125 -20.796875 C 26.195312 -20.796875 28.691406 -19.71875 30.765625 -17.5625 C 32.847656 -15.414062 33.890625 -12.816406 33.890625 -9.765625 C 33.890625 -6.722656 32.847656 -4.09375 30.765625 -1.875 C 28.691406 0.34375 26.195312 1.453125 23.28125 1.453125 Z M 23.28125 1.453125 "/></g></g></g></svg>