<svg xmlns="http://www.w3.org/2000/svg" xmlns:xlink="http://www.w3.org/1999/xlink" width="2000" zoomAndPan="magnify" viewBox="0 0 1500 225" height="300" preserveAspectRatio="xMidYMid meet" version="1.0"><defs><g/></defs><g fill="#919191" fill-opacity="1"><g transform="translate(-2.564387, 164.414767)"><g><path d="M 175.90625 -4.875 C 178.34375 -4.332031 179.492188 -3.316406 179.359375 -1.828125 C 179.222656 -0.335938 179.085938 0.40625 178.953125 0.40625 C 177.597656 0.40625 175.972656 0.335938 174.078125 0.203125 C 172.179688 0.0664062 170.488281 0 169 0 L 141.375 0 C 139.613281 0 137.546875 0.0664062 135.171875 0.203125 C 132.804688 0.335938 130.878906 0.40625 129.390625 0.40625 C 129.253906 0.40625 129.082031 0.0351562 128.875 -0.703125 C 128.675781 -1.453125 128.8125 -2.234375 129.28125 -3.046875 C 129.757812 -3.859375 130.945312 -4.46875 132.84375 -4.875 C 137.582031 -5.6875 140.898438 -6.835938 142.796875 -8.328125 C 144.691406 -9.816406 145.367188 -13.40625 144.828125 -19.09375 L 136.5 -118.421875 C 136.363281 -119.097656 136.09375 -119.4375 135.6875 -119.4375 C 135.28125 -119.4375 134.941406 -119.03125 134.671875 -118.21875 L 88.5625 -8.125 C 87.613281 -5.820312 86.257812 -4.671875 84.5 -4.671875 C 82.738281 -4.671875 81.382812 -5.6875 80.4375 -7.71875 L 38.1875 -116.390625 C 37.914062 -117.203125 37.507812 -117.609375 36.96875 -117.609375 C 36.425781 -117.609375 36.15625 -117.269531 36.15625 -116.59375 L 28.03125 -19.09375 C 27.488281 -13.40625 28.195312 -9.816406 30.15625 -8.328125 C 32.125 -6.835938 35.410156 -5.6875 40.015625 -4.875 C 41.910156 -4.46875 43.09375 -3.859375 43.5625 -3.046875 C 44.039062 -2.234375 44.175781 -1.453125 43.96875 -0.703125 C 43.769531 0.0351562 43.601562 0.40625 43.46875 0.40625 C 41.976562 0.40625 40.046875 0.335938 37.671875 0.203125 C 35.304688 0.0664062 33.242188 0 31.484375 0 L 17.671875 0 C 16.316406 0 14.625 0.0664062 12.59375 0.203125 C 10.5625 0.335938 8.9375 0.40625 7.71875 0.40625 C 7.582031 0.40625 7.445312 -0.335938 7.3125 -1.828125 C 7.175781 -3.316406 8.257812 -4.332031 10.5625 -4.875 C 13.132812 -5.414062 15.195312 -6.054688 16.75 -6.796875 C 18.3125 -7.546875 19.53125 -8.832031 20.40625 -10.65625 C 21.289062 -12.488281 21.867188 -15.300781 22.140625 -19.09375 L 32.09375 -130.203125 C 30.46875 -132.640625 28.804688 -134.296875 27.109375 -135.171875 C 25.421875 -136.054688 23.085938 -136.769531 20.109375 -137.3125 C 17.671875 -137.988281 16.550781 -139.035156 16.75 -140.453125 C 16.957031 -141.878906 17.128906 -142.59375 17.265625 -142.59375 C 18.484375 -142.59375 20.070312 -142.523438 22.03125 -142.390625 C 24 -142.253906 25.660156 -142.1875 27.015625 -142.1875 L 44.6875 -142.1875 C 46.71875 -142.1875 48.070312 -141.238281 48.75 -139.34375 L 90.59375 -34.125 C 91.132812 -33.175781 91.539062 -32.703125 91.8125 -32.703125 C 92.351562 -32.703125 92.757812 -33.175781 93.03125 -34.125 L 136.5 -139.34375 C 137.3125 -141.238281 138.53125 -142.1875 140.15625 -142.1875 L 158.03125 -142.1875 C 159.519531 -142.1875 161.28125 -142.253906 163.3125 -142.390625 C 165.34375 -142.523438 167.035156 -142.59375 168.390625 -142.59375 C 168.523438 -142.59375 168.660156 -141.878906 168.796875 -140.453125 C 168.929688 -139.035156 167.78125 -137.988281 165.34375 -137.3125 C 161.414062 -136.5 158.640625 -135.347656 157.015625 -133.859375 C 155.390625 -132.367188 154.847656 -128.78125 155.390625 -123.09375 L 164.53125 -19.09375 C 165.070312 -13.40625 166.15625 -9.816406 167.78125 -8.328125 C 169.40625 -6.835938 172.113281 -5.6875 175.90625 -4.875 Z M 34.328125 -125.9375 L 35.34375 -124.109375 Z M 34.328125 -125.9375 "/></g></g></g><g fill="#919191" fill-opacity="1"><g transform="translate(184.102703, 164.414767)"><g><path d="M 99.9375 -12.796875 C 100.207031 -12.796875 100.914062 -12.59375 102.0625 -12.1875 C 103.21875 -11.78125 103.796875 -10.5625 103.796875 -8.53125 C 103.796875 -5.550781 102.375 -2.976562 99.53125 -0.8125 C 96.6875 1.351562 93.234375 2.4375 89.171875 2.4375 C 78.878906 2.4375 73.125 -4.265625 71.90625 -17.671875 L 71.5 -20.921875 C 68.925781 -13.472656 64.796875 -7.648438 59.109375 -3.453125 C 53.421875 0.742188 47.191406 2.84375 40.421875 2.84375 C 32.835938 2.84375 26.570312 1.390625 21.625 -1.515625 C 16.6875 -4.429688 13.03125 -8.191406 10.65625 -12.796875 C 8.289062 -17.398438 7.109375 -22.070312 7.109375 -26.8125 C 7.109375 -36.425781 10.492188 -44.144531 17.265625 -49.96875 C 24.035156 -55.789062 32.972656 -58.703125 44.078125 -58.703125 C 48.003906 -58.703125 52.164062 -58.429688 56.5625 -57.890625 C 60.96875 -57.347656 64.796875 -56.738281 68.046875 -56.0625 L 67.640625 -60.9375 C 66.828125 -70.550781 64.148438 -77.285156 59.609375 -81.140625 C 55.078125 -85.003906 49.222656 -86.9375 42.046875 -86.9375 C 36.222656 -86.9375 31.109375 -85.953125 26.703125 -83.984375 C 22.304688 -82.023438 18.347656 -79.285156 14.828125 -75.765625 C 14.828125 -75.765625 14.421875 -76 13.609375 -76.46875 C 12.796875 -76.945312 12.253906 -77.691406 11.984375 -78.703125 C 11.710938 -79.722656 12.320312 -80.910156 13.8125 -82.265625 C 17.0625 -85.785156 21.664062 -88.726562 27.625 -91.09375 C 33.582031 -93.46875 40.488281 -94.65625 48.34375 -94.65625 C 54.976562 -94.65625 61.003906 -93.601562 66.421875 -91.5 C 71.835938 -89.40625 76.304688 -85.785156 79.828125 -80.640625 C 83.347656 -75.492188 85.515625 -68.382812 86.328125 -59.3125 L 90.1875 -19.5 C 90.457031 -15.707031 91.066406 -13.097656 92.015625 -11.671875 C 92.960938 -10.253906 94.113281 -9.546875 95.46875 -9.546875 C 97.90625 -9.546875 99.394531 -10.628906 99.9375 -12.796875 Z M 70.078125 -35.546875 L 70.078125 -36.359375 L 68.859375 -48.953125 C 65.609375 -49.628906 61.914062 -50.269531 57.78125 -50.875 C 53.65625 -51.488281 50.375 -51.796875 47.9375 -51.796875 C 31.957031 -51.796875 23.96875 -44.890625 23.96875 -31.078125 C 23.96875 -25.660156 25.960938 -20.75 29.953125 -16.34375 C 33.953125 -11.945312 39.8125 -9.75 47.53125 -9.75 C 51.320312 -9.75 54.941406 -10.796875 58.390625 -12.890625 C 61.847656 -14.992188 64.660156 -18.007812 66.828125 -21.9375 C 68.992188 -25.863281 70.078125 -30.398438 70.078125 -35.546875 Z M 70.078125 -35.546875 "/></g></g></g><g fill="#919191" fill-opacity="1"><g transform="translate(291.959341, 164.414767)"><g><path d="M 4.46875 -15.03125 L 9.546875 -34.328125 C 9.546875 -34.460938 10.050781 -34.53125 11.0625 -34.53125 C 12.082031 -34.53125 13.132812 -34.191406 14.21875 -33.515625 C 15.300781 -32.835938 15.84375 -31.550781 15.84375 -29.65625 C 14.894531 -19.363281 16.484375 -12.421875 20.609375 -8.828125 C 24.742188 -5.242188 31.007812 -3.453125 39.40625 -3.453125 C 45.5 -3.453125 50.609375 -4.535156 54.734375 -6.703125 C 58.867188 -8.867188 60.9375 -12.726562 60.9375 -18.28125 C 60.9375 -21.53125 60.15625 -24.40625 58.59375 -26.90625 C 57.039062 -29.414062 54.398438 -31.921875 50.671875 -34.421875 C 46.953125 -36.929688 41.773438 -39.8125 35.140625 -43.0625 C 30.804688 -45.5 26.570312 -48.035156 22.4375 -50.671875 C 18.3125 -53.316406 14.960938 -56.296875 12.390625 -59.609375 C 9.816406 -62.929688 8.53125 -66.625 8.53125 -70.6875 C 8.53125 -77.1875 11.539062 -82.804688 17.5625 -87.546875 C 23.59375 -92.285156 32.90625 -94.65625 45.5 -94.65625 C 51.050781 -94.65625 56.535156 -94.078125 61.953125 -92.921875 C 67.367188 -91.773438 71.769531 -90.117188 75.15625 -87.953125 C 78.539062 -85.785156 79.757812 -83.007812 78.8125 -79.625 L 73.53125 -60.53125 C 73.53125 -60.394531 73.019531 -60.328125 72 -60.328125 C 70.988281 -60.328125 70.007812 -60.664062 69.0625 -61.34375 C 68.113281 -62.019531 67.640625 -63.171875 67.640625 -64.796875 C 68.722656 -72.921875 67.773438 -78.84375 64.796875 -82.5625 C 61.816406 -86.289062 55.519531 -88.15625 45.90625 -88.15625 C 40.894531 -88.15625 37.101562 -87.578125 34.53125 -86.421875 C 31.957031 -85.273438 30.226562 -83.785156 29.34375 -81.953125 C 28.46875 -80.128906 28.03125 -78.203125 28.03125 -76.171875 C 28.03125 -72.242188 30.226562 -68.722656 34.625 -65.609375 C 39.03125 -62.492188 44.347656 -59.242188 50.578125 -55.859375 C 59.242188 -51.390625 66.382812 -46.921875 72 -42.453125 C 77.625 -37.984375 80.4375 -32.226562 80.4375 -25.1875 C 80.4375 -16.113281 76.710938 -9.140625 69.265625 -4.265625 C 61.816406 0.609375 51.863281 3.046875 39.40625 3.046875 C 32.769531 3.046875 26.675781 2.195312 21.125 0.5 C 15.570312 -1.1875 11.238281 -3.414062 8.125 -6.1875 C 5.007812 -8.96875 3.789062 -11.914062 4.46875 -15.03125 Z M 4.46875 -15.03125 "/></g></g></g><g fill="#919191" fill-opacity="1"><g transform="translate(377.472753, 164.414767)"><g><path d="M 61.34375 -46.3125 L 9.953125 -46.3125 C 8.867188 -46.3125 8.125 -46.785156 7.71875 -47.734375 C 7.3125 -48.679688 7.3125 -49.628906 7.71875 -50.578125 C 8.125 -51.523438 8.867188 -52 9.953125 -52 L 61.34375 -52 C 62.5625 -52 63.335938 -51.523438 63.671875 -50.578125 C 64.015625 -49.628906 64.015625 -48.679688 63.671875 -47.734375 C 63.335938 -46.785156 62.5625 -46.3125 61.34375 -46.3125 Z M 61.34375 -46.3125 "/></g></g></g><g fill="#919191" fill-opacity="1"><g transform="translate(444.299148, 164.414767)"><g><path d="M 20.109375 0 C 18.753906 0 17.0625 0.0664062 15.03125 0.203125 C 13 0.335938 11.375 0.40625 10.15625 0.40625 C 10.019531 0.40625 9.882812 -0.335938 9.75 -1.828125 C 9.613281 -3.316406 10.695312 -4.332031 13 -4.875 C 16.925781 -5.6875 19.703125 -6.835938 21.328125 -8.328125 C 22.953125 -9.816406 23.765625 -13.40625 23.765625 -19.09375 L 23.765625 -123.09375 C 23.765625 -128.78125 22.953125 -132.367188 21.328125 -133.859375 C 19.703125 -135.347656 16.925781 -136.5 13 -137.3125 C 10.695312 -137.851562 9.613281 -138.867188 9.75 -140.359375 C 9.882812 -141.847656 10.019531 -142.59375 10.15625 -142.59375 C 11.375 -142.59375 13 -142.523438 15.03125 -142.390625 C 17.0625 -142.253906 18.753906 -142.1875 20.109375 -142.1875 C 29.722656 -142.320312 38.757812 -142.523438 47.21875 -142.796875 C 55.6875 -143.066406 62.765625 -143.203125 68.453125 -143.203125 C 79.015625 -143.203125 87.75 -141.78125 94.65625 -138.9375 C 101.5625 -136.09375 106.707031 -132.265625 110.09375 -127.453125 C 113.476562 -122.648438 115.171875 -117.335938 115.171875 -111.515625 C 115.171875 -102.304688 112.394531 -94.890625 106.84375 -89.265625 C 101.289062 -83.648438 93.4375 -80.300781 83.28125 -79.21875 C 91.8125 -78.539062 99.394531 -76.742188 106.03125 -73.828125 C 112.664062 -70.921875 117.84375 -66.828125 121.5625 -61.546875 C 125.289062 -56.265625 127.15625 -49.695312 127.15625 -41.84375 C 127.15625 -29.113281 122.175781 -18.820312 112.21875 -10.96875 C 102.269531 -3.113281 87.75 0.8125 68.65625 0.8125 C 61.34375 0.8125 53.828125 0.707031 46.109375 0.5 C 38.390625 0.300781 29.722656 0.132812 20.109375 0 Z M 53.21875 -80.4375 L 66.015625 -81.453125 C 76.578125 -82.535156 83.890625 -85.207031 87.953125 -89.46875 C 92.015625 -93.738281 94.046875 -100.273438 94.046875 -109.078125 C 94.046875 -118.015625 91.4375 -124.851562 86.21875 -129.59375 C 81.007812 -134.332031 74.207031 -136.769531 65.8125 -136.90625 L 50.171875 -137.3125 C 47.054688 -137.3125 45.125 -136.664062 44.375 -135.375 C 43.632812 -134.09375 43.265625 -131.691406 43.265625 -128.171875 L 43.265625 -14.625 C 43.265625 -10.832031 43.703125 -8.289062 44.578125 -7 C 45.460938 -5.71875 47.664062 -5.078125 51.1875 -5.078125 L 65.8125 -5.078125 C 77.1875 -5.078125 86.460938 -8.054688 93.640625 -14.015625 C 100.816406 -19.972656 104.40625 -28.707031 104.40625 -40.21875 C 104.40625 -51.59375 101.359375 -60.15625 95.265625 -65.90625 C 89.171875 -71.664062 79.285156 -74.679688 65.609375 -74.953125 L 52.40625 -75.359375 C 51.863281 -75.359375 51.457031 -76.101562 51.1875 -77.59375 C 50.914062 -79.082031 51.59375 -80.03125 53.21875 -80.4375 Z M 53.21875 -80.4375 "/></g></g></g><g fill="#919191" fill-opacity="1"><g transform="translate(578.358203, 164.414767)"><g><path d="M 108.875 -14.421875 C 109.144531 -14.828125 109.921875 -14.925781 111.203125 -14.71875 C 112.492188 -14.519531 113.140625 -13.066406 113.140625 -10.359375 C 113.140625 -7.648438 111.75 -4.835938 108.96875 -1.921875 C 106.195312 0.984375 102.035156 2.4375 96.484375 2.4375 C 91.878906 2.4375 88.019531 0.609375 84.90625 -3.046875 C 81.789062 -6.703125 80.234375 -12.457031 80.234375 -20.3125 L 80.234375 -20.921875 C 77.796875 -14.148438 73.800781 -8.460938 68.25 -3.859375 C 62.695312 0.742188 55.925781 3.046875 47.9375 3.046875 C 38.050781 3.046875 29.992188 -0.203125 23.765625 -6.703125 C 17.535156 -13.203125 14.421875 -23.15625 14.421875 -36.5625 L 14.421875 -69.46875 C 14.421875 -72.175781 13.945312 -74.304688 13 -75.859375 C 12.050781 -77.421875 10.222656 -78.335938 7.515625 -78.609375 C 6.160156 -78.878906 5.3125 -79.488281 4.96875 -80.4375 C 4.632812 -81.382812 4.5 -82.296875 4.5625 -83.171875 C 4.632812 -84.054688 4.671875 -84.5 4.671875 -84.5 C 10.765625 -85.582031 15.738281 -86.800781 19.59375 -88.15625 C 23.457031 -89.507812 26.878906 -91.269531 29.859375 -93.4375 C 30.535156 -93.707031 31.484375 -93.640625 32.703125 -93.234375 C 33.921875 -92.828125 34.460938 -92.285156 34.328125 -91.609375 C 33.921875 -86.867188 33.546875 -82.703125 33.203125 -79.109375 C 32.867188 -75.523438 32.703125 -71.160156 32.703125 -66.015625 L 32.703125 -37.578125 C 32.703125 -27.285156 34.664062 -19.703125 38.59375 -14.828125 C 42.519531 -9.953125 48.003906 -7.515625 55.046875 -7.515625 C 62.765625 -7.515625 68.890625 -11.035156 73.421875 -18.078125 C 77.960938 -25.117188 80.234375 -34.054688 80.234375 -44.890625 L 80.234375 -69.46875 C 80.234375 -72.175781 79.757812 -74.304688 78.8125 -75.859375 C 77.863281 -77.421875 76.035156 -78.335938 73.328125 -78.609375 C 71.972656 -78.878906 71.125 -79.488281 70.78125 -80.4375 C 70.445312 -81.382812 70.3125 -82.296875 70.375 -83.171875 C 70.445312 -84.054688 70.484375 -84.5 70.484375 -84.5 C 76.578125 -85.582031 81.550781 -86.800781 85.40625 -88.15625 C 89.269531 -89.507812 92.691406 -91.269531 95.671875 -93.4375 C 96.347656 -93.707031 97.296875 -93.640625 98.515625 -93.234375 C 99.734375 -92.828125 100.34375 -92.285156 100.34375 -91.609375 C 99.800781 -86.867188 99.359375 -82.703125 99.015625 -79.109375 C 98.679688 -75.523438 98.515625 -71.160156 98.515625 -66.015625 L 98.515625 -23.359375 C 98.515625 -18.753906 98.921875 -15.4375 99.734375 -13.40625 C 100.546875 -11.375 102.035156 -10.359375 104.203125 -10.359375 C 105.554688 -10.359375 106.570312 -10.832031 107.25 -11.78125 C 107.925781 -12.726562 108.46875 -13.609375 108.875 -14.421875 Z M 108.875 -14.421875 "/></g></g></g><g fill="#919191" fill-opacity="1"><g transform="translate(695.55829, 164.414767)"><g><path d="M 26 -111.921875 C 22.34375 -111.921875 19.429688 -112.867188 17.265625 -114.765625 C 15.097656 -116.660156 14.015625 -119.03125 14.015625 -121.875 C 14.015625 -125.257812 15.332031 -128 17.96875 -130.09375 C 20.613281 -132.195312 23.96875 -133.25 28.03125 -133.25 C 31.550781 -133.25 34.394531 -132.265625 36.5625 -130.296875 C 38.726562 -128.335938 39.8125 -125.9375 39.8125 -123.09375 C 39.8125 -119.84375 38.523438 -117.164062 35.953125 -115.0625 C 33.378906 -112.96875 30.0625 -111.921875 26 -111.921875 Z M 38.1875 -66.015625 L 38.1875 -19.09375 C 38.1875 -14.21875 38.960938 -10.765625 40.515625 -8.734375 C 42.078125 -6.703125 44.210938 -5.550781 46.921875 -5.28125 C 48.816406 -5.144531 49.96875 -4.601562 50.375 -3.65625 C 50.78125 -2.707031 50.847656 -1.789062 50.578125 -0.90625 C 50.304688 -0.03125 50.035156 0.40625 49.765625 0.40625 C 43.398438 0 36.660156 -0.164062 29.546875 -0.09375 C 22.441406 -0.03125 15.300781 0.132812 8.125 0.40625 C 7.988281 0.40625 7.785156 -0.03125 7.515625 -0.90625 C 7.242188 -1.789062 7.34375 -2.707031 7.8125 -3.65625 C 8.289062 -4.601562 9.476562 -5.144531 11.375 -5.28125 C 14.21875 -5.550781 16.347656 -6.703125 17.765625 -8.734375 C 19.191406 -10.765625 19.90625 -14.285156 19.90625 -19.296875 L 19.90625 -69.46875 C 19.90625 -72.175781 19.429688 -74.304688 18.484375 -75.859375 C 17.535156 -77.421875 15.707031 -78.335938 13 -78.609375 C 11.644531 -78.878906 10.796875 -79.488281 10.453125 -80.4375 C 10.117188 -81.382812 9.984375 -82.296875 10.046875 -83.171875 C 10.117188 -84.054688 10.15625 -84.5 10.15625 -84.5 C 16.25 -85.582031 21.222656 -86.800781 25.078125 -88.15625 C 28.941406 -89.507812 32.363281 -91.269531 35.34375 -93.4375 C 36.019531 -93.707031 36.96875 -93.640625 38.1875 -93.234375 C 39.40625 -92.828125 39.945312 -92.285156 39.8125 -91.609375 C 39.40625 -86.867188 39.03125 -82.703125 38.6875 -79.109375 C 38.351562 -75.523438 38.1875 -71.160156 38.1875 -66.015625 Z M 38.1875 -66.015625 "/></g></g></g><g fill="#919191" fill-opacity="1"><g transform="translate(753.650544, 164.414767)"><g><path d="M 36.359375 3.046875 C 29.992188 3.046875 25.015625 0.984375 21.421875 -3.140625 C 17.835938 -7.273438 16.046875 -13.40625 16.046875 -21.53125 L 16.046875 -78.8125 C 16.046875 -81.113281 15.875 -82.875 15.53125 -84.09375 C 15.195312 -85.3125 13.945312 -85.921875 11.78125 -85.921875 L 5.890625 -85.921875 C 4.535156 -85.921875 3.925781 -86.832031 4.0625 -88.65625 C 4.195312 -90.488281 5.484375 -91.539062 7.921875 -91.8125 C 11.304688 -92.21875 14.21875 -92.992188 16.65625 -94.140625 C 19.09375 -95.296875 21.257812 -97.296875 23.15625 -100.140625 C 25.050781 -102.984375 26.878906 -107.046875 28.640625 -112.328125 C 29.585938 -114.628906 31.210938 -115.78125 33.515625 -115.78125 C 34.597656 -115.78125 35.140625 -115.441406 35.140625 -114.765625 C 35.273438 -111.785156 35.304688 -108.46875 35.234375 -104.8125 C 35.171875 -101.15625 35.003906 -98.175781 34.734375 -95.875 C 34.597656 -93.03125 35.953125 -91.609375 38.796875 -91.609375 L 62.765625 -91.609375 C 63.304688 -91.609375 63.675781 -91.132812 63.875 -90.1875 C 64.082031 -89.238281 63.984375 -88.289062 63.578125 -87.34375 C 63.171875 -86.394531 62.289062 -85.921875 60.9375 -85.921875 L 40.21875 -85.921875 C 38.050781 -85.921875 36.523438 -85.515625 35.640625 -84.703125 C 34.765625 -83.890625 34.328125 -82.46875 34.328125 -80.4375 L 34.328125 -21.53125 C 34.328125 -15.976562 35.816406 -12.21875 38.796875 -10.25 C 41.773438 -8.289062 45.328125 -8.019531 49.453125 -9.4375 C 53.585938 -10.863281 57.347656 -13.8125 60.734375 -18.28125 C 61.003906 -18.6875 61.507812 -18.582031 62.25 -17.96875 C 63 -17.363281 63.40625 -16.382812 63.46875 -15.03125 C 63.539062 -13.675781 62.628906 -11.847656 60.734375 -9.546875 C 57.210938 -5.078125 53.351562 -1.863281 49.15625 0.09375 C 44.957031 2.0625 40.691406 3.046875 36.359375 3.046875 Z M 36.359375 3.046875 "/></g></g></g><g fill="#919191" fill-opacity="1"><g transform="translate(820.680093, 164.414767)"><g><path d="M 65.8125 -94.65625 C 70.007812 -94.65625 73.800781 -93.773438 77.1875 -92.015625 C 80.570312 -90.253906 83.109375 -87.914062 84.796875 -85 C 86.492188 -82.09375 86.867188 -78.878906 85.921875 -75.359375 L 79.421875 -53.015625 C 79.421875 -52.742188 78.8125 -52.570312 77.59375 -52.5 C 76.375 -52.4375 75.1875 -52.742188 74.03125 -53.421875 C 72.882812 -54.097656 72.378906 -55.453125 72.515625 -57.484375 C 73.460938 -64.523438 73.460938 -69.875 72.515625 -73.53125 C 71.566406 -77.1875 69.875 -79.722656 67.4375 -81.140625 C 65 -82.566406 62.019531 -83.28125 58.5 -83.28125 C 54.300781 -83.28125 50.847656 -81.859375 48.140625 -79.015625 C 45.429688 -76.171875 43.398438 -72.582031 42.046875 -68.25 C 40.691406 -63.914062 39.742188 -59.378906 39.203125 -54.640625 C 38.660156 -49.898438 38.390625 -45.632812 38.390625 -41.84375 L 38.390625 -19.09375 C 38.390625 -14.21875 39.164062 -10.765625 40.71875 -8.734375 C 42.28125 -6.703125 44.414062 -5.550781 47.125 -5.28125 C 49.019531 -5.144531 50.238281 -4.601562 50.78125 -3.65625 C 51.320312 -2.707031 51.457031 -1.789062 51.1875 -0.90625 C 50.914062 -0.03125 50.507812 0.40625 49.96875 0.40625 C 43.601562 0 36.898438 -0.164062 29.859375 -0.09375 C 22.816406 -0.03125 15.707031 0.132812 8.53125 0.40625 C 8.125 0.40625 7.785156 -0.03125 7.515625 -0.90625 C 7.242188 -1.789062 7.378906 -2.707031 7.921875 -3.65625 C 8.460938 -4.601562 9.679688 -5.144531 11.578125 -5.28125 C 14.554688 -5.550781 16.722656 -6.703125 18.078125 -8.734375 C 19.429688 -10.765625 20.109375 -14.285156 20.109375 -19.296875 L 20.109375 -69.46875 C 20.109375 -72.175781 19.632812 -74.304688 18.6875 -75.859375 C 17.738281 -77.421875 15.910156 -78.335938 13.203125 -78.609375 C 11.847656 -78.878906 11 -79.488281 10.65625 -80.4375 C 10.320312 -81.382812 10.222656 -82.296875 10.359375 -83.171875 C 10.492188 -84.054688 10.5625 -84.5 10.5625 -84.5 C 16.519531 -85.582031 21.425781 -86.800781 25.28125 -88.15625 C 29.144531 -89.507812 32.566406 -91.269531 35.546875 -93.4375 C 36.222656 -93.707031 37.171875 -93.640625 38.390625 -93.234375 C 39.609375 -92.828125 40.21875 -92.285156 40.21875 -91.609375 C 39.8125 -87.816406 39.472656 -84.363281 39.203125 -81.25 C 38.929688 -78.132812 38.660156 -74.816406 38.390625 -71.296875 C 39.742188 -75.085938 41.535156 -78.742188 43.765625 -82.265625 C 46.003906 -85.785156 48.914062 -88.726562 52.5 -91.09375 C 56.09375 -93.46875 60.53125 -94.65625 65.8125 -94.65625 Z M 65.8125 -94.65625 "/></g></g></g><g fill="#919191" fill-opacity="1"><g transform="translate(909.240337, 164.414767)"><g><path d="M 99.9375 -12.796875 C 100.207031 -12.796875 100.914062 -12.59375 102.0625 -12.1875 C 103.21875 -11.78125 103.796875 -10.5625 103.796875 -8.53125 C 103.796875 -5.550781 102.375 -2.976562 99.53125 -0.8125 C 96.6875 1.351562 93.234375 2.4375 89.171875 2.4375 C 78.878906 2.4375 73.125 -4.265625 71.90625 -17.671875 L 71.5 -20.921875 C 68.925781 -13.472656 64.796875 -7.648438 59.109375 -3.453125 C 53.421875 0.742188 47.191406 2.84375 40.421875 2.84375 C 32.835938 2.84375 26.570312 1.390625 21.625 -1.515625 C 16.6875 -4.429688 13.03125 -8.191406 10.65625 -12.796875 C 8.289062 -17.398438 7.109375 -22.070312 7.109375 -26.8125 C 7.109375 -36.425781 10.492188 -44.144531 17.265625 -49.96875 C 24.035156 -55.789062 32.972656 -58.703125 44.078125 -58.703125 C 48.003906 -58.703125 52.164062 -58.429688 56.5625 -57.890625 C 60.96875 -57.347656 64.796875 -56.738281 68.046875 -56.0625 L 67.640625 -60.9375 C 66.828125 -70.550781 64.148438 -77.285156 59.609375 -81.140625 C 55.078125 -85.003906 49.222656 -86.9375 42.046875 -86.9375 C 36.222656 -86.9375 31.109375 -85.953125 26.703125 -83.984375 C 22.304688 -82.023438 18.347656 -79.285156 14.828125 -75.765625 C 14.828125 -75.765625 14.421875 -76 13.609375 -76.46875 C 12.796875 -76.945312 12.253906 -77.691406 11.984375 -78.703125 C 11.710938 -79.722656 12.320312 -80.910156 13.8125 -82.265625 C 17.0625 -85.785156 21.664062 -88.726562 27.625 -91.09375 C 33.582031 -93.46875 40.488281 -94.65625 48.34375 -94.65625 C 54.976562 -94.65625 61.003906 -93.601562 66.421875 -91.5 C 71.835938 -89.40625 76.304688 -85.785156 79.828125 -80.640625 C 83.347656 -75.492188 85.515625 -68.382812 86.328125 -59.3125 L 90.1875 -19.5 C 90.457031 -15.707031 91.066406 -13.097656 92.015625 -11.671875 C 92.960938 -10.253906 94.113281 -9.546875 95.46875 -9.546875 C 97.90625 -9.546875 99.394531 -10.628906 99.9375 -12.796875 Z M 70.078125 -35.546875 L 70.078125 -36.359375 L 68.859375 -48.953125 C 65.609375 -49.628906 61.914062 -50.269531 57.78125 -50.875 C 53.65625 -51.488281 50.375 -51.796875 47.9375 -51.796875 C 31.957031 -51.796875 23.96875 -44.890625 23.96875 -31.078125 C 23.96875 -25.660156 25.960938 -20.75 29.953125 -16.34375 C 33.953125 -11.945312 39.8125 -9.75 47.53125 -9.75 C 51.320312 -9.75 54.941406 -10.796875 58.390625 -12.890625 C 61.847656 -14.992188 64.660156 -18.007812 66.828125 -21.9375 C 68.992188 -25.863281 70.078125 -30.398438 70.078125 -35.546875 Z M 70.078125 -35.546875 "/></g></g></g><g fill="#919191" fill-opacity="1"><g transform="translate(1017.096963, 164.414767)"><g><path d="M 102.578125 -93.03125 C 103.117188 -93.164062 103.554688 -92.789062 103.890625 -91.90625 C 104.234375 -91.03125 104.234375 -90.117188 103.890625 -89.171875 C 103.554688 -88.222656 102.507812 -87.679688 100.75 -87.546875 C 92.351562 -86.597656 88.222656 -85.175781 88.359375 -83.28125 C 92.015625 -79.894531 94.859375 -76 96.890625 -71.59375 C 98.921875 -67.195312 99.9375 -62.425781 99.9375 -57.28125 C 99.9375 -48.75 97.328125 -41.164062 92.109375 -34.53125 C 86.898438 -27.894531 79.960938 -23.019531 71.296875 -19.90625 C 80.097656 -18.007812 87.171875 -14.351562 92.515625 -8.9375 C 97.867188 -3.519531 100.546875 3.382812 100.546875 11.78125 C 100.546875 18.144531 98.476562 23.726562 94.34375 28.53125 C 90.21875 33.34375 84.597656 37.066406 77.484375 39.703125 C 70.378906 42.347656 62.289062 43.671875 53.21875 43.671875 C 44.007812 43.671875 36.050781 42.113281 29.34375 39 C 22.644531 35.882812 17.535156 31.820312 14.015625 26.8125 C 10.492188 21.800781 8.867188 16.519531 9.140625 10.96875 C 9.273438 7.3125 10.5625 3.753906 13 0.296875 C 15.4375 -3.148438 19.160156 -6.160156 24.171875 -8.734375 C 25.253906 -9.003906 26.164062 -8.867188 26.90625 -8.328125 C 27.65625 -7.785156 27.828125 -6.769531 27.421875 -5.28125 C 26.609375 -3.65625 26.03125 -1.992188 25.6875 -0.296875 C 25.351562 1.390625 25.1875 3.113281 25.1875 4.875 C 25.320312 9.882812 26.84375 14.828125 29.75 19.703125 C 32.664062 24.578125 36.523438 28.601562 41.328125 31.78125 C 46.140625 34.96875 51.390625 36.5625 57.078125 36.5625 C 64.523438 36.5625 70.515625 34.734375 75.046875 31.078125 C 79.585938 27.421875 81.859375 22.882812 81.859375 17.46875 C 81.859375 11.101562 80.4375 5.347656 77.59375 0.203125 C 74.75 -4.941406 70.988281 -9.035156 66.3125 -12.078125 C 61.644531 -15.128906 56.535156 -16.65625 50.984375 -16.65625 L 50.578125 -16.65625 C 42.585938 -16.925781 35.441406 -18.785156 29.140625 -22.234375 C 22.847656 -25.691406 17.875 -30.226562 14.21875 -35.84375 C 10.5625 -41.46875 8.734375 -47.597656 8.734375 -54.234375 C 8.734375 -62.085938 10.765625 -69.0625 14.828125 -75.15625 C 18.890625 -81.25 24.507812 -86.019531 31.6875 -89.46875 C 38.863281 -92.925781 47.054688 -94.65625 56.265625 -94.65625 C 62.222656 -94.65625 67.265625 -94.179688 71.390625 -93.234375 C 75.523438 -92.285156 79.894531 -91.8125 84.5 -91.8125 C 87.070312 -91.8125 90.1875 -91.976562 93.84375 -92.3125 C 97.5 -92.65625 100.410156 -92.894531 102.578125 -93.03125 Z M 57.484375 -23.96875 C 64.929688 -23.96875 70.988281 -26.300781 75.65625 -30.96875 C 80.332031 -35.644531 82.671875 -41.570312 82.671875 -48.75 C 82.671875 -53.21875 81.859375 -57.71875 80.234375 -62.25 C 78.609375 -66.789062 76.335938 -70.957031 73.421875 -74.75 C 70.515625 -78.539062 67.195312 -81.585938 63.46875 -83.890625 C 59.75 -86.191406 55.722656 -87.34375 51.390625 -87.34375 C 43.535156 -87.34375 37.375 -85.070312 32.90625 -80.53125 C 28.4375 -76 26.203125 -70.007812 26.203125 -62.5625 C 26.203125 -56.738281 27.554688 -50.847656 30.265625 -44.890625 C 32.972656 -38.929688 36.695312 -33.953125 41.4375 -29.953125 C 46.175781 -25.960938 51.523438 -23.96875 57.484375 -23.96875 Z M 57.484375 -23.96875 "/></g></g></g><g fill="#919191" fill-opacity="1"><g transform="translate(1128.609694, 164.414767)"><g><path d="M 54.84375 3.046875 C 45.5 3.046875 37.238281 1.082031 30.0625 -2.84375 C 22.882812 -6.769531 17.296875 -12.285156 13.296875 -19.390625 C 9.304688 -26.503906 7.3125 -34.734375 7.3125 -44.078125 C 7.3125 -54.503906 9.679688 -63.472656 14.421875 -70.984375 C 19.160156 -78.503906 25.457031 -84.328125 33.3125 -88.453125 C 41.164062 -92.585938 49.765625 -94.65625 59.109375 -94.65625 C 69.128906 -94.65625 77.863281 -92.585938 85.3125 -88.453125 C 92.757812 -84.328125 98.515625 -78.742188 102.578125 -71.703125 C 106.640625 -64.660156 108.671875 -56.671875 108.671875 -47.734375 C 108.671875 -37.441406 106.367188 -28.503906 101.765625 -20.921875 C 97.160156 -13.335938 90.828125 -7.445312 82.765625 -3.25 C 74.710938 0.945312 65.40625 3.046875 54.84375 3.046875 Z M 62.96875 -5.078125 C 72.175781 -5.078125 79.25 -7.882812 84.1875 -13.5 C 89.132812 -19.125 91.675781 -26.472656 91.8125 -35.546875 C 92.082031 -41.234375 91.300781 -47.054688 89.46875 -53.015625 C 87.644531 -58.972656 85.003906 -64.523438 81.546875 -69.671875 C 78.097656 -74.816406 74.035156 -78.945312 69.359375 -82.0625 C 64.691406 -85.175781 59.582031 -86.734375 54.03125 -86.734375 C 44.28125 -86.734375 36.929688 -83.753906 31.984375 -77.796875 C 27.046875 -71.835938 24.507812 -64.660156 24.375 -56.265625 C 23.96875 -49.898438 24.675781 -43.671875 26.5 -37.578125 C 28.332031 -31.484375 31.007812 -26 34.53125 -21.125 C 38.050781 -16.25 42.210938 -12.351562 47.015625 -9.4375 C 51.828125 -6.53125 57.144531 -5.078125 62.96875 -5.078125 Z M 62.96875 -5.078125 "/></g></g></g><g fill="#919191" fill-opacity="1"><g transform="translate(1244.591142, 164.414767)"><g><path d="M 11.171875 27.625 C 9.816406 27.757812 9.070312 27.25 8.9375 26.09375 C 8.800781 24.945312 9.003906 24.238281 9.546875 23.96875 C 14.285156 21.257812 17.566406 18.175781 19.390625 14.71875 C 21.222656 11.269531 22.070312 7.921875 21.9375 4.671875 C 21.9375 3.046875 21.222656 1.960938 19.796875 1.421875 C 18.378906 0.878906 16.789062 0.375 15.03125 -0.09375 C 13.269531 -0.570312 11.710938 -1.351562 10.359375 -2.4375 C 9.003906 -3.519531 8.328125 -5.484375 8.328125 -8.328125 C 8.328125 -11.304688 9.476562 -14.148438 11.78125 -16.859375 C 14.082031 -19.566406 17.46875 -20.921875 21.9375 -20.921875 C 25.863281 -20.921875 28.804688 -19.734375 30.765625 -17.359375 C 32.734375 -14.992188 33.71875 -11.984375 33.71875 -8.328125 C 33.71875 -2.640625 32.597656 2.671875 30.359375 7.609375 C 28.128906 12.554688 25.320312 16.753906 21.9375 20.203125 C 18.550781 23.660156 14.960938 26.132812 11.171875 27.625 Z M 11.171875 27.625 "/></g></g></g><g fill="#919191" fill-opacity="1"><g transform="translate(1285.824432, 164.414767)"><g/></g></g><g fill="#919191" fill-opacity="1"><g transform="translate(1331.7295, 164.414767)"><g><path d="M 65 -59.109375 L 52.40625 -59.515625 C 51.457031 -60.597656 51.015625 -61.75 51.078125 -62.96875 C 51.148438 -64.1875 51.863281 -64.863281 53.21875 -65 L 64.1875 -64.796875 C 89.78125 -64.660156 102.578125 -76.101562 102.578125 -99.125 C 102.578125 -106.4375 101.085938 -112.9375 98.109375 -118.625 C 95.128906 -124.3125 90.929688 -128.8125 85.515625 -132.125 C 80.097656 -135.445312 73.597656 -137.109375 66.015625 -137.109375 L 49.96875 -137.3125 C 47.257812 -137.3125 45.460938 -136.835938 44.578125 -135.890625 C 43.703125 -134.941406 43.265625 -132.84375 43.265625 -129.59375 L 43.265625 -19.09375 C 43.265625 -13.40625 44.3125 -9.816406 46.40625 -8.328125 C 48.507812 -6.835938 52.066406 -5.6875 57.078125 -4.875 C 59.242188 -4.46875 60.5625 -3.859375 61.03125 -3.046875 C 61.507812 -2.234375 61.644531 -1.453125 61.4375 -0.703125 C 61.238281 0.0351562 61.070312 0.40625 60.9375 0.40625 C 59.3125 0.40625 57.242188 0.335938 54.734375 0.203125 C 52.234375 0.0664062 50.035156 0 48.140625 0 L 20.109375 0 C 18.753906 0 17.09375 0.0664062 15.125 0.203125 C 13.164062 0.335938 11.507812 0.40625 10.15625 0.40625 C 10.019531 0.40625 9.882812 -0.335938 9.75 -1.828125 C 9.613281 -3.316406 10.765625 -4.332031 13.203125 -4.875 C 16.992188 -5.6875 19.703125 -6.835938 21.328125 -8.328125 C 22.953125 -9.816406 23.765625 -13.40625 23.765625 -19.09375 L 23.765625 -123.09375 C 23.765625 -128.78125 22.953125 -132.367188 21.328125 -133.859375 C 19.703125 -135.347656 16.925781 -136.5 13 -137.3125 C 10.695312 -137.851562 9.613281 -138.867188 9.75 -140.359375 C 9.882812 -141.847656 10.019531 -142.59375 10.15625 -142.59375 C 11.375 -142.59375 13 -142.523438 15.03125 -142.390625 C 17.0625 -142.253906 18.753906 -142.1875 20.109375 -142.1875 C 29.859375 -142.320312 38.660156 -142.488281 46.515625 -142.6875 C 54.367188 -142.894531 61.953125 -143 69.265625 -143 C 86.597656 -143 100.003906 -139.238281 109.484375 -131.71875 C 118.960938 -124.207031 123.703125 -113.75 123.703125 -100.34375 C 123.703125 -91.8125 121.671875 -84.328125 117.609375 -77.890625 C 113.546875 -71.460938 107.210938 -66.554688 98.609375 -63.171875 C 90.015625 -59.785156 78.8125 -58.429688 65 -59.109375 Z M 65 -59.109375 "/></g></g></g><g fill="#919191" fill-opacity="1"><g transform="translate(1461.319881, 164.414767)"><g><path d="M 19.5 2.03125 C 16.25 2.03125 13.570312 1.148438 11.46875 -0.609375 C 9.375 -2.367188 8.328125 -4.738281 8.328125 -7.71875 C 8.328125 -10.96875 9.507812 -13.976562 11.875 -16.75 C 14.25 -19.53125 17.941406 -20.921875 22.953125 -20.921875 C 25.796875 -20.921875 28.164062 -19.9375 30.0625 -17.96875 C 31.957031 -16.007812 32.90625 -13.40625 32.90625 -10.15625 C 32.90625 -6.5 31.484375 -3.550781 28.640625 -1.3125 C 25.796875 0.914062 22.75 2.03125 19.5 2.03125 Z M 19.5 2.03125 "/></g></g></g></svg>