<svg xmlns="http://www.w3.org/2000/svg" xmlns:xlink="http://www.w3.org/1999/xlink" width="2000" zoomAndPan="magnify" viewBox="0 0 1500 225" height="300" preserveAspectRatio="xMidYMid meet" version="1.0"><defs><g/></defs><g fill="#a6a6a6" fill-opacity="1"><g transform="translate(10.653808, 163.502933)"><g><path d="M 172.8125 -4.796875 C 175.207031 -4.253906 176.335938 -3.25 176.203125 -1.78125 C 176.066406 -0.320312 175.929688 0.40625 175.796875 0.40625 C 174.472656 0.40625 172.878906 0.335938 171.015625 0.203125 C 169.148438 0.0664062 167.484375 0 166.015625 0 L 138.890625 0 C 137.160156 0 135.128906 0.0664062 132.796875 0.203125 C 130.472656 0.335938 128.578125 0.40625 127.109375 0.40625 C 126.972656 0.40625 126.804688 0.0390625 126.609375 -0.6875 C 126.410156 -1.425781 126.539062 -2.191406 127 -2.984375 C 127.46875 -3.785156 128.632812 -4.390625 130.5 -4.796875 C 135.15625 -5.585938 138.414062 -6.710938 140.28125 -8.171875 C 142.144531 -9.640625 142.8125 -13.164062 142.28125 -18.75 L 134.09375 -116.328125 C 133.957031 -116.992188 133.691406 -117.328125 133.296875 -117.328125 C 132.898438 -117.328125 132.566406 -116.929688 132.296875 -116.140625 L 87 -7.984375 C 86.070312 -5.722656 84.742188 -4.59375 83.015625 -4.59375 C 81.285156 -4.59375 79.953125 -5.585938 79.015625 -7.578125 L 37.515625 -114.34375 C 37.242188 -115.132812 36.84375 -115.53125 36.3125 -115.53125 C 35.78125 -115.53125 35.515625 -115.203125 35.515625 -114.546875 L 27.53125 -18.75 C 27 -13.164062 27.695312 -9.640625 29.625 -8.171875 C 31.5625 -6.710938 34.789062 -5.585938 39.3125 -4.796875 C 41.175781 -4.390625 42.335938 -3.785156 42.796875 -2.984375 C 43.265625 -2.191406 43.398438 -1.425781 43.203125 -0.6875 C 43.003906 0.0390625 42.835938 0.40625 42.703125 0.40625 C 41.242188 0.40625 39.347656 0.335938 37.015625 0.203125 C 34.691406 0.0664062 32.664062 0 30.9375 0 L 17.359375 0 C 16.023438 0 14.359375 0.0664062 12.359375 0.203125 C 10.367188 0.335938 8.773438 0.40625 7.578125 0.40625 C 7.453125 0.40625 7.320312 -0.320312 7.1875 -1.78125 C 7.050781 -3.25 8.113281 -4.253906 10.375 -4.796875 C 12.90625 -5.328125 14.929688 -5.957031 16.453125 -6.6875 C 17.984375 -7.414062 19.179688 -8.675781 20.046875 -10.46875 C 20.910156 -12.269531 21.476562 -15.03125 21.75 -18.75 L 31.53125 -127.90625 C 29.9375 -130.300781 28.304688 -131.929688 26.640625 -132.796875 C 24.972656 -133.660156 22.675781 -134.359375 19.75 -134.890625 C 17.351562 -135.554688 16.253906 -136.585938 16.453125 -137.984375 C 16.660156 -139.378906 16.832031 -140.078125 16.96875 -140.078125 C 18.15625 -140.078125 19.710938 -140.007812 21.640625 -139.875 C 23.578125 -139.75 25.210938 -139.6875 26.546875 -139.6875 L 43.90625 -139.6875 C 45.894531 -139.6875 47.222656 -138.753906 47.890625 -136.890625 L 89 -33.53125 C 89.53125 -32.59375 89.925781 -32.125 90.1875 -32.125 C 90.726562 -32.125 91.128906 -32.59375 91.390625 -33.53125 L 134.09375 -136.890625 C 134.894531 -138.753906 136.09375 -139.6875 137.6875 -139.6875 L 155.25 -139.6875 C 156.707031 -139.6875 158.429688 -139.75 160.421875 -139.875 C 162.421875 -140.007812 164.085938 -140.078125 165.421875 -140.078125 C 165.554688 -140.078125 165.6875 -139.378906 165.8125 -137.984375 C 165.945312 -136.585938 164.820312 -135.554688 162.4375 -134.890625 C 158.570312 -134.097656 155.84375 -132.96875 154.25 -131.5 C 152.65625 -130.039062 152.125 -126.515625 152.65625 -120.921875 L 161.640625 -18.75 C 162.171875 -13.164062 163.234375 -9.640625 164.828125 -8.171875 C 166.421875 -6.710938 169.082031 -5.585938 172.8125 -4.796875 Z M 33.71875 -123.71875 L 34.71875 -121.921875 Z M 33.71875 -123.71875 "/></g></g></g><g fill="#a6a6a6" fill-opacity="1"><g transform="translate(194.042248, 163.502933)"><g><path d="M 98.171875 -12.578125 C 98.441406 -12.578125 99.140625 -12.375 100.265625 -11.96875 C 101.398438 -11.570312 101.96875 -10.375 101.96875 -8.375 C 101.96875 -5.445312 100.570312 -2.921875 97.78125 -0.796875 C 94.988281 1.328125 91.59375 2.390625 87.59375 2.390625 C 77.488281 2.390625 71.835938 -4.191406 70.640625 -17.359375 L 70.234375 -20.546875 C 67.710938 -13.234375 63.65625 -7.515625 58.0625 -3.390625 C 52.476562 0.734375 46.359375 2.796875 39.703125 2.796875 C 32.253906 2.796875 26.101562 1.367188 21.25 -1.484375 C 16.394531 -4.347656 12.800781 -8.039062 10.46875 -12.5625 C 8.144531 -17.09375 6.984375 -21.6875 6.984375 -26.34375 C 6.984375 -35.789062 10.304688 -43.375 16.953125 -49.09375 C 23.609375 -54.8125 32.390625 -57.671875 43.296875 -57.671875 C 47.160156 -57.671875 51.253906 -57.40625 55.578125 -56.875 C 59.898438 -56.34375 63.65625 -55.742188 66.84375 -55.078125 L 66.453125 -59.859375 C 65.648438 -69.304688 63.019531 -75.925781 58.5625 -79.71875 C 54.101562 -83.507812 48.351562 -85.40625 41.3125 -85.40625 C 35.582031 -85.40625 30.554688 -84.441406 26.234375 -82.515625 C 21.910156 -80.585938 18.019531 -77.894531 14.5625 -74.4375 C 14.5625 -74.4375 14.160156 -74.664062 13.359375 -75.125 C 12.566406 -75.59375 12.035156 -76.328125 11.765625 -77.328125 C 11.503906 -78.328125 12.101562 -79.488281 13.5625 -80.8125 C 16.757812 -84.269531 21.285156 -87.160156 27.140625 -89.484375 C 32.992188 -91.816406 39.773438 -92.984375 47.484375 -92.984375 C 54.003906 -92.984375 59.925781 -91.953125 65.25 -89.890625 C 70.570312 -87.828125 74.960938 -84.269531 78.421875 -79.21875 C 81.878906 -74.164062 84.007812 -67.179688 84.8125 -58.265625 L 88.59375 -19.15625 C 88.863281 -15.425781 89.460938 -12.863281 90.390625 -11.46875 C 91.328125 -10.070312 92.457031 -9.375 93.78125 -9.375 C 96.175781 -9.375 97.640625 -10.441406 98.171875 -12.578125 Z M 68.84375 -34.921875 L 68.84375 -35.71875 L 67.640625 -48.09375 C 64.453125 -48.757812 60.828125 -49.390625 56.765625 -49.984375 C 52.710938 -50.585938 49.488281 -50.890625 47.09375 -50.890625 C 31.394531 -50.890625 23.546875 -44.101562 23.546875 -30.53125 C 23.546875 -25.207031 25.503906 -20.382812 29.421875 -16.0625 C 33.347656 -11.738281 39.101562 -9.578125 46.6875 -9.578125 C 50.414062 -9.578125 53.972656 -10.609375 57.359375 -12.671875 C 60.753906 -14.734375 63.515625 -17.691406 65.640625 -21.546875 C 67.773438 -25.410156 68.84375 -29.867188 68.84375 -34.921875 Z M 68.84375 -34.921875 "/></g></g></g><g fill="#a6a6a6" fill-opacity="1"><g transform="translate(300.004474, 163.502933)"><g><path d="M 4.390625 -14.765625 L 9.375 -33.71875 C 9.375 -33.851562 9.875 -33.921875 10.875 -33.921875 C 11.875 -33.921875 12.90625 -33.585938 13.96875 -32.921875 C 15.03125 -32.253906 15.5625 -30.992188 15.5625 -29.140625 C 14.632812 -19.023438 16.195312 -12.203125 20.25 -8.671875 C 24.3125 -5.148438 30.46875 -3.390625 38.71875 -3.390625 C 44.695312 -3.390625 49.710938 -4.453125 53.765625 -6.578125 C 57.828125 -8.710938 59.859375 -12.503906 59.859375 -17.953125 C 59.859375 -21.148438 59.09375 -23.976562 57.5625 -26.4375 C 56.039062 -28.894531 53.445312 -31.351562 49.78125 -33.8125 C 46.125 -36.28125 41.035156 -39.109375 34.515625 -42.296875 C 30.265625 -44.691406 26.109375 -47.1875 22.046875 -49.78125 C 17.992188 -52.375 14.703125 -55.300781 12.171875 -58.5625 C 9.640625 -61.820312 8.375 -65.445312 8.375 -69.4375 C 8.375 -75.820312 11.332031 -81.34375 17.25 -86 C 23.175781 -90.65625 32.328125 -92.984375 44.703125 -92.984375 C 50.148438 -92.984375 55.535156 -92.414062 60.859375 -91.28125 C 66.179688 -90.15625 70.503906 -88.53125 73.828125 -86.40625 C 77.160156 -84.28125 78.359375 -81.550781 77.421875 -78.21875 L 72.234375 -59.46875 C 72.234375 -59.332031 71.734375 -59.265625 70.734375 -59.265625 C 69.742188 -59.265625 68.78125 -59.597656 67.84375 -60.265625 C 66.914062 -60.929688 66.453125 -62.0625 66.453125 -63.65625 C 67.515625 -71.632812 66.582031 -77.453125 63.65625 -81.109375 C 60.726562 -84.773438 54.539062 -86.609375 45.09375 -86.609375 C 40.175781 -86.609375 36.453125 -86.039062 33.921875 -84.90625 C 31.390625 -83.78125 29.691406 -82.316406 28.828125 -80.515625 C 27.960938 -78.722656 27.53125 -76.828125 27.53125 -74.828125 C 27.53125 -70.972656 29.691406 -67.515625 34.015625 -64.453125 C 38.347656 -61.390625 43.570312 -58.195312 49.6875 -54.875 C 58.195312 -50.488281 65.210938 -46.097656 70.734375 -41.703125 C 76.253906 -37.316406 79.015625 -31.664062 79.015625 -24.75 C 79.015625 -15.832031 75.359375 -8.976562 68.046875 -4.1875 C 60.734375 0.601562 50.957031 3 38.71875 3 C 32.195312 3 26.207031 2.164062 20.75 0.5 C 15.300781 -1.164062 11.046875 -3.359375 7.984375 -6.078125 C 4.921875 -8.804688 3.722656 -11.703125 4.390625 -14.765625 Z M 4.390625 -14.765625 "/></g></g></g><g fill="#a6a6a6" fill-opacity="1"><g transform="translate(384.015915, 163.502933)"><g><path d="M 60.265625 -45.5 L 9.78125 -45.5 C 8.71875 -45.5 7.984375 -45.960938 7.578125 -46.890625 C 7.179688 -47.828125 7.179688 -48.757812 7.578125 -49.6875 C 7.984375 -50.613281 8.71875 -51.078125 9.78125 -51.078125 L 60.265625 -51.078125 C 61.460938 -51.078125 62.226562 -50.613281 62.5625 -49.6875 C 62.894531 -48.757812 62.894531 -47.828125 62.5625 -46.890625 C 62.226562 -45.960938 61.460938 -45.5 60.265625 -45.5 Z M 60.265625 -45.5 "/></g></g></g><g fill="#a6a6a6" fill-opacity="1"><g transform="translate(449.668561, 163.502933)"><g><path d="M 19.75 0 C 18.425781 0 16.765625 0.0664062 14.765625 0.203125 C 12.765625 0.335938 11.171875 0.40625 9.984375 0.40625 C 9.847656 0.40625 9.710938 -0.320312 9.578125 -1.78125 C 9.441406 -3.25 10.503906 -4.253906 12.765625 -4.796875 C 16.628906 -5.585938 19.359375 -6.710938 20.953125 -8.171875 C 22.546875 -9.640625 23.34375 -13.164062 23.34375 -18.75 L 23.34375 -120.921875 C 23.34375 -126.515625 22.546875 -130.039062 20.953125 -131.5 C 19.359375 -132.96875 16.628906 -134.097656 12.765625 -134.890625 C 10.503906 -135.421875 9.441406 -136.414062 9.578125 -137.875 C 9.710938 -139.34375 9.847656 -140.078125 9.984375 -140.078125 C 11.171875 -140.078125 12.765625 -140.007812 14.765625 -139.875 C 16.765625 -139.75 18.425781 -139.6875 19.75 -139.6875 C 29.195312 -139.8125 38.078125 -140.007812 46.390625 -140.28125 C 54.703125 -140.550781 61.65625 -140.6875 67.25 -140.6875 C 77.625 -140.6875 86.203125 -139.285156 92.984375 -136.484375 C 99.773438 -133.691406 104.832031 -129.929688 108.15625 -125.203125 C 111.476562 -120.484375 113.140625 -115.265625 113.140625 -109.546875 C 113.140625 -100.503906 110.410156 -93.222656 104.953125 -87.703125 C 99.503906 -82.179688 91.789062 -78.890625 81.8125 -77.828125 C 90.195312 -77.160156 97.644531 -75.394531 104.15625 -72.53125 C 110.675781 -69.675781 115.765625 -65.65625 119.421875 -60.46875 C 123.085938 -55.28125 124.921875 -48.828125 124.921875 -41.109375 C 124.921875 -28.597656 120.03125 -18.484375 110.25 -10.765625 C 100.46875 -3.054688 86.203125 0.796875 67.453125 0.796875 C 60.265625 0.796875 52.878906 0.695312 45.296875 0.5 C 37.710938 0.300781 29.195312 0.132812 19.75 0 Z M 52.28125 -79.015625 L 64.859375 -80.015625 C 75.234375 -81.078125 82.414062 -83.703125 86.40625 -87.890625 C 90.394531 -92.085938 92.390625 -98.507812 92.390625 -107.15625 C 92.390625 -115.9375 89.828125 -122.65625 84.703125 -127.3125 C 79.585938 -131.96875 72.90625 -134.363281 64.65625 -134.5 L 49.28125 -134.890625 C 46.226562 -134.890625 44.332031 -134.257812 43.59375 -133 C 42.863281 -131.738281 42.5 -129.375 42.5 -125.90625 L 42.5 -14.375 C 42.5 -10.644531 42.929688 -8.144531 43.796875 -6.875 C 44.660156 -5.613281 46.820312 -4.984375 50.28125 -4.984375 L 64.65625 -4.984375 C 75.832031 -4.984375 84.941406 -7.910156 91.984375 -13.765625 C 99.035156 -19.617188 102.5625 -28.203125 102.5625 -39.515625 C 102.5625 -50.679688 99.566406 -59.09375 93.578125 -64.75 C 87.597656 -70.40625 77.890625 -73.363281 64.453125 -73.625 L 51.484375 -74.03125 C 50.953125 -74.03125 50.550781 -74.757812 50.28125 -76.21875 C 50.019531 -77.6875 50.6875 -78.617188 52.28125 -79.015625 Z M 52.28125 -79.015625 "/></g></g></g><g fill="#a6a6a6" fill-opacity="1"><g transform="translate(581.37298, 163.502933)"><g><path d="M 106.953125 -14.171875 C 107.222656 -14.566406 107.988281 -14.664062 109.25 -14.46875 C 110.507812 -14.269531 111.140625 -12.835938 111.140625 -10.171875 C 111.140625 -7.515625 109.773438 -4.753906 107.046875 -1.890625 C 104.328125 0.960938 100.238281 2.390625 94.78125 2.390625 C 90.257812 2.390625 86.46875 0.597656 83.40625 -2.984375 C 80.351562 -6.578125 78.828125 -12.234375 78.828125 -19.953125 L 78.828125 -20.546875 C 76.429688 -13.898438 72.503906 -8.3125 67.046875 -3.78125 C 61.585938 0.738281 54.9375 3 47.09375 3 C 37.382812 3 29.46875 -0.191406 23.34375 -6.578125 C 17.226562 -12.960938 14.171875 -22.742188 14.171875 -35.921875 L 14.171875 -68.25 C 14.171875 -70.90625 13.703125 -73 12.765625 -74.53125 C 11.835938 -76.0625 10.046875 -76.957031 7.390625 -77.21875 C 6.054688 -77.488281 5.222656 -78.085938 4.890625 -79.015625 C 4.554688 -79.953125 4.421875 -80.851562 4.484375 -81.71875 C 4.554688 -82.582031 4.59375 -83.015625 4.59375 -83.015625 C 10.570312 -84.078125 15.457031 -85.269531 19.25 -86.59375 C 23.039062 -87.925781 26.398438 -89.660156 29.328125 -91.796875 C 29.992188 -92.054688 30.925781 -91.988281 32.125 -91.59375 C 33.320312 -91.195312 33.851562 -90.664062 33.71875 -90 C 33.320312 -85.34375 32.957031 -81.25 32.625 -77.71875 C 32.289062 -74.195312 32.125 -69.910156 32.125 -64.859375 L 32.125 -36.921875 C 32.125 -26.804688 34.050781 -19.351562 37.90625 -14.5625 C 41.769531 -9.78125 47.160156 -7.390625 54.078125 -7.390625 C 61.660156 -7.390625 67.679688 -10.847656 72.140625 -17.765625 C 76.597656 -24.679688 78.828125 -33.457031 78.828125 -44.09375 L 78.828125 -68.25 C 78.828125 -70.90625 78.359375 -73 77.421875 -74.53125 C 76.492188 -76.0625 74.695312 -76.957031 72.03125 -77.21875 C 70.707031 -77.488281 69.878906 -78.085938 69.546875 -79.015625 C 69.210938 -79.953125 69.078125 -80.851562 69.140625 -81.71875 C 69.210938 -82.582031 69.25 -83.015625 69.25 -83.015625 C 75.226562 -84.078125 80.113281 -85.269531 83.90625 -86.59375 C 87.695312 -87.925781 91.054688 -89.660156 93.984375 -91.796875 C 94.648438 -92.054688 95.582031 -91.988281 96.78125 -91.59375 C 97.976562 -91.195312 98.578125 -90.664062 98.578125 -90 C 98.046875 -85.34375 97.613281 -81.25 97.28125 -77.71875 C 96.945312 -74.195312 96.78125 -69.910156 96.78125 -64.859375 L 96.78125 -22.953125 C 96.78125 -18.421875 97.175781 -15.15625 97.96875 -13.15625 C 98.769531 -11.164062 100.238281 -10.171875 102.375 -10.171875 C 103.695312 -10.171875 104.691406 -10.632812 105.359375 -11.5625 C 106.023438 -12.5 106.554688 -13.367188 106.953125 -14.171875 Z M 106.953125 -14.171875 "/></g></g></g><g fill="#a6a6a6" fill-opacity="1"><g transform="translate(696.514547, 163.502933)"><g><path d="M 25.546875 -109.953125 C 21.953125 -109.953125 19.085938 -110.878906 16.953125 -112.734375 C 14.828125 -114.597656 13.765625 -116.929688 13.765625 -119.734375 C 13.765625 -123.054688 15.0625 -125.75 17.65625 -127.8125 C 20.25 -129.875 23.539062 -130.90625 27.53125 -130.90625 C 30.988281 -130.90625 33.78125 -129.9375 35.90625 -128 C 38.039062 -126.070312 39.109375 -123.710938 39.109375 -120.921875 C 39.109375 -117.734375 37.84375 -115.109375 35.3125 -113.046875 C 32.789062 -110.984375 29.535156 -109.953125 25.546875 -109.953125 Z M 37.515625 -64.859375 L 37.515625 -18.75 C 37.515625 -13.96875 38.28125 -10.578125 39.8125 -8.578125 C 41.34375 -6.585938 43.4375 -5.457031 46.09375 -5.1875 C 47.957031 -5.050781 49.085938 -4.515625 49.484375 -3.578125 C 49.890625 -2.648438 49.957031 -1.753906 49.6875 -0.890625 C 49.414062 -0.0234375 49.148438 0.40625 48.890625 0.40625 C 42.640625 0 36.019531 -0.164062 29.03125 -0.09375 C 22.050781 -0.03125 15.035156 0.132812 7.984375 0.40625 C 7.847656 0.40625 7.644531 -0.0234375 7.375 -0.890625 C 7.113281 -1.753906 7.210938 -2.648438 7.671875 -3.578125 C 8.140625 -4.515625 9.304688 -5.050781 11.171875 -5.1875 C 13.960938 -5.457031 16.054688 -6.585938 17.453125 -8.578125 C 18.859375 -10.578125 19.5625 -14.035156 19.5625 -18.953125 L 19.5625 -68.25 C 19.5625 -70.90625 19.09375 -73 18.15625 -74.53125 C 17.226562 -76.0625 15.429688 -76.957031 12.765625 -77.21875 C 11.441406 -77.488281 10.613281 -78.085938 10.28125 -79.015625 C 9.945312 -79.953125 9.8125 -80.851562 9.875 -81.71875 C 9.945312 -82.582031 9.984375 -83.015625 9.984375 -83.015625 C 15.960938 -84.078125 20.847656 -85.269531 24.640625 -86.59375 C 28.429688 -87.925781 31.789062 -89.660156 34.71875 -91.796875 C 35.382812 -92.054688 36.316406 -91.988281 37.515625 -91.59375 C 38.710938 -91.195312 39.242188 -90.664062 39.109375 -90 C 38.710938 -85.34375 38.347656 -81.25 38.015625 -77.71875 C 37.679688 -74.195312 37.515625 -69.910156 37.515625 -64.859375 Z M 37.515625 -64.859375 "/></g></g></g><g fill="#a6a6a6" fill-opacity="1"><g transform="translate(753.586459, 163.502933)"><g><path d="M 35.71875 3 C 29.46875 3 24.578125 0.972656 21.046875 -3.078125 C 17.523438 -7.140625 15.765625 -13.164062 15.765625 -21.15625 L 15.765625 -77.421875 C 15.765625 -79.679688 15.597656 -81.410156 15.265625 -82.609375 C 14.929688 -83.804688 13.703125 -84.40625 11.578125 -84.40625 L 5.78125 -84.40625 C 4.457031 -84.40625 3.859375 -85.300781 3.984375 -87.09375 C 4.117188 -88.894531 5.382812 -89.925781 7.78125 -90.1875 C 11.101562 -90.59375 13.960938 -91.359375 16.359375 -92.484375 C 18.753906 -93.617188 20.882812 -95.582031 22.75 -98.375 C 24.613281 -101.164062 26.410156 -105.15625 28.140625 -110.34375 C 29.066406 -112.601562 30.660156 -113.734375 32.921875 -113.734375 C 33.984375 -113.734375 34.515625 -113.40625 34.515625 -112.75 C 34.648438 -109.820312 34.679688 -106.5625 34.609375 -102.96875 C 34.546875 -99.375 34.382812 -96.445312 34.125 -94.1875 C 33.988281 -91.394531 35.316406 -90 38.109375 -90 L 61.65625 -90 C 62.1875 -90 62.550781 -89.53125 62.75 -88.59375 C 62.957031 -87.664062 62.859375 -86.734375 62.453125 -85.796875 C 62.054688 -84.867188 61.191406 -84.40625 59.859375 -84.40625 L 39.515625 -84.40625 C 37.378906 -84.40625 35.878906 -84.003906 35.015625 -83.203125 C 34.148438 -82.410156 33.71875 -81.015625 33.71875 -79.015625 L 33.71875 -21.15625 C 33.71875 -15.695312 35.179688 -12.003906 38.109375 -10.078125 C 41.035156 -8.148438 44.523438 -7.882812 48.578125 -9.28125 C 52.640625 -10.675781 56.335938 -13.566406 59.671875 -17.953125 C 59.929688 -18.359375 60.425781 -18.257812 61.15625 -17.65625 C 61.894531 -17.0625 62.296875 -16.097656 62.359375 -14.765625 C 62.421875 -13.429688 61.523438 -11.632812 59.671875 -9.375 C 56.203125 -4.988281 52.40625 -1.832031 48.28125 0.09375 C 44.164062 2.03125 39.976562 3 35.71875 3 Z M 35.71875 3 "/></g></g></g><g fill="#a6a6a6" fill-opacity="1"><g transform="translate(819.43869, 163.502933)"><g><path d="M 64.65625 -92.984375 C 68.78125 -92.984375 72.503906 -92.117188 75.828125 -90.390625 C 79.148438 -88.660156 81.644531 -86.363281 83.3125 -83.5 C 84.976562 -80.644531 85.34375 -77.488281 84.40625 -74.03125 L 78.015625 -52.078125 C 78.015625 -51.816406 77.414062 -51.648438 76.21875 -51.578125 C 75.03125 -51.515625 73.867188 -51.816406 72.734375 -52.484375 C 71.597656 -53.148438 71.097656 -54.476562 71.234375 -56.46875 C 72.171875 -63.382812 72.171875 -68.640625 71.234375 -72.234375 C 70.304688 -75.828125 68.644531 -78.320312 66.25 -79.71875 C 63.851562 -81.113281 60.925781 -81.8125 57.46875 -81.8125 C 53.34375 -81.8125 49.945312 -80.414062 47.28125 -77.625 C 44.625 -74.832031 42.628906 -71.304688 41.296875 -67.046875 C 39.972656 -62.785156 39.046875 -58.328125 38.515625 -53.671875 C 37.984375 -49.015625 37.71875 -44.828125 37.71875 -41.109375 L 37.71875 -18.75 C 37.71875 -13.96875 38.476562 -10.578125 40 -8.578125 C 41.53125 -6.585938 43.628906 -5.457031 46.296875 -5.1875 C 48.160156 -5.050781 49.359375 -4.515625 49.890625 -3.578125 C 50.421875 -2.648438 50.550781 -1.753906 50.28125 -0.890625 C 50.019531 -0.0234375 49.625 0.40625 49.09375 0.40625 C 42.832031 0 36.242188 -0.164062 29.328125 -0.09375 C 22.410156 -0.03125 15.425781 0.132812 8.375 0.40625 C 7.976562 0.40625 7.644531 -0.0234375 7.375 -0.890625 C 7.113281 -1.753906 7.25 -2.648438 7.78125 -3.578125 C 8.3125 -4.515625 9.507812 -5.050781 11.375 -5.1875 C 14.300781 -5.457031 16.425781 -6.585938 17.75 -8.578125 C 19.082031 -10.578125 19.75 -14.035156 19.75 -18.953125 L 19.75 -68.25 C 19.75 -70.90625 19.285156 -73 18.359375 -74.53125 C 17.429688 -76.0625 15.632812 -76.957031 12.96875 -77.21875 C 11.632812 -77.488281 10.800781 -78.085938 10.46875 -79.015625 C 10.144531 -79.953125 10.046875 -80.851562 10.171875 -81.71875 C 10.304688 -82.582031 10.375 -83.015625 10.375 -83.015625 C 16.226562 -84.078125 21.050781 -85.269531 24.84375 -86.59375 C 28.632812 -87.925781 31.992188 -89.660156 34.921875 -91.796875 C 35.585938 -92.054688 36.519531 -91.988281 37.71875 -91.59375 C 38.914062 -91.195312 39.515625 -90.664062 39.515625 -90 C 39.109375 -86.269531 38.769531 -82.875 38.5 -79.8125 C 38.238281 -76.757812 37.976562 -73.503906 37.71875 -70.046875 C 39.039062 -73.765625 40.800781 -77.351562 43 -80.8125 C 45.195312 -84.269531 48.054688 -87.160156 51.578125 -89.484375 C 55.109375 -91.816406 59.46875 -92.984375 64.65625 -92.984375 Z M 64.65625 -92.984375 "/></g></g></g><g fill="#a6a6a6" fill-opacity="1"><g transform="translate(906.443448, 163.502933)"><g><path d="M 98.171875 -12.578125 C 98.441406 -12.578125 99.140625 -12.375 100.265625 -11.96875 C 101.398438 -11.570312 101.96875 -10.375 101.96875 -8.375 C 101.96875 -5.445312 100.570312 -2.921875 97.78125 -0.796875 C 94.988281 1.328125 91.59375 2.390625 87.59375 2.390625 C 77.488281 2.390625 71.835938 -4.191406 70.640625 -17.359375 L 70.234375 -20.546875 C 67.710938 -13.234375 63.65625 -7.515625 58.0625 -3.390625 C 52.476562 0.734375 46.359375 2.796875 39.703125 2.796875 C 32.253906 2.796875 26.101562 1.367188 21.25 -1.484375 C 16.394531 -4.347656 12.800781 -8.039062 10.46875 -12.5625 C 8.144531 -17.09375 6.984375 -21.6875 6.984375 -26.34375 C 6.984375 -35.789062 10.304688 -43.375 16.953125 -49.09375 C 23.609375 -54.8125 32.390625 -57.671875 43.296875 -57.671875 C 47.160156 -57.671875 51.253906 -57.40625 55.578125 -56.875 C 59.898438 -56.34375 63.65625 -55.742188 66.84375 -55.078125 L 66.453125 -59.859375 C 65.648438 -69.304688 63.019531 -75.925781 58.5625 -79.71875 C 54.101562 -83.507812 48.351562 -85.40625 41.3125 -85.40625 C 35.582031 -85.40625 30.554688 -84.441406 26.234375 -82.515625 C 21.910156 -80.585938 18.019531 -77.894531 14.5625 -74.4375 C 14.5625 -74.4375 14.160156 -74.664062 13.359375 -75.125 C 12.566406 -75.59375 12.035156 -76.328125 11.765625 -77.328125 C 11.503906 -78.328125 12.101562 -79.488281 13.5625 -80.8125 C 16.757812 -84.269531 21.285156 -87.160156 27.140625 -89.484375 C 32.992188 -91.816406 39.773438 -92.984375 47.484375 -92.984375 C 54.003906 -92.984375 59.925781 -91.953125 65.25 -89.890625 C 70.570312 -87.828125 74.960938 -84.269531 78.421875 -79.21875 C 81.878906 -74.164062 84.007812 -67.179688 84.8125 -58.265625 L 88.59375 -19.15625 C 88.863281 -15.425781 89.460938 -12.863281 90.390625 -11.46875 C 91.328125 -10.070312 92.457031 -9.375 93.78125 -9.375 C 96.175781 -9.375 97.640625 -10.441406 98.171875 -12.578125 Z M 68.84375 -34.921875 L 68.84375 -35.71875 L 67.640625 -48.09375 C 64.453125 -48.757812 60.828125 -49.390625 56.765625 -49.984375 C 52.710938 -50.585938 49.488281 -50.890625 47.09375 -50.890625 C 31.394531 -50.890625 23.546875 -44.101562 23.546875 -30.53125 C 23.546875 -25.207031 25.503906 -20.382812 29.421875 -16.0625 C 33.347656 -11.738281 39.101562 -9.578125 46.6875 -9.578125 C 50.414062 -9.578125 53.972656 -10.609375 57.359375 -12.671875 C 60.753906 -14.734375 63.515625 -17.691406 65.640625 -21.546875 C 67.773438 -25.410156 68.84375 -29.867188 68.84375 -34.921875 Z M 68.84375 -34.921875 "/></g></g></g><g fill="#a6a6a6" fill-opacity="1"><g transform="translate(1012.405663, 163.502933)"><g><path d="M 100.765625 -91.390625 C 101.296875 -91.523438 101.726562 -91.160156 102.0625 -90.296875 C 102.394531 -89.429688 102.394531 -88.53125 102.0625 -87.59375 C 101.726562 -86.664062 100.695312 -86.132812 98.96875 -86 C 90.726562 -85.070312 86.671875 -83.675781 86.796875 -81.8125 C 90.390625 -78.488281 93.179688 -74.664062 95.171875 -70.34375 C 97.171875 -66.019531 98.171875 -61.328125 98.171875 -56.265625 C 98.171875 -47.890625 95.609375 -40.441406 90.484375 -33.921875 C 85.367188 -27.398438 78.554688 -22.613281 70.046875 -19.5625 C 78.691406 -17.695312 85.640625 -14.101562 90.890625 -8.78125 C 96.148438 -3.457031 98.78125 3.328125 98.78125 11.578125 C 98.78125 17.828125 96.75 23.3125 92.6875 28.03125 C 88.632812 32.757812 83.113281 36.421875 76.125 39.015625 C 69.144531 41.609375 61.195312 42.90625 52.28125 42.90625 C 43.238281 42.90625 35.421875 41.375 28.828125 38.3125 C 22.242188 35.25 17.222656 31.253906 13.765625 26.328125 C 10.304688 21.410156 8.710938 16.226562 8.984375 10.78125 C 9.109375 7.1875 10.367188 3.691406 12.765625 0.296875 C 15.160156 -3.097656 18.820312 -6.054688 23.75 -8.578125 C 24.8125 -8.847656 25.707031 -8.71875 26.4375 -8.1875 C 27.164062 -7.65625 27.332031 -6.65625 26.9375 -5.1875 C 26.132812 -3.59375 25.566406 -1.960938 25.234375 -0.296875 C 24.910156 1.359375 24.75 3.054688 24.75 4.796875 C 24.875 9.710938 26.367188 14.566406 29.234375 19.359375 C 32.097656 24.148438 35.890625 28.109375 40.609375 31.234375 C 45.328125 34.359375 50.484375 35.921875 56.078125 35.921875 C 63.390625 35.921875 69.273438 34.125 73.734375 30.53125 C 78.191406 26.9375 80.421875 22.476562 80.421875 17.15625 C 80.421875 10.90625 79.019531 5.25 76.21875 0.1875 C 73.425781 -4.863281 69.734375 -8.882812 65.140625 -11.875 C 60.554688 -14.863281 55.539062 -16.359375 50.09375 -16.359375 L 49.6875 -16.359375 C 41.832031 -16.628906 34.8125 -18.457031 28.625 -21.84375 C 22.445312 -25.238281 17.5625 -29.695312 13.96875 -35.21875 C 10.375 -40.738281 8.578125 -46.757812 8.578125 -53.28125 C 8.578125 -61 10.570312 -67.847656 14.5625 -73.828125 C 18.550781 -79.816406 24.070312 -84.503906 31.125 -87.890625 C 38.175781 -91.285156 46.226562 -92.984375 55.28125 -92.984375 C 61.125 -92.984375 66.078125 -92.515625 70.140625 -91.578125 C 74.203125 -90.648438 78.492188 -90.1875 83.015625 -90.1875 C 85.535156 -90.1875 88.59375 -90.351562 92.1875 -90.6875 C 95.78125 -91.019531 98.640625 -91.253906 100.765625 -91.390625 Z M 56.46875 -23.546875 C 63.789062 -23.546875 69.742188 -25.835938 74.328125 -30.421875 C 78.921875 -35.015625 81.21875 -40.835938 81.21875 -47.890625 C 81.21875 -52.273438 80.414062 -56.695312 78.8125 -61.15625 C 77.21875 -65.613281 74.988281 -69.703125 72.125 -73.421875 C 69.269531 -77.148438 66.015625 -80.144531 62.359375 -82.40625 C 58.703125 -84.675781 54.742188 -85.8125 50.484375 -85.8125 C 42.765625 -85.8125 36.707031 -83.582031 32.3125 -79.125 C 27.925781 -74.664062 25.734375 -68.773438 25.734375 -61.453125 C 25.734375 -55.734375 27.0625 -49.945312 29.71875 -44.09375 C 32.382812 -38.238281 36.046875 -33.347656 40.703125 -29.421875 C 45.359375 -25.503906 50.613281 -23.546875 56.46875 -23.546875 Z M 56.46875 -23.546875 "/></g></g></g><g fill="#a6a6a6" fill-opacity="1"><g transform="translate(1121.959766, 163.502933)"><g><path d="M 53.875 3 C 44.695312 3 36.582031 1.070312 29.53125 -2.78125 C 22.476562 -6.644531 16.988281 -12.066406 13.0625 -19.046875 C 9.144531 -26.035156 7.1875 -34.117188 7.1875 -43.296875 C 7.1875 -53.546875 9.515625 -62.359375 14.171875 -69.734375 C 18.828125 -77.117188 25.007812 -82.835938 32.71875 -86.890625 C 40.4375 -90.953125 48.882812 -92.984375 58.0625 -92.984375 C 67.90625 -92.984375 76.484375 -90.953125 83.796875 -86.890625 C 91.117188 -82.835938 96.773438 -77.351562 100.765625 -70.4375 C 104.753906 -63.519531 106.75 -55.671875 106.75 -46.890625 C 106.75 -36.785156 104.488281 -28.003906 99.96875 -20.546875 C 95.445312 -13.097656 89.226562 -7.3125 81.3125 -3.1875 C 73.394531 0.9375 64.25 3 53.875 3 Z M 61.859375 -4.984375 C 70.898438 -4.984375 77.847656 -7.742188 82.703125 -13.265625 C 87.566406 -18.785156 90.0625 -26.003906 90.1875 -34.921875 C 90.457031 -40.503906 89.691406 -46.222656 87.890625 -52.078125 C 86.097656 -57.929688 83.503906 -63.382812 80.109375 -68.4375 C 76.722656 -73.5 72.734375 -77.554688 68.140625 -80.609375 C 63.554688 -83.671875 58.535156 -85.203125 53.078125 -85.203125 C 43.503906 -85.203125 36.285156 -82.273438 31.421875 -76.421875 C 26.566406 -70.566406 24.078125 -63.519531 23.953125 -55.28125 C 23.546875 -49.019531 24.238281 -42.894531 26.03125 -36.90625 C 27.832031 -30.925781 30.460938 -25.539062 33.921875 -20.75 C 37.378906 -15.957031 41.46875 -12.128906 46.1875 -9.265625 C 50.914062 -6.410156 56.140625 -4.984375 61.859375 -4.984375 Z M 61.859375 -4.984375 "/></g></g></g><g fill="#a6a6a6" fill-opacity="1"><g transform="translate(1235.904097, 163.502933)"><g><path d="M 10.96875 27.140625 C 9.644531 27.273438 8.914062 26.773438 8.78125 25.640625 C 8.644531 24.515625 8.84375 23.816406 9.375 23.546875 C 14.03125 20.890625 17.253906 17.863281 19.046875 14.46875 C 20.847656 11.070312 21.679688 7.78125 21.546875 4.59375 C 21.546875 2.988281 20.847656 1.921875 19.453125 1.390625 C 18.054688 0.859375 16.492188 0.363281 14.765625 -0.09375 C 13.035156 -0.5625 11.503906 -1.328125 10.171875 -2.390625 C 8.847656 -3.453125 8.1875 -5.382812 8.1875 -8.1875 C 8.1875 -11.113281 9.316406 -13.90625 11.578125 -16.5625 C 13.835938 -19.21875 17.160156 -20.546875 21.546875 -20.546875 C 25.410156 -20.546875 28.304688 -19.378906 30.234375 -17.046875 C 32.160156 -14.722656 33.125 -11.769531 33.125 -8.1875 C 33.125 -2.59375 32.023438 2.628906 29.828125 7.484375 C 27.640625 12.335938 24.878906 16.457031 21.546875 19.84375 C 18.222656 23.238281 14.695312 25.671875 10.96875 27.140625 Z M 10.96875 27.140625 "/></g></g></g><g fill="#a6a6a6" fill-opacity="1"><g transform="translate(1276.413159, 163.502933)"><g/></g></g><g fill="#a6a6a6" fill-opacity="1"><g transform="translate(1321.511943, 163.502933)"><g><path d="M 63.859375 -58.0625 L 51.484375 -58.46875 C 50.554688 -59.53125 50.125 -60.660156 50.1875 -61.859375 C 50.25 -63.054688 50.945312 -63.722656 52.28125 -63.859375 L 63.0625 -63.65625 C 88.195312 -63.519531 100.765625 -74.757812 100.765625 -97.375 C 100.765625 -104.5625 99.300781 -110.945312 96.375 -116.53125 C 93.445312 -122.125 89.320312 -126.546875 84 -129.796875 C 78.6875 -133.054688 72.304688 -134.6875 64.859375 -134.6875 L 49.09375 -134.890625 C 46.425781 -134.890625 44.660156 -134.421875 43.796875 -133.484375 C 42.929688 -132.554688 42.5 -130.5 42.5 -127.3125 L 42.5 -18.75 C 42.5 -13.164062 43.53125 -9.640625 45.59375 -8.171875 C 47.65625 -6.710938 51.148438 -5.585938 56.078125 -4.796875 C 58.203125 -4.390625 59.492188 -3.785156 59.953125 -2.984375 C 60.421875 -2.191406 60.554688 -1.425781 60.359375 -0.6875 C 60.160156 0.0390625 59.992188 0.40625 59.859375 0.40625 C 58.265625 0.40625 56.238281 0.335938 53.78125 0.203125 C 51.320312 0.0664062 49.160156 0 47.296875 0 L 19.75 0 C 18.425781 0 16.796875 0.0664062 14.859375 0.203125 C 12.929688 0.335938 11.304688 0.40625 9.984375 0.40625 C 9.847656 0.40625 9.710938 -0.320312 9.578125 -1.78125 C 9.441406 -3.25 10.570312 -4.253906 12.96875 -4.796875 C 16.695312 -5.585938 19.359375 -6.710938 20.953125 -8.171875 C 22.546875 -9.640625 23.34375 -13.164062 23.34375 -18.75 L 23.34375 -120.921875 C 23.34375 -126.515625 22.546875 -130.039062 20.953125 -131.5 C 19.359375 -132.96875 16.628906 -134.097656 12.765625 -134.890625 C 10.503906 -135.421875 9.441406 -136.414062 9.578125 -137.875 C 9.710938 -139.34375 9.847656 -140.078125 9.984375 -140.078125 C 11.171875 -140.078125 12.765625 -140.007812 14.765625 -139.875 C 16.765625 -139.75 18.425781 -139.6875 19.75 -139.6875 C 29.332031 -139.8125 37.976562 -139.972656 45.6875 -140.171875 C 53.40625 -140.378906 60.859375 -140.484375 68.046875 -140.484375 C 85.078125 -140.484375 98.25 -136.789062 107.5625 -129.40625 C 116.875 -122.019531 121.53125 -111.742188 121.53125 -98.578125 C 121.53125 -90.191406 119.53125 -82.835938 115.53125 -76.515625 C 111.539062 -70.203125 105.320312 -65.382812 96.875 -62.0625 C 88.425781 -58.738281 77.421875 -57.40625 63.859375 -58.0625 Z M 63.859375 -58.0625 "/></g></g></g><g fill="#a6a6a6" fill-opacity="1"><g transform="translate(1448.826177, 163.502933)"><g><path d="M 19.15625 2 C 15.96875 2 13.34375 1.132812 11.28125 -0.59375 C 9.21875 -2.320312 8.1875 -4.648438 8.1875 -7.578125 C 8.1875 -10.773438 9.347656 -13.734375 11.671875 -16.453125 C 14.003906 -19.179688 17.628906 -20.546875 22.546875 -20.546875 C 25.335938 -20.546875 27.664062 -19.582031 29.53125 -17.65625 C 31.394531 -15.726562 32.328125 -13.171875 32.328125 -9.984375 C 32.328125 -6.390625 30.929688 -3.492188 28.140625 -1.296875 C 25.347656 0.898438 22.351562 2 19.15625 2 Z M 19.15625 2 "/></g></g></g></svg>