<svg xmlns="http://www.w3.org/2000/svg" xmlns:xlink="http://www.w3.org/1999/xlink" width="1080" zoomAndPan="magnify" viewBox="0 0 810 225" height="300" preserveAspectRatio="xMidYMid meet" version="1.0"><defs><g/></defs><g fill="#737373" fill-opacity="1"><g transform="translate(-0.000000000000085265, 153.354394)"><g><path d="M 10.671875 0 L 10.671875 -85.09375 L 45.90625 -85.09375 C 49.582031 -85.09375 52.957031 -84.332031 56.03125 -82.8125 C 59.113281 -81.300781 61.769531 -79.242188 64 -76.640625 C 66.238281 -74.046875 68 -71.171875 69.28125 -68.015625 C 70.5625 -64.859375 71.203125 -61.644531 71.203125 -58.375 C 71.203125 -53.738281 70.179688 -49.363281 68.140625 -45.25 C 66.097656 -41.132812 63.238281 -37.796875 59.5625 -35.234375 C 55.894531 -32.679688 51.582031 -31.40625 46.625 -31.40625 L 19.0625 -31.40625 L 19.0625 0 Z M 19.0625 -38.828125 L 46.265625 -38.828125 C 49.617188 -38.828125 52.535156 -39.742188 55.015625 -41.578125 C 57.492188 -43.421875 59.410156 -45.820312 60.765625 -48.78125 C 62.128906 -51.738281 62.8125 -54.9375 62.8125 -58.375 C 62.8125 -61.882812 62.007812 -65.117188 60.40625 -68.078125 C 58.8125 -71.035156 56.710938 -73.375 54.109375 -75.09375 C 51.515625 -76.8125 48.660156 -77.671875 45.546875 -77.671875 L 19.0625 -77.671875 Z M 19.0625 -38.828125 "/></g></g></g><g fill="#737373" fill-opacity="1"><g transform="translate(74.55047, 153.354394)"><g><path d="M 86.0625 0 L 86.0625 -69.28125 L 55.25 -15.46875 L 49.984375 -15.46875 L 19.0625 -69.28125 L 19.0625 0 L 10.671875 0 L 10.671875 -85.09375 L 19.296875 -85.09375 L 52.5 -26.84375 L 85.9375 -85.09375 L 94.453125 -85.09375 L 94.453125 0 Z M 86.0625 0 "/></g></g></g><g fill="#737373" fill-opacity="1"><g transform="translate(179.664227, 153.354394)"><g><path d="M 74.671875 -21.9375 C 74.671875 -17.695312 73.59375 -13.921875 71.4375 -10.609375 C 69.28125 -7.296875 66.382812 -4.695312 62.75 -2.8125 C 59.113281 -0.9375 55.140625 0 50.828125 0 L 10.671875 0 L 10.671875 -85.09375 L 51.65625 -85.09375 C 55.65625 -85.09375 59.113281 -84.035156 62.03125 -81.921875 C 64.945312 -79.804688 67.179688 -77.085938 68.734375 -73.765625 C 70.296875 -70.453125 71.078125 -67 71.078125 -63.40625 C 71.078125 -59.164062 70 -55.25 67.84375 -51.65625 C 65.6875 -48.0625 62.6875 -45.382812 58.84375 -43.625 C 63.71875 -42.1875 67.570312 -39.507812 70.40625 -35.59375 C 73.25 -31.675781 74.671875 -27.125 74.671875 -21.9375 Z M 66.28125 -23.375 C 66.28125 -26.25 65.640625 -28.90625 64.359375 -31.34375 C 63.085938 -33.78125 61.351562 -35.753906 59.15625 -37.265625 C 56.957031 -38.785156 54.457031 -39.546875 51.65625 -39.546875 L 19.0625 -39.546875 L 19.0625 -7.3125 L 50.828125 -7.3125 C 53.703125 -7.3125 56.296875 -8.066406 58.609375 -9.578125 C 60.929688 -11.097656 62.789062 -13.078125 64.1875 -15.515625 C 65.582031 -17.953125 66.28125 -20.570312 66.28125 -23.375 Z M 19.0625 -77.78125 L 19.0625 -46.390625 L 48.296875 -46.390625 C 51.097656 -46.390625 53.578125 -47.128906 55.734375 -48.609375 C 57.890625 -50.085938 59.609375 -52.023438 60.890625 -54.421875 C 62.171875 -56.816406 62.8125 -59.375 62.8125 -62.09375 C 62.8125 -64.96875 62.207031 -67.582031 61 -69.9375 C 59.800781 -72.289062 58.164062 -74.1875 56.09375 -75.625 C 54.019531 -77.0625 51.660156 -77.78125 49.015625 -77.78125 Z M 19.0625 -77.78125 "/></g></g></g><g fill="#737373" fill-opacity="1"><g transform="translate(259.488363, 153.354394)"><g/></g></g><g fill="#737373" fill-opacity="1"><g transform="translate(290.051651, 153.354394)"><g><path d="M 10.671875 0 L 10.671875 -85.09375 L 46.625 -85.09375 C 50.300781 -85.09375 53.65625 -84.332031 56.6875 -82.8125 C 59.726562 -81.300781 62.382812 -79.242188 64.65625 -76.640625 C 66.9375 -74.046875 68.695312 -71.171875 69.9375 -68.015625 C 71.175781 -64.859375 71.796875 -61.644531 71.796875 -58.375 C 71.796875 -54.300781 71.015625 -50.460938 69.453125 -46.859375 C 67.898438 -43.265625 65.703125 -40.226562 62.859375 -37.75 C 60.023438 -35.28125 56.691406 -33.644531 52.859375 -32.84375 L 73.71875 0 L 64.25 0 L 44.234375 -31.40625 L 19.0625 -31.40625 L 19.0625 0 Z M 19.0625 -38.828125 L 46.859375 -38.828125 C 50.222656 -38.828125 53.140625 -39.742188 55.609375 -41.578125 C 58.085938 -43.421875 60.003906 -45.84375 61.359375 -48.84375 C 62.722656 -51.84375 63.40625 -55.019531 63.40625 -58.375 C 63.40625 -61.8125 62.625 -64.988281 61.0625 -67.90625 C 59.507812 -70.820312 57.429688 -73.175781 54.828125 -74.96875 C 52.234375 -76.769531 49.335938 -77.671875 46.140625 -77.671875 L 19.0625 -77.671875 Z M 19.0625 -38.828125 "/></g></g></g><g fill="#737373" fill-opacity="1"><g transform="translate(368.317635, 153.354394)"><g><path d="M 35.953125 1.203125 C 31.484375 1.203125 27.328125 0.34375 23.484375 -1.375 C 19.648438 -3.09375 16.332031 -5.445312 13.53125 -8.4375 C 10.738281 -11.4375 8.5625 -14.894531 7 -18.8125 C 5.445312 -22.726562 4.671875 -26.925781 4.671875 -31.40625 C 4.671875 -37.238281 6.007812 -42.59375 8.6875 -47.46875 C 11.363281 -52.34375 15.054688 -56.238281 19.765625 -59.15625 C 24.484375 -62.070312 29.84375 -63.53125 35.84375 -63.53125 C 41.988281 -63.53125 47.359375 -62.050781 51.953125 -59.09375 C 56.546875 -56.132812 60.160156 -52.238281 62.796875 -47.40625 C 65.441406 -42.570312 66.765625 -37.273438 66.765625 -31.515625 C 66.765625 -30.878906 66.765625 -30.257812 66.765625 -29.65625 C 66.765625 -29.0625 66.722656 -28.601562 66.640625 -28.28125 L 13.1875 -28.28125 C 13.582031 -23.8125 14.835938 -19.835938 16.953125 -16.359375 C 19.078125 -12.878906 21.835938 -10.117188 25.234375 -8.078125 C 28.628906 -6.046875 32.320312 -5.03125 36.3125 -5.03125 C 40.394531 -5.03125 44.253906 -6.066406 47.890625 -8.140625 C 51.523438 -10.222656 54.0625 -12.941406 55.5 -16.296875 L 62.5625 -14.390625 C 61.289062 -11.429688 59.332031 -8.75 56.6875 -6.34375 C 54.050781 -3.945312 50.957031 -2.085938 47.40625 -0.765625 C 43.851562 0.546875 40.035156 1.203125 35.953125 1.203125 Z M 12.9375 -34.15625 L 59.09375 -34.15625 C 58.769531 -38.707031 57.550781 -42.703125 55.4375 -46.140625 C 53.320312 -49.578125 50.566406 -52.273438 47.171875 -54.234375 C 43.773438 -56.191406 40.035156 -57.171875 35.953125 -57.171875 C 31.878906 -57.171875 28.164062 -56.191406 24.8125 -54.234375 C 21.457031 -52.273438 18.71875 -49.554688 16.59375 -46.078125 C 14.476562 -42.609375 13.257812 -38.632812 12.9375 -34.15625 Z M 12.9375 -34.15625 "/></g></g></g><g fill="#737373" fill-opacity="1"><g transform="translate(438.673113, 153.354394)"><g><path d="M 29.484375 1.203125 C 24.367188 1.203125 19.613281 0.363281 15.21875 -1.3125 C 10.820312 -2.988281 7.023438 -5.546875 3.828125 -8.984375 L 7.1875 -14.75 C 10.707031 -11.46875 14.242188 -9.085938 17.796875 -7.609375 C 21.359375 -6.128906 25.132812 -5.390625 29.125 -5.390625 C 34 -5.390625 37.953125 -6.367188 40.984375 -8.328125 C 44.023438 -10.285156 45.546875 -13.101562 45.546875 -16.78125 C 45.546875 -19.257812 44.804688 -21.15625 43.328125 -22.46875 C 41.847656 -23.789062 39.726562 -24.867188 36.96875 -25.703125 C 34.21875 -26.546875 30.925781 -27.445312 27.09375 -28.40625 C 22.769531 -29.601562 19.148438 -30.859375 16.234375 -32.171875 C 13.316406 -33.492188 11.117188 -35.171875 9.640625 -37.203125 C 8.171875 -39.242188 7.4375 -41.90625 7.4375 -45.1875 C 7.4375 -49.257812 8.453125 -52.632812 10.484375 -55.3125 C 12.523438 -57.988281 15.320312 -60.023438 18.875 -61.421875 C 22.4375 -62.828125 26.410156 -63.53125 30.796875 -63.53125 C 35.597656 -63.53125 39.832031 -62.769531 43.5 -61.25 C 47.175781 -59.726562 50.175781 -57.609375 52.5 -54.890625 L 48.546875 -49.375 C 46.304688 -51.9375 43.644531 -53.835938 40.5625 -55.078125 C 37.488281 -56.316406 34.078125 -56.9375 30.328125 -56.9375 C 27.765625 -56.9375 25.320312 -56.59375 23 -55.90625 C 20.6875 -55.226562 18.789062 -54.109375 17.3125 -52.546875 C 15.84375 -50.992188 15.109375 -48.859375 15.109375 -46.140625 C 15.109375 -43.910156 15.664062 -42.175781 16.78125 -40.9375 C 17.894531 -39.695312 19.570312 -38.65625 21.8125 -37.8125 C 24.050781 -36.976562 26.804688 -36.082031 30.078125 -35.125 C 34.796875 -33.84375 38.910156 -32.539062 42.421875 -31.21875 C 45.941406 -29.90625 48.660156 -28.207031 50.578125 -26.125 C 52.492188 -24.050781 53.453125 -21.132812 53.453125 -17.375 C 53.453125 -11.539062 51.253906 -6.984375 46.859375 -3.703125 C 42.460938 -0.429688 36.671875 1.203125 29.484375 1.203125 Z M 29.484375 1.203125 "/></g></g></g><g fill="#737373" fill-opacity="1"><g transform="translate(496.563597, 153.354394)"><g><path d="M 35.953125 1.203125 C 31.484375 1.203125 27.328125 0.34375 23.484375 -1.375 C 19.648438 -3.09375 16.332031 -5.445312 13.53125 -8.4375 C 10.738281 -11.4375 8.5625 -14.894531 7 -18.8125 C 5.445312 -22.726562 4.671875 -26.925781 4.671875 -31.40625 C 4.671875 -37.238281 6.007812 -42.59375 8.6875 -47.46875 C 11.363281 -52.34375 15.054688 -56.238281 19.765625 -59.15625 C 24.484375 -62.070312 29.84375 -63.53125 35.84375 -63.53125 C 41.988281 -63.53125 47.359375 -62.050781 51.953125 -59.09375 C 56.546875 -56.132812 60.160156 -52.238281 62.796875 -47.40625 C 65.441406 -42.570312 66.765625 -37.273438 66.765625 -31.515625 C 66.765625 -30.878906 66.765625 -30.257812 66.765625 -29.65625 C 66.765625 -29.0625 66.722656 -28.601562 66.640625 -28.28125 L 13.1875 -28.28125 C 13.582031 -23.8125 14.835938 -19.835938 16.953125 -16.359375 C 19.078125 -12.878906 21.835938 -10.117188 25.234375 -8.078125 C 28.628906 -6.046875 32.320312 -5.03125 36.3125 -5.03125 C 40.394531 -5.03125 44.253906 -6.066406 47.890625 -8.140625 C 51.523438 -10.222656 54.0625 -12.941406 55.5 -16.296875 L 62.5625 -14.390625 C 61.289062 -11.429688 59.332031 -8.75 56.6875 -6.34375 C 54.050781 -3.945312 50.957031 -2.085938 47.40625 -0.765625 C 43.851562 0.546875 40.035156 1.203125 35.953125 1.203125 Z M 12.9375 -34.15625 L 59.09375 -34.15625 C 58.769531 -38.707031 57.550781 -42.703125 55.4375 -46.140625 C 53.320312 -49.578125 50.566406 -52.273438 47.171875 -54.234375 C 43.773438 -56.191406 40.035156 -57.171875 35.953125 -57.171875 C 31.878906 -57.171875 28.164062 -56.191406 24.8125 -54.234375 C 21.457031 -52.273438 18.71875 -49.554688 16.59375 -46.078125 C 14.476562 -42.609375 13.257812 -38.632812 12.9375 -34.15625 Z M 12.9375 -34.15625 "/></g></g></g><g fill="#737373" fill-opacity="1"><g transform="translate(566.919074, 153.354394)"><g><path d="M 3.953125 -17.984375 C 3.953125 -21.898438 5.070312 -25.273438 7.3125 -28.109375 C 9.550781 -30.941406 12.644531 -33.132812 16.59375 -34.6875 C 20.550781 -36.25 25.128906 -37.03125 30.328125 -37.03125 C 33.359375 -37.03125 36.507812 -36.789062 39.78125 -36.3125 C 43.0625 -35.832031 45.984375 -35.113281 48.546875 -34.15625 L 48.546875 -39.4375 C 48.546875 -44.707031 46.984375 -48.898438 43.859375 -52.015625 C 40.742188 -55.128906 36.429688 -56.6875 30.921875 -56.6875 C 27.566406 -56.6875 24.269531 -56.066406 21.03125 -54.828125 C 17.800781 -53.597656 14.425781 -51.78125 10.90625 -49.375 L 7.796875 -55.140625 C 11.867188 -57.929688 15.863281 -60.023438 19.78125 -61.421875 C 23.695312 -62.828125 27.691406 -63.53125 31.765625 -63.53125 C 39.429688 -63.53125 45.5 -61.332031 49.96875 -56.9375 C 54.445312 -52.539062 56.6875 -46.46875 56.6875 -38.71875 L 56.6875 -9.828125 C 56.6875 -8.710938 56.925781 -7.894531 57.40625 -7.375 C 57.882812 -6.851562 58.644531 -6.550781 59.6875 -6.46875 L 59.6875 0 C 58.8125 0.0820312 58.050781 0.160156 57.40625 0.234375 C 56.769531 0.316406 56.289062 0.316406 55.96875 0.234375 C 53.976562 0.160156 52.460938 -0.472656 51.421875 -1.671875 C 50.378906 -2.867188 49.816406 -4.148438 49.734375 -5.515625 L 49.625 -10.0625 C 46.820312 -6.46875 43.179688 -3.691406 38.703125 -1.734375 C 34.234375 0.222656 29.679688 1.203125 25.046875 1.203125 C 21.054688 1.203125 17.441406 0.34375 14.203125 -1.375 C 10.960938 -3.09375 8.441406 -5.410156 6.640625 -8.328125 C 4.847656 -11.242188 3.953125 -14.460938 3.953125 -17.984375 Z M 45.78125 -13.1875 C 46.664062 -14.300781 47.347656 -15.378906 47.828125 -16.421875 C 48.304688 -17.460938 48.546875 -18.378906 48.546875 -19.171875 L 48.546875 -28.28125 C 45.828125 -29.320312 43.007812 -30.117188 40.09375 -30.671875 C 37.175781 -31.234375 34.238281 -31.515625 31.28125 -31.515625 C 25.445312 -31.515625 20.734375 -30.359375 17.140625 -28.046875 C 13.546875 -25.734375 11.75 -22.578125 11.75 -18.578125 C 11.75 -16.265625 12.347656 -14.085938 13.546875 -12.046875 C 14.742188 -10.003906 16.5 -8.320312 18.8125 -7 C 21.132812 -5.6875 23.851562 -5.03125 26.96875 -5.03125 C 30.882812 -5.03125 34.539062 -5.789062 37.9375 -7.3125 C 41.332031 -8.832031 43.945312 -10.789062 45.78125 -13.1875 Z M 45.78125 -13.1875 "/></g></g></g><g fill="#737373" fill-opacity="1"><g transform="translate(632.240624, 153.354394)"><g><path d="M 40.15625 -55.25 C 34.71875 -55.09375 29.941406 -53.578125 25.828125 -50.703125 C 21.710938 -47.828125 18.816406 -43.867188 17.140625 -38.828125 L 17.140625 0 L 8.984375 0 L 8.984375 -62.453125 L 16.65625 -62.453125 L 16.65625 -47.46875 C 18.8125 -51.863281 21.664062 -55.414062 25.21875 -58.125 C 28.78125 -60.84375 32.5625 -62.363281 36.5625 -62.6875 C 37.351562 -62.769531 38.046875 -62.8125 38.640625 -62.8125 C 39.242188 -62.8125 39.75 -62.769531 40.15625 -62.6875 Z M 40.15625 -55.25 "/></g></g></g><g fill="#737373" fill-opacity="1"><g transform="translate(674.310092, 153.354394)"><g><path d="M 36.078125 1.203125 C 31.523438 1.203125 27.347656 0.34375 23.546875 -1.375 C 19.753906 -3.09375 16.4375 -5.46875 13.59375 -8.5 C 10.757812 -11.539062 8.5625 -15.019531 7 -18.9375 C 5.445312 -22.851562 4.671875 -27.007812 4.671875 -31.40625 C 4.671875 -37.3125 5.988281 -42.703125 8.625 -47.578125 C 11.257812 -52.453125 14.9375 -56.328125 19.65625 -59.203125 C 24.375 -62.085938 29.804688 -63.53125 35.953125 -63.53125 C 41.785156 -63.53125 46.9375 -62.191406 51.40625 -59.515625 C 55.882812 -56.835938 59.207031 -53.21875 61.375 -48.65625 L 53.453125 -46.140625 C 51.703125 -49.335938 49.242188 -51.832031 46.078125 -53.625 C 42.921875 -55.425781 39.425781 -56.328125 35.59375 -56.328125 C 31.4375 -56.328125 27.640625 -55.25 24.203125 -53.09375 C 20.773438 -50.9375 18.039062 -47.976562 16 -44.21875 C 13.957031 -40.46875 12.9375 -36.195312 12.9375 -31.40625 C 12.9375 -26.6875 13.972656 -22.410156 16.046875 -18.578125 C 18.128906 -14.742188 20.890625 -11.6875 24.328125 -9.40625 C 27.765625 -7.132812 31.5625 -6 35.71875 -6 C 38.4375 -6 41.050781 -6.476562 43.5625 -7.4375 C 46.082031 -8.394531 48.28125 -9.691406 50.15625 -11.328125 C 52.039062 -12.960938 53.300781 -14.738281 53.9375 -16.65625 L 61.96875 -14.265625 C 60.851562 -11.304688 58.992188 -8.644531 56.390625 -6.28125 C 53.796875 -3.925781 50.757812 -2.085938 47.28125 -0.765625 C 43.8125 0.546875 40.078125 1.203125 36.078125 1.203125 Z M 36.078125 1.203125 "/></g></g></g><g fill="#737373" fill-opacity="1"><g transform="translate(740.111082, 153.354394)"><g><path d="M 61.484375 0 L 53.34375 0 L 53.34375 -34.875 C 53.34375 -41.90625 52.101562 -47.195312 49.625 -50.75 C 47.144531 -54.3125 43.585938 -56.09375 38.953125 -56.09375 C 35.921875 -56.09375 32.90625 -55.3125 29.90625 -53.75 C 26.90625 -52.195312 24.265625 -50.082031 21.984375 -47.40625 C 19.710938 -44.726562 18.097656 -41.671875 17.140625 -38.234375 L 17.140625 0 L 8.984375 0 L 8.984375 -87.5 L 17.140625 -87.5 L 17.140625 -48.296875 C 19.617188 -52.929688 23.070312 -56.628906 27.5 -59.390625 C 31.9375 -62.148438 36.675781 -63.53125 41.71875 -63.53125 C 45.3125 -63.53125 48.363281 -62.890625 50.875 -61.609375 C 53.394531 -60.328125 55.429688 -58.46875 56.984375 -56.03125 C 58.546875 -53.59375 59.6875 -50.753906 60.40625 -47.515625 C 61.125 -44.285156 61.484375 -40.632812 61.484375 -36.5625 Z M 61.484375 0 "/></g></g></g></svg>