<svg xmlns="http://www.w3.org/2000/svg" xmlns:xlink="http://www.w3.org/1999/xlink" width="2000" zoomAndPan="magnify" viewBox="0 0 1500 225" height="300" preserveAspectRatio="xMidYMid meet" version="1.0"><defs><g/></defs><g fill="#96878a" fill-opacity="1"><g transform="translate(-3.655128, 171.029473)"><g><path d="M 10.4375 0 L 10.4375 -2.71875 C 13.644531 -3.6875 15.835938 -5.769531 17.015625 -8.96875 C 18.203125 -12.175781 18.796875 -18.03125 18.796875 -26.53125 L 18.796875 -111.34375 C 18.796875 -119.28125 18.304688 -125.441406 17.328125 -129.828125 C 16.359375 -134.222656 14.929688 -137.394531 13.046875 -139.34375 C 11.171875 -141.289062 8.84375 -142.679688 6.0625 -143.515625 L 6.0625 -146.234375 L 31.328125 -146.234375 L 85.859375 -56.203125 L 139.34375 -146.234375 L 162.953125 -146.234375 L 162.953125 -143.515625 C 160.160156 -142.679688 157.820312 -141.289062 155.9375 -139.34375 C 154.0625 -137.394531 152.632812 -134.222656 151.65625 -129.828125 C 150.6875 -125.441406 150.203125 -119.28125 150.203125 -111.34375 L 150.203125 -26.53125 C 150.203125 -18.03125 150.789062 -12.175781 151.96875 -8.96875 C 153.15625 -5.769531 155.351562 -3.6875 158.5625 -2.71875 L 158.5625 0 L 124.71875 0 L 124.71875 -2.71875 C 127.914062 -3.6875 130.109375 -5.769531 131.296875 -8.96875 C 132.484375 -12.175781 133.078125 -18.03125 133.078125 -26.53125 L 133.078125 -129.3125 L 80.015625 -39.6875 L 76.046875 -39.6875 L 22.5625 -127.640625 L 22.5625 -34.890625 C 22.5625 -26.953125 23.117188 -20.820312 24.234375 -16.5 C 25.347656 -12.1875 26.945312 -9.019531 29.03125 -7 C 31.125 -4.976562 33.703125 -3.550781 36.765625 -2.71875 L 36.765625 0 Z M 10.4375 0 "/></g></g></g><g fill="#96878a" fill-opacity="1"><g transform="translate(169.950672, 171.029473)"><g><path d="M 87.53125 0 C 83.351562 0 81.265625 -2.085938 81.265625 -6.265625 L 81.265625 -43.875 C 79.171875 -35.375 75.894531 -27.640625 71.4375 -20.671875 C 66.988281 -13.710938 61.800781 -8.175781 55.875 -4.0625 C 49.957031 0.0390625 43.519531 2.09375 36.5625 2.09375 C 31.40625 2.09375 26.597656 1.050781 22.140625 -1.03125 C 17.679688 -3.125 14.09375 -6.191406 11.375 -10.234375 C 8.664062 -14.273438 7.3125 -19.289062 7.3125 -25.28125 C 7.3125 -32.519531 9.46875 -38.4375 13.78125 -43.03125 C 18.101562 -47.625 23.847656 -51.382812 31.015625 -54.3125 C 38.191406 -57.238281 45.890625 -59.816406 54.109375 -62.046875 L 81.265625 -69.359375 C 80.703125 -79.523438 77.914062 -87.007812 72.90625 -91.8125 C 67.894531 -96.613281 60.929688 -99.015625 52.015625 -99.015625 C 45.742188 -99.015625 39.648438 -97.515625 33.734375 -94.515625 C 27.816406 -91.523438 22.210938 -86.828125 16.921875 -80.421875 L 15.046875 -82.09375 C 21.035156 -89.476562 27.820312 -95.296875 35.40625 -99.546875 C 43 -103.796875 51.320312 -105.921875 60.375 -105.921875 C 73.050781 -105.921875 82.378906 -102.609375 88.359375 -95.984375 C 94.347656 -89.367188 97.34375 -80.144531 97.34375 -68.3125 L 97.34375 -26.53125 C 97.34375 -18.03125 97.9375 -12.175781 99.125 -8.96875 C 100.3125 -5.769531 102.503906 -3.6875 105.703125 -2.71875 L 105.703125 0 Z M 22.984375 -31.125 C 22.984375 -24.300781 25.035156 -19.113281 29.140625 -15.5625 C 33.253906 -12.007812 38.300781 -10.234375 44.28125 -10.234375 C 49.851562 -10.234375 54.898438 -11.800781 59.421875 -14.9375 C 63.953125 -18.070312 67.816406 -22.144531 71.015625 -27.15625 C 74.222656 -32.164062 76.734375 -37.59375 78.546875 -43.4375 C 80.359375 -49.289062 81.265625 -54.9375 81.265625 -60.375 L 81.265625 -66.640625 L 54.9375 -59.53125 C 49.789062 -58.144531 44.742188 -56.300781 39.796875 -54 C 34.847656 -51.707031 30.804688 -48.75 27.671875 -45.125 C 24.546875 -41.5 22.984375 -36.832031 22.984375 -31.125 Z M 22.984375 -31.125 "/></g></g></g><g fill="#96878a" fill-opacity="1"><g transform="translate(280.673973, 171.029473)"><g><path d="M 47.21875 1.875 C 38.851562 1.875 31.296875 0.832031 24.546875 -1.25 C 17.796875 -3.34375 12.675781 -5.503906 9.1875 -7.734375 L 7.3125 -33 L 9.1875 -33.421875 C 13.644531 -23.535156 19.492188 -15.769531 26.734375 -10.125 C 33.984375 -4.488281 42.34375 -1.601562 51.8125 -1.46875 C 58.351562 -1.46875 63.75 -3.238281 68 -6.78125 C 72.25 -10.332031 74.375 -15.035156 74.375 -20.890625 C 74.375 -25.898438 72.945312 -29.9375 70.09375 -33 C 67.238281 -36.070312 63.476562 -38.582031 58.8125 -40.53125 C 54.144531 -42.476562 49.09375 -44.285156 43.65625 -45.953125 C 37.113281 -48.046875 31.265625 -50.238281 26.109375 -52.53125 C 20.960938 -54.832031 16.925781 -57.863281 14 -61.625 C 11.070312 -65.382812 9.609375 -70.398438 9.609375 -76.671875 C 9.609375 -84.890625 12.914062 -91.816406 19.53125 -97.453125 C 26.144531 -103.097656 35.507812 -105.921875 47.625 -105.921875 C 54.445312 -105.921875 60.75 -105.328125 66.53125 -104.140625 C 72.3125 -102.953125 76.804688 -101.664062 80.015625 -100.28125 L 80.84375 -78.96875 L 78.75 -78.546875 C 75.414062 -86.066406 70.613281 -92.054688 64.34375 -96.515625 C 58.070312 -100.972656 51.25 -103.203125 43.875 -103.203125 C 36.769531 -103.203125 31.09375 -101.597656 26.84375 -98.390625 C 22.59375 -95.191406 20.46875 -90.945312 20.46875 -85.65625 C 20.46875 -81.332031 21.828125 -77.707031 24.546875 -74.78125 C 27.265625 -71.863281 30.882812 -69.394531 35.40625 -67.375 C 39.9375 -65.351562 44.914062 -63.4375 50.34375 -61.625 C 54.382812 -60.375 58.457031 -59.015625 62.5625 -57.546875 C 66.675781 -56.085938 70.4375 -54.28125 73.84375 -52.125 C 77.257812 -49.96875 80.046875 -47.179688 82.203125 -43.765625 C 84.359375 -40.347656 85.4375 -35.992188 85.4375 -30.703125 C 85.4375 -24.859375 84.007812 -19.460938 81.15625 -14.515625 C 78.300781 -9.578125 74.019531 -5.644531 68.3125 -2.71875 C 62.601562 0.207031 55.570312 1.738281 47.21875 1.875 Z M 47.21875 1.875 "/></g></g></g><g fill="#96878a" fill-opacity="1"><g transform="translate(373.639778, 171.029473)"><g><path d="M 10.859375 -50.765625 L 10.859375 -53.6875 L 65.390625 -53.6875 L 65.390625 -50.765625 Z M 10.859375 -50.765625 "/></g></g></g><g fill="#96878a" fill-opacity="1"><g transform="translate(449.892605, 171.029473)"><g><path d="M 10.65625 0 L 10.65625 -2.71875 C 13.851562 -3.6875 16.046875 -5.769531 17.234375 -8.96875 C 18.421875 -12.175781 19.015625 -18.03125 19.015625 -26.53125 L 19.015625 -119.703125 C 19.015625 -128.335938 18.421875 -134.222656 17.234375 -137.359375 C 16.046875 -140.492188 13.851562 -142.546875 10.65625 -143.515625 L 10.65625 -146.234375 L 59.53125 -146.234375 C 75.6875 -146.234375 87.28125 -143.757812 94.3125 -138.8125 C 101.351562 -133.875 104.875 -127.15625 104.875 -118.65625 C 104.875 -111.550781 102.363281 -105.070312 97.34375 -99.21875 C 92.332031 -93.375 83.835938 -89.335938 71.859375 -87.109375 C 83.285156 -86.554688 92.617188 -84.46875 99.859375 -80.84375 C 107.097656 -77.226562 112.457031 -72.5625 115.9375 -66.84375 C 119.425781 -61.132812 121.171875 -54.867188 121.171875 -48.046875 C 121.304688 -42.203125 120.1875 -36.421875 117.8125 -30.703125 C 115.445312 -24.992188 111.617188 -19.84375 106.328125 -15.25 C 101.035156 -10.65625 94.035156 -6.960938 85.328125 -4.171875 C 76.628906 -1.390625 65.941406 0 53.265625 0 Z M 36.140625 -21.3125 C 36.140625 -13.789062 36.832031 -8.878906 38.21875 -6.578125 C 39.613281 -4.285156 42.539062 -3.140625 47 -3.140625 L 55.15625 -3.140625 C 66.570312 -3.140625 75.691406 -4.84375 82.515625 -8.25 C 89.335938 -11.664062 94.316406 -16.363281 97.453125 -22.34375 C 100.585938 -28.332031 102.15625 -35.160156 102.15625 -42.828125 C 102.15625 -50.898438 100.625 -58.035156 97.5625 -64.234375 C 94.5 -70.429688 89.65625 -75.335938 83.03125 -78.953125 C 76.414062 -82.578125 67.890625 -84.390625 57.453125 -84.390625 L 36.140625 -84.390625 Z M 36.140625 -87.53125 L 55.5625 -87.53125 C 65.875 -87.53125 73.5 -90.175781 78.4375 -95.46875 C 83.382812 -100.757812 85.859375 -107.234375 85.859375 -114.890625 C 85.859375 -123.523438 82.898438 -130.382812 76.984375 -135.46875 C 71.066406 -140.550781 62.742188 -143.09375 52.015625 -143.09375 L 36.140625 -143.09375 Z M 36.140625 -87.53125 "/></g></g></g><g fill="#96878a" fill-opacity="1"><g transform="translate(577.746687, 171.029473)"><g><path d="M 45.546875 2.09375 C 34.535156 2.09375 26.453125 -1.25 21.296875 -7.9375 C 16.148438 -14.625 13.578125 -23.957031 13.578125 -35.9375 L 13.578125 -74.578125 C 13.578125 -79.453125 13.265625 -83.109375 12.640625 -85.546875 C 12.015625 -87.984375 11.109375 -89.757812 9.921875 -90.875 C 8.734375 -91.988281 7.164062 -92.960938 5.21875 -93.796875 L 5.21875 -96.09375 L 28 -106.125 L 29.875 -104.65625 L 29.875 -39.6875 C 29.875 -27.851562 31.679688 -19.148438 35.296875 -13.578125 C 38.921875 -8.003906 44.910156 -5.21875 53.265625 -5.21875 C 59.398438 -5.21875 65.25 -6.921875 70.8125 -10.328125 C 76.382812 -13.742188 81.539062 -17.960938 86.28125 -22.984375 L 86.28125 -74.578125 C 86.28125 -79.453125 85.960938 -83.109375 85.328125 -85.546875 C 84.703125 -87.984375 83.796875 -89.757812 82.609375 -90.875 C 81.429688 -91.988281 79.867188 -92.960938 77.921875 -93.796875 L 77.921875 -96.09375 L 100.6875 -106.125 L 102.578125 -104.65625 L 102.578125 -26.53125 C 102.578125 -18.03125 103.164062 -12.175781 104.34375 -8.96875 C 105.53125 -5.769531 107.722656 -3.6875 110.921875 -2.71875 L 110.921875 0 L 93.171875 0 C 90.941406 0 89.234375 -0.625 88.046875 -1.875 C 86.867188 -3.132812 86.28125 -5.296875 86.28125 -8.359375 L 86.28125 -19.015625 C 80.988281 -13.441406 74.820312 -8.53125 67.78125 -4.28125 C 60.75 -0.03125 53.335938 2.09375 45.546875 2.09375 Z M 45.546875 2.09375 "/></g></g></g><g fill="#96878a" fill-opacity="1"><g transform="translate(695.990826, 171.029473)"><g><path d="M 6.6875 0 L 6.6875 -2.71875 C 9.882812 -3.6875 12.078125 -5.769531 13.265625 -8.96875 C 14.453125 -12.175781 15.046875 -18.03125 15.046875 -26.53125 L 15.046875 -74.578125 C 15.046875 -79.453125 14.765625 -83.109375 14.203125 -85.546875 C 13.648438 -87.984375 12.742188 -89.757812 11.484375 -90.875 C 10.234375 -91.988281 8.632812 -92.960938 6.6875 -93.796875 L 6.6875 -96.09375 L 29.671875 -106.125 L 31.328125 -104.65625 L 31.328125 -26.53125 C 31.328125 -18.03125 31.953125 -12.175781 33.203125 -8.96875 C 34.460938 -5.769531 36.625 -3.6875 39.6875 -2.71875 L 39.6875 0 Z M 10.4375 -130.359375 C 10.4375 -133.703125 11.550781 -136.488281 13.78125 -138.71875 C 16.007812 -140.945312 18.726562 -142.0625 21.9375 -142.0625 C 25.28125 -142.0625 28.03125 -140.945312 30.1875 -138.71875 C 32.34375 -136.488281 33.421875 -133.703125 33.421875 -130.359375 C 33.421875 -127.296875 32.304688 -124.613281 30.078125 -122.3125 C 27.847656 -120.019531 25.132812 -118.875 21.9375 -118.875 C 18.726562 -118.875 16.007812 -120.019531 13.78125 -122.3125 C 11.550781 -124.613281 10.4375 -127.296875 10.4375 -130.359375 Z M 10.4375 -130.359375 "/></g></g></g><g fill="#96878a" fill-opacity="1"><g transform="translate(742.995999, 171.029473)"><g><path d="M 39.484375 2.09375 C 32.941406 2.09375 27.789062 -0.164062 24.03125 -4.6875 C 20.269531 -9.21875 18.390625 -16.914062 18.390625 -27.78125 L 18.390625 -101.53125 L 5.015625 -101.53125 L 5.015625 -104.453125 L 31.75 -130.15625 L 34.671875 -130.15625 L 34.671875 -104.453125 L 66.4375 -104.453125 L 65.390625 -101.53125 L 34.671875 -101.53125 L 34.671875 -27.78125 C 34.671875 -20.675781 36.03125 -15.625 38.75 -12.625 C 41.46875 -9.632812 45.054688 -8.140625 49.515625 -8.140625 C 52.429688 -8.140625 55.628906 -8.941406 59.109375 -10.546875 C 62.597656 -12.148438 66.082031 -14.972656 69.5625 -19.015625 L 71.453125 -17.125 C 66.992188 -11.976562 62.082031 -7.488281 56.71875 -3.65625 C 51.351562 0.175781 45.609375 2.09375 39.484375 2.09375 Z M 39.484375 2.09375 "/></g></g></g><g fill="#96878a" fill-opacity="1"><g transform="translate(814.86168, 171.029473)"><g><path d="M 6.6875 0 L 6.6875 -2.71875 C 9.882812 -3.6875 12.078125 -5.769531 13.265625 -8.96875 C 14.453125 -12.175781 15.046875 -18.03125 15.046875 -26.53125 L 15.046875 -74.578125 C 15.046875 -79.453125 14.726562 -83.109375 14.09375 -85.546875 C 13.46875 -87.984375 12.5625 -89.757812 11.375 -90.875 C 10.195312 -91.988281 8.632812 -92.960938 6.6875 -93.796875 L 6.6875 -96.09375 L 29.453125 -106.125 L 31.328125 -104.65625 L 31.328125 -78.546875 C 33.003906 -82.585938 35.195312 -86.347656 37.90625 -89.828125 C 40.625 -93.304688 43.519531 -96.160156 46.59375 -98.390625 C 49.789062 -100.765625 53.300781 -102.613281 57.125 -103.9375 C 60.957031 -105.257812 65.382812 -105.921875 70.40625 -105.921875 C 74.582031 -105.921875 77.890625 -105.429688 80.328125 -104.453125 C 82.765625 -103.472656 83.984375 -102.082031 83.984375 -100.28125 C 83.984375 -98.050781 82.898438 -95.507812 80.734375 -92.65625 C 78.578125 -89.800781 75.617188 -88.375 71.859375 -88.375 C 69.078125 -88.375 65.5625 -88.894531 61.3125 -89.9375 C 57.0625 -90.976562 51.875 -92.40625 45.75 -94.21875 C 43.800781 -92.820312 41.742188 -90.695312 39.578125 -87.84375 C 37.421875 -84.988281 35.613281 -81.816406 34.15625 -78.328125 C 32.695312 -74.847656 31.828125 -71.441406 31.546875 -68.109375 L 31.328125 -68.109375 L 31.328125 -26.53125 C 31.328125 -18.03125 31.921875 -12.175781 33.109375 -8.96875 C 34.296875 -5.769531 36.488281 -3.6875 39.6875 -2.71875 L 39.6875 0 Z M 6.6875 0 "/></g></g></g><g fill="#96878a" fill-opacity="1"><g transform="translate(902.604688, 171.029473)"><g><path d="M 87.53125 0 C 83.351562 0 81.265625 -2.085938 81.265625 -6.265625 L 81.265625 -43.875 C 79.171875 -35.375 75.894531 -27.640625 71.4375 -20.671875 C 66.988281 -13.710938 61.800781 -8.175781 55.875 -4.0625 C 49.957031 0.0390625 43.519531 2.09375 36.5625 2.09375 C 31.40625 2.09375 26.597656 1.050781 22.140625 -1.03125 C 17.679688 -3.125 14.09375 -6.191406 11.375 -10.234375 C 8.664062 -14.273438 7.3125 -19.289062 7.3125 -25.28125 C 7.3125 -32.519531 9.46875 -38.4375 13.78125 -43.03125 C 18.101562 -47.625 23.847656 -51.382812 31.015625 -54.3125 C 38.191406 -57.238281 45.890625 -59.816406 54.109375 -62.046875 L 81.265625 -69.359375 C 80.703125 -79.523438 77.914062 -87.007812 72.90625 -91.8125 C 67.894531 -96.613281 60.929688 -99.015625 52.015625 -99.015625 C 45.742188 -99.015625 39.648438 -97.515625 33.734375 -94.515625 C 27.816406 -91.523438 22.210938 -86.828125 16.921875 -80.421875 L 15.046875 -82.09375 C 21.035156 -89.476562 27.820312 -95.296875 35.40625 -99.546875 C 43 -103.796875 51.320312 -105.921875 60.375 -105.921875 C 73.050781 -105.921875 82.378906 -102.609375 88.359375 -95.984375 C 94.347656 -89.367188 97.34375 -80.144531 97.34375 -68.3125 L 97.34375 -26.53125 C 97.34375 -18.03125 97.9375 -12.175781 99.125 -8.96875 C 100.3125 -5.769531 102.503906 -3.6875 105.703125 -2.71875 L 105.703125 0 Z M 22.984375 -31.125 C 22.984375 -24.300781 25.035156 -19.113281 29.140625 -15.5625 C 33.253906 -12.007812 38.300781 -10.234375 44.28125 -10.234375 C 49.851562 -10.234375 54.898438 -11.800781 59.421875 -14.9375 C 63.953125 -18.070312 67.816406 -22.144531 71.015625 -27.15625 C 74.222656 -32.164062 76.734375 -37.59375 78.546875 -43.4375 C 80.359375 -49.289062 81.265625 -54.9375 81.265625 -60.375 L 81.265625 -66.640625 L 54.9375 -59.53125 C 49.789062 -58.144531 44.742188 -56.300781 39.796875 -54 C 34.847656 -51.707031 30.804688 -48.75 27.671875 -45.125 C 24.546875 -41.5 22.984375 -36.832031 22.984375 -31.125 Z M 22.984375 -31.125 "/></g></g></g><g fill="#96878a" fill-opacity="1"><g transform="translate(1013.327966, 171.029473)"><g><path d="M 37.1875 57.859375 C 31.894531 57.859375 26.632812 57.023438 21.40625 55.359375 C 16.1875 53.691406 11.835938 50.976562 8.359375 47.21875 C 4.878906 43.457031 3.140625 38.441406 3.140625 32.171875 C 3.140625 25.628906 5.609375 19.601562 10.546875 14.09375 C 15.492188 8.59375 22.210938 3.269531 30.703125 -1.875 C 25.972656 -2.988281 22.25 -4.765625 19.53125 -7.203125 C 16.8125 -9.640625 15.453125 -13.085938 15.453125 -17.546875 C 15.453125 -21.441406 16.945312 -24.816406 19.9375 -27.671875 C 22.9375 -30.535156 26.523438 -33.289062 30.703125 -35.9375 C 25.554688 -38.71875 21.207031 -42.578125 17.65625 -47.515625 C 14.101562 -52.460938 12.328125 -58.769531 12.328125 -66.4375 C 12.328125 -73.8125 14.273438 -80.457031 18.171875 -86.375 C 22.078125 -92.300781 27.195312 -97.039062 33.53125 -100.59375 C 39.863281 -104.144531 46.582031 -105.921875 53.6875 -105.921875 C 56.195312 -105.921875 58.773438 -105.742188 61.421875 -105.390625 C 64.066406 -105.046875 66.570312 -104.523438 68.9375 -103.828125 C 70.050781 -105.222656 71.195312 -106.582031 72.375 -107.90625 C 73.5625 -109.226562 74.851562 -110.375 76.25 -111.34375 C 79.457031 -114.132812 82.972656 -116.398438 86.796875 -118.140625 C 90.628906 -119.878906 95.050781 -120.75 100.0625 -120.75 C 103.269531 -120.75 105.878906 -120.296875 107.890625 -119.390625 C 109.910156 -118.484375 110.921875 -117.265625 110.921875 -115.734375 C 110.921875 -113.921875 109.875 -111.691406 107.78125 -109.046875 C 105.695312 -106.398438 102.773438 -105.078125 99.015625 -105.078125 C 96.367188 -105.078125 93.441406 -105.53125 90.234375 -106.4375 C 87.035156 -107.34375 83.070312 -108.492188 78.34375 -109.890625 C 76.113281 -108.210938 73.882812 -105.84375 71.65625 -102.78125 C 78.0625 -100.550781 83.523438 -96.789062 88.046875 -91.5 C 92.578125 -86.207031 94.84375 -79.035156 94.84375 -69.984375 C 94.84375 -63.992188 93.519531 -58.597656 90.875 -53.796875 C 88.226562 -48.992188 84.816406 -44.847656 80.640625 -41.359375 C 76.460938 -37.878906 72.003906 -35.234375 67.265625 -33.421875 C 62.535156 -31.609375 58.007812 -30.703125 53.6875 -30.703125 C 50.488281 -30.703125 47.113281 -31.015625 43.5625 -31.640625 C 40.007812 -32.273438 36.628906 -33.285156 33.421875 -34.671875 C 31.191406 -33.140625 29.378906 -31.710938 27.984375 -30.390625 C 26.597656 -29.066406 25.90625 -27.429688 25.90625 -25.484375 C 26.039062 -22.703125 27.914062 -20.472656 31.53125 -18.796875 C 35.15625 -17.128906 40.941406 -16.085938 48.890625 -15.671875 L 75.203125 -14 C 82.304688 -13.582031 88.328125 -12.816406 93.265625 -11.703125 C 98.210938 -10.585938 102.007812 -8.632812 104.65625 -5.84375 C 107.300781 -3.0625 108.625 1.039062 108.625 6.46875 C 108.625 12.457031 106.570312 18.484375 102.46875 24.546875 C 98.363281 30.609375 92.828125 36.144531 85.859375 41.15625 C 78.898438 46.164062 71.207031 50.203125 62.78125 53.265625 C 54.351562 56.328125 45.820312 57.859375 37.1875 57.859375 Z M 17.125 24.4375 C 17.125 31.957031 20.015625 37.84375 25.796875 42.09375 C 31.578125 46.34375 39.34375 48.46875 49.09375 48.46875 C 55.78125 48.46875 62.1875 47.523438 68.3125 45.640625 C 74.4375 43.765625 79.9375 41.222656 84.8125 38.015625 C 89.6875 34.816406 93.515625 31.265625 96.296875 27.359375 C 99.085938 23.460938 100.484375 19.425781 100.484375 15.25 C 100.484375 10.375 98.394531 6.992188 94.21875 5.109375 C 90.039062 3.234375 83.632812 2.019531 75 1.46875 L 45.75 0 C 41.570312 -0.28125 37.601562 -0.695312 33.84375 -1.25 C 27.851562 2.789062 23.566406 6.96875 20.984375 11.28125 C 18.410156 15.59375 17.125 19.976562 17.125 24.4375 Z M 27.578125 -75.625 C 27.578125 -71.03125 28.238281 -66.328125 29.5625 -61.515625 C 30.882812 -56.710938 32.832031 -52.222656 35.40625 -48.046875 C 37.988281 -43.867188 41.160156 -40.488281 44.921875 -37.90625 C 48.679688 -35.332031 52.925781 -34.046875 57.65625 -34.046875 C 65.457031 -34.046875 71.097656 -36.691406 74.578125 -41.984375 C 78.054688 -47.273438 79.796875 -53.472656 79.796875 -60.578125 C 79.796875 -65.316406 79.066406 -70.191406 77.609375 -75.203125 C 76.148438 -80.222656 74.0625 -84.851562 71.34375 -89.09375 C 68.625 -93.34375 65.347656 -96.753906 61.515625 -99.328125 C 57.691406 -101.910156 53.410156 -103.0625 48.671875 -102.78125 C 41.296875 -102.5 35.9375 -99.75 32.59375 -94.53125 C 29.25 -89.3125 27.578125 -83.007812 27.578125 -75.625 Z M 27.578125 -75.625 "/></g></g></g><g fill="#96878a" fill-opacity="1"><g transform="translate(1122.588877, 171.029473)"><g><path d="M 62.25 2.09375 C 55.5625 2.09375 48.976562 1.050781 42.5 -1.03125 C 36.03125 -3.125 30.148438 -6.328125 24.859375 -10.640625 C 19.566406 -14.960938 15.351562 -20.46875 12.21875 -27.15625 C 9.082031 -33.84375 7.515625 -41.710938 7.515625 -50.765625 C 7.515625 -61.628906 10.09375 -71.203125 15.25 -79.484375 C 20.40625 -87.773438 27.160156 -94.253906 35.515625 -98.921875 C 43.867188 -103.585938 52.78125 -105.921875 62.25 -105.921875 C 68.800781 -105.921875 75.28125 -104.910156 81.6875 -102.890625 C 88.09375 -100.867188 93.941406 -97.695312 99.234375 -93.375 C 104.523438 -89.0625 108.769531 -83.5625 111.96875 -76.875 C 115.175781 -70.1875 116.78125 -62.179688 116.78125 -52.859375 C 116.78125 -43.941406 115.140625 -36.070312 111.859375 -29.25 C 108.585938 -22.425781 104.238281 -16.679688 98.8125 -12.015625 C 93.382812 -7.347656 87.46875 -3.828125 81.0625 -1.453125 C 74.65625 0.910156 68.382812 2.09375 62.25 2.09375 Z M 23.609375 -62.671875 C 23.609375 -55.984375 24.648438 -49.125 26.734375 -42.09375 C 28.828125 -35.0625 31.820312 -28.550781 35.71875 -22.5625 C 39.625 -16.570312 44.328125 -11.695312 49.828125 -7.9375 C 55.328125 -4.175781 61.554688 -2.296875 68.515625 -2.296875 C 76.035156 -2.296875 82.160156 -4.070312 86.890625 -7.625 C 91.628906 -11.175781 95.148438 -15.875 97.453125 -21.71875 C 99.753906 -27.570312 100.90625 -33.84375 100.90625 -40.53125 C 100.90625 -47.21875 99.789062 -54.210938 97.5625 -61.515625 C 95.332031 -68.828125 92.160156 -75.617188 88.046875 -81.890625 C 83.941406 -88.160156 79.035156 -93.175781 73.328125 -96.9375 C 67.617188 -100.695312 61.351562 -102.367188 54.53125 -101.953125 C 47.425781 -101.671875 41.570312 -99.71875 36.96875 -96.09375 C 32.375 -92.476562 29 -87.742188 26.84375 -81.890625 C 24.6875 -76.035156 23.609375 -69.628906 23.609375 -62.671875 Z M 23.609375 -62.671875 "/></g></g></g><g fill="#96878a" fill-opacity="1"><g transform="translate(1248.353878, 171.029473)"><g><path d="M 11.484375 26.53125 C 16.921875 23.75 20.925781 19.988281 23.5 15.25 C 26.070312 10.507812 27.5 5.492188 27.78125 0.203125 C 26.945312 0.484375 26.144531 0.726562 25.375 0.9375 C 24.613281 1.144531 23.742188 1.25 22.765625 1.25 C 19.984375 1.25 17.582031 0.238281 15.5625 -1.78125 C 13.539062 -3.800781 12.53125 -6.203125 12.53125 -8.984375 C 12.53125 -12.460938 13.570312 -15.316406 15.65625 -17.546875 C 17.75 -19.773438 20.46875 -20.890625 23.8125 -20.890625 C 27.851562 -20.890625 31.09375 -19.492188 33.53125 -16.703125 C 35.96875 -13.921875 37.113281 -9.957031 36.96875 -4.8125 C 36.96875 0.207031 35.785156 4.976562 33.421875 9.5 C 31.054688 14.03125 27.992188 17.929688 24.234375 21.203125 C 20.472656 24.472656 16.503906 26.875 12.328125 28.40625 Z M 11.484375 26.53125 "/></g></g></g><g fill="#96878a" fill-opacity="1"><g transform="translate(1297.865958, 171.029473)"><g/></g></g><g fill="#96878a" fill-opacity="1"><g transform="translate(1341.737415, 171.029473)"><g><path d="M 10.65625 0 L 10.65625 -2.71875 C 13.851562 -3.6875 16.046875 -5.769531 17.234375 -8.96875 C 18.421875 -12.175781 19.015625 -18.03125 19.015625 -26.53125 L 19.015625 -119.703125 C 19.015625 -128.335938 18.421875 -134.222656 17.234375 -137.359375 C 16.046875 -140.492188 13.851562 -142.546875 10.65625 -143.515625 L 10.65625 -146.234375 L 53.0625 -146.234375 C 67.539062 -146.234375 78.921875 -144.210938 87.203125 -140.171875 C 95.492188 -136.140625 101.378906 -130.988281 104.859375 -124.71875 C 108.347656 -118.445312 110.09375 -111.898438 110.09375 -105.078125 C 110.09375 -91.148438 105.113281 -79.796875 95.15625 -71.015625 C 85.195312 -62.242188 70.46875 -57.859375 50.96875 -57.859375 L 36.140625 -57.859375 L 36.140625 -26.53125 C 36.140625 -18.03125 36.726562 -12.175781 37.90625 -8.96875 C 39.09375 -5.769531 41.289062 -3.6875 44.5 -2.71875 L 44.5 0 Z M 36.140625 -61 L 50.5625 -61 C 63.925781 -61 74.125 -64.476562 81.15625 -71.4375 C 88.1875 -78.40625 91.703125 -88.019531 91.703125 -100.28125 C 91.703125 -107.800781 90.132812 -114.796875 87 -121.265625 C 83.875 -127.742188 78.898438 -133 72.078125 -137.03125 C 65.253906 -141.070312 56.203125 -143.09375 44.921875 -143.09375 C 43.523438 -143.09375 42.023438 -143.054688 40.421875 -142.984375 C 38.816406 -142.921875 37.390625 -142.820312 36.140625 -142.6875 Z M 36.140625 -61 "/></g></g></g><g fill="#96878a" fill-opacity="1"><g transform="translate(1457.056822, 171.029473)"><g><path d="M 23.390625 1.46875 C 20.472656 1.46875 17.929688 0.351562 15.765625 -1.875 C 13.609375 -4.101562 12.53125 -6.75 12.53125 -9.8125 C 12.53125 -12.882812 13.609375 -15.5 15.765625 -17.65625 C 17.929688 -19.8125 20.472656 -20.890625 23.390625 -20.890625 C 26.316406 -20.890625 28.820312 -19.8125 30.90625 -17.65625 C 33 -15.5 34.046875 -12.882812 34.046875 -9.8125 C 34.046875 -6.75 33 -4.101562 30.90625 -1.875 C 28.820312 0.351562 26.316406 1.46875 23.390625 1.46875 Z M 23.390625 1.46875 "/></g></g></g></svg>