<svg xmlns="http://www.w3.org/2000/svg" xmlns:xlink="http://www.w3.org/1999/xlink" width="2000" zoomAndPan="magnify" viewBox="0 0 1500 225" height="300" preserveAspectRatio="xMidYMid meet" version="1.0"><defs><g/></defs><g fill="#737373" fill-opacity="1"><g transform="translate(4.603839, 170.650251)"><g><path d="M 8.546875 0 L 8.546875 -2.84375 C 11.941406 -3.9375 14.144531 -6.210938 15.15625 -9.671875 C 16.175781 -13.128906 16.6875 -18.519531 16.6875 -25.84375 L 16.6875 -104.421875 C 16.6875 -112.691406 16.175781 -119.203125 15.15625 -123.953125 C 14.144531 -128.703125 12.617188 -132.226562 10.578125 -134.53125 C 8.546875 -136.84375 5.96875 -138.546875 2.84375 -139.640625 L 2.84375 -142.484375 L 33.375 -142.484375 L 83.65625 -59.03125 L 131.484375 -142.484375 L 160.390625 -142.484375 L 160.390625 -139.640625 C 157.273438 -138.546875 154.695312 -136.84375 152.65625 -134.53125 C 150.625 -132.226562 149.097656 -128.703125 148.078125 -123.953125 C 147.054688 -119.203125 146.546875 -112.691406 146.546875 -104.421875 L 146.546875 -25.84375 C 146.546875 -18.519531 147.054688 -13.128906 148.078125 -9.671875 C 149.097656 -6.210938 151.304688 -3.9375 154.703125 -2.84375 L 154.703125 0 L 116.828125 0 L 116.828125 -2.84375 C 120.222656 -3.9375 122.429688 -6.210938 123.453125 -9.671875 C 124.472656 -13.128906 124.984375 -18.519531 124.984375 -25.84375 L 124.984375 -124.359375 L 76.125 -38.671875 L 71.4375 -38.671875 L 20.359375 -122.53125 L 20.359375 -38.0625 C 20.359375 -29.78125 20.898438 -23.265625 21.984375 -18.515625 C 23.066406 -13.773438 24.757812 -10.25 27.0625 -7.9375 C 29.375 -5.632812 32.296875 -3.9375 35.828125 -2.84375 L 35.828125 0 Z M 8.546875 0 "/></g></g></g><g fill="#737373" fill-opacity="1"><g transform="translate(174.565922, 170.650251)"><g><path d="M 83.453125 0 C 78.023438 0 75.3125 -2.710938 75.3125 -8.140625 L 75.3125 -41.734375 C 73.414062 -33.859375 70.566406 -26.59375 66.765625 -19.9375 C 62.960938 -13.289062 58.28125 -7.96875 52.71875 -3.96875 C 47.15625 0.03125 40.84375 2.03125 33.78125 2.03125 C 26.320312 2.03125 19.84375 -0.273438 14.34375 -4.890625 C 8.851562 -9.503906 6.109375 -16.082031 6.109375 -24.625 C 6.109375 -31.6875 8.242188 -37.421875 12.515625 -41.828125 C 16.796875 -46.234375 22.460938 -49.929688 29.515625 -52.921875 C 36.566406 -55.910156 44.300781 -58.554688 52.71875 -60.859375 L 75.3125 -67.375 C 75.175781 -77.414062 72.628906 -84.570312 67.671875 -88.84375 C 62.722656 -93.125 56.445312 -95.265625 48.84375 -95.265625 C 43.144531 -95.265625 37.515625 -93.941406 31.953125 -91.296875 C 26.390625 -88.648438 21.03125 -84.203125 15.875 -77.953125 L 13.84375 -79.796875 C 19.539062 -86.847656 26.253906 -92.507812 33.984375 -96.78125 C 41.722656 -101.0625 50.207031 -103.203125 59.4375 -103.203125 C 71.78125 -103.203125 80.90625 -99.976562 86.8125 -93.53125 C 92.71875 -87.082031 95.671875 -77.617188 95.671875 -65.140625 L 95.671875 -25.84375 C 95.671875 -18.519531 96.175781 -13.128906 97.1875 -9.671875 C 98.207031 -6.210938 100.414062 -3.9375 103.8125 -2.84375 L 103.8125 0 Z M 25.03125 -31.75 C 25.03125 -25.101562 27.03125 -20.285156 31.03125 -17.296875 C 35.039062 -14.316406 39.351562 -12.828125 43.96875 -12.828125 C 48.988281 -12.828125 53.429688 -14.351562 57.296875 -17.40625 C 61.160156 -20.457031 64.414062 -24.390625 67.0625 -29.203125 C 69.707031 -34.023438 71.742188 -39.082031 73.171875 -44.375 C 74.597656 -49.664062 75.3125 -54.617188 75.3125 -59.234375 L 75.3125 -64.53125 L 53.53125 -58.21875 C 51.09375 -57.539062 48.273438 -56.554688 45.078125 -55.265625 C 41.890625 -53.972656 38.769531 -52.304688 35.71875 -50.265625 C 32.664062 -48.234375 30.117188 -45.691406 28.078125 -42.640625 C 26.046875 -39.585938 25.03125 -35.957031 25.03125 -31.75 Z M 25.03125 -31.75 "/></g></g></g><g fill="#737373" fill-opacity="1"><g transform="translate(282.44606, 170.650251)"><g><path d="M 44.984375 1.625 C 37.515625 1.625 30.523438 0.675781 24.015625 -1.21875 C 17.503906 -3.125 12.28125 -5.363281 8.34375 -7.9375 L 6.3125 -34.609375 L 8.34375 -35.015625 C 12.6875 -25.242188 18.421875 -17.269531 25.546875 -11.09375 C 32.671875 -4.914062 40.78125 -1.757812 49.875 -1.625 C 56.25 -1.488281 61.300781 -3.21875 65.03125 -6.8125 C 68.757812 -10.414062 70.625 -14.523438 70.625 -19.140625 C 70.625 -25.648438 68.144531 -30.53125 63.1875 -33.78125 C 58.238281 -37.039062 51.359375 -40.03125 42.546875 -42.75 C 35.484375 -44.914062 29.335938 -47.1875 24.109375 -49.5625 C 18.890625 -51.9375 14.890625 -54.988281 12.109375 -58.71875 C 9.328125 -62.457031 7.9375 -67.378906 7.9375 -73.484375 C 7.9375 -78.640625 9.328125 -83.488281 12.109375 -88.03125 C 14.890625 -92.582031 19.195312 -96.25 25.03125 -99.03125 C 30.863281 -101.8125 38.394531 -103.203125 47.625 -103.203125 C 53.457031 -103.203125 59.222656 -102.722656 64.921875 -101.765625 C 70.628906 -100.816406 75.175781 -99.597656 78.5625 -98.109375 L 79.59375 -75.71875 L 77.140625 -75.3125 C 73.753906 -82.5 69.039062 -88.46875 63 -93.21875 C 56.957031 -97.96875 50.207031 -100.34375 42.75 -100.34375 C 36.363281 -100.34375 31.238281 -98.847656 27.375 -95.859375 C 23.507812 -92.878906 21.578125 -89.21875 21.578125 -84.875 C 21.578125 -79.175781 24.050781 -74.800781 29 -71.75 C 33.957031 -68.695312 40.984375 -65.609375 50.078125 -62.484375 C 55.503906 -60.722656 60.828125 -58.753906 66.046875 -56.578125 C 71.273438 -54.410156 75.617188 -51.394531 79.078125 -47.53125 C 82.535156 -43.664062 84.265625 -38.269531 84.265625 -31.34375 C 84.265625 -26.1875 83.039062 -21.0625 80.59375 -15.96875 C 78.15625 -10.882812 74.085938 -6.679688 68.390625 -3.359375 C 62.691406 -0.0351562 54.890625 1.625 44.984375 1.625 Z M 44.984375 1.625 "/></g></g></g><g fill="#737373" fill-opacity="1"><g transform="translate(373.635323, 170.650251)"><g><path d="M 10.578125 -49.0625 L 10.578125 -52.3125 L 63.703125 -52.3125 L 63.703125 -49.0625 Z M 10.578125 -49.0625 "/></g></g></g><g fill="#737373" fill-opacity="1"><g transform="translate(447.93016, 170.650251)"><g><path d="M 9.5625 0 L 9.5625 -2.84375 C 12.957031 -3.9375 15.160156 -6.210938 16.171875 -9.671875 C 17.191406 -13.128906 17.703125 -18.519531 17.703125 -25.84375 L 17.703125 -116.625 C 17.703125 -123.957031 17.191406 -129.351562 16.171875 -132.8125 C 15.160156 -136.269531 12.957031 -138.546875 9.5625 -139.640625 L 9.5625 -142.484375 L 59.84375 -142.484375 C 76.53125 -142.484375 88.300781 -140.070312 95.15625 -135.25 C 102.007812 -130.4375 105.4375 -123.890625 105.4375 -115.609375 C 105.4375 -108.691406 102.925781 -102.382812 97.90625 -96.6875 C 92.882812 -90.988281 83.925781 -86.984375 71.03125 -84.671875 C 87.863281 -84.128906 100.519531 -80.394531 109 -73.46875 C 117.476562 -66.550781 121.785156 -58.003906 121.921875 -47.828125 C 122.054688 -41.859375 120.898438 -36.023438 118.453125 -30.328125 C 116.015625 -24.628906 112.113281 -19.503906 106.75 -14.953125 C 101.394531 -10.410156 94.34375 -6.78125 85.59375 -4.0625 C 76.84375 -1.351562 66.222656 0 53.734375 0 Z M 39.28125 -20.96875 C 39.28125 -13.632812 39.957031 -8.847656 41.3125 -6.609375 C 42.675781 -4.367188 45.53125 -3.25 49.875 -3.25 L 55.5625 -3.25 C 70.21875 -3.25 80.90625 -6.742188 87.625 -13.734375 C 94.34375 -20.722656 97.703125 -29.578125 97.703125 -40.296875 C 97.703125 -52.515625 94.171875 -62.523438 87.109375 -70.328125 C 80.054688 -78.128906 68.929688 -82.03125 53.734375 -82.03125 L 39.28125 -82.03125 Z M 39.28125 -85.28125 L 57.40625 -85.28125 C 64.863281 -85.28125 70.695312 -87.789062 74.90625 -92.8125 C 79.113281 -97.832031 81.21875 -103.875 81.21875 -110.9375 C 81.21875 -119.882812 78.226562 -126.832031 72.25 -131.78125 C 66.28125 -136.738281 58.070312 -139.21875 47.625 -139.21875 L 39.28125 -139.21875 Z M 39.28125 -85.28125 "/></g></g></g><g fill="#737373" fill-opacity="1"><g transform="translate(576.572137, 170.650251)"><g><path d="M 42.75 2.03125 C 32.03125 2.03125 24.257812 -1.222656 19.4375 -7.734375 C 14.625 -14.242188 12.21875 -23.675781 12.21875 -36.03125 L 12.21875 -72.671875 C 12.21875 -78.640625 11.503906 -82.570312 10.078125 -84.46875 C 8.648438 -86.375 6.648438 -87.867188 4.078125 -88.953125 L 4.078125 -91.796875 L 30.9375 -103.609375 L 32.96875 -101.984375 L 32.96875 -38.671875 C 32.96875 -27.816406 34.1875 -19.675781 36.625 -14.25 C 39.070312 -8.820312 44.234375 -6.109375 52.109375 -6.109375 C 56.722656 -6.109375 61.472656 -7.429688 66.359375 -10.078125 C 71.242188 -12.722656 76.195312 -16.554688 81.21875 -21.578125 L 81.21875 -72.671875 C 81.21875 -78.640625 80.503906 -82.570312 79.078125 -84.46875 C 77.648438 -86.375 75.648438 -87.867188 73.078125 -88.953125 L 73.078125 -91.796875 L 99.9375 -103.609375 L 101.984375 -101.984375 L 101.984375 -25.84375 C 101.984375 -18.519531 102.488281 -13.128906 103.5 -9.671875 C 104.519531 -6.210938 106.726562 -3.9375 110.125 -2.84375 L 110.125 0 L 89.359375 0 C 83.929688 0 81.21875 -2.710938 81.21875 -8.140625 L 81.21875 -17.296875 C 75.382812 -11.734375 69.109375 -7.117188 62.390625 -3.453125 C 55.671875 0.203125 49.125 2.03125 42.75 2.03125 Z M 42.75 2.03125 "/></g></g></g><g fill="#737373" fill-opacity="1"><g transform="translate(692.797712, 170.650251)"><g><path d="M 5.703125 0 L 5.703125 -2.84375 C 9.085938 -3.9375 11.289062 -6.210938 12.3125 -9.671875 C 13.332031 -13.128906 13.84375 -18.519531 13.84375 -25.84375 L 13.84375 -72.671875 C 13.84375 -78.640625 13.128906 -82.570312 11.703125 -84.46875 C 10.273438 -86.375 8.273438 -87.867188 5.703125 -88.953125 L 5.703125 -91.796875 L 32.5625 -103.609375 L 34.609375 -101.984375 L 34.609375 -25.84375 C 34.609375 -18.519531 35.113281 -13.128906 36.125 -9.671875 C 37.144531 -6.210938 39.351562 -3.9375 42.75 -2.84375 L 42.75 0 Z M 9.15625 -124.359375 C 9.15625 -128.296875 10.507812 -131.617188 13.21875 -134.328125 C 15.9375 -137.046875 19.195312 -138.40625 23 -138.40625 C 27.070312 -138.40625 30.394531 -137.046875 32.96875 -134.328125 C 35.550781 -131.617188 36.84375 -128.296875 36.84375 -124.359375 C 36.84375 -120.566406 35.519531 -117.3125 32.875 -114.59375 C 30.226562 -111.882812 26.9375 -110.53125 23 -110.53125 C 19.195312 -110.53125 15.9375 -111.882812 13.21875 -114.59375 C 10.507812 -117.3125 9.15625 -120.566406 9.15625 -124.359375 Z M 9.15625 -124.359375 "/></g></g></g><g fill="#737373" fill-opacity="1"><g transform="translate(741.649112, 170.650251)"><g><path d="M 38.265625 2.03125 C 31.347656 2.03125 26.085938 -0.34375 22.484375 -5.09375 C 18.890625 -9.84375 17.09375 -17.710938 17.09375 -28.703125 L 17.09375 -98.515625 L 4.078125 -98.515625 L 4.078125 -101.765625 L 34.609375 -128.640625 L 37.859375 -128.640625 L 37.859375 -101.765625 L 69.40625 -101.765625 L 68.59375 -98.515625 L 37.859375 -98.515625 L 37.859375 -28.5 C 37.859375 -22.257812 39.007812 -17.675781 41.3125 -14.75 C 43.625 -11.832031 47.019531 -10.375 51.5 -10.375 C 53.800781 -10.375 56.546875 -11.019531 59.734375 -12.3125 C 62.929688 -13.601562 66.222656 -16.351562 69.609375 -20.5625 L 71.65625 -18.515625 C 66.21875 -12.273438 60.816406 -7.289062 55.453125 -3.5625 C 50.097656 0.164062 44.367188 2.03125 38.265625 2.03125 Z M 38.265625 2.03125 "/></g></g></g><g fill="#737373" fill-opacity="1"><g transform="translate(814.111965, 170.650251)"><g><path d="M 5.703125 0 L 5.703125 -2.84375 C 9.085938 -3.9375 11.289062 -6.210938 12.3125 -9.671875 C 13.332031 -13.128906 13.84375 -18.519531 13.84375 -25.84375 L 13.84375 -72.671875 C 13.84375 -78.640625 13.128906 -82.570312 11.703125 -84.46875 C 10.273438 -86.375 8.273438 -87.867188 5.703125 -88.953125 L 5.703125 -91.796875 L 32.5625 -103.609375 L 34.609375 -101.984375 L 34.609375 -77.34375 C 37.722656 -84.675781 42.675781 -90.648438 49.46875 -95.265625 C 53.257812 -97.972656 57.15625 -99.972656 61.15625 -101.265625 C 65.164062 -102.554688 69.613281 -103.203125 74.5 -103.203125 C 78.03125 -103.203125 81.082031 -102.722656 83.65625 -101.765625 C 86.238281 -100.816406 87.53125 -99.257812 87.53125 -97.09375 C 87.53125 -95.601562 87.019531 -93.804688 86 -91.703125 C 84.976562 -89.597656 83.445312 -87.765625 81.40625 -86.203125 C 79.375 -84.640625 76.800781 -83.859375 73.6875 -83.859375 C 70.832031 -83.859375 67.335938 -84.367188 63.203125 -85.390625 C 59.066406 -86.410156 53.738281 -87.9375 47.21875 -89.96875 C 44.644531 -87.789062 41.96875 -84.597656 39.1875 -80.390625 C 36.40625 -76.191406 34.878906 -71.515625 34.609375 -66.359375 L 34.609375 -25.84375 C 34.609375 -18.519531 35.113281 -13.128906 36.125 -9.671875 C 37.144531 -6.210938 39.351562 -3.9375 42.75 -2.84375 L 42.75 0 Z M 5.703125 0 "/></g></g></g><g fill="#737373" fill-opacity="1"><g transform="translate(905.911839, 170.650251)"><g><path d="M 83.453125 0 C 78.023438 0 75.3125 -2.710938 75.3125 -8.140625 L 75.3125 -41.734375 C 73.414062 -33.859375 70.566406 -26.59375 66.765625 -19.9375 C 62.960938 -13.289062 58.28125 -7.96875 52.71875 -3.96875 C 47.15625 0.03125 40.84375 2.03125 33.78125 2.03125 C 26.320312 2.03125 19.84375 -0.273438 14.34375 -4.890625 C 8.851562 -9.503906 6.109375 -16.082031 6.109375 -24.625 C 6.109375 -31.6875 8.242188 -37.421875 12.515625 -41.828125 C 16.796875 -46.234375 22.460938 -49.929688 29.515625 -52.921875 C 36.566406 -55.910156 44.300781 -58.554688 52.71875 -60.859375 L 75.3125 -67.375 C 75.175781 -77.414062 72.628906 -84.570312 67.671875 -88.84375 C 62.722656 -93.125 56.445312 -95.265625 48.84375 -95.265625 C 43.144531 -95.265625 37.515625 -93.941406 31.953125 -91.296875 C 26.390625 -88.648438 21.03125 -84.203125 15.875 -77.953125 L 13.84375 -79.796875 C 19.539062 -86.847656 26.253906 -92.507812 33.984375 -96.78125 C 41.722656 -101.0625 50.207031 -103.203125 59.4375 -103.203125 C 71.78125 -103.203125 80.90625 -99.976562 86.8125 -93.53125 C 92.71875 -87.082031 95.671875 -77.617188 95.671875 -65.140625 L 95.671875 -25.84375 C 95.671875 -18.519531 96.175781 -13.128906 97.1875 -9.671875 C 98.207031 -6.210938 100.414062 -3.9375 103.8125 -2.84375 L 103.8125 0 Z M 25.03125 -31.75 C 25.03125 -25.101562 27.03125 -20.285156 31.03125 -17.296875 C 35.039062 -14.316406 39.351562 -12.828125 43.96875 -12.828125 C 48.988281 -12.828125 53.429688 -14.351562 57.296875 -17.40625 C 61.160156 -20.457031 64.414062 -24.390625 67.0625 -29.203125 C 69.707031 -34.023438 71.742188 -39.082031 73.171875 -44.375 C 74.597656 -49.664062 75.3125 -54.617188 75.3125 -59.234375 L 75.3125 -64.53125 L 53.53125 -58.21875 C 51.09375 -57.539062 48.273438 -56.554688 45.078125 -55.265625 C 41.890625 -53.972656 38.769531 -52.304688 35.71875 -50.265625 C 32.664062 -48.234375 30.117188 -45.691406 28.078125 -42.640625 C 26.046875 -39.585938 25.03125 -35.957031 25.03125 -31.75 Z M 25.03125 -31.75 "/></g></g></g><g fill="#737373" fill-opacity="1"><g transform="translate(1013.791999, 170.650251)"><g><path d="M 35.421875 56.375 C 32.296875 56.375 28.898438 55.96875 25.234375 55.15625 C 21.578125 54.34375 18.082031 53.019531 14.75 51.1875 C 11.425781 49.351562 8.675781 46.84375 6.5 43.65625 C 4.332031 40.46875 3.25 36.5 3.25 31.75 C 3.25 26.1875 5.453125 20.789062 9.859375 15.5625 C 14.273438 10.34375 20.421875 5.359375 28.296875 0.609375 C 24.085938 -0.609375 20.757812 -2.472656 18.3125 -4.984375 C 15.875 -7.492188 14.65625 -10.851562 14.65625 -15.0625 C 14.65625 -18.863281 16.007812 -22.253906 18.71875 -25.234375 C 21.4375 -28.222656 25.507812 -31.347656 30.9375 -34.609375 C 25.644531 -37.179688 21.164062 -40.84375 17.5 -45.59375 C 13.84375 -50.34375 12.015625 -56.585938 12.015625 -64.328125 C 12.015625 -71.515625 13.945312 -78.023438 17.8125 -83.859375 C 21.675781 -89.691406 26.765625 -94.375 33.078125 -97.90625 C 39.390625 -101.4375 46.207031 -103.203125 53.53125 -103.203125 C 58.820312 -103.203125 63.773438 -102.585938 68.390625 -101.359375 C 71.378906 -105.972656 74.976562 -109.640625 79.1875 -112.359375 C 82.4375 -114.660156 85.859375 -116.457031 89.453125 -117.75 C 93.054688 -119.039062 96.957031 -119.6875 101.15625 -119.6875 C 104.28125 -119.6875 107.03125 -119.242188 109.40625 -118.359375 C 111.78125 -117.484375 112.96875 -116.09375 112.96875 -114.1875 C 112.96875 -112.96875 112.492188 -111.375 111.546875 -109.40625 C 110.597656 -107.4375 109.171875 -105.671875 107.265625 -104.109375 C 105.367188 -102.546875 102.992188 -101.765625 100.140625 -101.765625 C 97.703125 -101.765625 94.785156 -102.238281 91.390625 -103.1875 C 87.992188 -104.144531 83.378906 -105.570312 77.546875 -107.46875 C 75.648438 -105.976562 73.613281 -103.601562 71.4375 -100.34375 C 77.957031 -98.175781 83.457031 -94.546875 87.9375 -89.453125 C 92.414062 -84.367188 94.65625 -77.414062 94.65625 -68.59375 C 94.65625 -62.894531 93.328125 -57.671875 90.671875 -52.921875 C 88.023438 -48.171875 84.597656 -44.097656 80.390625 -40.703125 C 76.191406 -37.316406 71.71875 -34.671875 66.96875 -32.765625 C 62.21875 -30.867188 57.738281 -29.921875 53.53125 -29.921875 C 50.40625 -29.921875 47.113281 -30.191406 43.65625 -30.734375 C 40.195312 -31.273438 36.90625 -32.15625 33.78125 -33.375 C 32.019531 -32.289062 30.597656 -31.171875 29.515625 -30.015625 C 28.429688 -28.867188 27.890625 -27.410156 27.890625 -25.640625 C 27.890625 -24.421875 28.394531 -23.164062 29.40625 -21.875 C 30.425781 -20.59375 32.460938 -19.507812 35.515625 -18.625 C 38.566406 -17.738281 43.21875 -17.09375 49.46875 -16.6875 L 76.734375 -15.0625 C 87.179688 -14.519531 94.984375 -12.925781 100.140625 -10.28125 C 105.296875 -7.632812 107.875 -2.710938 107.875 4.484375 C 107.875 10.046875 105.875 15.84375 101.875 21.875 C 97.875 27.914062 92.476562 33.546875 85.6875 38.765625 C 78.90625 43.992188 71.171875 48.234375 62.484375 51.484375 C 53.804688 54.742188 44.785156 56.375 35.421875 56.375 Z M 19.953125 21.78125 C 19.953125 27.207031 21.34375 31.546875 24.125 34.796875 C 26.90625 38.054688 30.566406 40.429688 35.109375 41.921875 C 39.660156 43.421875 44.582031 44.171875 49.875 44.171875 C 59.375 44.171875 67.75 42.78125 75 40 C 82.257812 37.21875 87.925781 33.65625 92 29.3125 C 96.070312 24.96875 98.109375 20.421875 98.109375 15.671875 C 98.109375 12.410156 96.71875 9.832031 93.9375 7.9375 C 91.15625 6.039062 85.757812 4.890625 77.75 4.484375 L 44.984375 2.84375 C 42.535156 2.707031 40.191406 2.503906 37.953125 2.234375 C 35.722656 1.960938 33.65625 1.691406 31.75 1.421875 C 27.132812 4.679688 24.015625 8.039062 22.390625 11.5 C 20.765625 14.957031 19.953125 18.382812 19.953125 21.78125 Z M 30.9375 -75.515625 C 30.9375 -71.304688 31.445312 -66.789062 32.46875 -61.96875 C 33.488281 -57.15625 35.113281 -52.578125 37.34375 -48.234375 C 39.582031 -43.898438 42.398438 -40.335938 45.796875 -37.546875 C 49.191406 -34.765625 53.195312 -33.375 57.8125 -33.375 C 62.425781 -33.375 66.054688 -34.492188 68.703125 -36.734375 C 71.347656 -38.972656 73.210938 -41.890625 74.296875 -45.484375 C 75.378906 -49.085938 75.921875 -52.925781 75.921875 -57 C 75.921875 -61.46875 75.273438 -66.316406 73.984375 -71.546875 C 72.703125 -76.773438 70.804688 -81.625 68.296875 -86.09375 C 65.785156 -90.570312 62.726562 -94.132812 59.125 -96.78125 C 55.53125 -99.425781 51.425781 -100.546875 46.8125 -100.140625 C 40.707031 -99.460938 36.535156 -96.710938 34.296875 -91.890625 C 32.054688 -87.078125 30.9375 -81.617188 30.9375 -75.515625 Z M 30.9375 -75.515625 "/></g></g></g><g fill="#737373" fill-opacity="1"><g transform="translate(1122.486279, 170.650251)"><g><path d="M 60.65625 2.03125 C 54.007812 2.03125 47.460938 1.046875 41.015625 -0.921875 C 34.566406 -2.890625 28.726562 -5.941406 23.5 -10.078125 C 18.28125 -14.210938 14.109375 -19.4375 10.984375 -25.75 C 7.867188 -32.0625 6.3125 -39.554688 6.3125 -48.234375 C 6.3125 -56.515625 7.800781 -64.015625 10.78125 -70.734375 C 13.769531 -77.453125 17.84375 -83.21875 23 -88.03125 C 28.15625 -92.851562 33.988281 -96.585938 40.5 -99.234375 C 47.019531 -101.878906 53.738281 -103.203125 60.65625 -103.203125 C 67.03125 -103.203125 73.375 -102.25 79.6875 -100.34375 C 86 -98.445312 91.832031 -95.425781 97.1875 -91.28125 C 102.550781 -87.144531 106.828125 -81.890625 110.015625 -75.515625 C 113.203125 -69.140625 114.796875 -61.472656 114.796875 -52.515625 C 114.796875 -43.828125 113.132812 -36.09375 109.8125 -29.3125 C 106.488281 -22.53125 102.144531 -16.832031 96.78125 -12.21875 C 91.425781 -7.601562 85.554688 -4.070312 79.171875 -1.625 C 72.796875 0.8125 66.625 2.03125 60.65625 2.03125 Z M 26.671875 -63.5 C 26.671875 -57.53125 27.550781 -51.015625 29.3125 -43.953125 C 31.070312 -36.898438 33.679688 -30.21875 37.140625 -23.90625 C 40.609375 -17.601562 44.921875 -12.445312 50.078125 -8.4375 C 55.234375 -4.4375 61.132812 -2.4375 67.78125 -2.4375 C 74.425781 -2.4375 79.679688 -4.132812 83.546875 -7.53125 C 87.421875 -10.925781 90.171875 -15.269531 91.796875 -20.5625 C 93.421875 -25.851562 94.234375 -31.347656 94.234375 -37.046875 C 94.234375 -43.554688 93.179688 -50.507812 91.078125 -57.90625 C 88.984375 -65.300781 86 -72.253906 82.125 -78.765625 C 78.257812 -85.285156 73.613281 -90.476562 68.1875 -94.34375 C 62.757812 -98.207031 56.789062 -99.800781 50.28125 -99.125 C 44.445312 -98.582031 39.796875 -96.582031 36.328125 -93.125 C 32.867188 -89.664062 30.394531 -85.320312 28.90625 -80.09375 C 27.414062 -74.875 26.671875 -69.34375 26.671875 -63.5 Z M 26.671875 -63.5 "/></g></g></g><g fill="#737373" fill-opacity="1"><g transform="translate(1245.632517, 170.650251)"><g><path d="M 10.171875 28.09375 C 15.460938 25.507812 19.5 21.640625 22.28125 16.484375 C 25.070312 11.328125 26.671875 6.101562 27.078125 0.8125 C 26.253906 0.945312 25.4375 1.113281 24.625 1.3125 C 23.8125 1.519531 22.929688 1.625 21.984375 1.625 C 18.722656 1.625 16.003906 0.539062 13.828125 -1.625 C 11.660156 -3.800781 10.578125 -6.515625 10.578125 -9.765625 C 10.578125 -13.703125 11.726562 -16.925781 14.03125 -19.4375 C 16.34375 -21.945312 19.398438 -23.203125 23.203125 -23.203125 C 27.546875 -23.203125 31.070312 -21.84375 33.78125 -19.125 C 36.5 -16.414062 37.859375 -12.078125 37.859375 -6.109375 C 37.859375 -0.679688 36.46875 4.539062 33.6875 9.5625 C 30.90625 14.582031 27.476562 18.890625 23.40625 22.484375 C 19.332031 26.085938 15.257812 28.632812 11.1875 30.125 Z M 10.171875 28.09375 "/></g></g></g><g fill="#737373" fill-opacity="1"><g transform="translate(1294.68749, 170.650251)"><g/></g></g><g fill="#737373" fill-opacity="1"><g transform="translate(1335.397004, 170.650251)"><g><path d="M 9.5625 0 L 9.5625 -2.84375 C 12.957031 -3.9375 15.160156 -6.210938 16.171875 -9.671875 C 17.191406 -13.128906 17.703125 -18.519531 17.703125 -25.84375 L 17.703125 -116.625 C 17.703125 -123.957031 17.191406 -129.351562 16.171875 -132.8125 C 15.160156 -136.269531 12.957031 -138.546875 9.5625 -139.640625 L 9.5625 -142.484375 L 52.3125 -142.484375 C 63.976562 -142.484375 73.507812 -141.226562 80.90625 -138.71875 C 88.300781 -136.207031 94.066406 -132.945312 98.203125 -128.9375 C 102.347656 -124.9375 105.234375 -120.628906 106.859375 -116.015625 C 108.484375 -111.398438 109.296875 -107.0625 109.296875 -103 C 109.296875 -94.582031 107.191406 -86.773438 102.984375 -79.578125 C 98.785156 -72.390625 92.273438 -66.65625 83.453125 -62.375 C 74.628906 -58.101562 63.234375 -55.96875 49.265625 -55.96875 L 39.28125 -55.96875 L 39.28125 -25.84375 C 39.28125 -18.519531 39.789062 -13.128906 40.8125 -9.671875 C 41.832031 -6.210938 44.035156 -3.9375 47.421875 -2.84375 L 47.421875 0 Z M 39.28125 -59.234375 L 48.234375 -59.234375 C 61.535156 -59.234375 71.203125 -62.757812 77.234375 -69.8125 C 83.273438 -76.875 86.296875 -86.171875 86.296875 -97.703125 C 86.296875 -102.046875 85.6875 -106.625 84.46875 -111.4375 C 83.25 -116.257812 81.113281 -120.769531 78.0625 -124.96875 C 75.007812 -129.175781 70.835938 -132.601562 65.546875 -135.25 C 60.253906 -137.894531 53.601562 -139.21875 45.59375 -139.21875 C 43.289062 -139.21875 41.1875 -139.082031 39.28125 -138.8125 Z M 39.28125 -59.234375 "/></g></g></g><g fill="#737373" fill-opacity="1"><g transform="translate(1449.180006, 170.650251)"><g><path d="M 23.203125 1.421875 C 19.941406 1.421875 17.125 0.203125 14.75 -2.234375 C 12.375 -4.679688 11.1875 -7.597656 11.1875 -10.984375 C 11.1875 -14.378906 12.375 -17.265625 14.75 -19.640625 C 17.125 -22.015625 19.941406 -23.203125 23.203125 -23.203125 C 26.460938 -23.203125 29.242188 -22.015625 31.546875 -19.640625 C 33.859375 -17.265625 35.015625 -14.378906 35.015625 -10.984375 C 35.015625 -7.597656 33.859375 -4.679688 31.546875 -2.234375 C 29.242188 0.203125 26.460938 1.421875 23.203125 1.421875 Z M 23.203125 1.421875 "/></g></g></g></svg>