<svg xmlns="http://www.w3.org/2000/svg" xmlns:xlink="http://www.w3.org/1999/xlink" width="1080" zoomAndPan="magnify" viewBox="0 0 810 225" height="300" preserveAspectRatio="xMidYMid meet" version="1.0"><defs><g/></defs><g fill="#737373" fill-opacity="1"><g transform="translate(63.996092, 74.250007)"><g><path d="M 4.59375 0 L 4.59375 -1.1875 C 6 -1.625 6.960938 -2.546875 7.484375 -3.953125 C 8.003906 -5.359375 8.265625 -7.929688 8.265625 -11.671875 L 8.265625 -48.96875 C 8.265625 -52.457031 8.050781 -55.164062 7.625 -57.09375 C 7.195312 -59.019531 6.566406 -60.410156 5.734375 -61.265625 C 4.910156 -62.128906 3.882812 -62.742188 2.65625 -63.109375 L 2.65625 -64.296875 L 13.78125 -64.296875 L 37.75 -24.703125 L 61.265625 -64.296875 L 71.65625 -64.296875 L 71.65625 -63.109375 C 70.425781 -62.742188 69.394531 -62.128906 68.5625 -61.265625 C 67.738281 -60.410156 67.113281 -59.019531 66.6875 -57.09375 C 66.257812 -55.164062 66.046875 -52.457031 66.046875 -48.96875 L 66.046875 -11.671875 C 66.046875 -7.929688 66.304688 -5.359375 66.828125 -3.953125 C 67.347656 -2.546875 68.3125 -1.625 69.71875 -1.1875 L 69.71875 0 L 54.84375 0 L 54.84375 -1.1875 C 56.25 -1.625 57.210938 -2.546875 57.734375 -3.953125 C 58.253906 -5.359375 58.515625 -7.929688 58.515625 -11.671875 L 58.515625 -56.859375 L 35.1875 -17.453125 L 33.4375 -17.453125 L 9.921875 -56.125 L 9.921875 -15.34375 C 9.921875 -11.851562 10.164062 -9.15625 10.65625 -7.25 C 11.144531 -5.351562 11.847656 -3.960938 12.765625 -3.078125 C 13.679688 -2.191406 14.816406 -1.5625 16.171875 -1.1875 L 16.171875 0 Z M 4.59375 0 "/></g></g></g><g fill="#737373" fill-opacity="1"><g transform="translate(140.324714, 74.250007)"><g><path d="M 38.484375 0 C 36.648438 0 35.734375 -0.914062 35.734375 -2.75 L 35.734375 -19.296875 C 34.816406 -15.554688 33.375 -12.15625 31.40625 -9.09375 C 29.445312 -6.03125 27.164062 -3.59375 24.5625 -1.78125 C 21.96875 0.0195312 19.140625 0.921875 16.078125 0.921875 C 13.804688 0.921875 11.691406 0.460938 9.734375 -0.453125 C 7.773438 -1.378906 6.195312 -2.726562 5 -4.5 C 3.8125 -6.28125 3.21875 -8.484375 3.21875 -11.109375 C 3.21875 -14.296875 4.164062 -16.898438 6.0625 -18.921875 C 7.957031 -20.941406 10.484375 -22.59375 13.640625 -23.875 C 16.796875 -25.164062 20.179688 -26.300781 23.796875 -27.28125 L 35.734375 -30.5 C 35.484375 -34.96875 34.253906 -38.257812 32.046875 -40.375 C 29.847656 -42.488281 26.789062 -43.546875 22.875 -43.546875 C 20.113281 -43.546875 17.429688 -42.882812 14.828125 -41.5625 C 12.234375 -40.25 9.769531 -38.179688 7.4375 -35.359375 L 6.609375 -36.09375 C 9.242188 -39.34375 12.226562 -41.898438 15.5625 -43.765625 C 18.90625 -45.640625 22.566406 -46.578125 26.546875 -46.578125 C 32.117188 -46.578125 36.222656 -45.117188 38.859375 -42.203125 C 41.492188 -39.296875 42.8125 -35.238281 42.8125 -30.03125 L 42.8125 -11.671875 C 42.8125 -7.929688 43.070312 -5.359375 43.59375 -3.953125 C 44.113281 -2.546875 45.078125 -1.625 46.484375 -1.1875 L 46.484375 0 Z M 10.109375 -13.6875 C 10.109375 -10.6875 11.007812 -8.40625 12.8125 -6.84375 C 14.625 -5.28125 16.84375 -4.5 19.46875 -4.5 C 21.925781 -4.5 24.148438 -5.1875 26.140625 -6.5625 C 28.128906 -7.945312 29.828125 -9.738281 31.234375 -11.9375 C 32.640625 -14.144531 33.738281 -16.535156 34.53125 -19.109375 C 35.332031 -21.679688 35.734375 -24.160156 35.734375 -26.546875 L 35.734375 -29.296875 L 24.15625 -26.1875 C 21.894531 -25.570312 19.675781 -24.757812 17.5 -23.75 C 15.320312 -22.738281 13.546875 -21.4375 12.171875 -19.84375 C 10.796875 -18.25 10.109375 -16.195312 10.109375 -13.6875 Z M 10.109375 -13.6875 "/></g></g></g><g fill="#737373" fill-opacity="1"><g transform="translate(189.006025, 74.250007)"><g><path d="M 20.765625 0.828125 C 17.085938 0.828125 13.765625 0.367188 10.796875 -0.546875 C 7.828125 -1.460938 5.578125 -2.414062 4.046875 -3.40625 L 3.21875 -14.515625 L 4.046875 -14.703125 C 6.003906 -10.347656 8.570312 -6.929688 11.75 -4.453125 C 14.9375 -1.972656 18.613281 -0.703125 22.78125 -0.640625 C 25.65625 -0.640625 28.023438 -1.421875 29.890625 -2.984375 C 31.765625 -4.546875 32.703125 -6.613281 32.703125 -9.1875 C 32.703125 -11.394531 32.070312 -13.171875 30.8125 -14.515625 C 29.5625 -15.859375 27.910156 -16.957031 25.859375 -17.8125 C 23.804688 -18.675781 21.585938 -19.472656 19.203125 -20.203125 C 16.316406 -21.128906 13.738281 -22.097656 11.46875 -23.109375 C 9.207031 -24.117188 7.429688 -25.445312 6.140625 -27.09375 C 4.859375 -28.75 4.21875 -30.957031 4.21875 -33.71875 C 4.21875 -37.320312 5.671875 -40.363281 8.578125 -42.84375 C 11.492188 -45.332031 15.613281 -46.578125 20.9375 -46.578125 C 23.9375 -46.578125 26.707031 -46.316406 29.25 -45.796875 C 31.789062 -45.273438 33.769531 -44.707031 35.1875 -44.09375 L 35.546875 -34.71875 L 34.625 -34.546875 C 33.15625 -37.847656 31.039062 -40.476562 28.28125 -42.4375 C 25.53125 -44.394531 22.535156 -45.375 19.296875 -45.375 C 16.171875 -45.375 13.671875 -44.671875 11.796875 -43.265625 C 9.929688 -41.859375 9 -39.988281 9 -37.65625 C 9 -35.757812 9.59375 -34.164062 10.78125 -32.875 C 11.976562 -31.59375 13.570312 -30.507812 15.5625 -29.625 C 17.5625 -28.738281 19.753906 -27.894531 22.140625 -27.09375 C 23.910156 -26.539062 25.695312 -25.941406 27.5 -25.296875 C 29.3125 -24.660156 30.96875 -23.867188 32.46875 -22.921875 C 33.96875 -21.972656 35.191406 -20.75 36.140625 -19.25 C 37.097656 -17.75 37.578125 -15.832031 37.578125 -13.5 C 37.578125 -10.925781 36.945312 -8.550781 35.6875 -6.375 C 34.425781 -4.207031 32.539062 -2.476562 30.03125 -1.1875 C 27.519531 0.09375 24.429688 0.765625 20.765625 0.828125 Z M 20.765625 0.828125 "/></g></g></g><g fill="#737373" fill-opacity="1"><g transform="translate(229.879959, 74.250007)"><g><path d="M 4.78125 -22.328125 L 4.78125 -23.609375 L 28.75 -23.609375 L 28.75 -22.328125 Z M 4.78125 -22.328125 "/></g></g></g><g fill="#737373" fill-opacity="1"><g transform="translate(263.405767, 74.250007)"><g><path d="M 4.6875 0 L 4.6875 -1.1875 C 6.09375 -1.625 7.054688 -2.546875 7.578125 -3.953125 C 8.097656 -5.359375 8.359375 -7.929688 8.359375 -11.671875 L 8.359375 -52.640625 C 8.359375 -56.429688 8.097656 -59.015625 7.578125 -60.390625 C 7.054688 -61.773438 6.09375 -62.679688 4.6875 -63.109375 L 4.6875 -64.296875 L 26.1875 -64.296875 C 33.28125 -64.296875 38.375 -63.207031 41.46875 -61.03125 C 44.5625 -58.863281 46.109375 -55.910156 46.109375 -52.171875 C 46.109375 -49.046875 45.003906 -46.195312 42.796875 -43.625 C 40.597656 -41.0625 36.863281 -39.289062 31.59375 -38.3125 C 36.613281 -38.0625 40.71875 -37.140625 43.90625 -35.546875 C 47.09375 -33.953125 49.453125 -31.898438 50.984375 -29.390625 C 52.515625 -26.878906 53.28125 -24.125 53.28125 -21.125 C 53.34375 -18.550781 52.851562 -16.007812 51.8125 -13.5 C 50.769531 -10.988281 49.082031 -8.722656 46.75 -6.703125 C 44.425781 -4.679688 41.347656 -3.054688 37.515625 -1.828125 C 33.691406 -0.609375 28.992188 0 23.421875 0 Z M 15.890625 -9.375 C 15.890625 -6.0625 16.195312 -3.898438 16.8125 -2.890625 C 17.425781 -1.878906 18.710938 -1.375 20.671875 -1.375 L 24.25 -1.375 C 29.269531 -1.375 33.28125 -2.125 36.28125 -3.625 C 39.28125 -5.125 41.46875 -7.191406 42.84375 -9.828125 C 44.226562 -12.460938 44.921875 -15.460938 44.921875 -18.828125 C 44.921875 -22.378906 44.242188 -25.515625 42.890625 -28.234375 C 41.546875 -30.960938 39.421875 -33.125 36.515625 -34.71875 C 33.609375 -36.3125 29.859375 -37.109375 25.265625 -37.109375 L 15.890625 -37.109375 Z M 15.890625 -38.484375 L 24.4375 -38.484375 C 28.96875 -38.484375 32.316406 -39.644531 34.484375 -41.96875 C 36.660156 -44.300781 37.75 -47.148438 37.75 -50.515625 C 37.75 -54.316406 36.445312 -57.332031 33.84375 -59.5625 C 31.25 -61.800781 27.59375 -62.921875 22.875 -62.921875 L 15.890625 -62.921875 Z M 15.890625 -38.484375 "/></g></g></g><g fill="#737373" fill-opacity="1"><g transform="translate(319.618915, 74.250007)"><g><path d="M 20.03125 0.921875 C 15.1875 0.921875 11.628906 -0.546875 9.359375 -3.484375 C 7.097656 -6.429688 5.96875 -10.535156 5.96875 -15.796875 L 5.96875 -32.796875 C 5.96875 -34.941406 5.828125 -36.546875 5.546875 -37.609375 C 5.273438 -38.679688 4.878906 -39.460938 4.359375 -39.953125 C 3.835938 -40.441406 3.148438 -40.875 2.296875 -41.25 L 2.296875 -42.25 L 12.3125 -46.671875 L 13.140625 -46.015625 L 13.140625 -17.453125 C 13.140625 -12.242188 13.929688 -8.414062 15.515625 -5.96875 C 17.109375 -3.519531 19.742188 -2.296875 23.421875 -2.296875 C 26.117188 -2.296875 28.691406 -3.046875 31.140625 -4.546875 C 33.585938 -6.046875 35.851562 -7.898438 37.9375 -10.109375 L 37.9375 -32.796875 C 37.9375 -34.941406 37.796875 -36.546875 37.515625 -37.609375 C 37.242188 -38.679688 36.847656 -39.460938 36.328125 -39.953125 C 35.804688 -40.441406 35.117188 -40.875 34.265625 -41.25 L 34.265625 -42.25 L 44.28125 -46.671875 L 45.109375 -46.015625 L 45.109375 -11.671875 C 45.109375 -7.929688 45.367188 -5.359375 45.890625 -3.953125 C 46.410156 -2.546875 47.375 -1.625 48.78125 -1.1875 L 48.78125 0 L 40.96875 0 C 39.988281 0 39.238281 -0.273438 38.71875 -0.828125 C 38.195312 -1.378906 37.9375 -2.328125 37.9375 -3.671875 L 37.9375 -8.359375 C 35.613281 -5.910156 32.90625 -3.75 29.8125 -1.875 C 26.71875 -0.0078125 23.457031 0.921875 20.03125 0.921875 Z M 20.03125 0.921875 "/></g></g></g><g fill="#737373" fill-opacity="1"><g transform="translate(371.606881, 74.250007)"><g><path d="M 2.9375 0 L 2.9375 -1.1875 C 4.34375 -1.625 5.304688 -2.546875 5.828125 -3.953125 C 6.347656 -5.359375 6.609375 -7.929688 6.609375 -11.671875 L 6.609375 -32.796875 C 6.609375 -34.941406 6.484375 -36.546875 6.234375 -37.609375 C 5.992188 -38.679688 5.597656 -39.460938 5.046875 -39.953125 C 4.492188 -40.441406 3.789062 -40.875 2.9375 -41.25 L 2.9375 -42.25 L 13.046875 -46.671875 L 13.78125 -46.015625 L 13.78125 -11.671875 C 13.78125 -7.929688 14.054688 -5.359375 14.609375 -3.953125 C 15.160156 -2.546875 16.109375 -1.625 17.453125 -1.1875 L 17.453125 0 Z M 4.59375 -57.3125 C 4.59375 -58.789062 5.082031 -60.019531 6.0625 -61 C 7.039062 -61.976562 8.234375 -62.46875 9.640625 -62.46875 C 11.109375 -62.46875 12.316406 -61.976562 13.265625 -61 C 14.222656 -60.019531 14.703125 -58.789062 14.703125 -57.3125 C 14.703125 -55.96875 14.210938 -54.789062 13.234375 -53.78125 C 12.253906 -52.769531 11.054688 -52.265625 9.640625 -52.265625 C 8.234375 -52.265625 7.039062 -52.769531 6.0625 -53.78125 C 5.082031 -54.789062 4.59375 -55.96875 4.59375 -57.3125 Z M 4.59375 -57.3125 "/></g></g></g><g fill="#737373" fill-opacity="1"><g transform="translate(392.273468, 74.250007)"><g><path d="M 17.359375 0.921875 C 14.484375 0.921875 12.21875 -0.0703125 10.5625 -2.0625 C 8.90625 -4.050781 8.078125 -7.4375 8.078125 -12.21875 L 8.078125 -44.640625 L 2.203125 -44.640625 L 2.203125 -45.921875 L 13.96875 -57.234375 L 15.25 -57.234375 L 15.25 -45.921875 L 29.21875 -45.921875 L 28.75 -44.640625 L 15.25 -44.640625 L 15.25 -12.21875 C 15.25 -9.09375 15.84375 -6.867188 17.03125 -5.546875 C 18.226562 -4.234375 19.804688 -3.578125 21.765625 -3.578125 C 23.054688 -3.578125 24.46875 -3.925781 26 -4.625 C 27.53125 -5.332031 29.0625 -6.578125 30.59375 -8.359375 L 31.421875 -7.53125 C 29.453125 -5.269531 27.289062 -3.296875 24.9375 -1.609375 C 22.582031 0.078125 20.054688 0.921875 17.359375 0.921875 Z M 17.359375 0.921875 "/></g></g></g><g fill="#737373" fill-opacity="1"><g transform="translate(423.870398, 74.250007)"><g><path d="M 2.9375 0 L 2.9375 -1.1875 C 4.34375 -1.625 5.304688 -2.546875 5.828125 -3.953125 C 6.347656 -5.359375 6.609375 -7.929688 6.609375 -11.671875 L 6.609375 -32.796875 C 6.609375 -34.941406 6.46875 -36.546875 6.1875 -37.609375 C 5.914062 -38.679688 5.519531 -39.460938 5 -39.953125 C 4.476562 -40.441406 3.789062 -40.875 2.9375 -41.25 L 2.9375 -42.25 L 12.953125 -46.671875 L 13.78125 -46.015625 L 13.78125 -34.546875 C 14.507812 -36.316406 15.472656 -37.96875 16.671875 -39.5 C 17.867188 -41.03125 19.140625 -42.285156 20.484375 -43.265625 C 21.890625 -44.304688 23.4375 -45.117188 25.125 -45.703125 C 26.8125 -46.285156 28.753906 -46.578125 30.953125 -46.578125 C 32.796875 -46.578125 34.25 -46.359375 35.3125 -45.921875 C 36.382812 -45.492188 36.921875 -44.882812 36.921875 -44.09375 C 36.921875 -43.113281 36.445312 -41.992188 35.5 -40.734375 C 34.550781 -39.484375 33.25 -38.859375 31.59375 -38.859375 C 30.375 -38.859375 28.828125 -39.085938 26.953125 -39.546875 C 25.085938 -40.003906 22.8125 -40.628906 20.125 -41.421875 C 19.257812 -40.816406 18.351562 -39.882812 17.40625 -38.625 C 16.457031 -37.375 15.660156 -35.984375 15.015625 -34.453125 C 14.367188 -32.921875 13.988281 -31.421875 13.875 -29.953125 L 13.78125 -29.953125 L 13.78125 -11.671875 C 13.78125 -7.929688 14.039062 -5.359375 14.5625 -3.953125 C 15.082031 -2.546875 16.046875 -1.625 17.453125 -1.1875 L 17.453125 0 Z M 2.9375 0 "/></g></g></g><g fill="#737373" fill-opacity="1"><g transform="translate(462.448041, 74.250007)"><g><path d="M 38.484375 0 C 36.648438 0 35.734375 -0.914062 35.734375 -2.75 L 35.734375 -19.296875 C 34.816406 -15.554688 33.375 -12.15625 31.40625 -9.09375 C 29.445312 -6.03125 27.164062 -3.59375 24.5625 -1.78125 C 21.96875 0.0195312 19.140625 0.921875 16.078125 0.921875 C 13.804688 0.921875 11.691406 0.460938 9.734375 -0.453125 C 7.773438 -1.378906 6.195312 -2.726562 5 -4.5 C 3.8125 -6.28125 3.21875 -8.484375 3.21875 -11.109375 C 3.21875 -14.296875 4.164062 -16.898438 6.0625 -18.921875 C 7.957031 -20.941406 10.484375 -22.59375 13.640625 -23.875 C 16.796875 -25.164062 20.179688 -26.300781 23.796875 -27.28125 L 35.734375 -30.5 C 35.484375 -34.96875 34.253906 -38.257812 32.046875 -40.375 C 29.847656 -42.488281 26.789062 -43.546875 22.875 -43.546875 C 20.113281 -43.546875 17.429688 -42.882812 14.828125 -41.5625 C 12.234375 -40.25 9.769531 -38.179688 7.4375 -35.359375 L 6.609375 -36.09375 C 9.242188 -39.34375 12.226562 -41.898438 15.5625 -43.765625 C 18.90625 -45.640625 22.566406 -46.578125 26.546875 -46.578125 C 32.117188 -46.578125 36.222656 -45.117188 38.859375 -42.203125 C 41.492188 -39.296875 42.8125 -35.238281 42.8125 -30.03125 L 42.8125 -11.671875 C 42.8125 -7.929688 43.070312 -5.359375 43.59375 -3.953125 C 44.113281 -2.546875 45.078125 -1.625 46.484375 -1.1875 L 46.484375 0 Z M 10.109375 -13.6875 C 10.109375 -10.6875 11.007812 -8.40625 12.8125 -6.84375 C 14.625 -5.28125 16.84375 -4.5 19.46875 -4.5 C 21.925781 -4.5 24.148438 -5.1875 26.140625 -6.5625 C 28.128906 -7.945312 29.828125 -9.738281 31.234375 -11.9375 C 32.640625 -14.144531 33.738281 -16.535156 34.53125 -19.109375 C 35.332031 -21.679688 35.734375 -24.160156 35.734375 -26.546875 L 35.734375 -29.296875 L 24.15625 -26.1875 C 21.894531 -25.570312 19.675781 -24.757812 17.5 -23.75 C 15.320312 -22.738281 13.546875 -21.4375 12.171875 -19.84375 C 10.796875 -18.25 10.109375 -16.195312 10.109375 -13.6875 Z M 10.109375 -13.6875 "/></g></g></g><g fill="#737373" fill-opacity="1"><g transform="translate(511.129374, 74.250007)"><g><path d="M 16.34375 25.4375 C 14.019531 25.4375 11.707031 25.066406 9.40625 24.328125 C 7.113281 23.597656 5.203125 22.40625 3.671875 20.75 C 2.140625 19.101562 1.375 16.898438 1.375 14.140625 C 1.375 11.265625 2.460938 8.617188 4.640625 6.203125 C 6.816406 3.785156 9.769531 1.441406 13.5 -0.828125 C 11.414062 -1.316406 9.773438 -2.097656 8.578125 -3.171875 C 7.390625 -4.242188 6.796875 -5.757812 6.796875 -7.71875 C 6.796875 -9.425781 7.453125 -10.90625 8.765625 -12.15625 C 10.085938 -13.414062 11.664062 -14.628906 13.5 -15.796875 C 11.238281 -17.023438 9.328125 -18.722656 7.765625 -20.890625 C 6.203125 -23.066406 5.421875 -25.84375 5.421875 -29.21875 C 5.421875 -32.457031 6.273438 -35.378906 7.984375 -37.984375 C 9.703125 -40.585938 11.953125 -42.671875 14.734375 -44.234375 C 17.523438 -45.796875 20.484375 -46.578125 23.609375 -46.578125 C 24.710938 -46.578125 25.84375 -46.5 27 -46.34375 C 28.164062 -46.1875 29.269531 -45.957031 30.3125 -45.65625 C 30.800781 -46.269531 31.304688 -46.863281 31.828125 -47.4375 C 32.347656 -48.019531 32.914062 -48.53125 33.53125 -48.96875 C 34.9375 -50.1875 36.476562 -51.175781 38.15625 -51.9375 C 39.84375 -52.707031 41.789062 -53.09375 44 -53.09375 C 45.40625 -53.09375 46.550781 -52.894531 47.4375 -52.5 C 48.332031 -52.101562 48.78125 -51.566406 48.78125 -50.890625 C 48.78125 -50.097656 48.316406 -49.117188 47.390625 -47.953125 C 46.472656 -46.785156 45.191406 -46.203125 43.546875 -46.203125 C 42.378906 -46.203125 41.09375 -46.398438 39.6875 -46.796875 C 38.28125 -47.203125 36.535156 -47.707031 34.453125 -48.3125 C 33.472656 -47.582031 32.488281 -46.539062 31.5 -45.1875 C 34.320312 -44.207031 36.726562 -42.554688 38.71875 -40.234375 C 40.707031 -37.910156 41.703125 -34.753906 41.703125 -30.765625 C 41.703125 -28.140625 41.117188 -25.769531 39.953125 -23.65625 C 38.796875 -21.539062 37.296875 -19.71875 35.453125 -18.1875 C 33.617188 -16.65625 31.660156 -15.488281 29.578125 -14.6875 C 27.492188 -13.894531 25.503906 -13.5 23.609375 -13.5 C 22.203125 -13.5 20.71875 -13.632812 19.15625 -13.90625 C 17.59375 -14.1875 16.109375 -14.632812 14.703125 -15.25 C 13.722656 -14.570312 12.925781 -13.941406 12.3125 -13.359375 C 11.695312 -12.785156 11.390625 -12.066406 11.390625 -11.203125 C 11.453125 -9.984375 12.28125 -9.003906 13.875 -8.265625 C 15.46875 -7.535156 18.007812 -7.078125 21.5 -6.890625 L 33.0625 -6.15625 C 36.1875 -5.96875 38.835938 -5.628906 41.015625 -5.140625 C 43.191406 -4.648438 44.859375 -3.789062 46.015625 -2.5625 C 47.179688 -1.34375 47.765625 0.457031 47.765625 2.84375 C 47.765625 5.476562 46.859375 8.128906 45.046875 10.796875 C 43.242188 13.460938 40.8125 15.894531 37.75 18.09375 C 34.6875 20.300781 31.300781 22.078125 27.59375 23.421875 C 23.894531 24.765625 20.144531 25.4375 16.34375 25.4375 Z M 7.53125 10.75 C 7.53125 14.050781 8.800781 16.632812 11.34375 18.5 C 13.882812 20.375 17.300781 21.3125 21.59375 21.3125 C 24.53125 21.3125 27.34375 20.894531 30.03125 20.0625 C 32.726562 19.238281 35.148438 18.125 37.296875 16.71875 C 39.441406 15.3125 41.125 13.75 42.34375 12.03125 C 43.570312 10.320312 44.1875 8.546875 44.1875 6.703125 C 44.1875 4.554688 43.265625 3.070312 41.421875 2.25 C 39.585938 1.425781 36.773438 0.890625 32.984375 0.640625 L 20.125 0 C 18.28125 -0.125 16.53125 -0.304688 14.875 -0.546875 C 12.25 1.222656 10.367188 3.054688 9.234375 4.953125 C 8.097656 6.859375 7.53125 8.789062 7.53125 10.75 Z M 12.125 -33.25 C 12.125 -31.226562 12.414062 -29.160156 13 -27.046875 C 13.582031 -24.941406 14.4375 -22.96875 15.5625 -21.125 C 16.695312 -19.289062 18.09375 -17.804688 19.75 -16.671875 C 21.40625 -15.535156 23.273438 -14.96875 25.359375 -14.96875 C 28.785156 -14.96875 31.265625 -16.128906 32.796875 -18.453125 C 34.328125 -20.785156 35.09375 -23.515625 35.09375 -26.640625 C 35.09375 -28.722656 34.769531 -30.863281 34.125 -33.0625 C 33.476562 -35.269531 32.554688 -37.304688 31.359375 -39.171875 C 30.171875 -41.046875 28.734375 -42.546875 27.046875 -43.671875 C 25.367188 -44.804688 23.488281 -45.3125 21.40625 -45.1875 C 18.15625 -45.070312 15.796875 -43.863281 14.328125 -41.5625 C 12.859375 -39.269531 12.125 -36.5 12.125 -33.25 Z M 12.125 -33.25 "/></g></g></g><g fill="#737373" fill-opacity="1"><g transform="translate(559.167732, 74.250007)"><g><path d="M 27.375 0.921875 C 24.4375 0.921875 21.539062 0.460938 18.6875 -0.453125 C 15.84375 -1.378906 13.253906 -2.789062 10.921875 -4.6875 C 8.597656 -6.582031 6.75 -9 5.375 -11.9375 C 4 -14.875 3.3125 -18.335938 3.3125 -22.328125 C 3.3125 -27.097656 4.441406 -31.304688 6.703125 -34.953125 C 8.972656 -38.597656 11.941406 -41.445312 15.609375 -43.5 C 19.285156 -45.550781 23.207031 -46.578125 27.375 -46.578125 C 30.25 -46.578125 33.09375 -46.128906 35.90625 -45.234375 C 38.726562 -44.347656 41.300781 -42.957031 43.625 -41.0625 C 45.957031 -39.164062 47.828125 -36.742188 49.234375 -33.796875 C 50.640625 -30.859375 51.34375 -27.335938 51.34375 -23.234375 C 51.34375 -19.316406 50.625 -15.859375 49.1875 -12.859375 C 47.75 -9.859375 45.832031 -7.332031 43.4375 -5.28125 C 41.050781 -3.226562 38.453125 -1.679688 35.640625 -0.640625 C 32.828125 0.398438 30.070312 0.921875 27.375 0.921875 Z M 10.375 -27.5625 C 10.375 -24.625 10.832031 -21.609375 11.75 -18.515625 C 12.675781 -15.421875 13.992188 -12.554688 15.703125 -9.921875 C 17.421875 -7.285156 19.488281 -5.140625 21.90625 -3.484375 C 24.320312 -1.835938 27.0625 -1.015625 30.125 -1.015625 C 33.4375 -1.015625 36.132812 -1.789062 38.21875 -3.34375 C 40.300781 -4.90625 41.847656 -6.972656 42.859375 -9.546875 C 43.867188 -12.117188 44.375 -14.878906 44.375 -17.828125 C 44.375 -20.765625 43.878906 -23.835938 42.890625 -27.046875 C 41.910156 -30.265625 40.519531 -33.25 38.71875 -36 C 36.914062 -38.757812 34.753906 -40.96875 32.234375 -42.625 C 29.722656 -44.28125 26.96875 -45.015625 23.96875 -44.828125 C 20.851562 -44.703125 18.285156 -43.84375 16.265625 -42.25 C 14.242188 -40.65625 12.753906 -38.570312 11.796875 -36 C 10.847656 -33.4375 10.375 -30.625 10.375 -27.5625 Z M 10.375 -27.5625 "/></g></g></g><g fill="#737373" fill-opacity="1"><g transform="translate(614.462377, 74.250007)"><g><path d="M 5.046875 11.671875 C 7.441406 10.441406 9.203125 8.785156 10.328125 6.703125 C 11.460938 4.617188 12.09375 2.414062 12.21875 0.09375 C 11.851562 0.21875 11.5 0.320312 11.15625 0.40625 C 10.820312 0.5 10.441406 0.546875 10.015625 0.546875 C 8.785156 0.546875 7.726562 0.101562 6.84375 -0.78125 C 5.957031 -1.664062 5.515625 -2.722656 5.515625 -3.953125 C 5.515625 -5.484375 5.972656 -6.738281 6.890625 -7.71875 C 7.804688 -8.695312 9 -9.1875 10.46875 -9.1875 C 12.25 -9.1875 13.671875 -8.570312 14.734375 -7.34375 C 15.804688 -6.125 16.316406 -4.378906 16.265625 -2.109375 C 16.265625 0.0859375 15.742188 2.179688 14.703125 4.171875 C 13.660156 6.171875 12.3125 7.890625 10.65625 9.328125 C 9 10.765625 7.253906 11.820312 5.421875 12.5 Z M 5.046875 11.671875 "/></g></g></g><g fill="#737373" fill-opacity="1"><g transform="translate(636.23119, 74.250007)"><g/></g></g><g fill="#737373" fill-opacity="1"><g transform="translate(655.520023, 74.250007)"><g><path d="M 4.6875 0 L 4.6875 -1.1875 C 6.09375 -1.625 7.054688 -2.546875 7.578125 -3.953125 C 8.097656 -5.359375 8.359375 -7.929688 8.359375 -11.671875 L 8.359375 -52.640625 C 8.359375 -56.429688 8.097656 -59.015625 7.578125 -60.390625 C 7.054688 -61.773438 6.09375 -62.679688 4.6875 -63.109375 L 4.6875 -64.296875 L 23.328125 -64.296875 C 29.703125 -64.296875 34.707031 -63.40625 38.34375 -61.625 C 41.988281 -59.851562 44.578125 -57.585938 46.109375 -54.828125 C 47.640625 -52.078125 48.40625 -49.203125 48.40625 -46.203125 C 48.40625 -40.078125 46.21875 -35.082031 41.84375 -31.21875 C 37.46875 -27.363281 30.988281 -25.4375 22.40625 -25.4375 L 15.890625 -25.4375 L 15.890625 -11.671875 C 15.890625 -7.929688 16.148438 -5.359375 16.671875 -3.953125 C 17.191406 -2.546875 18.15625 -1.625 19.5625 -1.1875 L 19.5625 0 Z M 15.890625 -26.828125 L 22.234375 -26.828125 C 28.109375 -26.828125 32.59375 -28.359375 35.6875 -31.421875 C 38.78125 -34.484375 40.328125 -38.707031 40.328125 -44.09375 C 40.328125 -47.394531 39.632812 -50.46875 38.25 -53.3125 C 36.875 -56.164062 34.6875 -58.476562 31.6875 -60.25 C 28.6875 -62.03125 24.707031 -62.921875 19.75 -62.921875 C 19.132812 -62.921875 18.472656 -62.90625 17.765625 -62.875 C 17.066406 -62.84375 16.441406 -62.796875 15.890625 -62.734375 Z M 15.890625 -26.828125 "/></g></g></g><g fill="#737373" fill-opacity="1"><g transform="translate(706.222062, 74.250007)"><g><path d="M 10.28125 0.640625 C 9 0.640625 7.882812 0.148438 6.9375 -0.828125 C 5.988281 -1.804688 5.515625 -2.96875 5.515625 -4.3125 C 5.515625 -5.664062 5.988281 -6.816406 6.9375 -7.765625 C 7.882812 -8.710938 9 -9.1875 10.28125 -9.1875 C 11.570312 -9.1875 12.675781 -8.710938 13.59375 -7.765625 C 14.507812 -6.816406 14.96875 -5.664062 14.96875 -4.3125 C 14.96875 -2.96875 14.507812 -1.804688 13.59375 -0.828125 C 12.675781 0.148438 11.570312 0.640625 10.28125 0.640625 Z M 10.28125 0.640625 "/></g></g></g><g fill="#737373" fill-opacity="1"><g transform="translate(726.714818, 74.250007)"><g/></g></g><g fill="#737373" fill-opacity="1"><g transform="translate(212.613277, 202.500002)"><g><path d="M 51.4375 0.640625 C 49.113281 0.640625 47.273438 0.078125 45.921875 -1.046875 C 44.578125 -2.179688 43.398438 -3.835938 42.390625 -6.015625 C 41.378906 -8.191406 40.203125 -10.867188 38.859375 -14.046875 C 37.503906 -17.234375 36.367188 -20.019531 35.453125 -22.40625 C 34.535156 -24.800781 33.539062 -26.789062 32.46875 -28.375 C 31.394531 -29.96875 30.03125 -31.160156 28.375 -31.953125 C 26.726562 -32.753906 24.523438 -33.15625 21.765625 -33.15625 L 15.890625 -33.15625 L 15.890625 -11.671875 C 15.890625 -7.929688 16.148438 -5.359375 16.671875 -3.953125 C 17.191406 -2.546875 18.15625 -1.625 19.5625 -1.1875 L 19.5625 0 L 4.6875 0 L 4.6875 -1.1875 C 6.09375 -1.625 7.054688 -2.546875 7.578125 -3.953125 C 8.097656 -5.359375 8.359375 -7.929688 8.359375 -11.671875 L 8.359375 -52.640625 C 8.359375 -56.429688 8.097656 -59.015625 7.578125 -60.390625 C 7.054688 -61.773438 6.09375 -62.679688 4.6875 -63.109375 L 4.6875 -64.296875 L 22.78125 -64.296875 C 29.03125 -64.296875 33.898438 -63.664062 37.390625 -62.40625 C 40.878906 -61.15625 43.34375 -59.457031 44.78125 -57.3125 C 46.21875 -55.175781 46.9375 -52.726562 46.9375 -49.96875 C 46.9375 -45.6875 45.40625 -42.03125 42.34375 -39 C 39.28125 -35.96875 34.75 -34.113281 28.75 -33.4375 C 31.570312 -33.070312 33.867188 -32.441406 35.640625 -31.546875 C 37.421875 -30.660156 38.890625 -29.46875 40.046875 -27.96875 C 41.210938 -26.46875 42.253906 -24.644531 43.171875 -22.5 C 44.085938 -20.363281 45.097656 -17.882812 46.203125 -15.0625 C 47.671875 -11.382812 48.910156 -8.535156 49.921875 -6.515625 C 50.929688 -4.492188 51.863281 -3.070312 52.71875 -2.25 C 53.582031 -1.425781 54.535156 -1.015625 55.578125 -1.015625 C 55.878906 -1.015625 56.132812 -1.015625 56.34375 -1.015625 C 56.5625 -1.015625 56.796875 -1.046875 57.046875 -1.109375 L 57.046875 0 C 56.367188 0.25 55.492188 0.414062 54.421875 0.5 C 53.347656 0.59375 52.351562 0.640625 51.4375 0.640625 Z M 15.890625 -34.546875 L 23.609375 -34.546875 C 28.867188 -34.546875 32.769531 -35.785156 35.3125 -38.265625 C 37.851562 -40.742188 39.125 -43.941406 39.125 -47.859375 C 39.125 -50.617188 38.492188 -53.128906 37.234375 -55.390625 C 35.984375 -57.660156 33.960938 -59.484375 31.171875 -60.859375 C 28.390625 -62.234375 24.734375 -62.921875 20.203125 -62.921875 C 19.535156 -62.921875 18.832031 -62.90625 18.09375 -62.875 C 17.363281 -62.84375 16.628906 -62.796875 15.890625 -62.734375 Z M 15.890625 -34.546875 "/></g></g></g><g fill="#737373" fill-opacity="1"><g transform="translate(268.826413, 202.500002)"><g><path d="M 25.078125 0.921875 C 22.566406 0.921875 20.023438 0.460938 17.453125 -0.453125 C 14.878906 -1.378906 12.519531 -2.773438 10.375 -4.640625 C 8.238281 -6.503906 6.523438 -8.84375 5.234375 -11.65625 C 3.953125 -14.476562 3.3125 -17.789062 3.3125 -21.59375 C 3.3125 -26.613281 4.425781 -30.988281 6.65625 -34.71875 C 8.894531 -38.457031 11.847656 -41.367188 15.515625 -43.453125 C 19.191406 -45.535156 23.175781 -46.578125 27.46875 -46.578125 C 31.320312 -46.578125 34.609375 -45.828125 37.328125 -44.328125 C 40.054688 -42.828125 42.171875 -40.847656 43.671875 -38.390625 C 45.171875 -35.941406 45.953125 -33.25 46.015625 -30.3125 L 10.109375 -30.3125 C 9.921875 -28.96875 9.828125 -27.5625 9.828125 -26.09375 C 9.828125 -21.925781 10.640625 -18.234375 12.265625 -15.015625 C 13.890625 -11.804688 16.1875 -9.3125 19.15625 -7.53125 C 22.125 -5.757812 25.597656 -4.875 29.578125 -4.875 C 33.128906 -4.875 36.222656 -5.609375 38.859375 -7.078125 C 41.492188 -8.546875 43.847656 -10.472656 45.921875 -12.859375 L 46.75 -12.03125 C 45.21875 -9.882812 43.378906 -7.816406 41.234375 -5.828125 C 39.097656 -3.835938 36.695312 -2.210938 34.03125 -0.953125 C 31.363281 0.296875 28.378906 0.921875 25.078125 0.921875 Z M 10.375 -31.5 L 38.671875 -31.5 C 38.367188 -33.582031 37.617188 -35.648438 36.421875 -37.703125 C 35.222656 -39.753906 33.628906 -41.46875 31.640625 -42.84375 C 29.648438 -44.226562 27.25 -44.921875 24.4375 -44.921875 C 20.519531 -44.984375 17.378906 -43.726562 15.015625 -41.15625 C 12.660156 -38.582031 11.113281 -35.363281 10.375 -31.5 Z M 10.375 -31.5 "/></g></g></g><g fill="#737373" fill-opacity="1"><g transform="translate(318.150687, 202.500002)"><g><path d="M 20.765625 0.828125 C 17.085938 0.828125 13.765625 0.367188 10.796875 -0.546875 C 7.828125 -1.460938 5.578125 -2.414062 4.046875 -3.40625 L 3.21875 -14.515625 L 4.046875 -14.703125 C 6.003906 -10.347656 8.570312 -6.929688 11.75 -4.453125 C 14.9375 -1.972656 18.613281 -0.703125 22.78125 -0.640625 C 25.65625 -0.640625 28.023438 -1.421875 29.890625 -2.984375 C 31.765625 -4.546875 32.703125 -6.613281 32.703125 -9.1875 C 32.703125 -11.394531 32.070312 -13.171875 30.8125 -14.515625 C 29.5625 -15.859375 27.910156 -16.957031 25.859375 -17.8125 C 23.804688 -18.675781 21.585938 -19.472656 19.203125 -20.203125 C 16.316406 -21.128906 13.738281 -22.097656 11.46875 -23.109375 C 9.207031 -24.117188 7.429688 -25.445312 6.140625 -27.09375 C 4.859375 -28.75 4.21875 -30.957031 4.21875 -33.71875 C 4.21875 -37.320312 5.671875 -40.363281 8.578125 -42.84375 C 11.492188 -45.332031 15.613281 -46.578125 20.9375 -46.578125 C 23.9375 -46.578125 26.707031 -46.316406 29.25 -45.796875 C 31.789062 -45.273438 33.769531 -44.707031 35.1875 -44.09375 L 35.546875 -34.71875 L 34.625 -34.546875 C 33.15625 -37.847656 31.039062 -40.476562 28.28125 -42.4375 C 25.53125 -44.394531 22.535156 -45.375 19.296875 -45.375 C 16.171875 -45.375 13.671875 -44.671875 11.796875 -43.265625 C 9.929688 -41.859375 9 -39.988281 9 -37.65625 C 9 -35.757812 9.59375 -34.164062 10.78125 -32.875 C 11.976562 -31.59375 13.570312 -30.507812 15.5625 -29.625 C 17.5625 -28.738281 19.753906 -27.894531 22.140625 -27.09375 C 23.910156 -26.539062 25.695312 -25.941406 27.5 -25.296875 C 29.3125 -24.660156 30.96875 -23.867188 32.46875 -22.921875 C 33.96875 -21.972656 35.191406 -20.75 36.140625 -19.25 C 37.097656 -17.75 37.578125 -15.832031 37.578125 -13.5 C 37.578125 -10.925781 36.945312 -8.550781 35.6875 -6.375 C 34.425781 -4.207031 32.539062 -2.476562 30.03125 -1.1875 C 27.519531 0.09375 24.429688 0.765625 20.765625 0.828125 Z M 20.765625 0.828125 "/></g></g></g><g fill="#737373" fill-opacity="1"><g transform="translate(359.024621, 202.500002)"><g><path d="M 25.078125 0.921875 C 22.566406 0.921875 20.023438 0.460938 17.453125 -0.453125 C 14.878906 -1.378906 12.519531 -2.773438 10.375 -4.640625 C 8.238281 -6.503906 6.523438 -8.84375 5.234375 -11.65625 C 3.953125 -14.476562 3.3125 -17.789062 3.3125 -21.59375 C 3.3125 -26.613281 4.425781 -30.988281 6.65625 -34.71875 C 8.894531 -38.457031 11.847656 -41.367188 15.515625 -43.453125 C 19.191406 -45.535156 23.175781 -46.578125 27.46875 -46.578125 C 31.320312 -46.578125 34.609375 -45.828125 37.328125 -44.328125 C 40.054688 -42.828125 42.171875 -40.847656 43.671875 -38.390625 C 45.171875 -35.941406 45.953125 -33.25 46.015625 -30.3125 L 10.109375 -30.3125 C 9.921875 -28.96875 9.828125 -27.5625 9.828125 -26.09375 C 9.828125 -21.925781 10.640625 -18.234375 12.265625 -15.015625 C 13.890625 -11.804688 16.1875 -9.3125 19.15625 -7.53125 C 22.125 -5.757812 25.597656 -4.875 29.578125 -4.875 C 33.128906 -4.875 36.222656 -5.609375 38.859375 -7.078125 C 41.492188 -8.546875 43.847656 -10.472656 45.921875 -12.859375 L 46.75 -12.03125 C 45.21875 -9.882812 43.378906 -7.816406 41.234375 -5.828125 C 39.097656 -3.835938 36.695312 -2.210938 34.03125 -0.953125 C 31.363281 0.296875 28.378906 0.921875 25.078125 0.921875 Z M 10.375 -31.5 L 38.671875 -31.5 C 38.367188 -33.582031 37.617188 -35.648438 36.421875 -37.703125 C 35.222656 -39.753906 33.628906 -41.46875 31.640625 -42.84375 C 29.648438 -44.226562 27.25 -44.921875 24.4375 -44.921875 C 20.519531 -44.984375 17.378906 -43.726562 15.015625 -41.15625 C 12.660156 -38.582031 11.113281 -35.363281 10.375 -31.5 Z M 10.375 -31.5 "/></g></g></g><g fill="#737373" fill-opacity="1"><g transform="translate(408.348894, 202.500002)"><g><path d="M 38.484375 0 C 36.648438 0 35.734375 -0.914062 35.734375 -2.75 L 35.734375 -19.296875 C 34.816406 -15.554688 33.375 -12.15625 31.40625 -9.09375 C 29.445312 -6.03125 27.164062 -3.59375 24.5625 -1.78125 C 21.96875 0.0195312 19.140625 0.921875 16.078125 0.921875 C 13.804688 0.921875 11.691406 0.460938 9.734375 -0.453125 C 7.773438 -1.378906 6.195312 -2.726562 5 -4.5 C 3.8125 -6.28125 3.21875 -8.484375 3.21875 -11.109375 C 3.21875 -14.296875 4.164062 -16.898438 6.0625 -18.921875 C 7.957031 -20.941406 10.484375 -22.59375 13.640625 -23.875 C 16.796875 -25.164062 20.179688 -26.300781 23.796875 -27.28125 L 35.734375 -30.5 C 35.484375 -34.96875 34.253906 -38.257812 32.046875 -40.375 C 29.847656 -42.488281 26.789062 -43.546875 22.875 -43.546875 C 20.113281 -43.546875 17.429688 -42.882812 14.828125 -41.5625 C 12.234375 -40.25 9.769531 -38.179688 7.4375 -35.359375 L 6.609375 -36.09375 C 9.242188 -39.34375 12.226562 -41.898438 15.5625 -43.765625 C 18.90625 -45.640625 22.566406 -46.578125 26.546875 -46.578125 C 32.117188 -46.578125 36.222656 -45.117188 38.859375 -42.203125 C 41.492188 -39.296875 42.8125 -35.238281 42.8125 -30.03125 L 42.8125 -11.671875 C 42.8125 -7.929688 43.070312 -5.359375 43.59375 -3.953125 C 44.113281 -2.546875 45.078125 -1.625 46.484375 -1.1875 L 46.484375 0 Z M 10.109375 -13.6875 C 10.109375 -10.6875 11.007812 -8.40625 12.8125 -6.84375 C 14.625 -5.28125 16.84375 -4.5 19.46875 -4.5 C 21.925781 -4.5 24.148438 -5.1875 26.140625 -6.5625 C 28.128906 -7.945312 29.828125 -9.738281 31.234375 -11.9375 C 32.640625 -14.144531 33.738281 -16.535156 34.53125 -19.109375 C 35.332031 -21.679688 35.734375 -24.160156 35.734375 -26.546875 L 35.734375 -29.296875 L 24.15625 -26.1875 C 21.894531 -25.570312 19.675781 -24.757812 17.5 -23.75 C 15.320312 -22.738281 13.546875 -21.4375 12.171875 -19.84375 C 10.796875 -18.25 10.109375 -16.195312 10.109375 -13.6875 Z M 10.109375 -13.6875 "/></g></g></g><g fill="#737373" fill-opacity="1"><g transform="translate(457.030205, 202.500002)"><g><path d="M 2.9375 0 L 2.9375 -1.1875 C 4.34375 -1.625 5.304688 -2.546875 5.828125 -3.953125 C 6.347656 -5.359375 6.609375 -7.929688 6.609375 -11.671875 L 6.609375 -32.796875 C 6.609375 -34.941406 6.46875 -36.546875 6.1875 -37.609375 C 5.914062 -38.679688 5.519531 -39.460938 5 -39.953125 C 4.476562 -40.441406 3.789062 -40.875 2.9375 -41.25 L 2.9375 -42.25 L 12.953125 -46.671875 L 13.78125 -46.015625 L 13.78125 -34.546875 C 14.507812 -36.316406 15.472656 -37.96875 16.671875 -39.5 C 17.867188 -41.03125 19.140625 -42.285156 20.484375 -43.265625 C 21.890625 -44.304688 23.4375 -45.117188 25.125 -45.703125 C 26.8125 -46.285156 28.753906 -46.578125 30.953125 -46.578125 C 32.796875 -46.578125 34.25 -46.359375 35.3125 -45.921875 C 36.382812 -45.492188 36.921875 -44.882812 36.921875 -44.09375 C 36.921875 -43.113281 36.445312 -41.992188 35.5 -40.734375 C 34.550781 -39.484375 33.25 -38.859375 31.59375 -38.859375 C 30.375 -38.859375 28.828125 -39.085938 26.953125 -39.546875 C 25.085938 -40.003906 22.8125 -40.628906 20.125 -41.421875 C 19.257812 -40.816406 18.351562 -39.882812 17.40625 -38.625 C 16.457031 -37.375 15.660156 -35.984375 15.015625 -34.453125 C 14.367188 -32.921875 13.988281 -31.421875 13.875 -29.953125 L 13.78125 -29.953125 L 13.78125 -11.671875 C 13.78125 -7.929688 14.039062 -5.359375 14.5625 -3.953125 C 15.082031 -2.546875 16.046875 -1.625 17.453125 -1.1875 L 17.453125 0 Z M 2.9375 0 "/></g></g></g><g fill="#737373" fill-opacity="1"><g transform="translate(495.607848, 202.500002)"><g><path d="M 25.078125 0.921875 C 21.523438 0.921875 18.078125 0.078125 14.734375 -1.609375 C 11.398438 -3.296875 8.660156 -5.820312 6.515625 -9.1875 C 4.378906 -12.550781 3.3125 -16.6875 3.3125 -21.59375 C 3.3125 -26.425781 4.457031 -30.722656 6.75 -34.484375 C 9.050781 -38.253906 12.097656 -41.210938 15.890625 -43.359375 C 19.691406 -45.503906 23.828125 -46.578125 28.296875 -46.578125 C 31.234375 -46.578125 33.878906 -46.332031 36.234375 -45.84375 C 38.597656 -45.351562 40.46875 -44.738281 41.84375 -44 C 43.21875 -43.257812 43.90625 -42.460938 43.90625 -41.609375 C 43.90625 -40.566406 43.304688 -39.476562 42.109375 -38.34375 C 40.921875 -37.21875 39.59375 -36.65625 38.125 -36.65625 C 35.976562 -36.65625 31.320312 -39.472656 24.15625 -45.109375 C 19.875 -44.367188 16.414062 -42.253906 13.78125 -38.765625 C 11.144531 -35.273438 9.828125 -31.050781 9.828125 -26.09375 C 9.828125 -21.925781 10.640625 -18.234375 12.265625 -15.015625 C 13.890625 -11.804688 16.1875 -9.3125 19.15625 -7.53125 C 22.125 -5.757812 25.597656 -4.875 29.578125 -4.875 C 33.128906 -4.875 36.222656 -5.609375 38.859375 -7.078125 C 41.492188 -8.546875 43.847656 -10.472656 45.921875 -12.859375 L 46.75 -12.03125 C 45.21875 -9.882812 43.378906 -7.816406 41.234375 -5.828125 C 39.097656 -3.835938 36.695312 -2.210938 34.03125 -0.953125 C 31.363281 0.296875 28.378906 0.921875 25.078125 0.921875 Z M 25.078125 0.921875 "/></g></g></g><g fill="#737373" fill-opacity="1"><g transform="translate(544.197308, 202.500002)"><g><path d="M 2.484375 0 L 2.484375 -1.1875 C 3.890625 -1.625 4.851562 -2.546875 5.375 -3.953125 C 5.894531 -5.359375 6.15625 -7.929688 6.15625 -11.671875 L 6.15625 -60.359375 C 6.15625 -62.492188 6.015625 -64.097656 5.734375 -65.171875 C 5.460938 -66.242188 5.066406 -67.023438 4.546875 -67.515625 C 4.023438 -68.003906 3.335938 -68.429688 2.484375 -68.796875 L 2.484375 -69.8125 L 12.5 -74.21875 L 13.3125 -73.578125 L 13.3125 -38.125 C 16.007812 -40.269531 19.039062 -42.210938 22.40625 -43.953125 C 25.78125 -45.703125 29.242188 -46.578125 32.796875 -46.578125 C 37.328125 -46.578125 40.878906 -45.257812 43.453125 -42.625 C 46.023438 -39.988281 47.3125 -35.976562 47.3125 -30.59375 L 47.3125 -11.671875 C 47.3125 -7.929688 47.570312 -5.359375 48.09375 -3.953125 C 48.613281 -2.546875 49.578125 -1.625 50.984375 -1.1875 L 50.984375 0 L 36.46875 0 L 36.46875 -1.1875 C 37.875 -1.625 38.835938 -2.546875 39.359375 -3.953125 C 39.878906 -5.359375 40.140625 -7.929688 40.140625 -11.671875 L 40.140625 -28.75 C 40.140625 -33.53125 39.128906 -37.191406 37.109375 -39.734375 C 35.085938 -42.273438 32.054688 -43.546875 28.015625 -43.546875 C 25.503906 -43.546875 23.007812 -42.882812 20.53125 -41.5625 C 18.050781 -40.25 15.644531 -38.613281 13.3125 -36.65625 L 13.3125 -11.671875 C 13.3125 -7.929688 13.570312 -5.359375 14.09375 -3.953125 C 14.613281 -2.546875 15.582031 -1.625 17 -1.1875 L 17 0 Z M 2.484375 0 "/></g></g></g></svg>