<svg xmlns="http://www.w3.org/2000/svg" xmlns:xlink="http://www.w3.org/1999/xlink" width="1080" zoomAndPan="magnify" viewBox="0 0 810 225" height="300" preserveAspectRatio="xMidYMid meet" version="1.0"><defs><g/></defs><rect x="-81" width="972" fill="#ffffff" y="-22.5" height="270" fill-opacity="1"/><rect x="-81" width="972" fill="#ffffff" y="-22.5" height="270" fill-opacity="1"/><g fill="#737373" fill-opacity="1"><g transform="translate(1.21875, 143.830888)"><g><path d="M 4.625 0 L 4.625 -1.546875 C 6.46875 -2.128906 7.664062 -3.359375 8.21875 -5.234375 C 8.769531 -7.109375 9.046875 -10.03125 9.046875 -14 L 9.046875 -56.5625 C 9.046875 -61.050781 8.769531 -64.582031 8.21875 -67.15625 C 7.664062 -69.726562 6.835938 -71.640625 5.734375 -72.890625 C 4.628906 -74.140625 3.234375 -75.054688 1.546875 -75.640625 L 1.546875 -77.1875 L 18.078125 -77.1875 L 45.3125 -31.984375 L 71.234375 -77.1875 L 86.890625 -77.1875 L 86.890625 -75.640625 C 85.203125 -75.054688 83.804688 -74.140625 82.703125 -72.890625 C 81.597656 -71.640625 80.769531 -69.726562 80.21875 -67.15625 C 79.664062 -64.582031 79.390625 -61.050781 79.390625 -56.5625 L 79.390625 -14 C 79.390625 -10.03125 79.664062 -7.109375 80.21875 -5.234375 C 80.769531 -3.359375 81.960938 -2.128906 83.796875 -1.546875 L 83.796875 0 L 63.296875 0 L 63.296875 -1.546875 C 65.128906 -2.128906 66.320312 -3.359375 66.875 -5.234375 C 67.425781 -7.109375 67.703125 -10.03125 67.703125 -14 L 67.703125 -67.375 L 41.234375 -20.953125 L 38.703125 -20.953125 L 11.03125 -66.375 L 11.03125 -20.625 C 11.03125 -16.132812 11.320312 -12.601562 11.90625 -10.03125 C 12.5 -7.457031 13.421875 -5.546875 14.671875 -4.296875 C 15.921875 -3.046875 17.5 -2.128906 19.40625 -1.546875 L 19.40625 0 Z M 4.625 0 "/></g></g></g><g fill="#737373" fill-opacity="1"><g transform="translate(93.287243, 143.830888)"><g><path d="M 45.203125 0 C 42.265625 0 40.796875 -1.46875 40.796875 -4.40625 L 40.796875 -22.609375 C 39.765625 -18.335938 38.21875 -14.398438 36.15625 -10.796875 C 34.101562 -7.203125 31.566406 -4.316406 28.546875 -2.140625 C 25.535156 0.0234375 22.117188 1.109375 18.296875 1.109375 C 14.253906 1.109375 10.742188 -0.140625 7.765625 -2.640625 C 4.796875 -5.140625 3.3125 -8.707031 3.3125 -13.34375 C 3.3125 -17.164062 4.46875 -20.269531 6.78125 -22.65625 C 9.09375 -25.050781 12.160156 -27.054688 15.984375 -28.671875 C 19.804688 -30.285156 24 -31.71875 28.5625 -32.96875 L 40.796875 -36.5 C 40.722656 -41.9375 39.34375 -45.8125 36.65625 -48.125 C 33.976562 -50.445312 30.582031 -51.609375 26.46875 -51.609375 C 23.375 -51.609375 20.320312 -50.890625 17.3125 -49.453125 C 14.300781 -48.015625 11.394531 -45.609375 8.59375 -42.234375 L 7.5 -43.21875 C 10.582031 -47.039062 14.21875 -50.109375 18.40625 -52.421875 C 22.601562 -54.742188 27.203125 -55.90625 32.203125 -55.90625 C 38.890625 -55.90625 43.832031 -54.15625 47.03125 -50.65625 C 50.226562 -47.164062 51.828125 -42.039062 51.828125 -35.28125 L 51.828125 -14 C 51.828125 -10.03125 52.101562 -7.109375 52.65625 -5.234375 C 53.207031 -3.359375 54.398438 -2.128906 56.234375 -1.546875 L 56.234375 0 Z M 13.5625 -17.203125 C 13.5625 -13.597656 14.644531 -10.988281 16.8125 -9.375 C 18.976562 -7.757812 21.3125 -6.953125 23.8125 -6.953125 C 26.53125 -6.953125 28.9375 -7.773438 31.03125 -9.421875 C 33.132812 -11.078125 34.898438 -13.207031 36.328125 -15.8125 C 37.765625 -18.425781 38.867188 -21.164062 39.640625 -24.03125 C 40.410156 -26.90625 40.796875 -29.59375 40.796875 -32.09375 L 40.796875 -34.953125 L 29 -31.53125 C 27.675781 -31.164062 26.148438 -30.632812 24.421875 -29.9375 C 22.691406 -29.238281 21 -28.335938 19.34375 -27.234375 C 17.695312 -26.128906 16.320312 -24.75 15.21875 -23.09375 C 14.113281 -21.445312 13.5625 -19.484375 13.5625 -17.203125 Z M 13.5625 -17.203125 "/></g></g></g><g fill="#737373" fill-opacity="1"><g transform="translate(151.725935, 143.830888)"><g><path d="M 24.375 0.875 C 20.320312 0.875 16.53125 0.363281 13 -0.65625 C 9.476562 -1.6875 6.648438 -2.898438 4.515625 -4.296875 L 3.421875 -18.75 L 4.515625 -18.96875 C 6.867188 -13.675781 9.972656 -9.359375 13.828125 -6.015625 C 17.691406 -2.671875 22.085938 -0.957031 27.015625 -0.875 C 30.472656 -0.800781 33.210938 -1.738281 35.234375 -3.6875 C 37.253906 -5.632812 38.265625 -7.859375 38.265625 -10.359375 C 38.265625 -13.890625 36.921875 -16.535156 34.234375 -18.296875 C 31.554688 -20.066406 27.828125 -21.6875 23.046875 -23.15625 C 19.222656 -24.332031 15.894531 -25.5625 13.0625 -26.84375 C 10.238281 -28.132812 8.070312 -29.789062 6.5625 -31.8125 C 5.050781 -33.832031 4.296875 -36.5 4.296875 -39.8125 C 4.296875 -42.601562 5.050781 -45.226562 6.5625 -47.6875 C 8.070312 -50.15625 10.40625 -52.140625 13.5625 -53.640625 C 16.71875 -55.148438 20.796875 -55.90625 25.796875 -55.90625 C 28.960938 -55.90625 32.085938 -55.644531 35.171875 -55.125 C 38.265625 -54.613281 40.726562 -53.953125 42.5625 -53.140625 L 43.109375 -41.015625 L 41.796875 -40.796875 C 39.953125 -44.691406 37.394531 -47.925781 34.125 -50.5 C 30.851562 -53.070312 27.195312 -54.359375 23.15625 -54.359375 C 19.695312 -54.359375 16.921875 -53.550781 14.828125 -51.9375 C 12.734375 -50.320312 11.6875 -48.335938 11.6875 -45.984375 C 11.6875 -42.890625 13.023438 -40.515625 15.703125 -38.859375 C 18.390625 -37.210938 22.195312 -35.546875 27.125 -33.859375 C 30.0625 -32.898438 32.945312 -31.832031 35.78125 -30.65625 C 38.613281 -29.476562 40.96875 -27.84375 42.84375 -25.75 C 44.71875 -23.65625 45.65625 -20.734375 45.65625 -16.984375 C 45.65625 -14.191406 44.992188 -11.414062 43.671875 -8.65625 C 42.347656 -5.894531 40.140625 -3.613281 37.046875 -1.8125 C 33.960938 -0.0195312 29.738281 0.875 24.375 0.875 Z M 24.375 0.875 "/></g></g></g><g fill="#737373" fill-opacity="1"><g transform="translate(201.123176, 143.830888)"><g><path d="M 5.734375 -26.578125 L 5.734375 -28.34375 L 34.515625 -28.34375 L 34.515625 -26.578125 Z M 5.734375 -26.578125 "/></g></g></g><g fill="#737373" fill-opacity="1"><g transform="translate(241.368704, 143.830888)"><g><path d="M 5.1875 0 L 5.1875 -1.546875 C 7.019531 -2.128906 8.210938 -3.359375 8.765625 -5.234375 C 9.316406 -7.109375 9.59375 -10.03125 9.59375 -14 L 9.59375 -63.1875 C 9.59375 -67.15625 9.316406 -70.078125 8.765625 -71.953125 C 8.210938 -73.828125 7.019531 -75.054688 5.1875 -75.640625 L 5.1875 -77.1875 L 32.421875 -77.1875 C 41.460938 -77.1875 47.835938 -75.878906 51.546875 -73.265625 C 55.265625 -70.660156 57.125 -67.113281 57.125 -62.625 C 57.125 -58.875 55.757812 -55.457031 53.03125 -52.375 C 50.3125 -49.289062 45.460938 -47.125 38.484375 -45.875 C 47.597656 -45.570312 54.453125 -43.546875 59.046875 -39.796875 C 63.640625 -36.054688 65.972656 -31.425781 66.046875 -25.90625 C 66.117188 -22.675781 65.492188 -19.515625 64.171875 -16.421875 C 62.847656 -13.335938 60.734375 -10.5625 57.828125 -8.09375 C 54.929688 -5.632812 51.109375 -3.671875 46.359375 -2.203125 C 41.617188 -0.734375 35.867188 0 29.109375 0 Z M 21.28125 -11.359375 C 21.28125 -7.390625 21.644531 -4.796875 22.375 -3.578125 C 23.113281 -2.367188 24.660156 -1.765625 27.015625 -1.765625 L 30.109375 -1.765625 C 38.046875 -1.765625 43.832031 -3.65625 47.46875 -7.4375 C 51.101562 -11.226562 52.921875 -16.023438 52.921875 -21.828125 C 52.921875 -28.441406 51.007812 -33.863281 47.1875 -38.09375 C 43.363281 -42.320312 37.335938 -44.4375 29.109375 -44.4375 L 21.28125 -44.4375 Z M 21.28125 -46.203125 L 31.09375 -46.203125 C 35.132812 -46.203125 38.296875 -47.5625 40.578125 -50.28125 C 42.859375 -53 44 -56.269531 44 -60.09375 C 44 -64.945312 42.378906 -68.710938 39.140625 -71.390625 C 35.910156 -74.078125 31.460938 -75.421875 25.796875 -75.421875 L 21.28125 -75.421875 Z M 21.28125 -46.203125 "/></g></g></g><g fill="#737373" fill-opacity="1"><g transform="translate(311.054088, 143.830888)"><g><path d="M 23.15625 1.109375 C 17.34375 1.109375 13.128906 -0.65625 10.515625 -4.1875 C 7.910156 -7.71875 6.609375 -12.828125 6.609375 -19.515625 L 6.609375 -39.359375 C 6.609375 -42.597656 6.222656 -44.726562 5.453125 -45.75 C 4.679688 -46.78125 3.597656 -47.59375 2.203125 -48.1875 L 2.203125 -49.734375 L 16.765625 -56.125 L 17.859375 -55.25 L 17.859375 -20.953125 C 17.859375 -15.066406 18.519531 -10.65625 19.84375 -7.71875 C 21.164062 -4.78125 23.960938 -3.3125 28.234375 -3.3125 C 30.734375 -3.3125 33.304688 -4.023438 35.953125 -5.453125 C 38.597656 -6.890625 41.28125 -8.96875 44 -11.6875 L 44 -39.359375 C 44 -42.597656 43.613281 -44.726562 42.84375 -45.75 C 42.070312 -46.78125 40.984375 -47.59375 39.578125 -48.1875 L 39.578125 -49.734375 L 54.140625 -56.125 L 55.25 -55.25 L 55.25 -14 C 55.25 -10.03125 55.519531 -7.109375 56.0625 -5.234375 C 56.613281 -3.359375 57.8125 -2.128906 59.65625 -1.546875 L 59.65625 0 L 48.40625 0 C 45.46875 0 44 -1.46875 44 -4.40625 L 44 -9.375 C 40.832031 -6.363281 37.429688 -3.863281 33.796875 -1.875 C 30.160156 0.113281 26.613281 1.109375 23.15625 1.109375 Z M 23.15625 1.109375 "/></g></g></g><g fill="#737373" fill-opacity="1"><g transform="translate(374.013504, 143.830888)"><g><path d="M 3.09375 0 L 3.09375 -1.546875 C 4.925781 -2.128906 6.117188 -3.359375 6.671875 -5.234375 C 7.222656 -7.109375 7.5 -10.03125 7.5 -14 L 7.5 -39.359375 C 7.5 -42.597656 7.113281 -44.726562 6.34375 -45.75 C 5.570312 -46.78125 4.488281 -47.59375 3.09375 -48.1875 L 3.09375 -49.734375 L 17.640625 -56.125 L 18.75 -55.25 L 18.75 -14 C 18.75 -10.03125 19.023438 -7.109375 19.578125 -5.234375 C 20.128906 -3.359375 21.320312 -2.128906 23.15625 -1.546875 L 23.15625 0 Z M 4.96875 -67.375 C 4.96875 -69.5 5.703125 -71.296875 7.171875 -72.765625 C 8.640625 -74.242188 10.398438 -74.984375 12.453125 -74.984375 C 14.660156 -74.984375 16.460938 -74.242188 17.859375 -72.765625 C 19.253906 -71.296875 19.953125 -69.5 19.953125 -67.375 C 19.953125 -65.3125 19.234375 -63.546875 17.796875 -62.078125 C 16.367188 -60.609375 14.585938 -59.875 12.453125 -59.875 C 10.398438 -59.875 8.640625 -60.609375 7.171875 -62.078125 C 5.703125 -63.546875 4.96875 -65.3125 4.96875 -67.375 Z M 4.96875 -67.375 "/></g></g></g><g fill="#737373" fill-opacity="1"><g transform="translate(400.476317, 143.830888)"><g><path d="M 20.734375 1.109375 C 16.984375 1.109375 14.132812 -0.175781 12.1875 -2.75 C 10.238281 -5.320312 9.265625 -9.585938 9.265625 -15.546875 L 9.265625 -53.375 L 2.203125 -53.375 L 2.203125 -55.140625 L 18.75 -69.6875 L 20.515625 -69.6875 L 20.515625 -55.140625 L 37.59375 -55.140625 L 37.15625 -53.375 L 20.515625 -53.375 L 20.515625 -15.4375 C 20.515625 -12.050781 21.140625 -9.566406 22.390625 -7.984375 C 23.640625 -6.410156 25.472656 -5.625 27.890625 -5.625 C 29.140625 -5.625 30.628906 -5.972656 32.359375 -6.671875 C 34.085938 -7.367188 35.867188 -8.859375 37.703125 -11.140625 L 38.8125 -10.03125 C 35.875 -6.65625 32.953125 -3.953125 30.046875 -1.921875 C 27.140625 0.0976562 24.035156 1.109375 20.734375 1.109375 Z M 20.734375 1.109375 "/></g></g></g><g fill="#737373" fill-opacity="1"><g transform="translate(439.729458, 143.830888)"><g><path d="M 3.09375 0 L 3.09375 -1.546875 C 4.925781 -2.128906 6.117188 -3.359375 6.671875 -5.234375 C 7.222656 -7.109375 7.5 -10.03125 7.5 -14 L 7.5 -39.359375 C 7.5 -42.597656 7.113281 -44.726562 6.34375 -45.75 C 5.570312 -46.78125 4.488281 -47.59375 3.09375 -48.1875 L 3.09375 -49.734375 L 17.640625 -56.125 L 18.75 -55.25 L 18.75 -41.90625 C 20.4375 -45.875 23.117188 -49.109375 26.796875 -51.609375 C 28.847656 -53.078125 30.957031 -54.160156 33.125 -54.859375 C 35.300781 -55.554688 37.710938 -55.90625 40.359375 -55.90625 C 42.265625 -55.90625 43.914062 -55.644531 45.3125 -55.125 C 46.71875 -54.613281 47.421875 -53.769531 47.421875 -52.59375 C 47.421875 -51.789062 47.144531 -50.816406 46.59375 -49.671875 C 46.039062 -48.535156 45.210938 -47.539062 44.109375 -46.6875 C 43.003906 -45.84375 41.609375 -45.421875 39.921875 -45.421875 C 38.367188 -45.421875 36.472656 -45.695312 34.234375 -46.25 C 31.992188 -46.800781 29.109375 -47.628906 25.578125 -48.734375 C 24.179688 -47.554688 22.726562 -45.828125 21.21875 -43.546875 C 19.71875 -41.273438 18.894531 -38.742188 18.75 -35.953125 L 18.75 -14 C 18.75 -10.03125 19.023438 -7.109375 19.578125 -5.234375 C 20.128906 -3.359375 21.320312 -2.128906 23.15625 -1.546875 L 23.15625 0 Z M 3.09375 0 "/></g></g></g><g fill="#737373" fill-opacity="1"><g transform="translate(489.457468, 143.830888)"><g><path d="M 45.203125 0 C 42.265625 0 40.796875 -1.46875 40.796875 -4.40625 L 40.796875 -22.609375 C 39.765625 -18.335938 38.21875 -14.398438 36.15625 -10.796875 C 34.101562 -7.203125 31.566406 -4.316406 28.546875 -2.140625 C 25.535156 0.0234375 22.117188 1.109375 18.296875 1.109375 C 14.253906 1.109375 10.742188 -0.140625 7.765625 -2.640625 C 4.796875 -5.140625 3.3125 -8.707031 3.3125 -13.34375 C 3.3125 -17.164062 4.46875 -20.269531 6.78125 -22.65625 C 9.09375 -25.050781 12.160156 -27.054688 15.984375 -28.671875 C 19.804688 -30.285156 24 -31.71875 28.5625 -32.96875 L 40.796875 -36.5 C 40.722656 -41.9375 39.34375 -45.8125 36.65625 -48.125 C 33.976562 -50.445312 30.582031 -51.609375 26.46875 -51.609375 C 23.375 -51.609375 20.320312 -50.890625 17.3125 -49.453125 C 14.300781 -48.015625 11.394531 -45.609375 8.59375 -42.234375 L 7.5 -43.21875 C 10.582031 -47.039062 14.21875 -50.109375 18.40625 -52.421875 C 22.601562 -54.742188 27.203125 -55.90625 32.203125 -55.90625 C 38.890625 -55.90625 43.832031 -54.15625 47.03125 -50.65625 C 50.226562 -47.164062 51.828125 -42.039062 51.828125 -35.28125 L 51.828125 -14 C 51.828125 -10.03125 52.101562 -7.109375 52.65625 -5.234375 C 53.207031 -3.359375 54.398438 -2.128906 56.234375 -1.546875 L 56.234375 0 Z M 13.5625 -17.203125 C 13.5625 -13.597656 14.644531 -10.988281 16.8125 -9.375 C 18.976562 -7.757812 21.3125 -6.953125 23.8125 -6.953125 C 26.53125 -6.953125 28.9375 -7.773438 31.03125 -9.421875 C 33.132812 -11.078125 34.898438 -13.207031 36.328125 -15.8125 C 37.765625 -18.425781 38.867188 -21.164062 39.640625 -24.03125 C 40.410156 -26.90625 40.796875 -29.59375 40.796875 -32.09375 L 40.796875 -34.953125 L 29 -31.53125 C 27.675781 -31.164062 26.148438 -30.632812 24.421875 -29.9375 C 22.691406 -29.238281 21 -28.335938 19.34375 -27.234375 C 17.695312 -26.128906 16.320312 -24.75 15.21875 -23.09375 C 14.113281 -21.445312 13.5625 -19.484375 13.5625 -17.203125 Z M 13.5625 -17.203125 "/></g></g></g><g fill="#737373" fill-opacity="1"><g transform="translate(547.896171, 143.830888)"><g><path d="M 19.1875 30.546875 C 17.5 30.546875 15.660156 30.320312 13.671875 29.875 C 11.691406 29.4375 9.800781 28.722656 8 27.734375 C 6.195312 26.742188 4.707031 25.382812 3.53125 23.65625 C 2.351562 21.925781 1.765625 19.773438 1.765625 17.203125 C 1.765625 14.191406 2.957031 11.269531 5.34375 8.4375 C 7.738281 5.601562 11.066406 2.898438 15.328125 0.328125 C 13.046875 -0.328125 11.242188 -1.332031 9.921875 -2.6875 C 8.597656 -4.050781 7.9375 -5.875 7.9375 -8.15625 C 7.9375 -10.21875 8.671875 -12.054688 10.140625 -13.671875 C 11.609375 -15.285156 13.816406 -16.976562 16.765625 -18.75 C 13.890625 -20.144531 11.457031 -22.128906 9.46875 -24.703125 C 7.488281 -27.273438 6.5 -30.65625 6.5 -34.84375 C 6.5 -38.738281 7.546875 -42.265625 9.640625 -45.421875 C 11.742188 -48.585938 14.503906 -51.125 17.921875 -53.03125 C 21.335938 -54.945312 25.03125 -55.90625 29 -55.90625 C 31.863281 -55.90625 34.546875 -55.570312 37.046875 -54.90625 C 38.660156 -57.40625 40.609375 -59.390625 42.890625 -60.859375 C 44.660156 -62.109375 46.519531 -63.082031 48.46875 -63.78125 C 50.414062 -64.488281 52.523438 -64.84375 54.796875 -64.84375 C 56.492188 -64.84375 57.984375 -64.601562 59.265625 -64.125 C 60.554688 -63.644531 61.203125 -62.890625 61.203125 -61.859375 C 61.203125 -61.191406 60.941406 -60.328125 60.421875 -59.265625 C 59.910156 -58.203125 59.140625 -57.25 58.109375 -56.40625 C 57.078125 -55.5625 55.789062 -55.140625 54.25 -55.140625 C 52.925781 -55.140625 51.34375 -55.394531 49.5 -55.90625 C 47.664062 -56.414062 45.171875 -57.1875 42.015625 -58.21875 C 40.984375 -57.40625 39.878906 -56.117188 38.703125 -54.359375 C 42.234375 -53.179688 45.210938 -51.210938 47.640625 -48.453125 C 50.066406 -45.703125 51.28125 -41.9375 51.28125 -37.15625 C 51.28125 -34.070312 50.5625 -31.242188 49.125 -28.671875 C 47.6875 -26.097656 45.828125 -23.890625 43.546875 -22.046875 C 41.273438 -20.210938 38.851562 -18.78125 36.28125 -17.75 C 33.707031 -16.71875 31.28125 -16.203125 29 -16.203125 C 27.3125 -16.203125 25.53125 -16.347656 23.65625 -16.640625 C 21.78125 -16.941406 19.992188 -17.421875 18.296875 -18.078125 C 17.347656 -17.492188 16.578125 -16.890625 15.984375 -16.265625 C 15.398438 -15.640625 15.109375 -14.847656 15.109375 -13.890625 C 15.109375 -13.234375 15.382812 -12.554688 15.9375 -11.859375 C 16.488281 -11.160156 17.585938 -10.570312 19.234375 -10.09375 C 20.890625 -9.613281 23.410156 -9.265625 26.796875 -9.046875 L 41.5625 -8.15625 C 47.226562 -7.863281 51.457031 -7 54.25 -5.5625 C 57.039062 -4.132812 58.4375 -1.472656 58.4375 2.421875 C 58.4375 5.441406 57.351562 8.585938 55.1875 11.859375 C 53.019531 15.128906 50.097656 18.175781 46.421875 21 C 42.742188 23.832031 38.550781 26.128906 33.84375 27.890625 C 29.144531 29.660156 24.257812 30.546875 19.1875 30.546875 Z M 10.8125 11.796875 C 10.8125 14.734375 11.5625 17.082031 13.0625 18.84375 C 14.570312 20.613281 16.554688 21.898438 19.015625 22.703125 C 21.484375 23.515625 24.148438 23.921875 27.015625 23.921875 C 32.160156 23.921875 36.695312 23.164062 40.625 21.65625 C 44.5625 20.15625 47.628906 18.226562 49.828125 15.875 C 52.035156 13.519531 53.140625 11.054688 53.140625 8.484375 C 53.140625 6.722656 52.382812 5.328125 50.875 4.296875 C 49.375 3.265625 46.457031 2.640625 42.125 2.421875 L 24.375 1.546875 C 23.050781 1.472656 21.78125 1.363281 20.5625 1.21875 C 19.351562 1.070312 18.234375 0.921875 17.203125 0.765625 C 14.703125 2.535156 13.007812 4.359375 12.125 6.234375 C 11.25 8.109375 10.8125 9.960938 10.8125 11.796875 Z M 16.765625 -40.90625 C 16.765625 -38.625 17.039062 -36.175781 17.59375 -33.5625 C 18.144531 -30.957031 19.023438 -28.476562 20.234375 -26.125 C 21.441406 -23.78125 22.960938 -21.851562 24.796875 -20.34375 C 26.640625 -18.832031 28.8125 -18.078125 31.3125 -18.078125 C 33.8125 -18.078125 35.773438 -18.679688 37.203125 -19.890625 C 38.640625 -21.109375 39.648438 -22.691406 40.234375 -24.640625 C 40.828125 -26.585938 41.125 -28.664062 41.125 -30.875 C 41.125 -33.300781 40.773438 -35.925781 40.078125 -38.75 C 39.378906 -41.582031 38.347656 -44.210938 36.984375 -46.640625 C 35.628906 -49.066406 33.976562 -50.992188 32.03125 -52.421875 C 30.082031 -53.859375 27.859375 -54.46875 25.359375 -54.25 C 22.054688 -53.882812 19.796875 -52.394531 18.578125 -49.78125 C 17.367188 -47.175781 16.765625 -44.21875 16.765625 -40.90625 Z M 16.765625 -40.90625 "/></g></g></g><g fill="#737373" fill-opacity="1"><g transform="translate(606.775884, 143.830888)"><g><path d="M 32.859375 1.109375 C 29.253906 1.109375 25.707031 0.578125 22.21875 -0.484375 C 18.726562 -1.554688 15.566406 -3.210938 12.734375 -5.453125 C 9.898438 -7.703125 7.640625 -10.535156 5.953125 -13.953125 C 4.265625 -17.367188 3.421875 -21.429688 3.421875 -26.140625 C 3.421875 -30.617188 4.226562 -34.675781 5.84375 -38.3125 C 7.457031 -41.957031 9.660156 -45.082031 12.453125 -47.6875 C 15.253906 -50.300781 18.414062 -52.320312 21.9375 -53.75 C 25.46875 -55.1875 29.109375 -55.90625 32.859375 -55.90625 C 36.316406 -55.90625 39.753906 -55.390625 43.171875 -54.359375 C 46.585938 -53.328125 49.742188 -51.691406 52.640625 -49.453125 C 55.546875 -47.210938 57.863281 -44.363281 59.59375 -40.90625 C 61.320312 -37.445312 62.1875 -33.296875 62.1875 -28.453125 C 62.1875 -23.742188 61.285156 -19.550781 59.484375 -15.875 C 57.679688 -12.195312 55.328125 -9.109375 52.421875 -6.609375 C 49.523438 -4.109375 46.347656 -2.195312 42.890625 -0.875 C 39.429688 0.445312 36.085938 1.109375 32.859375 1.109375 Z M 14.4375 -34.40625 C 14.4375 -31.164062 14.914062 -27.632812 15.875 -23.8125 C 16.832031 -19.988281 18.25 -16.367188 20.125 -12.953125 C 22 -9.535156 24.332031 -6.742188 27.125 -4.578125 C 29.914062 -2.410156 33.113281 -1.328125 36.71875 -1.328125 C 40.320312 -1.328125 43.171875 -2.242188 45.265625 -4.078125 C 47.359375 -5.921875 48.84375 -8.273438 49.71875 -11.140625 C 50.601562 -14.003906 51.046875 -16.976562 51.046875 -20.0625 C 51.046875 -23.59375 50.476562 -27.359375 49.34375 -31.359375 C 48.207031 -35.367188 46.585938 -39.140625 44.484375 -42.671875 C 42.390625 -46.203125 39.875 -49.015625 36.9375 -51.109375 C 34 -53.203125 30.765625 -54.066406 27.234375 -53.703125 C 24.078125 -53.410156 21.5625 -52.328125 19.6875 -50.453125 C 17.8125 -48.578125 16.46875 -46.222656 15.65625 -43.390625 C 14.84375 -40.554688 14.4375 -37.5625 14.4375 -34.40625 Z M 14.4375 -34.40625 "/></g></g></g><g fill="#737373" fill-opacity="1"><g transform="translate(673.484225, 143.830888)"><g><path d="M 5.515625 15.21875 C 8.378906 13.820312 10.5625 11.722656 12.0625 8.921875 C 13.570312 6.128906 14.441406 3.300781 14.671875 0.4375 C 14.222656 0.507812 13.78125 0.597656 13.34375 0.703125 C 12.90625 0.816406 12.425781 0.875 11.90625 0.875 C 10.144531 0.875 8.675781 0.289062 7.5 -0.875 C 6.320312 -2.050781 5.734375 -3.523438 5.734375 -5.296875 C 5.734375 -7.421875 6.359375 -9.160156 7.609375 -10.515625 C 8.859375 -11.878906 10.507812 -12.5625 12.5625 -12.5625 C 14.914062 -12.5625 16.828125 -11.828125 18.296875 -10.359375 C 19.773438 -8.890625 20.515625 -6.539062 20.515625 -3.3125 C 20.515625 -0.363281 19.757812 2.46875 18.25 5.1875 C 16.738281 7.90625 14.878906 10.238281 12.671875 12.1875 C 10.472656 14.132812 8.269531 15.507812 6.0625 16.3125 Z M 5.515625 15.21875 "/></g></g></g><g fill="#737373" fill-opacity="1"><g transform="translate(700.057313, 143.830888)"><g/></g></g><g fill="#737373" fill-opacity="1"><g transform="translate(722.109665, 143.830888)"><g><path d="M 5.1875 0 L 5.1875 -1.546875 C 7.019531 -2.128906 8.210938 -3.359375 8.765625 -5.234375 C 9.316406 -7.109375 9.59375 -10.03125 9.59375 -14 L 9.59375 -63.1875 C 9.59375 -67.15625 9.316406 -70.078125 8.765625 -71.953125 C 8.210938 -73.828125 7.019531 -75.054688 5.1875 -75.640625 L 5.1875 -77.1875 L 28.34375 -77.1875 C 34.664062 -77.1875 39.828125 -76.503906 43.828125 -75.140625 C 47.835938 -73.785156 50.960938 -72.019531 53.203125 -69.84375 C 55.441406 -67.675781 57.003906 -65.34375 57.890625 -62.84375 C 58.773438 -60.351562 59.21875 -58.003906 59.21875 -55.796875 C 59.21875 -51.234375 58.078125 -47.003906 55.796875 -43.109375 C 53.515625 -39.210938 49.984375 -36.109375 45.203125 -33.796875 C 40.429688 -31.484375 34.257812 -30.328125 26.6875 -30.328125 L 21.28125 -30.328125 L 21.28125 -14 C 21.28125 -10.03125 21.554688 -7.109375 22.109375 -5.234375 C 22.660156 -3.359375 23.851562 -2.128906 25.6875 -1.546875 L 25.6875 0 Z M 21.28125 -32.09375 L 26.140625 -32.09375 C 33.335938 -32.09375 38.570312 -34.003906 41.84375 -37.828125 C 45.113281 -41.648438 46.75 -46.679688 46.75 -52.921875 C 46.75 -55.273438 46.414062 -57.753906 45.75 -60.359375 C 45.09375 -62.972656 43.9375 -65.421875 42.28125 -67.703125 C 40.632812 -69.984375 38.375 -71.835938 35.5 -73.265625 C 32.632812 -74.703125 29.035156 -75.421875 24.703125 -75.421875 C 23.453125 -75.421875 22.3125 -75.347656 21.28125 -75.203125 Z M 21.28125 -32.09375 "/></g></g></g><g fill="#737373" fill-opacity="1"><g transform="translate(783.745939, 143.830888)"><g><path d="M 12.5625 0.765625 C 10.800781 0.765625 9.273438 0.101562 7.984375 -1.21875 C 6.703125 -2.539062 6.0625 -4.117188 6.0625 -5.953125 C 6.0625 -7.796875 6.703125 -9.359375 7.984375 -10.640625 C 9.273438 -11.921875 10.800781 -12.5625 12.5625 -12.5625 C 14.332031 -12.5625 15.84375 -11.921875 17.09375 -10.640625 C 18.34375 -9.359375 18.96875 -7.796875 18.96875 -5.953125 C 18.96875 -4.117188 18.34375 -2.539062 17.09375 -1.21875 C 15.84375 0.101562 14.332031 0.765625 12.5625 0.765625 Z M 12.5625 0.765625 "/></g></g></g></svg>