<svg xmlns="http://www.w3.org/2000/svg" xmlns:xlink="http://www.w3.org/1999/xlink" width="2000" zoomAndPan="magnify" viewBox="0 0 1500 225" height="300" preserveAspectRatio="xMidYMid meet" version="1.0"><defs><g/></defs><path stroke-linecap="butt" transform="matrix(0.771425, 0, 0, 0.771425, 0.000000000000085265, -45.031018)" fill="none" stroke-linejoin="miter" d="M 13.489644 263.999736 L 13.489644 260.510861 C 17.61148 259.239877 20.442077 256.540935 21.976373 252.419099 C 23.510668 248.297264 24.280347 240.75238 24.280347 229.784448 L 24.280347 120.368444 C 24.280347 110.104364 23.642323 102.144258 22.37134 96.483064 C 21.100356 90.826933 19.257176 86.745607 16.841801 84.244148 C 14.431489 81.747754 11.428726 79.945084 7.82845 78.851329 L 7.82845 75.362453 L 40.398042 75.362453 L 110.732561 191.492898 L 179.755588 75.362453 L 210.218689 75.362453 L 210.218689 78.851329 C 206.623476 79.945084 203.595395 81.747754 201.13951 84.244148 C 198.724134 86.745607 196.880955 90.826933 195.609971 96.483064 C 194.38456 102.144258 193.766791 110.104364 193.766791 120.368444 L 193.766791 229.784448 C 193.766791 240.75238 194.536471 248.297264 196.070766 252.419099 C 197.605061 256.540935 200.435658 259.239877 204.557494 260.510861 L 204.557494 263.999736 L 160.873124 263.999736 L 160.873124 260.510861 C 165.040533 259.239877 167.866066 256.540935 169.359852 252.419099 C 170.894147 248.297264 171.663827 240.75238 171.663827 229.784448 L 171.663827 97.20717 L 103.233251 212.810992 L 98.103743 212.810992 L 29.080716 99.313661 L 29.080716 218.993746 C 29.080716 229.217316 29.804822 237.111594 31.253035 242.681642 C 32.701248 248.251691 34.762165 252.353272 37.435789 254.986385 C 40.154985 257.573926 43.49195 259.417106 47.436557 260.510861 L 47.436557 263.999736 Z M 336.861334 263.999736 C 331.46345 263.999736 328.764509 261.300795 328.764509 255.907975 L 328.764509 207.413109 C 326.090886 218.38104 321.877904 228.361554 316.13569 237.354651 C 310.388413 246.302174 303.699291 253.426772 296.068325 258.738573 C 288.432295 264.04531 280.122796 266.698678 271.129699 266.698678 C 264.460832 266.698678 258.257824 265.361866 252.510547 262.68318 C 246.76327 259.963983 242.135066 256.014313 238.625935 250.839231 C 235.116805 245.618577 233.364772 239.126939 233.364772 231.364317 C 233.364772 222.021826 236.149796 214.39086 241.719844 208.466354 C 247.289892 202.546912 254.70312 197.70097 263.959528 193.928528 C 273.210872 190.156086 283.150876 186.819121 293.76435 183.927759 L 328.764509 174.519441 C 328.065721 161.404509 324.470508 151.753135 317.97887 145.565317 C 311.527741 139.33699 302.559963 136.222827 291.065409 136.222827 C 282.993902 136.222827 275.119879 138.177408 267.44334 142.081505 C 259.812374 145.94003 252.596629 151.991128 245.796107 160.239863 L 243.36554 158.067544 C 251.082589 148.547825 259.832629 141.048514 269.615659 135.564549 C 279.444262 130.085646 290.189392 127.341132 301.856112 127.341132 C 318.176353 127.341132 330.192467 131.619942 337.914579 140.172498 C 345.677201 148.679481 349.55598 160.589257 349.55598 175.896762 L 349.55598 229.784448 C 349.55598 240.75238 350.305405 248.297264 351.794127 252.419099 C 353.328422 256.540935 356.184338 259.239877 360.346683 260.510861 L 360.346683 263.999736 Z M 253.62962 223.865006 C 253.62962 232.6353 256.25767 239.324422 261.523898 243.932371 C 266.830635 248.494747 273.342528 250.773403 281.06464 250.773403 C 288.26013 250.773403 294.772023 248.758059 300.605383 244.722305 C 306.438742 240.686552 311.41634 235.445643 315.54324 228.994514 C 319.710648 222.502876 322.956468 215.484615 325.280697 207.939731 C 327.604926 200.394848 328.764509 193.118339 328.764509 186.100078 L 328.764509 178.003253 L 294.817596 187.214088 C 288.194302 189.016758 281.677346 191.406815 275.276854 194.389323 C 268.916871 197.326258 263.716471 201.144272 259.680718 205.838304 C 255.644965 210.486763 253.62962 216.497351 253.62962 223.865006 Z M 427.713886 266.435367 C 416.923183 266.435367 407.165471 265.098555 398.435686 262.419868 C 389.751475 259.700672 383.148436 256.895393 378.631633 253.998968 L 376.196002 221.429376 L 378.631633 220.902753 C 384.37891 233.622718 391.923794 243.623487 401.266284 250.905059 C 410.608774 258.186631 421.399477 261.918564 433.638392 262.090729 C 442.059292 262.090729 449.011726 259.812073 454.495691 255.249697 C 459.979657 250.641748 462.719108 244.570395 462.719108 237.025511 C 462.719108 230.574383 460.875929 225.379047 457.194633 221.429376 C 453.508274 217.484769 448.662332 214.259205 442.651743 211.757746 C 436.641155 209.215779 430.129262 206.866231 423.111001 204.719231 C 414.6901 202.000034 407.145217 199.169437 400.47635 196.232503 C 393.807483 193.249995 388.586828 189.345897 384.81945 184.52021 C 381.047008 179.64895 379.158255 173.177566 379.158255 165.111123 C 379.158255 154.492586 383.437065 145.545063 391.989621 138.26349 C 400.542177 130.981918 412.629182 127.341132 428.240509 127.341132 C 437.056376 127.341132 445.193711 128.110811 452.652512 129.645106 C 460.111313 131.179401 465.899099 132.845352 470.020935 134.642959 L 471.074181 162.14887 L 468.375239 162.675493 C 464.081238 152.978545 457.873166 145.261496 449.756087 139.514219 C 441.68458 133.766942 432.894031 130.895835 423.374312 130.895835 C 414.203987 130.895835 406.881905 132.956753 401.397939 137.078589 C 395.913974 141.200425 393.174523 146.684391 393.174523 153.530486 C 393.174523 159.100535 394.926556 163.769248 398.435686 167.54169 C 401.944817 171.314132 406.618594 174.494123 412.451954 177.081664 C 418.285313 179.669204 424.711124 182.150408 431.729385 184.52021 C 436.950039 186.140588 442.211203 187.897685 447.51794 189.781374 C 452.829741 191.670127 457.675683 194.014611 462.06083 196.819889 C 466.445977 199.584659 470.020935 203.159617 472.785705 207.544764 C 475.590984 211.934975 476.998687 217.550597 476.998687 224.391629 C 476.998687 231.936513 475.155507 238.9092 471.469148 245.314756 C 467.787852 251.674738 462.258313 256.738419 454.890658 260.510861 C 447.51794 264.283302 438.464079 266.258138 427.713886 266.435367 Z M 500.732156 198.531413 L 500.732156 194.718462 L 571.066676 194.718462 L 571.066676 198.531413 Z M 598.835899 263.999736 L 598.835899 260.510861 C 602.957735 259.239877 605.788332 256.540935 607.322627 252.419099 C 608.856922 248.297264 609.626602 240.75238 609.626602 229.784448 L 609.626602 109.577741 C 609.626602 98.437644 608.856922 90.847188 607.322627 86.811434 C 605.788332 82.775681 602.957735 80.122313 598.835899 78.851329 L 598.835899 75.362453 L 661.868592 75.362453 C 682.700573 75.362453 697.658684 78.562699 706.737863 84.968255 C 715.822106 91.328237 720.359163 99.97194 720.359163 110.894298 C 720.359163 120.059559 717.113344 128.414632 710.621706 135.959516 C 704.175641 143.504399 693.227964 148.725054 677.788803 151.621479 C 692.529176 152.320267 704.570608 155.019208 713.913098 159.71324 C 723.255588 164.361699 730.162448 170.372287 734.638742 177.739942 C 739.155545 185.112661 741.413946 193.204422 741.413946 202.020289 C 741.591175 209.565173 740.142962 217.023974 737.074372 224.391629 C 734.046291 231.759284 729.109203 238.407896 722.268171 244.327338 C 715.427139 250.246781 706.388469 255.00664 695.16229 258.606917 C 683.931047 262.20213 670.137582 263.999736 653.776831 263.999736 Z M 631.73463 236.498889 C 631.73463 246.190773 632.630902 252.5305 634.428508 255.513008 C 636.231178 258.495516 640.00362 259.984238 645.745834 259.984238 L 656.207397 259.984238 C 670.947771 259.984238 682.725891 257.791664 691.541758 253.406517 C 700.357626 248.975797 706.783436 242.89938 710.819189 235.182332 C 714.854943 227.460219 716.870287 218.644352 716.870287 208.729666 C 716.870287 198.33393 714.900516 189.148414 710.950845 181.16299 C 707.001175 173.137057 700.752593 166.797329 692.200037 162.14887 C 683.68799 157.454839 672.679549 155.105291 659.16965 155.105291 L 631.73463 155.105291 Z M 631.73463 151.094856 L 656.799848 151.094856 C 670.092009 151.094856 679.915548 147.671808 686.275531 140.830776 C 692.635513 133.989744 695.815505 125.629608 695.815505 115.760495 C 695.815505 104.620398 692.002553 95.784276 684.371587 89.247065 C 676.735557 82.66428 666.010682 79.377952 652.196962 79.377952 L 631.73463 79.377952 Z M 808.771022 266.698678 C 794.562335 266.698678 784.121026 262.399613 777.452159 253.801484 C 770.828865 245.162846 767.517218 233.096095 767.517218 217.611361 L 767.517218 167.805001 C 767.517218 161.490592 767.101996 156.776305 766.266489 153.662142 C 765.481619 150.502406 764.316972 148.198431 762.782677 146.750218 C 761.288891 145.302006 759.273547 144.05634 756.726515 143.003095 L 756.726515 140.040842 L 786.141434 127.07782 L 788.572001 128.986828 L 788.572001 212.810992 C 788.572001 228.072924 790.89623 239.304167 795.549752 246.499657 C 800.243784 253.690083 807.960833 257.29036 818.705962 257.29036 C 826.645813 257.29036 834.190697 255.097786 841.340614 250.707576 C 848.536103 246.276855 855.20497 240.818208 861.342151 234.32657 L 861.342151 167.805001 C 861.342151 161.490592 860.926929 156.776305 860.091422 153.662142 C 859.306551 150.502406 858.141905 148.198431 856.60761 146.750218 C 855.073315 145.302006 853.052906 144.05634 850.551448 143.003095 L 850.551448 140.040842 L 879.900539 127.07782 L 882.331106 128.986828 L 882.331106 229.784448 C 882.331106 240.75238 883.100785 248.297264 884.63508 252.419099 C 886.169375 256.540935 888.999973 259.239877 893.121809 260.510861 L 893.121809 263.999736 L 870.223846 263.999736 C 867.332485 263.999736 865.114593 263.189548 863.580298 261.564106 C 862.091576 259.943728 861.342151 257.158704 861.342151 253.209034 L 861.342151 239.456078 C 854.501119 246.651568 846.541013 252.991295 837.461834 258.475261 C 828.382656 263.954163 818.817363 266.698678 808.771022 266.698678 Z M 911.173829 263.999736 L 911.173829 260.510861 C 915.295665 259.239877 918.126262 256.540935 919.660557 252.419099 C 921.194852 248.297264 921.964532 240.75238 921.964532 229.784448 L 921.964532 167.805001 C 921.964532 161.490592 921.589819 156.776305 920.845458 153.662142 C 920.141607 150.502406 918.982024 148.198431 917.356583 146.750218 C 915.736205 145.302006 913.675287 144.05634 911.173829 143.003095 L 911.173829 140.040842 L 940.846996 127.07782 L 942.953487 128.986828 L 942.953487 229.784448 C 942.953487 240.75238 943.763676 248.297264 945.389117 252.419099 C 947.009495 256.540935 949.794519 259.239877 953.744189 260.510861 L 953.744189 263.999736 Z M 916.040026 95.824785 C 916.040026 91.525721 917.467984 87.950762 920.318836 85.09991 C 923.215261 82.203485 926.724391 80.760336 930.846227 80.760336 C 935.145292 80.760336 938.674677 82.203485 941.439446 85.09991 C 944.244725 87.950762 945.652428 91.525721 945.652428 95.824785 C 945.652428 99.774456 944.204216 103.238013 941.307791 106.220521 C 938.456939 109.162519 934.968063 110.630987 930.846227 110.630987 C 926.724391 110.630987 923.215261 109.162519 920.318836 106.220521 C 917.467984 103.238013 916.040026 99.774456 916.040026 95.824785 Z M 1014.11845 266.698678 C 1005.69755 266.698678 999.048937 263.781998 994.182741 257.948638 C 989.31148 252.115279 986.87585 242.175274 986.87585 228.138752 L 986.87585 133.002326 L 969.639082 133.002326 L 969.639082 129.250139 L 1004.183509 96.088097 L 1007.930633 96.088097 L 1007.930633 129.250139 L 1048.921125 129.250139 L 1047.543804 133.002326 L 1007.930633 133.002326 L 1007.930633 228.138752 C 1007.930633 237.309077 1009.68773 243.82097 1013.19686 247.684558 C 1016.705991 251.543083 1021.334194 253.472345 1027.081472 253.472345 C 1030.853913 253.472345 1034.975749 252.439354 1039.446979 250.378436 C 1043.968845 248.317518 1048.465394 244.676732 1052.936623 239.456078 L 1055.372254 241.891708 C 1049.624976 248.560575 1043.285249 254.37368 1036.358134 259.325959 C 1029.425956 264.242793 1022.012728 266.698678 1014.11845 266.698678 Z M 1064.51726 263.999736 L 1064.51726 260.510861 C 1068.639096 259.239877 1071.469693 256.540935 1073.003988 252.419099 C 1074.543347 248.297264 1075.307963 240.75238 1075.307963 229.784448 L 1075.307963 167.805001 C 1075.307963 161.490592 1074.892741 156.776305 1074.057234 153.662142 C 1073.2673 150.502406 1072.107717 148.198431 1070.573422 146.750218 C 1069.034063 145.302006 1067.018718 144.05634 1064.51726 143.003095 L 1064.51726 140.040842 L 1093.927116 127.07782 L 1096.296918 128.986828 L 1096.296918 162.675493 C 1098.489492 157.454839 1101.320089 152.608897 1104.783646 148.132603 C 1108.292777 143.6158 1112.024709 139.929441 1115.969316 137.078589 C 1120.136725 134.009999 1124.678846 131.619942 1129.590616 129.908418 C 1134.547959 128.196894 1140.249663 127.341132 1146.695728 127.341132 C 1152.093611 127.341132 1156.367358 127.979155 1159.527094 129.250139 C 1162.686831 130.521123 1164.266699 132.31873 1164.266699 134.642959 C 1164.266699 137.498874 1162.858996 140.764948 1160.053717 144.451308 C 1157.288948 148.132603 1153.475996 149.975783 1148.604736 149.975783 C 1145.009523 149.975783 1140.467401 149.317504 1134.983436 148.000947 C 1129.504534 146.643881 1122.815412 144.800702 1114.916071 142.476472 C 1112.419676 144.274079 1109.766308 147.01353 1106.955965 150.699889 C 1104.191196 154.386248 1101.866966 158.462511 1099.983277 162.938804 C 1098.094524 167.410034 1096.955196 171.8205 1096.560229 176.160074 L 1096.296918 176.160074 L 1096.296918 229.784448 C 1096.296918 240.75238 1097.066597 248.297264 1098.600893 252.419099 C 1100.135188 256.540935 1102.965785 259.239877 1107.087621 260.510861 L 1107.087621 263.999736 Z M 1281.997267 263.999736 C 1276.599383 263.999736 1273.900442 261.300795 1273.900442 255.907975 L 1273.900442 207.413109 C 1271.226819 218.38104 1267.013836 228.361554 1261.266559 237.354651 C 1255.524346 246.302174 1248.835224 253.426772 1241.199194 258.738573 C 1233.568228 264.04531 1225.258729 266.698678 1216.265632 266.698678 C 1209.596765 266.698678 1203.388693 265.361866 1197.64648 262.68318 C 1191.899203 259.963983 1187.270999 256.014313 1183.761868 250.839231 C 1180.252738 245.618577 1178.495641 239.126939 1178.495641 231.364317 C 1178.495641 222.021826 1181.285729 214.39086 1186.855777 208.466354 C 1192.425825 202.546912 1199.839053 197.70097 1209.090397 193.928528 C 1218.346805 190.156086 1228.281746 186.819121 1238.900283 183.927759 L 1273.900442 174.519441 C 1273.201654 161.404509 1269.601377 151.753135 1263.109739 145.565317 C 1256.663674 139.33699 1247.690832 136.222827 1236.201342 136.222827 C 1228.129835 136.222827 1220.255812 138.177408 1212.579273 142.081505 C 1204.948307 145.94003 1197.732562 151.991128 1190.93204 160.239863 L 1188.496409 158.067544 C 1196.218522 148.547825 1204.968561 141.048514 1214.751592 135.564549 C 1224.575132 130.085646 1235.325325 127.341132 1246.992044 127.341132 C 1263.307222 127.341132 1275.3284 131.619942 1283.045448 140.172498 C 1290.813134 148.679481 1294.691913 160.589257 1294.691913 175.896762 L 1294.691913 229.784448 C 1294.691913 240.75238 1295.441338 248.297264 1296.93006 252.419099 C 1298.464355 256.540935 1301.315207 259.239877 1305.482616 260.510861 L 1305.482616 263.999736 Z M 1198.760489 223.865006 C 1198.760489 232.6353 1201.393603 239.324422 1206.659831 243.932371 C 1211.966568 248.494747 1218.478461 250.773403 1226.200573 250.773403 C 1233.396063 250.773403 1239.907956 248.758059 1245.741315 244.722305 C 1251.574675 240.686552 1256.552273 235.445643 1260.679172 228.994514 C 1264.841518 222.502876 1268.087337 215.484615 1270.41663 207.939731 C 1272.740859 200.394848 1273.900442 193.118339 1273.900442 186.100078 L 1273.900442 178.003253 L 1239.953529 187.214088 C 1233.330235 189.016758 1226.813278 191.406815 1220.407723 194.389323 C 1214.04774 197.326258 1208.852404 201.144272 1204.816651 205.838304 C 1200.780898 210.486763 1198.760489 216.497351 1198.760489 223.865006 Z M 1359.886797 338.678894 C 1353.045765 338.678894 1346.245243 337.580075 1339.490293 335.387502 C 1332.780917 333.240501 1327.165295 329.731371 1322.648492 324.86011 C 1318.172199 320.034423 1315.939116 313.588358 1315.939116 305.516851 C 1315.939116 297.050378 1319.119107 289.267501 1325.47909 282.158094 C 1331.879581 275.099324 1340.568857 268.232973 1351.531725 261.564106 C 1345.435054 260.115894 1340.634685 257.837237 1337.125554 254.723074 C 1333.616424 251.563338 1331.859327 247.112362 1331.859327 241.365085 C 1331.859327 236.32166 1333.788589 231.956767 1337.652177 228.270408 C 1341.510701 224.589112 1346.138905 221.034409 1351.531725 217.611361 C 1344.908431 214.061721 1339.292809 209.104378 1334.689924 202.744395 C 1330.127548 196.33884 1327.843828 188.181251 1327.843828 178.266565 C 1327.843828 168.751909 1330.345286 160.174035 1335.348202 152.543069 C 1340.391628 144.907039 1346.994667 138.810368 1355.152256 134.247992 C 1363.355418 129.645106 1372.03963 127.341132 1381.204892 127.341132 C 1384.410201 127.341132 1387.721848 127.584188 1391.139832 128.065238 C 1394.56288 128.505778 1397.808699 129.164057 1400.87729 130.040073 C 1402.284993 128.242467 1403.75346 126.510688 1405.287755 124.839674 C 1406.82205 123.133213 1408.488001 121.639428 1410.290671 120.368444 C 1414.412507 116.773231 1418.949565 113.851487 1423.906908 111.618404 C 1428.864251 109.380258 1434.565955 108.261184 1441.017084 108.261184 C 1445.138919 108.261184 1448.496139 108.853635 1451.08368 110.038536 C 1453.71173 111.177864 1455.028287 112.737478 1455.028287 114.707249 C 1455.028287 117.031479 1453.671221 119.907649 1450.952024 123.330697 C 1448.273337 126.748681 1444.526214 128.460205 1439.700527 128.460205 C 1436.277479 128.460205 1432.484782 127.867754 1428.317373 126.682853 C 1424.195538 125.497952 1419.08122 124.029485 1412.984549 122.277451 C 1410.093188 124.424452 1407.217017 127.472787 1404.366165 131.422458 C 1412.614901 134.27331 1419.653416 139.119252 1425.486776 145.960284 C 1431.365709 152.80638 1434.302643 162.057724 1434.302643 173.729507 C 1434.302643 181.446556 1432.591119 188.424308 1429.173135 194.652634 C 1425.750087 200.835388 1421.344685 206.167443 1415.946802 210.638673 C 1410.553983 215.114967 1404.806706 218.532951 1398.710034 220.902753 C 1392.613363 223.226982 1386.77494 224.391629 1381.204892 224.391629 C 1377.037483 224.391629 1372.677654 223.996662 1368.115278 223.206728 C 1363.552902 222.37122 1359.188009 221.059727 1355.020601 219.257057 C 1352.169749 221.231892 1349.845519 223.075072 1348.047913 224.786596 C 1346.245243 226.49812 1345.348971 228.599547 1345.348971 231.101005 C 1345.521136 234.701282 1347.936512 237.592643 1352.58497 239.785217 C 1357.279002 241.937281 1364.737803 243.274093 1374.95631 243.800716 L 1408.974114 245.973034 C 1418.093803 246.499657 1425.83617 247.487075 1432.196152 248.930224 C 1438.601708 250.337927 1443.513478 252.834321 1446.936526 256.434598 C 1450.359574 260.029811 1452.071098 265.336548 1452.071098 272.354809 C 1452.071098 280.076921 1449.412666 287.839543 1444.105929 295.647738 C 1438.799192 303.455933 1431.649275 310.585595 1422.656179 317.03166 C 1413.708656 323.523299 1403.799033 328.743953 1392.917184 332.68856 C 1382.040399 336.683804 1371.031958 338.678894 1359.886797 338.678894 Z M 1334.031646 295.516083 C 1334.031646 305.207967 1337.758514 312.798424 1345.217315 318.282389 C 1352.671053 323.766355 1362.69714 326.505806 1375.285449 326.505806 C 1383.883578 326.505806 1392.12725 325.30065 1400.026591 322.885275 C 1407.961378 320.474963 1415.070786 317.183571 1421.344685 313.016162 C 1427.613522 308.894326 1432.55061 304.311695 1436.145823 299.26827 C 1439.741036 294.265354 1441.543706 289.070018 1441.543706 283.672134 C 1441.543706 277.398235 1438.844765 273.038406 1433.446881 270.577457 C 1428.054062 268.167145 1419.785072 266.607532 1408.644975 265.908744 L 1370.940812 263.999736 C 1365.547992 263.650342 1360.438739 263.098401 1355.613051 262.35404 C 1347.850429 267.574695 1342.300636 272.972578 1338.96367 278.542626 C 1335.677342 284.112675 1334.031646 289.768806 1334.031646 295.516083 Z M 1347.52129 166.422617 C 1347.52129 172.347122 1348.351734 178.423539 1350.017684 184.651866 C 1351.729208 190.834619 1354.250921 196.62747 1357.587886 202.020289 C 1360.919788 207.413109 1365.001114 211.778001 1369.821738 215.114967 C 1374.692999 218.401295 1380.176964 220.046991 1386.273636 220.046991 C 1396.360487 220.046991 1403.642059 216.649262 1408.118352 209.848739 C 1412.635155 203.007707 1414.893557 195.002028 1414.893557 185.836767 C 1414.893557 179.735032 1413.951712 173.466196 1412.062959 167.015067 C 1410.17927 160.523429 1407.480329 154.538159 1403.971198 149.054193 C 1400.462068 143.570227 1396.228831 139.18508 1391.271488 135.893688 C 1386.359718 132.561786 1380.835243 131.068 1374.692999 131.422458 C 1365.17328 131.771852 1358.26642 135.326556 1353.967355 142.081505 C 1349.66829 148.790882 1347.52129 156.907961 1347.52129 166.422617 Z M 1533.206448 266.698678 C 1524.567809 266.698678 1516.055762 265.361866 1507.680435 262.68318 C 1499.345617 259.963983 1491.75516 255.821893 1484.914128 250.246781 C 1478.113606 244.676732 1472.675213 237.592643 1468.59895 228.994514 C 1464.563197 220.355876 1462.542789 210.203197 1462.542789 198.531413 C 1462.542789 184.494892 1465.879754 172.149639 1472.543557 161.490592 C 1479.212424 150.785972 1487.916891 142.430899 1498.667084 136.420311 C 1509.457787 130.369213 1520.972596 127.341132 1533.206448 127.341132 C 1541.632412 127.341132 1549.967229 128.657689 1558.210901 131.290802 C 1566.500146 133.878343 1574.045029 137.954606 1580.845552 143.529718 C 1587.686584 149.099766 1593.17055 156.20411 1597.292386 164.847812 C 1601.459795 173.440877 1603.546031 183.770785 1603.546031 195.837536 C 1603.546031 207.327026 1601.419285 217.484769 1597.16073 226.300636 C 1592.952812 235.070931 1587.33719 242.484159 1580.318929 248.54032 C 1573.346242 254.545845 1565.710212 259.087966 1557.420967 262.156557 C 1549.177295 265.184638 1541.105789 266.698678 1533.206448 266.698678 Z M 1483.33426 183.137825 C 1483.33426 191.776464 1484.671072 200.637904 1487.349759 209.717083 C 1490.068955 218.796262 1493.927479 227.196908 1498.930395 234.91902 C 1503.973821 242.636069 1510.050237 248.930224 1517.154581 253.801484 C 1524.258924 258.627172 1532.289921 261.037483 1541.237445 261.037483 C 1550.974902 261.037483 1558.889434 258.758827 1564.986105 254.196451 C 1571.082776 249.588502 1575.604643 243.517149 1578.541578 235.972266 C 1581.524085 228.427382 1583.017871 220.335621 1583.017871 211.691919 C 1583.017871 203.093789 1581.569658 194.080438 1578.673233 184.651866 C 1575.822381 175.218229 1571.741055 166.46819 1566.434318 158.396683 C 1561.173154 150.284667 1554.853681 143.813284 1547.486026 138.987596 C 1540.118371 134.1214 1532.02661 131.949081 1523.205679 132.475704 C 1514.040418 132.825098 1506.495534 135.34681 1500.576092 140.040842 C 1494.651586 144.689301 1490.286693 150.785972 1487.481414 158.330855 C 1484.716645 165.875739 1483.33426 174.144729 1483.33426 183.137825 Z M 1629.912614 298.215024 C 1636.930875 294.614748 1642.11102 289.768806 1645.442922 283.672134 C 1648.774824 277.575463 1650.618003 271.10408 1650.967397 264.263048 C 1649.873642 264.612442 1648.820397 264.921326 1647.812724 265.184638 C 1646.845561 265.493522 1645.726488 265.645432 1644.455504 265.645432 C 1640.900801 265.645432 1637.811956 264.34913 1635.178842 261.76159 C 1632.591301 259.13354 1631.294999 256.014313 1631.294999 252.419099 C 1631.294999 247.902297 1632.636874 244.215937 1635.310498 241.365085 C 1638.029694 238.46866 1641.538824 237.025511 1645.837889 237.025511 C 1651.058543 237.025511 1655.225952 238.823118 1658.340116 242.418331 C 1661.494789 246.013544 1662.988574 251.148116 1662.811346 257.816983 C 1662.811346 264.263048 1661.27705 270.405292 1658.20846 276.238652 C 1655.180379 282.072011 1651.230709 287.095182 1646.364512 291.303101 C 1641.538824 295.561656 1636.429571 298.675819 1631.031688 300.650655 Z M 1749.329388 263.999736 L 1749.329388 260.510861 C 1753.451223 259.239877 1756.281821 256.540935 1757.816116 252.419099 C 1759.350411 248.297264 1760.12009 240.75238 1760.12009 229.784448 L 1760.12009 109.577741 C 1760.12009 98.437644 1759.350411 90.847188 1757.816116 86.811434 C 1756.281821 82.775681 1753.451223 80.122313 1749.329388 78.851329 L 1749.329388 75.362453 L 1804.007008 75.362453 C 1822.691988 75.362453 1837.386788 77.975312 1848.086345 83.190903 C 1858.790965 88.371048 1866.381422 95.014597 1870.852652 103.126612 C 1875.369455 111.198119 1877.627856 119.644338 1877.627856 128.460205 C 1877.627856 146.400824 1871.202046 161.029797 1858.350425 172.347122 C 1845.498804 183.664448 1826.484685 189.320579 1801.308066 189.320579 L 1782.228119 189.320579 L 1782.228119 229.784448 C 1782.228119 240.75238 1782.97248 248.297264 1784.461202 252.419099 C 1786.00056 256.540935 1788.826094 259.239877 1792.952994 260.510861 L 1792.952994 263.999736 Z M 1782.228119 185.310144 L 1800.781443 185.310144 C 1818.018211 185.310144 1831.178716 180.813596 1840.257895 171.8205 C 1849.337074 162.827403 1853.879195 150.436578 1853.879195 134.642959 C 1853.879195 124.951075 1851.858787 115.937724 1847.823034 107.602906 C 1843.78728 99.227579 1837.36147 92.427056 1828.545603 87.206401 C 1819.729735 81.985747 1808.063016 79.377952 1793.545444 79.377952 C 1791.742774 79.377952 1789.793257 79.418461 1787.686766 79.509607 C 1785.625848 79.59569 1783.802923 79.727346 1782.228119 79.904574 Z M 1914.542086 265.908744 C 1910.769644 265.908744 1907.478252 264.480786 1904.672973 261.629934 C 1901.908203 258.738573 1900.525818 255.29527 1900.525818 251.300026 C 1900.525818 247.355419 1901.908203 243.998199 1904.672973 241.23343 C 1907.478252 238.428151 1910.769644 237.025511 1914.542086 237.025511 C 1918.314527 237.025511 1921.535028 238.428151 1924.213715 241.23343 C 1926.932911 243.998199 1928.289978 247.355419 1928.289978 251.300026 C 1928.289978 255.29527 1926.932911 258.738573 1924.213715 261.629934 C 1921.535028 264.480786 1918.314527 265.908744 1914.542086 265.908744 Z M 1914.542086 265.908744 " stroke="#212737" stroke-width="6.7376" stroke-opacity="1" stroke-miterlimit="4"/><g fill="#ffffff" fill-opacity="1"><g transform="translate(0.000000000000085265, 158.625203)"><g><path d="M 10.390625 0 L 10.390625 -2.703125 C 13.578125 -3.671875 15.757812 -5.75 16.9375 -8.9375 C 18.125 -12.125 18.71875 -17.945312 18.71875 -26.40625 L 18.71875 -110.8125 C 18.71875 -118.71875 18.226562 -124.851562 17.25 -129.21875 C 16.28125 -133.582031 14.859375 -136.734375 12.984375 -138.671875 C 11.117188 -140.609375 8.800781 -141.992188 6.03125 -142.828125 L 6.03125 -145.53125 L 31.1875 -145.53125 L 85.453125 -55.921875 L 138.671875 -145.53125 L 162.171875 -145.53125 L 162.171875 -142.828125 C 159.398438 -141.992188 157.078125 -140.609375 155.203125 -138.671875 C 153.328125 -136.734375 151.90625 -133.582031 150.9375 -129.21875 C 149.96875 -124.851562 149.484375 -118.71875 149.484375 -110.8125 L 149.484375 -26.40625 C 149.484375 -17.945312 150.070312 -12.125 151.25 -8.9375 C 152.425781 -5.75 154.609375 -3.671875 157.796875 -2.703125 L 157.796875 0 L 124.125 0 L 124.125 -2.703125 C 127.3125 -3.671875 129.492188 -5.75 130.671875 -8.9375 C 131.847656 -12.125 132.4375 -17.945312 132.4375 -26.40625 L 132.4375 -128.6875 L 79.625 -39.5 L 75.671875 -39.5 L 22.453125 -127.03125 L 22.453125 -34.71875 C 22.453125 -26.820312 23.003906 -20.722656 24.109375 -16.421875 C 25.222656 -12.128906 26.816406 -8.976562 28.890625 -6.96875 C 30.972656 -4.957031 33.539062 -3.535156 36.59375 -2.703125 L 36.59375 0 Z M 10.390625 0 "/></g></g></g><g fill="#ffffff" fill-opacity="1"><g transform="translate(172.763833, 158.625203)"><g><path d="M 87.109375 0 C 82.953125 0 80.875 -2.078125 80.875 -6.234375 L 80.875 -43.65625 C 78.789062 -35.207031 75.53125 -27.515625 71.09375 -20.578125 C 66.664062 -13.648438 61.503906 -8.140625 55.609375 -4.046875 C 49.722656 0.0351562 43.316406 2.078125 36.390625 2.078125 C 31.253906 2.078125 26.46875 1.039062 22.03125 -1.03125 C 17.601562 -3.113281 14.035156 -6.164062 11.328125 -10.1875 C 8.628906 -14.207031 7.28125 -19.195312 7.28125 -25.15625 C 7.28125 -32.363281 9.425781 -38.253906 13.71875 -42.828125 C 18.019531 -47.398438 23.738281 -51.140625 30.875 -54.046875 C 38.007812 -56.960938 45.664062 -59.53125 53.84375 -61.75 L 80.875 -69.03125 C 80.320312 -79.144531 77.550781 -86.59375 72.5625 -91.375 C 67.570312 -96.15625 60.640625 -98.546875 51.765625 -98.546875 C 45.523438 -98.546875 39.457031 -97.054688 33.5625 -94.078125 C 27.675781 -91.097656 22.101562 -86.421875 16.84375 -80.046875 L 14.96875 -81.703125 C 20.925781 -89.046875 27.679688 -94.832031 35.234375 -99.0625 C 42.796875 -103.289062 51.078125 -105.40625 60.078125 -105.40625 C 72.691406 -105.40625 81.976562 -102.113281 87.9375 -95.53125 C 93.90625 -88.945312 96.890625 -79.765625 96.890625 -67.984375 L 96.890625 -26.40625 C 96.890625 -17.945312 97.476562 -12.125 98.65625 -8.9375 C 99.832031 -5.75 102.015625 -3.671875 105.203125 -2.703125 L 105.203125 0 Z M 22.875 -30.984375 C 22.875 -24.191406 24.914062 -19.023438 29 -15.484375 C 33.09375 -11.953125 38.117188 -10.1875 44.078125 -10.1875 C 49.617188 -10.1875 54.640625 -11.742188 59.140625 -14.859375 C 63.648438 -17.984375 67.5 -22.039062 70.6875 -27.03125 C 73.875 -32.019531 76.367188 -37.421875 78.171875 -43.234375 C 79.972656 -49.054688 80.875 -54.671875 80.875 -60.078125 L 80.875 -66.328125 L 54.671875 -59.25 C 49.546875 -57.863281 44.519531 -56.023438 39.59375 -53.734375 C 34.675781 -51.453125 30.660156 -48.507812 27.546875 -44.90625 C 24.429688 -41.300781 22.875 -36.660156 22.875 -30.984375 Z M 22.875 -30.984375 "/></g></g></g><g fill="#ffffff" fill-opacity="1"><g transform="translate(282.950139, 158.625203)"><g><path d="M 46.984375 1.875 C 38.671875 1.875 31.148438 0.835938 24.421875 -1.234375 C 17.703125 -3.316406 12.609375 -5.46875 9.140625 -7.6875 L 7.28125 -32.84375 L 9.140625 -33.265625 C 13.578125 -23.421875 19.398438 -15.691406 26.609375 -10.078125 C 33.816406 -4.460938 42.132812 -1.585938 51.5625 -1.453125 C 58.070312 -1.453125 63.441406 -3.21875 67.671875 -6.75 C 71.898438 -10.289062 74.015625 -14.972656 74.015625 -20.796875 C 74.015625 -25.785156 72.59375 -29.800781 69.75 -32.84375 C 66.90625 -35.894531 63.160156 -38.390625 58.515625 -40.328125 C 53.878906 -42.273438 48.859375 -44.078125 43.453125 -45.734375 C 36.941406 -47.816406 31.117188 -50 25.984375 -52.28125 C 20.859375 -54.570312 16.835938 -57.585938 13.921875 -61.328125 C 11.015625 -65.078125 9.5625 -70.066406 9.5625 -76.296875 C 9.5625 -84.472656 12.851562 -91.367188 19.4375 -96.984375 C 26.019531 -102.597656 35.34375 -105.40625 47.40625 -105.40625 C 54.195312 -105.40625 60.46875 -104.816406 66.21875 -103.640625 C 71.96875 -102.460938 76.4375 -101.179688 79.625 -99.796875 L 80.453125 -78.59375 L 78.375 -78.171875 C 75.050781 -85.660156 70.269531 -91.617188 64.03125 -96.046875 C 57.789062 -100.484375 51 -102.703125 43.65625 -102.703125 C 36.59375 -102.703125 30.945312 -101.109375 26.71875 -97.921875 C 22.488281 -94.734375 20.375 -90.503906 20.375 -85.234375 C 20.375 -80.941406 21.722656 -77.335938 24.421875 -74.421875 C 27.128906 -71.515625 30.734375 -69.054688 35.234375 -67.046875 C 39.742188 -65.035156 44.703125 -63.128906 50.109375 -61.328125 C 54.128906 -60.085938 58.179688 -58.738281 62.265625 -57.28125 C 66.359375 -55.820312 70.101562 -54.019531 73.5 -51.875 C 76.894531 -49.726562 79.664062 -46.957031 81.8125 -43.5625 C 83.957031 -40.164062 85.03125 -35.832031 85.03125 -30.5625 C 85.03125 -24.738281 83.609375 -19.363281 80.765625 -14.4375 C 77.929688 -9.519531 73.671875 -5.609375 67.984375 -2.703125 C 62.304688 0.203125 55.304688 1.726562 46.984375 1.875 Z M 46.984375 1.875 "/></g></g></g><g fill="#ffffff" fill-opacity="1"><g transform="translate(375.465071, 158.625203)"><g><path d="M 10.8125 -50.515625 L 10.8125 -53.4375 L 65.078125 -53.4375 L 65.078125 -50.515625 Z M 10.8125 -50.515625 "/></g></g></g><g fill="#ffffff" fill-opacity="1"><g transform="translate(451.348081, 158.625203)"><g><path d="M 10.609375 0 L 10.609375 -2.703125 C 13.796875 -3.671875 15.976562 -5.75 17.15625 -8.9375 C 18.332031 -12.125 18.921875 -17.945312 18.921875 -26.40625 L 18.921875 -119.125 C 18.921875 -127.71875 18.332031 -133.570312 17.15625 -136.6875 C 15.976562 -139.8125 13.796875 -141.859375 10.609375 -142.828125 L 10.609375 -145.53125 L 59.25 -145.53125 C 75.332031 -145.53125 86.875 -143.066406 93.875 -138.140625 C 100.875 -133.222656 104.375 -126.539062 104.375 -118.09375 C 104.375 -111.019531 101.878906 -104.570312 96.890625 -98.75 C 91.898438 -92.925781 83.441406 -88.910156 71.515625 -86.703125 C 82.878906 -86.140625 92.164062 -84.054688 99.375 -80.453125 C 106.582031 -76.847656 111.914062 -72.203125 115.375 -66.515625 C 118.84375 -60.835938 120.578125 -54.601562 120.578125 -47.8125 C 120.722656 -42 119.613281 -36.25 117.25 -30.5625 C 114.894531 -24.875 111.082031 -19.742188 105.8125 -15.171875 C 100.550781 -10.597656 93.585938 -6.925781 84.921875 -4.15625 C 76.265625 -1.382812 65.628906 0 53.015625 0 Z M 35.96875 -21.203125 C 35.96875 -13.722656 36.660156 -8.835938 38.046875 -6.546875 C 39.429688 -4.265625 42.34375 -3.125 46.78125 -3.125 L 54.890625 -3.125 C 66.253906 -3.125 75.332031 -4.820312 82.125 -8.21875 C 88.914062 -11.613281 93.867188 -16.289062 96.984375 -22.25 C 100.109375 -28.207031 101.671875 -35 101.671875 -42.625 C 101.671875 -50.65625 100.144531 -57.753906 97.09375 -63.921875 C 94.039062 -70.097656 89.222656 -74.988281 82.640625 -78.59375 C 76.054688 -82.195312 67.566406 -84 57.171875 -84 L 35.96875 -84 Z M 35.96875 -87.109375 L 55.296875 -87.109375 C 65.554688 -87.109375 73.144531 -89.738281 78.0625 -95 C 82.988281 -100.269531 85.453125 -106.71875 85.453125 -114.34375 C 85.453125 -122.9375 82.503906 -129.765625 76.609375 -134.828125 C 70.722656 -139.890625 62.441406 -142.421875 51.765625 -142.421875 L 35.96875 -142.421875 Z M 35.96875 -87.109375 "/></g></g></g><g fill="#ffffff" fill-opacity="1"><g transform="translate(578.582086, 158.625203)"><g><path d="M 45.328125 2.078125 C 34.378906 2.078125 26.335938 -1.242188 21.203125 -7.890625 C 16.078125 -14.546875 13.515625 -23.835938 13.515625 -35.765625 L 13.515625 -74.21875 C 13.515625 -79.070312 13.203125 -82.710938 12.578125 -85.140625 C 11.953125 -87.566406 11.050781 -89.332031 9.875 -90.4375 C 8.695312 -91.550781 7.140625 -92.519531 5.203125 -93.34375 L 5.203125 -95.640625 L 27.859375 -105.609375 L 29.734375 -104.15625 L 29.734375 -39.5 C 29.734375 -27.71875 31.535156 -19.054688 35.140625 -13.515625 C 38.742188 -7.972656 44.703125 -5.203125 53.015625 -5.203125 C 59.109375 -5.203125 64.925781 -6.898438 70.46875 -10.296875 C 76.019531 -13.691406 81.148438 -17.882812 85.859375 -22.875 L 85.859375 -74.21875 C 85.859375 -79.070312 85.546875 -82.710938 84.921875 -85.140625 C 84.304688 -87.566406 83.40625 -89.332031 82.21875 -90.4375 C 81.039062 -91.550781 79.484375 -92.519531 77.546875 -93.34375 L 77.546875 -95.640625 L 100.203125 -105.609375 L 102.078125 -104.15625 L 102.078125 -26.40625 C 102.078125 -17.945312 102.664062 -12.125 103.84375 -8.9375 C 105.019531 -5.75 107.203125 -3.671875 110.390625 -2.703125 L 110.390625 0 L 92.71875 0 C 90.507812 0 88.8125 -0.625 87.625 -1.875 C 86.445312 -3.125 85.859375 -5.269531 85.859375 -8.3125 L 85.859375 -18.921875 C 80.597656 -13.378906 74.46875 -8.492188 67.46875 -4.265625 C 60.46875 -0.0351562 53.085938 2.078125 45.328125 2.078125 Z M 45.328125 2.078125 "/></g></g></g><g fill="#ffffff" fill-opacity="1"><g transform="translate(696.252755, 158.625203)"><g><path d="M 6.65625 0 L 6.65625 -2.703125 C 9.84375 -3.671875 12.023438 -5.75 13.203125 -8.9375 C 14.378906 -12.125 14.96875 -17.945312 14.96875 -26.40625 L 14.96875 -74.21875 C 14.96875 -79.070312 14.691406 -82.710938 14.140625 -85.140625 C 13.585938 -87.566406 12.6875 -89.332031 11.4375 -90.4375 C 10.1875 -91.550781 8.59375 -92.519531 6.65625 -93.34375 L 6.65625 -95.640625 L 29.515625 -105.609375 L 31.1875 -104.15625 L 31.1875 -26.40625 C 31.1875 -17.945312 31.804688 -12.125 33.046875 -8.9375 C 34.296875 -5.75 36.445312 -3.671875 39.5 -2.703125 L 39.5 0 Z M 10.390625 -129.734375 C 10.390625 -133.054688 11.5 -135.828125 13.71875 -138.046875 C 15.9375 -140.265625 18.640625 -141.375 21.828125 -141.375 C 25.148438 -141.375 27.882812 -140.265625 30.03125 -138.046875 C 32.1875 -135.828125 33.265625 -133.054688 33.265625 -129.734375 C 33.265625 -126.679688 32.15625 -124.007812 29.9375 -121.71875 C 27.71875 -119.4375 25.015625 -118.296875 21.828125 -118.296875 C 18.640625 -118.296875 15.9375 -119.4375 13.71875 -121.71875 C 11.5 -124.007812 10.390625 -126.679688 10.390625 -129.734375 Z M 10.390625 -129.734375 "/></g></g></g><g fill="#ffffff" fill-opacity="1"><g transform="translate(743.029959, 158.625203)"><g><path d="M 39.296875 2.078125 C 32.773438 2.078125 27.644531 -0.171875 23.90625 -4.671875 C 20.164062 -9.179688 18.296875 -16.84375 18.296875 -27.65625 L 18.296875 -101.046875 L 4.984375 -101.046875 L 4.984375 -103.953125 L 31.609375 -129.53125 L 34.515625 -129.53125 L 34.515625 -103.953125 L 66.109375 -103.953125 L 65.078125 -101.046875 L 34.515625 -101.046875 L 34.515625 -27.65625 C 34.515625 -20.582031 35.863281 -15.554688 38.5625 -12.578125 C 41.269531 -9.597656 44.84375 -8.109375 49.28125 -8.109375 C 52.1875 -8.109375 55.367188 -8.90625 58.828125 -10.5 C 62.296875 -12.09375 65.765625 -14.898438 69.234375 -18.921875 L 71.109375 -17.046875 C 66.671875 -11.921875 61.78125 -7.453125 56.4375 -3.640625 C 51.101562 0.171875 45.390625 2.078125 39.296875 2.078125 Z M 39.296875 2.078125 "/></g></g></g><g fill="#ffffff" fill-opacity="1"><g transform="translate(814.5471, 158.625203)"><g><path d="M 6.65625 0 L 6.65625 -2.703125 C 9.84375 -3.671875 12.023438 -5.75 13.203125 -8.9375 C 14.378906 -12.125 14.96875 -17.945312 14.96875 -26.40625 L 14.96875 -74.21875 C 14.96875 -79.070312 14.65625 -82.710938 14.03125 -85.140625 C 13.40625 -87.566406 12.503906 -89.332031 11.328125 -90.4375 C 10.148438 -91.550781 8.59375 -92.519531 6.65625 -93.34375 L 6.65625 -95.640625 L 29.3125 -105.609375 L 31.1875 -104.15625 L 31.1875 -78.171875 C 32.851562 -82.191406 35.035156 -85.929688 37.734375 -89.390625 C 40.441406 -92.859375 43.316406 -95.703125 46.359375 -97.921875 C 49.546875 -100.273438 53.046875 -102.109375 56.859375 -103.421875 C 60.671875 -104.742188 65.070312 -105.40625 70.0625 -105.40625 C 74.21875 -105.40625 77.507812 -104.921875 79.9375 -103.953125 C 82.363281 -102.984375 83.578125 -101.597656 83.578125 -99.796875 C 83.578125 -97.578125 82.503906 -95.046875 80.359375 -92.203125 C 78.210938 -89.359375 75.265625 -87.9375 71.515625 -87.9375 C 68.742188 -87.9375 65.242188 -88.457031 61.015625 -89.5 C 56.785156 -90.539062 51.625 -91.960938 45.53125 -93.765625 C 43.59375 -92.378906 41.546875 -90.265625 39.390625 -87.421875 C 37.242188 -84.578125 35.441406 -81.421875 33.984375 -77.953125 C 32.535156 -74.492188 31.671875 -71.101562 31.390625 -67.78125 L 31.1875 -67.78125 L 31.1875 -26.40625 C 31.1875 -17.945312 31.773438 -12.125 32.953125 -8.9375 C 34.128906 -5.75 36.3125 -3.671875 39.5 -2.703125 L 39.5 0 Z M 6.65625 0 "/></g></g></g><g fill="#ffffff" fill-opacity="1"><g transform="translate(901.864565, 158.625203)"><g><path d="M 87.109375 0 C 82.953125 0 80.875 -2.078125 80.875 -6.234375 L 80.875 -43.65625 C 78.789062 -35.207031 75.53125 -27.515625 71.09375 -20.578125 C 66.664062 -13.648438 61.503906 -8.140625 55.609375 -4.046875 C 49.722656 0.0351562 43.316406 2.078125 36.390625 2.078125 C 31.253906 2.078125 26.46875 1.039062 22.03125 -1.03125 C 17.601562 -3.113281 14.035156 -6.164062 11.328125 -10.1875 C 8.628906 -14.207031 7.28125 -19.195312 7.28125 -25.15625 C 7.28125 -32.363281 9.425781 -38.253906 13.71875 -42.828125 C 18.019531 -47.398438 23.738281 -51.140625 30.875 -54.046875 C 38.007812 -56.960938 45.664062 -59.53125 53.84375 -61.75 L 80.875 -69.03125 C 80.320312 -79.144531 77.550781 -86.59375 72.5625 -91.375 C 67.570312 -96.15625 60.640625 -98.546875 51.765625 -98.546875 C 45.523438 -98.546875 39.457031 -97.054688 33.5625 -94.078125 C 27.675781 -91.097656 22.101562 -86.421875 16.84375 -80.046875 L 14.96875 -81.703125 C 20.925781 -89.046875 27.679688 -94.832031 35.234375 -99.0625 C 42.796875 -103.289062 51.078125 -105.40625 60.078125 -105.40625 C 72.691406 -105.40625 81.976562 -102.113281 87.9375 -95.53125 C 93.90625 -88.945312 96.890625 -79.765625 96.890625 -67.984375 L 96.890625 -26.40625 C 96.890625 -17.945312 97.476562 -12.125 98.65625 -8.9375 C 99.832031 -5.75 102.015625 -3.671875 105.203125 -2.703125 L 105.203125 0 Z M 22.875 -30.984375 C 22.875 -24.191406 24.914062 -19.023438 29 -15.484375 C 33.09375 -11.953125 38.117188 -10.1875 44.078125 -10.1875 C 49.617188 -10.1875 54.640625 -11.742188 59.140625 -14.859375 C 63.648438 -17.984375 67.5 -22.039062 70.6875 -27.03125 C 73.875 -32.019531 76.367188 -37.421875 78.171875 -43.234375 C 79.972656 -49.054688 80.875 -54.671875 80.875 -60.078125 L 80.875 -66.328125 L 54.671875 -59.25 C 49.546875 -57.863281 44.519531 -56.023438 39.59375 -53.734375 C 34.675781 -51.453125 30.660156 -48.507812 27.546875 -44.90625 C 24.429688 -41.300781 22.875 -36.660156 22.875 -30.984375 Z M 22.875 -30.984375 "/></g></g></g><g fill="#ffffff" fill-opacity="1"><g transform="translate(1012.050848, 158.625203)"><g><path d="M 37 57.59375 C 31.738281 57.59375 26.507812 56.757812 21.3125 55.09375 C 16.113281 53.425781 11.78125 50.722656 8.3125 46.984375 C 4.851562 43.242188 3.125 38.253906 3.125 32.015625 C 3.125 25.503906 5.582031 19.507812 10.5 14.03125 C 15.414062 8.5625 22.101562 3.257812 30.5625 -1.875 C 25.851562 -2.976562 22.144531 -4.742188 19.4375 -7.171875 C 16.738281 -9.597656 15.390625 -13.03125 15.390625 -17.46875 C 15.390625 -21.34375 16.878906 -24.703125 19.859375 -27.546875 C 22.835938 -30.390625 26.40625 -33.128906 30.5625 -35.765625 C 25.4375 -38.535156 21.101562 -42.378906 17.5625 -47.296875 C 14.03125 -52.210938 12.265625 -58.484375 12.265625 -66.109375 C 12.265625 -73.460938 14.203125 -80.082031 18.078125 -85.96875 C 21.960938 -91.863281 27.054688 -96.578125 33.359375 -100.109375 C 39.671875 -103.640625 46.363281 -105.40625 53.4375 -105.40625 C 55.925781 -105.40625 58.488281 -105.234375 61.125 -104.890625 C 63.757812 -104.546875 66.253906 -104.023438 68.609375 -103.328125 C 69.710938 -104.710938 70.851562 -106.0625 72.03125 -107.375 C 73.21875 -108.695312 74.503906 -109.84375 75.890625 -110.8125 C 79.078125 -113.582031 82.578125 -115.832031 86.390625 -117.5625 C 90.203125 -119.300781 94.601562 -120.171875 99.59375 -120.171875 C 102.78125 -120.171875 105.375 -119.71875 107.375 -118.8125 C 109.382812 -117.914062 110.390625 -116.707031 110.390625 -115.1875 C 110.390625 -113.382812 109.347656 -111.164062 107.265625 -108.53125 C 105.191406 -105.894531 102.285156 -104.578125 98.546875 -104.578125 C 95.910156 -104.578125 93 -105.023438 89.8125 -105.921875 C 86.625 -106.828125 82.675781 -107.972656 77.96875 -109.359375 C 75.75 -107.691406 73.53125 -105.335938 71.3125 -102.296875 C 77.6875 -100.078125 83.125 -96.332031 87.625 -91.0625 C 92.132812 -85.789062 94.390625 -78.65625 94.390625 -69.65625 C 94.390625 -63.6875 93.070312 -58.3125 90.4375 -53.53125 C 87.800781 -48.75 84.40625 -44.625 80.25 -41.15625 C 76.09375 -37.695312 71.65625 -35.066406 66.9375 -33.265625 C 62.226562 -31.460938 57.726562 -30.5625 53.4375 -30.5625 C 50.25 -30.5625 46.882812 -30.875 43.34375 -31.5 C 39.8125 -32.125 36.453125 -33.128906 33.265625 -34.515625 C 31.046875 -32.984375 29.242188 -31.5625 27.859375 -30.25 C 26.472656 -28.9375 25.78125 -27.304688 25.78125 -25.359375 C 25.914062 -22.585938 27.785156 -20.367188 31.390625 -18.703125 C 34.992188 -17.046875 40.75 -16.007812 48.65625 -15.59375 L 74.84375 -13.9375 C 81.914062 -13.519531 87.910156 -12.753906 92.828125 -11.640625 C 97.742188 -10.535156 101.519531 -8.59375 104.15625 -5.8125 C 106.789062 -3.039062 108.109375 1.039062 108.109375 6.4375 C 108.109375 12.40625 106.0625 18.398438 101.96875 24.421875 C 97.882812 30.453125 92.375 35.960938 85.4375 40.953125 C 78.507812 45.941406 70.851562 49.960938 62.46875 53.015625 C 54.082031 56.066406 45.59375 57.59375 37 57.59375 Z M 17.046875 24.328125 C 17.046875 31.804688 19.921875 37.660156 25.671875 41.890625 C 31.421875 46.117188 39.148438 48.234375 48.859375 48.234375 C 55.515625 48.234375 61.890625 47.296875 67.984375 45.421875 C 74.085938 43.554688 79.5625 41.03125 84.40625 37.84375 C 89.257812 34.65625 93.070312 31.117188 95.84375 27.234375 C 98.613281 23.359375 100 19.335938 100 15.171875 C 100 10.328125 97.921875 6.96875 93.765625 5.09375 C 89.609375 3.21875 83.234375 2.003906 74.640625 1.453125 L 45.53125 0 C 41.375 -0.28125 37.425781 -0.695312 33.6875 -1.25 C 27.71875 2.769531 23.453125 6.925781 20.890625 11.21875 C 18.328125 15.519531 17.046875 19.890625 17.046875 24.328125 Z M 27.4375 -75.265625 C 27.4375 -70.691406 28.09375 -66.015625 29.40625 -61.234375 C 30.726562 -56.453125 32.671875 -51.976562 35.234375 -47.8125 C 37.804688 -43.65625 40.960938 -40.296875 44.703125 -37.734375 C 48.441406 -35.171875 52.664062 -33.890625 57.375 -33.890625 C 65.144531 -33.890625 70.757812 -36.519531 74.21875 -41.78125 C 77.6875 -47.050781 79.421875 -53.222656 79.421875 -60.296875 C 79.421875 -65.003906 78.691406 -69.851562 77.234375 -74.84375 C 75.773438 -79.832031 73.695312 -84.441406 71 -88.671875 C 68.300781 -92.898438 65.046875 -96.296875 61.234375 -98.859375 C 57.421875 -101.421875 53.15625 -102.566406 48.4375 -102.296875 C 41.09375 -102.015625 35.753906 -99.273438 32.421875 -94.078125 C 29.097656 -88.878906 27.4375 -82.609375 27.4375 -75.265625 Z M 27.4375 -75.265625 "/></g></g></g><g fill="#ffffff" fill-opacity="1"><g transform="translate(1120.781857, 158.625203)"><g><path d="M 61.953125 2.078125 C 55.296875 2.078125 48.742188 1.039062 42.296875 -1.03125 C 35.859375 -3.113281 30.003906 -6.300781 24.734375 -10.59375 C 19.472656 -14.894531 15.28125 -20.367188 12.15625 -27.015625 C 9.039062 -33.671875 7.484375 -41.503906 7.484375 -50.515625 C 7.484375 -61.328125 10.046875 -70.859375 15.171875 -79.109375 C 20.304688 -87.359375 27.03125 -93.800781 35.34375 -98.4375 C 43.65625 -103.082031 52.523438 -105.40625 61.953125 -105.40625 C 68.472656 -105.40625 74.921875 -104.398438 81.296875 -102.390625 C 87.671875 -100.378906 93.488281 -97.222656 98.75 -92.921875 C 104.019531 -88.628906 108.25 -83.15625 111.4375 -76.5 C 114.625 -69.851562 116.21875 -61.882812 116.21875 -52.59375 C 116.21875 -43.726562 114.585938 -35.898438 111.328125 -29.109375 C 108.078125 -22.316406 103.75 -16.597656 98.34375 -11.953125 C 92.9375 -7.304688 87.046875 -3.804688 80.671875 -1.453125 C 74.296875 0.898438 68.054688 2.078125 61.953125 2.078125 Z M 23.5 -62.375 C 23.5 -55.71875 24.535156 -48.890625 26.609375 -41.890625 C 28.691406 -34.890625 31.671875 -28.410156 35.546875 -22.453125 C 39.429688 -16.492188 44.109375 -11.640625 49.578125 -7.890625 C 55.054688 -4.148438 61.257812 -2.28125 68.1875 -2.28125 C 75.675781 -2.28125 81.773438 -4.046875 86.484375 -7.578125 C 91.203125 -11.117188 94.703125 -15.800781 96.984375 -21.625 C 99.273438 -27.445312 100.421875 -33.679688 100.421875 -40.328125 C 100.421875 -46.984375 99.3125 -53.945312 97.09375 -61.21875 C 94.875 -68.5 91.71875 -75.257812 87.625 -81.5 C 83.539062 -87.738281 78.65625 -92.726562 72.96875 -96.46875 C 67.289062 -100.207031 61.054688 -101.867188 54.265625 -101.453125 C 47.191406 -101.179688 41.367188 -99.242188 36.796875 -95.640625 C 32.222656 -92.035156 28.863281 -87.320312 26.71875 -81.5 C 24.570312 -75.675781 23.5 -69.300781 23.5 -62.375 Z M 23.5 -62.375 "/></g></g></g><g fill="#ffffff" fill-opacity="1"><g transform="translate(1245.936913, 158.625203)"><g><path d="M 11.4375 26.40625 C 16.84375 23.632812 20.828125 19.890625 23.390625 15.171875 C 25.953125 10.460938 27.375 5.472656 27.65625 0.203125 C 26.820312 0.484375 26.019531 0.726562 25.25 0.9375 C 24.488281 1.144531 23.625 1.25 22.65625 1.25 C 19.882812 1.25 17.492188 0.242188 15.484375 -1.765625 C 13.472656 -3.773438 12.46875 -6.164062 12.46875 -8.9375 C 12.46875 -12.40625 13.507812 -15.25 15.59375 -17.46875 C 17.675781 -19.6875 20.378906 -20.796875 23.703125 -20.796875 C 27.722656 -20.796875 30.941406 -19.40625 33.359375 -16.625 C 35.785156 -13.851562 36.929688 -9.90625 36.796875 -4.78125 C 36.796875 0.207031 35.617188 4.953125 33.265625 9.453125 C 30.910156 13.960938 27.859375 17.84375 24.109375 21.09375 C 20.367188 24.351562 16.421875 26.75 12.265625 28.28125 Z M 11.4375 26.40625 "/></g></g></g><g fill="#ffffff" fill-opacity="1"><g transform="translate(1295.208865, 158.625203)"><g/></g></g><g fill="#ffffff" fill-opacity="1"><g transform="translate(1338.867551, 158.625203)"><g><path d="M 10.609375 0 L 10.609375 -2.703125 C 13.796875 -3.671875 15.976562 -5.75 17.15625 -8.9375 C 18.332031 -12.125 18.921875 -17.945312 18.921875 -26.40625 L 18.921875 -119.125 C 18.921875 -127.71875 18.332031 -133.570312 17.15625 -136.6875 C 15.976562 -139.8125 13.796875 -141.859375 10.609375 -142.828125 L 10.609375 -145.53125 L 52.8125 -145.53125 C 67.226562 -145.53125 78.554688 -143.519531 86.796875 -139.5 C 95.046875 -135.476562 100.898438 -130.347656 104.359375 -124.109375 C 107.828125 -117.878906 109.5625 -111.367188 109.5625 -104.578125 C 109.5625 -90.710938 104.609375 -79.414062 94.703125 -70.6875 C 84.796875 -61.957031 70.140625 -57.59375 50.734375 -57.59375 L 35.96875 -57.59375 L 35.96875 -26.40625 C 35.96875 -17.945312 36.554688 -12.125 37.734375 -8.9375 C 38.910156 -5.75 41.09375 -3.671875 44.28125 -2.703125 L 44.28125 0 Z M 35.96875 -60.703125 L 50.3125 -60.703125 C 63.613281 -60.703125 73.765625 -64.164062 80.765625 -71.09375 C 87.765625 -78.03125 91.265625 -87.597656 91.265625 -99.796875 C 91.265625 -107.273438 89.707031 -114.238281 86.59375 -120.6875 C 83.476562 -127.132812 78.523438 -132.367188 71.734375 -136.390625 C 64.941406 -140.410156 55.929688 -142.421875 44.703125 -142.421875 C 43.316406 -142.421875 41.828125 -142.382812 40.234375 -142.3125 C 38.640625 -142.238281 37.21875 -142.132812 35.96875 -142 Z M 35.96875 -60.703125 "/></g></g></g><g fill="#ffffff" fill-opacity="1"><g transform="translate(1453.627673, 158.625203)"><g><path d="M 23.28125 1.453125 C 20.375 1.453125 17.84375 0.34375 15.6875 -1.875 C 13.539062 -4.09375 12.46875 -6.722656 12.46875 -9.765625 C 12.46875 -12.816406 13.539062 -15.414062 15.6875 -17.5625 C 17.84375 -19.71875 20.375 -20.796875 23.28125 -20.796875 C 26.195312 -20.796875 28.691406 -19.71875 30.765625 -17.5625 C 32.847656 -15.414062 33.890625 -12.816406 33.890625 -9.765625 C 33.890625 -6.722656 32.847656 -4.09375 30.765625 -1.875 C 28.691406 0.34375 26.195312 1.453125 23.28125 1.453125 Z M 23.28125 1.453125 "/></g></g></g></svg>